<svg width="337" height="540" viewBox="0 0 337 540" fill="none" xmlns="http://www.w3.org/2000/svg">
<path d="M19.912 35.336C16.744 35.336 13.832 34.6 11.176 33.128C8.52 31.624 6.408 29.56 4.84 26.936C3.304 24.28 2.536 21.288 2.536 17.96C2.536 14.632 3.304 11.656 4.84 9.032C6.408 6.376 8.52 4.312 11.176 2.84C13.832 1.368 16.744 0.631999 19.912 0.631999C23.112 0.631999 26.024 1.368 28.648 2.84C31.304 4.312 33.4 6.376 34.936 9.032C36.472 11.656 37.24 14.632 37.24 17.96C37.24 21.288 36.472 24.28 34.936 26.936C33.4 29.56 31.304 31.624 28.648 33.128C25.992 34.6 23.08 35.336 19.912 35.336ZM19.912 26.6C22.312 26.6 24.2 25.816 25.576 24.248C26.984 22.68 27.688 20.584 27.688 17.96C27.688 15.272 26.984 13.16 25.576 11.624C24.2 10.056 22.312 9.272 19.912 9.272C17.48 9.272 15.576 10.056 14.2 11.624C12.824 13.16 12.136 15.272 12.136 17.96C12.136 20.616 12.824 22.728 14.2 24.296C15.576 25.832 17.48 26.6 19.912 26.6ZM72.8133 35H63.4053L50.8773 16.088V35H41.4693V1.16H50.8773L63.4053 20.312V1.16H72.8133V35ZM87.5804 8.696V14.216H98.3804V21.368H87.5804V27.464H99.8204V35H78.1724V1.16H99.8204V8.696H87.5804ZM126.425 35.336C122.489 35.336 119.257 34.408 116.729 32.552C114.201 30.664 112.841 27.976 112.649 24.488H122.681C122.777 25.672 123.129 26.536 123.737 27.08C124.345 27.624 125.129 27.896 126.089 27.896C126.953 27.896 127.657 27.688 128.201 27.272C128.777 26.824 129.065 26.216 129.065 25.448C129.065 24.456 128.601 23.688 127.673 23.144C126.745 22.6 125.241 21.992 123.161 21.32C120.953 20.584 119.161 19.88 117.785 19.208C116.441 18.504 115.257 17.496 114.233 16.184C113.241 14.84 112.745 13.096 112.745 10.952C112.745 8.776 113.289 6.92 114.377 5.384C115.465 3.816 116.969 2.632 118.889 1.832C120.809 1.032 122.985 0.631999 125.417 0.631999C129.353 0.631999 132.489 1.56 134.825 3.416C137.193 5.24 138.457 7.816 138.617 11.144H128.393C128.361 10.12 128.041 9.352 127.433 8.84C126.857 8.328 126.105 8.072 125.177 8.072C124.473 8.072 123.897 8.28 123.449 8.696C123.001 9.112 122.777 9.704 122.777 10.472C122.777 11.112 123.017 11.672 123.497 12.152C124.009 12.6 124.633 13 125.369 13.352C126.105 13.672 127.193 14.088 128.633 14.6C130.777 15.336 132.537 16.072 133.913 16.808C135.321 17.512 136.521 18.52 137.513 19.832C138.537 21.112 139.049 22.744 139.049 24.728C139.049 26.744 138.537 28.552 137.513 30.152C136.521 31.752 135.065 33.016 133.145 33.944C131.257 34.872 129.017 35.336 126.425 35.336ZM168.91 1.16V8.648H159.886V35H150.478V8.648H141.55V1.16H168.91ZM188.615 35.336C185.447 35.336 182.535 34.6 179.879 33.128C177.223 31.624 175.111 29.56 173.543 26.936C172.007 24.28 171.239 21.288 171.239 17.96C171.239 14.632 172.007 11.656 173.543 9.032C175.111 6.376 177.223 4.312 179.879 2.84C182.535 1.368 185.447 0.631999 188.615 0.631999C191.815 0.631999 194.727 1.368 197.351 2.84C200.007 4.312 202.103 6.376 203.639 9.032C205.175 11.656 205.943 14.632 205.943 17.96C205.943 21.288 205.175 24.28 203.639 26.936C202.103 29.56 200.007 31.624 197.351 33.128C194.695 34.6 191.783 35.336 188.615 35.336ZM188.615 26.6C191.015 26.6 192.903 25.816 194.279 24.248C195.687 22.68 196.391 20.584 196.391 17.96C196.391 15.272 195.687 13.16 194.279 11.624C192.903 10.056 191.015 9.272 188.615 9.272C186.183 9.272 184.279 10.056 182.903 11.624C181.527 13.16 180.839 15.272 180.839 17.96C180.839 20.616 181.527 22.728 182.903 24.296C184.279 25.832 186.183 26.6 188.615 26.6ZM236.908 12.44C236.908 14.488 236.428 16.36 235.468 18.056C234.54 19.72 233.116 21.064 231.196 22.088C229.308 23.08 226.988 23.576 224.236 23.576H219.58V35H210.172V1.16H224.236C226.956 1.16 229.26 1.64 231.148 2.6C233.068 3.56 234.508 4.888 235.468 6.584C236.428 8.28 236.908 10.232 236.908 12.44ZM223.324 16.088C225.98 16.088 227.308 14.872 227.308 12.44C227.308 9.976 225.98 8.744 223.324 8.744H219.58V16.088H223.324ZM19.912 107.336C16.744 107.336 13.832 106.6 11.176 105.128C8.52 103.624 6.408 101.56 4.84 98.936C3.304 96.28 2.536 93.288 2.536 89.96C2.536 86.632 3.304 83.656 4.84 81.032C6.408 78.376 8.52 76.312 11.176 74.84C13.832 73.368 16.744 72.632 19.912 72.632C23.112 72.632 26.024 73.368 28.648 74.84C31.304 76.312 33.4 78.376 34.936 81.032C36.472 83.656 37.24 86.632 37.24 89.96C37.24 93.288 36.472 96.28 34.936 98.936C33.4 101.56 31.304 103.624 28.648 105.128C25.992 106.6 23.08 107.336 19.912 107.336ZM19.912 98.6C22.312 98.6 24.2 97.816 25.576 96.248C26.984 94.68 27.688 92.584 27.688 89.96C27.688 87.272 26.984 85.16 25.576 83.624C24.2 82.056 22.312 81.272 19.912 81.272C17.48 81.272 15.576 82.056 14.2 83.624C12.824 85.16 12.136 87.272 12.136 89.96C12.136 92.616 12.824 94.728 14.2 96.296C15.576 97.832 17.48 98.6 19.912 98.6ZM72.8133 107H63.4053L50.8773 88.088V107H41.4693V73.16H50.8773L63.4053 92.312V73.16H72.8133V107ZM87.5804 99.8H98.0924V107H78.1724V73.16H87.5804V99.8ZM111.159 73.16V107H101.751V73.16H111.159ZM147.86 107H138.452L125.924 88.088V107H116.516V73.16H125.924L138.452 92.312V73.16H147.86V107ZM162.627 80.696V86.216H173.427V93.368H162.627V99.464H174.867V107H153.219V73.16H174.867V80.696H162.627ZM30.424 156.44C30.424 158.488 29.944 160.36 28.984 162.056C28.056 163.72 26.632 165.064 24.712 166.088C22.824 167.08 20.504 167.576 17.752 167.576H13.096V179H3.688V145.16H17.752C20.472 145.16 22.776 145.64 24.664 146.6C26.584 147.56 28.024 148.888 28.984 150.584C29.944 152.28 30.424 154.232 30.424 156.44ZM16.84 160.088C19.496 160.088 20.824 158.872 20.824 156.44C20.824 153.976 19.496 152.744 16.84 152.744H13.096V160.088H16.84ZM43.6116 171.8H54.1236V179H34.2036V145.16H43.6116V171.8ZM79.1898 173.48H67.1898L65.3658 179H55.4778L67.8138 145.16H78.6618L90.9498 179H81.0138L79.1898 173.48ZM76.8378 166.28L73.1898 155.336L69.5898 166.28H76.8378ZM119.504 145.16V152.648H110.48V179H101.072V152.648H92.1441V145.16H119.504ZM145.929 145.16V152.648H132.393V158.6H142.377V165.752H132.393V179H122.985V145.16H145.929ZM166.115 179.336C162.947 179.336 160.035 178.6 157.379 177.128C154.723 175.624 152.611 173.56 151.043 170.936C149.507 168.28 148.739 165.288 148.739 161.96C148.739 158.632 149.507 155.656 151.043 153.032C152.611 150.376 154.723 148.312 157.379 146.84C160.035 145.368 162.947 144.632 166.115 144.632C169.315 144.632 172.227 145.368 174.851 146.84C177.507 148.312 179.603 150.376 181.139 153.032C182.675 155.656 183.443 158.632 183.443 161.96C183.443 165.288 182.675 168.28 181.139 170.936C179.603 173.56 177.507 175.624 174.851 177.128C172.195 178.6 169.283 179.336 166.115 179.336ZM166.115 170.6C168.515 170.6 170.403 169.816 171.779 168.248C173.187 166.68 173.891 164.584 173.891 161.96C173.891 159.272 173.187 157.16 171.779 155.624C170.403 154.056 168.515 153.272 166.115 153.272C163.683 153.272 161.779 154.056 160.403 155.624C159.027 157.16 158.339 159.272 158.339 161.96C158.339 164.616 159.027 166.728 160.403 168.296C161.779 169.832 163.683 170.6 166.115 170.6ZM204.808 179L198.088 166.52H197.08V179H187.672V145.16H202.504C205.224 145.16 207.528 145.64 209.416 146.6C211.304 147.528 212.728 148.824 213.688 150.488C214.648 152.12 215.128 153.96 215.128 156.008C215.128 158.312 214.488 160.344 213.208 162.104C211.96 163.832 210.12 165.064 207.688 165.8L215.32 179H204.808ZM197.08 160.088H201.736C203.016 160.088 203.976 159.784 204.616 159.176C205.256 158.568 205.576 157.688 205.576 156.536C205.576 155.448 205.24 154.6 204.568 153.992C203.928 153.352 202.984 153.032 201.736 153.032H197.08V160.088ZM258.911 145.16V179H249.503V160.328L243.119 179H235.247L228.815 160.184V179H219.407V145.16H230.783L239.279 167.144L247.583 145.16H258.911ZM26.632 217.16V224.648H13.096V230.6H23.08V237.752H13.096V251H3.688V217.16H26.632ZM46.8183 251.336C43.6503 251.336 40.7383 250.6 38.0823 249.128C35.4263 247.624 33.3143 245.56 31.7463 242.936C30.2103 240.28 29.4423 237.288 29.4423 233.96C29.4423 230.632 30.2103 227.656 31.7463 225.032C33.3143 222.376 35.4263 220.312 38.0823 218.84C40.7383 217.368 43.6503 216.632 46.8183 216.632C50.0183 216.632 52.9303 217.368 55.5543 218.84C58.2103 220.312 60.3063 222.376 61.8423 225.032C63.3783 227.656 64.1463 230.632 64.1463 233.96C64.1463 237.288 63.3783 240.28 61.8423 242.936C60.3063 245.56 58.2103 247.624 55.5543 249.128C52.8983 250.6 49.9863 251.336 46.8183 251.336ZM46.8183 242.6C49.2183 242.6 51.1063 241.816 52.4823 240.248C53.8903 238.68 54.5943 236.584 54.5943 233.96C54.5943 231.272 53.8903 229.16 52.4823 227.624C51.1063 226.056 49.2183 225.272 46.8183 225.272C44.3863 225.272 42.4823 226.056 41.1063 227.624C39.7303 229.16 39.0423 231.272 39.0423 233.96C39.0423 236.616 39.7303 238.728 41.1063 240.296C42.4823 241.832 44.3863 242.6 46.8183 242.6ZM85.5115 251L78.7915 238.52H77.7835V251H68.3755V217.16H83.2075C85.9275 217.16 88.2315 217.64 90.1195 218.6C92.0075 219.528 93.4315 220.824 94.3915 222.488C95.3515 224.12 95.8315 225.96 95.8315 228.008C95.8315 230.312 95.1915 232.344 93.9115 234.104C92.6635 235.832 90.8235 237.064 88.3915 237.8L96.0235 251H85.5115ZM77.7835 232.088H82.4395C83.7195 232.088 84.6795 231.784 85.3195 231.176C85.9595 230.568 86.2795 229.688 86.2795 228.536C86.2795 227.448 85.9435 226.6 85.2715 225.992C84.6315 225.352 83.6875 225.032 82.4395 225.032H77.7835V232.088ZM140.065 217.16L128.161 240.248V251H118.705V240.248L106.801 217.16H117.553L123.505 230.216L129.457 217.16H140.065ZM159.178 251.336C156.01 251.336 153.098 250.6 150.442 249.128C147.786 247.624 145.674 245.56 144.106 242.936C142.57 240.28 141.802 237.288 141.802 233.96C141.802 230.632 142.57 227.656 144.106 225.032C145.674 222.376 147.786 220.312 150.442 218.84C153.098 217.368 156.01 216.632 159.178 216.632C162.378 216.632 165.29 217.368 167.914 218.84C170.57 220.312 172.666 222.376 174.202 225.032C175.738 227.656 176.506 230.632 176.506 233.96C176.506 237.288 175.738 240.28 174.202 242.936C172.666 245.56 170.57 247.624 167.914 249.128C165.258 250.6 162.346 251.336 159.178 251.336ZM159.178 242.6C161.578 242.6 163.466 241.816 164.842 240.248C166.25 238.68 166.954 236.584 166.954 233.96C166.954 231.272 166.25 229.16 164.842 227.624C163.466 226.056 161.578 225.272 159.178 225.272C156.746 225.272 154.842 226.056 153.466 227.624C152.09 229.16 151.402 231.272 151.402 233.96C151.402 236.616 152.09 238.728 153.466 240.296C154.842 241.832 156.746 242.6 159.178 242.6ZM189.951 217.16V236.792C189.951 238.616 190.367 240.024 191.199 241.016C192.063 242.008 193.359 242.504 195.087 242.504C196.815 242.504 198.111 242.008 198.975 241.016C199.871 239.992 200.319 238.584 200.319 236.792V217.16H209.727V236.792C209.727 239.896 209.071 242.552 207.759 244.76C206.447 246.936 204.655 248.584 202.383 249.704C200.143 250.792 197.647 251.336 194.895 251.336C192.143 251.336 189.679 250.792 187.503 249.704C185.359 248.584 183.663 246.936 182.415 244.76C181.199 242.584 180.591 239.928 180.591 236.792V217.16H189.951ZM232.043 251L225.323 238.52H224.315V251H214.907V217.16H229.739C232.459 217.16 234.763 217.64 236.651 218.6C238.539 219.528 239.963 220.824 240.923 222.488C241.883 224.12 242.363 225.96 242.363 228.008C242.363 230.312 241.723 232.344 240.443 234.104C239.195 235.832 237.355 237.064 234.923 237.8L242.555 251H232.043ZM224.315 232.088H228.971C230.251 232.088 231.211 231.784 231.851 231.176C232.491 230.568 232.811 229.688 232.811 228.536C232.811 227.448 232.475 226.6 231.803 225.992C231.163 225.352 230.219 225.032 228.971 225.032H224.315V232.088ZM16.456 467.336C12.52 467.336 9.288 466.408 6.76 464.552C4.232 462.664 2.872 459.976 2.68 456.488H12.712C12.808 457.672 13.16 458.536 13.768 459.08C14.376 459.624 15.16 459.896 16.12 459.896C16.984 459.896 17.688 459.688 18.232 459.272C18.808 458.824 19.096 458.216 19.096 457.448C19.096 456.456 18.632 455.688 17.704 455.144C16.776 454.6 15.272 453.992 13.192 453.32C10.984 452.584 9.192 451.88 7.816 451.208C6.472 450.504 5.288 449.496 4.264 448.184C3.272 446.84 2.776 445.096 2.776 442.952C2.776 440.776 3.32 438.92 4.408 437.384C5.496 435.816 7 434.632 8.92 433.832C10.84 433.032 13.016 432.632 15.448 432.632C19.384 432.632 22.52 433.56 24.856 435.416C27.224 437.24 28.488 439.816 28.648 443.144H18.424C18.392 442.12 18.072 441.352 17.464 440.84C16.888 440.328 16.136 440.072 15.208 440.072C14.504 440.072 13.928 440.28 13.48 440.696C13.032 441.112 12.808 441.704 12.808 442.472C12.808 443.112 13.048 443.672 13.528 444.152C14.04 444.6 14.664 445 15.4 445.352C16.136 445.672 17.224 446.088 18.664 446.6C20.808 447.336 22.568 448.072 23.944 448.808C25.352 449.512 26.552 450.52 27.544 451.832C28.568 453.112 29.08 454.744 29.08 456.728C29.08 458.744 28.568 460.552 27.544 462.152C26.552 463.752 25.096 465.016 23.176 465.944C21.288 466.872 19.048 467.336 16.456 467.336ZM42.8616 440.696V446.216H53.6616V453.368H42.8616V459.464H55.1016V467H33.4536V433.16H55.1016V440.696H42.8616ZM76.8865 467L70.1665 454.52H69.1585V467H59.7505V433.16H74.5825C77.3025 433.16 79.6065 433.64 81.4945 434.6C83.3825 435.528 84.8065 436.824 85.7665 438.488C86.7265 440.12 87.2065 441.96 87.2065 444.008C87.2065 446.312 86.5665 448.344 85.2865 450.104C84.0385 451.832 82.1985 453.064 79.7665 453.8L87.3985 467H76.8865ZM69.1585 448.088H73.8145C75.0945 448.088 76.0545 447.784 76.6945 447.176C77.3345 446.568 77.6545 445.688 77.6545 444.536C77.6545 443.448 77.3185 442.6 76.6465 441.992C76.0065 441.352 75.0625 441.032 73.8145 441.032H69.1585V448.088ZM124.413 433.16L112.749 467H100.701L88.9889 433.16H99.0689L106.749 457.592L114.381 433.16H124.413ZM136.752 433.16V467H127.344V433.16H136.752ZM140.958 450.008C140.958 446.68 141.646 443.72 143.022 441.128C144.43 438.504 146.414 436.472 148.974 435.032C151.534 433.56 154.478 432.824 157.806 432.824C162.03 432.824 165.582 433.96 168.462 436.232C171.342 438.472 173.198 441.528 174.03 445.4H163.902C163.294 444.12 162.446 443.144 161.358 442.472C160.302 441.8 159.07 441.464 157.662 441.464C155.486 441.464 153.742 442.248 152.43 443.816C151.15 445.352 150.51 447.416 150.51 450.008C150.51 452.632 151.15 454.728 152.43 456.296C153.742 457.832 155.486 458.6 157.662 458.6C159.07 458.6 160.302 458.264 161.358 457.592C162.446 456.92 163.294 455.944 163.902 454.664H174.03C173.198 458.536 171.342 461.608 168.462 463.88C165.582 466.12 162.03 467.24 157.806 467.24C154.478 467.24 151.534 466.52 148.974 465.08C146.414 463.608 144.43 461.576 143.022 458.984C141.646 456.36 140.958 453.368 140.958 450.008ZM187.893 433.16V467H178.485V433.16H187.893ZM224.595 467H215.187L202.659 448.088V467H193.251V433.16H202.659L215.187 452.312V433.16H224.595V467ZM251.554 444.296C251.01 443.4 250.258 442.712 249.298 442.232C248.37 441.752 247.266 441.512 245.986 441.512C243.618 441.512 241.746 442.28 240.37 443.816C239.026 445.352 238.354 447.416 238.354 450.008C238.354 452.92 239.074 455.144 240.514 456.68C241.986 458.184 244.114 458.936 246.898 458.936C250.194 458.936 252.546 457.448 253.954 454.472H244.498V447.704H262.066V456.824C261.33 458.616 260.242 460.296 258.802 461.864C257.394 463.432 255.602 464.728 253.426 465.752C251.25 466.744 248.77 467.24 245.986 467.24C242.594 467.24 239.586 466.52 236.962 465.08C234.37 463.608 232.354 461.576 230.914 458.984C229.506 456.36 228.802 453.368 228.802 450.008C228.802 446.68 229.506 443.72 230.914 441.128C232.354 438.504 234.37 436.472 236.962 435.032C239.554 433.56 242.546 432.824 245.938 432.824C250.194 432.824 253.714 433.848 256.498 435.896C259.282 437.944 261.01 440.744 261.682 444.296H251.554ZM25.096 533.48H13.096L11.272 539H1.384L13.72 505.16H24.568L36.856 539H26.92L25.096 533.48ZM22.744 526.28L19.096 515.336L15.496 526.28H22.744ZM71.2664 539H61.8584L49.3304 520.088V539H39.9224V505.16H49.3304L61.8584 524.312V505.16H71.2664V539ZM90.0175 505.16C93.5695 505.16 96.6735 505.88 99.3295 507.32C102.018 508.728 104.082 510.712 105.522 513.272C106.962 515.832 107.682 518.76 107.682 522.056C107.682 525.32 106.946 528.232 105.474 530.792C104.034 533.352 101.97 535.368 99.2815 536.84C96.6255 538.28 93.5375 539 90.0175 539H76.6255V505.16H90.0175ZM89.2975 530.696C92.0495 530.696 94.2095 529.944 95.7775 528.44C97.3455 526.936 98.1295 524.808 98.1295 522.056C98.1295 519.272 97.3455 517.128 95.7775 515.624C94.2095 514.088 92.0495 513.32 89.2975 513.32H86.0335V530.696H89.2975ZM138.246 539L131.526 526.52H130.518V539H121.11V505.16H135.942C138.662 505.16 140.966 505.64 142.854 506.6C144.742 507.528 146.166 508.824 147.126 510.488C148.086 512.12 148.566 513.96 148.566 516.008C148.566 518.312 147.926 520.344 146.646 522.104C145.398 523.832 143.558 525.064 141.126 525.8L148.758 539H138.246ZM130.518 520.088H135.174C136.454 520.088 137.414 519.784 138.054 519.176C138.694 518.568 139.014 517.688 139.014 516.536C139.014 515.448 138.678 514.6 138.006 513.992C137.366 513.352 136.422 513.032 135.174 513.032H130.518V520.088ZM162.252 512.696V518.216H173.052V525.368H162.252V531.464H174.492V539H152.844V505.16H174.492V512.696H162.252ZM205.877 516.44C205.877 518.488 205.397 520.36 204.437 522.056C203.509 523.72 202.085 525.064 200.165 526.088C198.277 527.08 195.957 527.576 193.205 527.576H188.549V539H179.141V505.16H193.205C195.925 505.16 198.229 505.64 200.117 506.6C202.037 507.56 203.477 508.888 204.437 510.584C205.397 512.28 205.877 514.232 205.877 516.44ZM192.293 520.088C194.949 520.088 196.277 518.872 196.277 516.44C196.277 513.976 194.949 512.744 192.293 512.744H188.549V520.088H192.293ZM231.065 533.48H219.065L217.241 539H207.353L219.689 505.16H230.537L242.825 539H232.889L231.065 533.48ZM228.713 526.28L225.065 515.336L221.465 526.28H228.713ZM255.299 505.16V539H245.891V505.16H255.299ZM277.793 539L271.073 526.52H270.065V539H260.657V505.16H275.489C278.209 505.16 280.513 505.64 282.401 506.6C284.289 507.528 285.713 508.824 286.673 510.488C287.633 512.12 288.113 513.96 288.113 516.008C288.113 518.312 287.473 520.344 286.193 522.104C284.945 523.832 283.105 525.064 280.673 525.8L288.305 539H277.793ZM270.065 520.088H274.721C276.001 520.088 276.961 519.784 277.601 519.176C278.241 518.568 278.561 517.688 278.561 516.536C278.561 515.448 278.225 514.6 277.553 513.992C276.913 513.352 275.969 513.032 274.721 513.032H270.065V520.088Z" fill="white"/>
<path d="M43.192 289.16V323H33.784V304.328L27.4 323H19.528L13.096 304.184V323H3.688V289.16H15.064L23.56 311.144L31.864 289.16H43.192ZM64.7714 323.336C61.6034 323.336 58.6914 322.6 56.0354 321.128C53.3794 319.624 51.2674 317.56 49.6994 314.936C48.1634 312.28 47.3954 309.288 47.3954 305.96C47.3954 302.632 48.1634 299.656 49.6994 297.032C51.2674 294.376 53.3794 292.312 56.0354 290.84C58.6914 289.368 61.6034 288.632 64.7714 288.632C67.9714 288.632 70.8834 289.368 73.5074 290.84C76.1634 292.312 78.2594 294.376 79.7954 297.032C81.3314 299.656 82.0994 302.632 82.0994 305.96C82.0994 309.288 81.3314 312.28 79.7954 314.936C78.2594 317.56 76.1634 319.624 73.5074 321.128C70.8514 322.6 67.9394 323.336 64.7714 323.336ZM64.7714 314.6C67.1714 314.6 69.0594 313.816 70.4354 312.248C71.8434 310.68 72.5474 308.584 72.5474 305.96C72.5474 303.272 71.8434 301.16 70.4354 299.624C69.0594 298.056 67.1714 297.272 64.7714 297.272C62.3394 297.272 60.4354 298.056 59.0594 299.624C57.6834 301.16 56.9954 303.272 56.9954 305.96C56.9954 308.616 57.6834 310.728 59.0594 312.296C60.4354 313.832 62.3394 314.6 64.7714 314.6ZM111.817 289.16V296.648H102.793V323H93.3846V296.648H84.4566V289.16H111.817ZM131.521 323.336C128.353 323.336 125.441 322.6 122.785 321.128C120.129 319.624 118.017 317.56 116.449 314.936C114.913 312.28 114.145 309.288 114.145 305.96C114.145 302.632 114.913 299.656 116.449 297.032C118.017 294.376 120.129 292.312 122.785 290.84C125.441 289.368 128.353 288.632 131.521 288.632C134.721 288.632 137.633 289.368 140.257 290.84C142.913 292.312 145.009 294.376 146.545 297.032C148.081 299.656 148.849 302.632 148.849 305.96C148.849 309.288 148.081 312.28 146.545 314.936C145.009 317.56 142.913 319.624 140.257 321.128C137.601 322.6 134.689 323.336 131.521 323.336ZM131.521 314.6C133.921 314.6 135.809 313.816 137.185 312.248C138.593 310.68 139.297 308.584 139.297 305.96C139.297 303.272 138.593 301.16 137.185 299.624C135.809 298.056 133.921 297.272 131.521 297.272C129.089 297.272 127.185 298.056 125.809 299.624C124.433 301.16 123.745 303.272 123.745 305.96C123.745 308.616 124.433 310.728 125.809 312.296C127.185 313.832 129.089 314.6 131.521 314.6ZM170.215 323L163.495 310.52H162.487V323H153.079V289.16H167.911C170.631 289.16 172.935 289.64 174.823 290.6C176.711 291.528 178.135 292.824 179.095 294.488C180.055 296.12 180.535 297.96 180.535 300.008C180.535 302.312 179.895 304.344 178.615 306.104C177.367 307.832 175.527 309.064 173.095 309.8L180.727 323H170.215ZM162.487 304.088H167.143C168.423 304.088 169.383 303.784 170.023 303.176C170.663 302.568 170.983 301.688 170.983 300.536C170.983 299.448 170.647 298.6 169.975 297.992C169.335 297.352 168.391 297.032 167.143 297.032H162.487V304.088ZM183.661 306.008C183.661 302.68 184.349 299.72 185.725 297.128C187.133 294.504 189.117 292.472 191.677 291.032C194.237 289.56 197.181 288.824 200.509 288.824C204.733 288.824 208.285 289.96 211.165 292.232C214.045 294.472 215.901 297.528 216.733 301.4H206.605C205.997 300.12 205.149 299.144 204.061 298.472C203.005 297.8 201.773 297.464 200.365 297.464C198.189 297.464 196.445 298.248 195.133 299.816C193.853 301.352 193.213 303.416 193.213 306.008C193.213 308.632 193.853 310.728 195.133 312.296C196.445 313.832 198.189 314.6 200.365 314.6C201.773 314.6 203.005 314.264 204.061 313.592C205.149 312.92 205.997 311.944 206.605 310.664H216.733C215.901 314.536 214.045 317.608 211.165 319.88C208.285 322.12 204.733 323.24 200.509 323.24C197.181 323.24 194.237 322.52 191.677 321.08C189.117 319.608 187.133 317.576 185.725 314.984C184.349 312.36 183.661 309.368 183.661 306.008ZM251.956 289.16L240.052 312.248V323H230.596V312.248L218.692 289.16H229.444L235.396 302.216L241.348 289.16H251.956ZM253.692 306.008C253.692 302.68 254.38 299.72 255.756 297.128C257.164 294.504 259.148 292.472 261.708 291.032C264.268 289.56 267.212 288.824 270.54 288.824C274.764 288.824 278.316 289.96 281.196 292.232C284.076 294.472 285.932 297.528 286.764 301.4H276.636C276.028 300.12 275.18 299.144 274.092 298.472C273.036 297.8 271.804 297.464 270.396 297.464C268.22 297.464 266.476 298.248 265.164 299.816C263.884 301.352 263.244 303.416 263.244 306.008C263.244 308.632 263.884 310.728 265.164 312.296C266.476 313.832 268.22 314.6 270.396 314.6C271.804 314.6 273.036 314.264 274.092 313.592C275.18 312.92 276.028 311.944 276.636 310.664H286.764C285.932 314.536 284.076 317.608 281.196 319.88C278.316 322.12 274.764 323.24 270.54 323.24C267.212 323.24 264.268 322.52 261.708 321.08C259.148 319.608 257.164 317.576 255.756 314.984C254.38 312.36 253.692 309.368 253.692 306.008ZM300.627 315.8H311.139V323H291.219V289.16H300.627V315.8ZM324.205 296.696V302.216H335.005V309.368H324.205V315.464H336.445V323H314.797V289.16H336.445V296.696H324.205ZM22.264 349.304L9.448 404.264H0.376L13.192 349.304H22.264ZM22.9735 378.008C22.9735 374.68 23.6615 371.72 25.0375 369.128C26.4455 366.504 28.4295 364.472 30.9895 363.032C33.5495 361.56 36.4935 360.824 39.8215 360.824C44.0455 360.824 47.5975 361.96 50.4775 364.232C53.3575 366.472 55.2135 369.528 56.0455 373.4H45.9175C45.3095 372.12 44.4615 371.144 43.3735 370.472C42.3175 369.8 41.0855 369.464 39.6775 369.464C37.5015 369.464 35.7575 370.248 34.4455 371.816C33.1655 373.352 32.5255 375.416 32.5255 378.008C32.5255 380.632 33.1655 382.728 34.4455 384.296C35.7575 385.832 37.5015 386.6 39.6775 386.6C41.0855 386.6 42.3175 386.264 43.3735 385.592C44.4615 384.92 45.3095 383.944 45.9175 382.664H56.0455C55.2135 386.536 53.3575 389.608 50.4775 391.88C47.5975 394.12 44.0455 395.24 39.8215 395.24C36.4935 395.24 33.5495 394.52 30.9895 393.08C28.4295 391.608 26.4455 389.576 25.0375 386.984C23.6615 384.36 22.9735 381.368 22.9735 378.008ZM81.9085 389.48H69.9085L68.0845 395H58.1965L70.5325 361.16H81.3805L93.6685 395H83.7325L81.9085 389.48ZM79.5565 382.28L75.9085 371.336L72.3085 382.28H79.5565ZM113.871 395L107.151 382.52H106.143V395H96.7349V361.16H111.567C114.287 361.16 116.591 361.64 118.479 362.6C120.367 363.528 121.791 364.824 122.751 366.488C123.711 368.12 124.191 369.96 124.191 372.008C124.191 374.312 123.551 376.344 122.271 378.104C121.023 379.832 119.183 381.064 116.751 381.8L124.383 395H113.871ZM106.143 376.088H110.799C112.079 376.088 113.039 375.784 113.679 375.176C114.319 374.568 114.639 373.688 114.639 372.536C114.639 371.448 114.303 370.6 113.631 369.992C112.991 369.352 112.047 369.032 110.799 369.032H106.143V376.088ZM296.951 539.384C295.287 539.384 293.943 538.936 292.919 538.04C291.927 537.112 291.431 535.944 291.431 534.536C291.431 533.128 291.927 531.96 292.919 531.032C293.943 530.104 295.287 529.64 296.951 529.64C298.583 529.64 299.895 530.104 300.887 531.032C301.911 531.96 302.423 533.128 302.423 534.536C302.423 535.912 301.911 537.064 300.887 537.992C299.895 538.92 298.583 539.384 296.951 539.384Z" fill="#FF6600"/>
</svg>
