<svg width="103" height="167" viewBox="0 0 103 167" fill="none" xmlns="http://www.w3.org/2000/svg">
<ellipse cx="41.5" cy="126" rx="41.5" ry="41" fill="#D6D6D6"/>
<path d="M94.6784 17.8403C94.6784 17.8403 101.318 15.2167 101.716 22.6939C101.716 22.6939 101.318 24.6616 99.1931 26.4981L96.0062 29.7776L96.139 25.3175C96.139 25.3175 96.0062 23.6909 94.6784 23.5203V17.8403Z" fill="#F7BC90"/>
<path d="M46.2801 38.6964V35.249C46.2801 35.249 45.1501 34.8935 44.8846 34.1065V28.0539C44.8846 28.0539 45.02 26.6109 46.2801 26.8169V24.0057C46.2801 24.0057 45.2829 23.7814 44.8846 23.1058V16.5849C44.8846 16.5849 45.1528 15.4424 46.2801 15.4607V6.80293C46.2801 6.80293 47.0091 0.918251 53.1171 0H87.4696C87.4696 0 93.7489 0.169221 94.8112 7.36437V23.5203V36.2604L92.356 38.4524L88.9687 41.7148C88.9687 41.7148 87.2996 44.2518 89.063 47.181C89.063 47.181 90.5475 49.5475 94.539 48.91L92.2272 50.9826L90.1638 52.9962C90.1638 52.9962 88.0392 56.6692 90.6949 58.8992C90.5157 58.2761 90.2182 56.6062 94.8112 59.2928V66.2833C94.8112 66.2833 91.4996 74.2747 91.7798 71.007C92.2883 65.0646 94.8112 66.2452 94.8112 66.2452V87.3086C94.8112 87.3086 93.4834 93.5304 88.172 93.6616H51.7893C51.7893 93.6616 47.5588 92.4954 46.3545 87.9632L46.2801 38.6964Z" fill="#14365e"/>
<path d="M96.2175 35.7226V25.0052C96.2175 25.0052 96.1391 23.822 94.8113 23.5203V36.2604L96.2175 35.7226Z" fill="#14365e"/>
<path d="M86.341 91.3004H54.6827C51.4706 91.3004 48.8681 88.7293 48.8681 85.5561V8.10555C48.8681 4.93234 51.4706 2.36124 54.6827 2.36124H86.3423C89.553 2.36124 92.1555 4.93234 92.1555 8.10555V85.5574C92.1555 88.7293 89.553 91.3004 86.341 91.3004Z" fill="white"/>
<path d="M18.4421 137.986L34.5275 110.321L40.5028 100.483C40.5028 100.483 42.8929 96.3783 40.5028 88.8552C38.1127 81.3308 33.8636 66.3765 33.8636 66.3765C33.8636 66.3765 32.5358 61.654 35.1914 57.8498L43.8224 38.8289C43.8224 38.8289 44.6191 37.1236 45.8141 38.4354C45.8141 38.4354 53.6484 42.1084 48.8682 52.2092L46.2125 59.424L46.3546 87.9632C46.3546 87.9632 47.0092 91.9563 51.7894 93.6616L85.2509 93.7928L65.5989 127.506L58.9597 138L18.4421 137.986Z" fill="#F7BC90"/>
<path d="M97.3342 62.7034C99.5848 63.4616 101.08 65.3939 101.085 67.4468C101.089 69.3961 99.7495 70.6988 99.4587 70.9677C99.4587 70.9677 94.6785 74.903 91.89 69C91.7851 68.6891 91.1863 66.8093 92.2472 65.0161C93.2285 63.3554 95.2388 62.4371 97.3342 62.7034Z" fill="#F7BC90"/>
<path d="M88.9835 41.8185C90.5304 40.2535 92.0773 38.6886 93.6229 37.1223C93.8128 36.9308 94.0213 36.755 94.251 36.6133C95.9081 35.5927 97.9118 35.4707 99.4574 36.3365C100.403 36.8652 101.412 37.8936 101.715 39.3536C101.767 39.6016 101.793 39.839 101.801 40.0659C101.837 41.0432 101.44 41.9877 100.744 42.683L95.0517 48.3787C94.3957 49.0359 93.5114 49.4334 92.5779 49.4544C92.5699 49.4544 92.562 49.4544 92.554 49.4544C91.1359 49.478 90.0723 48.8169 89.5385 48.3997C89.3128 48.2239 89.1123 48.0219 88.9357 47.7989C88.6754 47.4736 88.4072 47.0538 88.2067 46.5357C87.7486 45.3577 87.8588 44.2322 88.0606 43.4333C88.2133 42.8233 88.5386 42.2684 88.9835 41.8185Z" fill="#F7BC90"/>
<path d="M90.1785 53.2311C91.7254 51.6661 93.2723 50.1011 94.8179 48.5349C95.0078 48.3434 95.2163 48.1676 95.446 48.0259C97.1031 47.0053 99.1068 46.8833 100.652 47.7491C101.598 48.2778 102.607 49.3062 102.91 50.7662C102.962 51.0142 102.988 51.2516 102.996 51.4785C103.032 52.4558 102.635 53.4003 101.939 54.0955L96.2467 59.7913C95.5907 60.4485 94.7064 60.846 93.7729 60.867C93.765 60.867 93.757 60.867 93.749 60.867C92.3309 60.8906 91.2673 60.2294 90.7335 59.8123C90.5078 59.6365 90.3073 59.4345 90.1307 59.2115C89.8704 58.8862 89.6022 58.4664 89.4017 57.9482C88.9436 56.7703 89.0538 55.6448 89.2556 54.8459C89.4083 54.2359 89.7336 53.681 90.1785 53.2311Z" fill="#F7BC90"/>
<path d="M17 138L32.8013 110.336L66.7939 129.357L64.0904 138H17Z" fill="#14365e"/>
<path d="M58.331 33.32C58.8597 33.4327 59.2843 33.697 59.605 34.113C59.9257 34.5203 60.086 34.9883 60.086 35.517C60.086 36.2797 59.8173 36.8863 59.28 37.337C58.7513 37.779 58.0103 38 57.057 38H52.806V28.874H56.914C57.8413 28.874 58.565 29.0863 59.085 29.511C59.6137 29.9357 59.878 30.512 59.878 31.24C59.878 31.7773 59.735 32.2237 59.449 32.579C59.1717 32.9343 58.799 33.1813 58.331 33.32ZM55.029 32.566H56.485C56.849 32.566 57.1263 32.488 57.317 32.332C57.5163 32.1673 57.616 31.929 57.616 31.617C57.616 31.305 57.5163 31.0667 57.317 30.902C57.1263 30.7373 56.849 30.655 56.485 30.655H55.029V32.566ZM56.667 36.206C57.0397 36.206 57.3257 36.1237 57.525 35.959C57.733 35.7857 57.837 35.5387 57.837 35.218C57.837 34.8973 57.7287 34.646 57.512 34.464C57.304 34.282 57.0137 34.191 56.641 34.191H55.029V36.206H56.667ZM65.6913 38.091C64.8333 38.091 64.0447 37.8917 63.3253 37.493C62.6147 37.0943 62.047 36.5397 61.6223 35.829C61.2063 35.1097 60.9983 34.3037 60.9983 33.411C60.9983 32.5183 61.2063 31.7167 61.6223 31.006C62.047 30.2953 62.6147 29.7407 63.3253 29.342C64.0447 28.9433 64.8333 28.744 65.6913 28.744C66.5493 28.744 67.3337 28.9433 68.0443 29.342C68.7637 29.7407 69.327 30.2953 69.7343 31.006C70.1503 31.7167 70.3583 32.5183 70.3583 33.411C70.3583 34.3037 70.1503 35.1097 69.7343 35.829C69.3183 36.5397 68.755 37.0943 68.0443 37.493C67.3337 37.8917 66.5493 38.091 65.6913 38.091ZM65.6913 36.063C66.4193 36.063 67 35.8203 67.4333 35.335C67.8753 34.8497 68.0963 34.2083 68.0963 33.411C68.0963 32.605 67.8753 31.9637 67.4333 31.487C67 31.0017 66.4193 30.759 65.6913 30.759C64.9547 30.759 64.3653 30.9973 63.9233 31.474C63.49 31.9507 63.2733 32.5963 63.2733 33.411C63.2733 34.217 63.49 34.8627 63.9233 35.348C64.3653 35.8247 64.9547 36.063 65.6913 36.063ZM75.9111 38.091C75.0531 38.091 74.2644 37.8917 73.5451 37.493C72.8344 37.0943 72.2667 36.5397 71.8421 35.829C71.4261 35.1097 71.2181 34.3037 71.2181 33.411C71.2181 32.5183 71.4261 31.7167 71.8421 31.006C72.2667 30.2953 72.8344 29.7407 73.5451 29.342C74.2644 28.9433 75.0531 28.744 75.9111 28.744C76.7691 28.744 77.5534 28.9433 78.2641 29.342C78.9834 29.7407 79.5467 30.2953 79.9541 31.006C80.3701 31.7167 80.5781 32.5183 80.5781 33.411C80.5781 34.3037 80.3701 35.1097 79.9541 35.829C79.5381 36.5397 78.9747 37.0943 78.2641 37.493C77.5534 37.8917 76.7691 38.091 75.9111 38.091ZM75.9111 36.063C76.6391 36.063 77.2197 35.8203 77.6531 35.335C78.0951 34.8497 78.3161 34.2083 78.3161 33.411C78.3161 32.605 78.0951 31.9637 77.6531 31.487C77.2197 31.0017 76.6391 30.759 75.9111 30.759C75.1744 30.759 74.5851 30.9973 74.1431 31.474C73.7097 31.9507 73.4931 32.5963 73.4931 33.411C73.4931 34.217 73.7097 34.8627 74.1431 35.348C74.5851 35.8247 75.1744 36.063 75.9111 36.063ZM87.1058 38L84.0378 33.97V38H81.8148V28.874H84.0378V32.878L87.0798 28.874H89.6928L86.1568 33.346L89.8228 38H87.1058ZM60.97 58H58.747L55.029 52.371V58H52.806V48.874H55.029L58.747 54.529V48.874H60.97V58ZM66.8974 58.091C66.0394 58.091 65.2507 57.8917 64.5314 57.493C63.8207 57.0943 63.2531 56.5397 62.8284 55.829C62.4124 55.1097 62.2044 54.3037 62.2044 53.411C62.2044 52.5183 62.4124 51.7167 62.8284 51.006C63.2531 50.2953 63.8207 49.7407 64.5314 49.342C65.2507 48.9433 66.0394 48.744 66.8974 48.744C67.7554 48.744 68.5397 48.9433 69.2504 49.342C69.9697 49.7407 70.5331 50.2953 70.9404 51.006C71.3564 51.7167 71.5644 52.5183 71.5644 53.411C71.5644 54.3037 71.3564 55.1097 70.9404 55.829C70.5244 56.5397 69.9611 57.0943 69.2504 57.493C68.5397 57.8917 67.7554 58.091 66.8974 58.091ZM66.8974 56.063C67.6254 56.063 68.2061 55.8203 68.6394 55.335C69.0814 54.8497 69.3024 54.2083 69.3024 53.411C69.3024 52.605 69.0814 51.9637 68.6394 51.487C68.2061 51.0017 67.6254 50.759 66.8974 50.759C66.1607 50.759 65.5714 50.9973 65.1294 51.474C64.6961 51.9507 64.4794 52.5963 64.4794 53.411C64.4794 54.217 64.6961 54.8627 65.1294 55.348C65.5714 55.8247 66.1607 56.063 66.8974 56.063ZM85.3591 48.874L82.9801 58H80.2891L78.8331 51.994L77.3251 58H74.6341L72.3201 48.874H74.6991L76.0121 55.517L77.6371 48.874H80.0811L81.6411 55.517L82.9671 48.874H85.3591Z" fill="black"/>
</svg>
