<svg width="164" height="209" viewBox="0 0 164 209" fill="none" xmlns="http://www.w3.org/2000/svg">
<path opacity="0.78" d="M25.9004 175.289H163.633V145.366V108.857H55.49L25.9004 175.289Z" fill="#1C1C1D"/>
<path d="M34.511 31.1438H33.2812V102.589H34.511V31.1438Z" fill="black"/>
<path d="M144.92 174.86C145.649 179.145 146.103 183.476 146.278 187.823H163.634V61.2263C150.403 68.8671 136.421 75.0411 121.923 79.6444C114.71 82.0654 54.2689 93.742 23.4005 104.13C19.3633 105.424 15.6743 107.666 12.6256 110.68L12.5827 110.723C6.15497 117.227 4.3526 126.109 4.05469 132.896C3.87532 136.223 4.05315 139.56 4.58497 142.847L1.18878 148.652C0.63025 149.61 0.27199 150.677 0.136878 151.785C0.00176601 152.893 0.0927707 154.018 0.404081 155.088L4.84058 170.256L5.64375 173.005C6.09577 174.567 6.87774 176.007 7.93372 177.222C8.98969 178.436 10.2936 179.396 11.7521 180.032C22.3614 184.681 43.3004 187.823 43.3004 187.823C42.8399 183.38 42.7263 178.907 42.9608 174.446C43.7884 155.395 50.7255 122.331 88.17 118.927C129.624 115.173 141.524 153.888 144.92 174.86Z" fill="#AEAFB0"/>
<path d="M32.0481 117.49C32.0481 122.832 29.3314 130.389 3.76367 132.672C4.07133 125.779 5.93267 116.759 12.5707 110.155L12.615 110.11C13.754 110.11 32.0481 112.127 32.0481 117.49Z" fill="#E7E7E7"/>
<path d="M43.1186 187.823C43.1186 187.823 22.3632 184.684 11.847 180.041C10.4013 179.405 9.10882 178.447 8.0621 177.233C7.01539 176.02 6.24028 174.582 5.79222 173.021L4.99609 170.275C12.2935 171.735 24.2584 173.479 42.7849 174.46C42.5515 178.917 42.6631 183.385 43.1186 187.823V187.823Z" fill="#343435"/>
<path d="M145.188 175.289C145.919 179.433 146.374 183.62 146.55 187.823H163.634V175.289H145.188Z" fill="#343435"/>
<path d="M94.154 208.715C117.245 208.715 135.271 191.043 135.271 167.184C135.271 143.324 116.552 123.982 93.4614 123.982C70.3709 123.982 51.6523 143.324 51.6523 167.184C51.6523 191.043 71.0635 208.715 94.154 208.715Z" fill="#333333"/>
<path d="M93.4621 139.542C98.753 139.542 103.925 141.163 108.324 144.2C112.724 147.238 116.152 151.555 118.177 156.606C120.202 161.657 120.732 167.214 119.699 172.577C118.667 177.939 116.119 182.864 112.378 186.73C108.637 190.596 103.87 193.228 98.681 194.295C93.4917 195.361 88.1129 194.814 83.2247 192.722C78.3365 190.63 74.1585 187.087 71.2191 182.541C68.2796 177.995 66.7106 172.651 66.7106 167.184C66.7187 159.855 69.5397 152.829 74.5548 147.647C79.5699 142.465 86.3696 139.55 93.4621 139.542V139.542ZM93.4621 136.636C87.6149 136.636 81.8991 138.428 77.0373 141.785C72.1756 145.141 68.3864 149.912 66.1488 155.494C63.9112 161.076 63.3258 167.218 64.4666 173.144C65.6073 179.07 68.423 184.513 72.5576 188.785C76.6922 193.057 81.96 195.967 87.6948 197.145C93.4297 198.324 99.3739 197.719 104.776 195.407C110.178 193.095 114.795 189.179 118.044 184.155C121.292 179.132 123.026 173.226 123.026 167.184C123.026 163.172 122.261 159.2 120.775 155.494C119.29 151.787 117.112 148.42 114.367 145.583C111.621 142.747 108.362 140.497 104.776 138.962C101.189 137.426 97.3444 136.636 93.4621 136.636V136.636Z" fill="#E7E7E7"/>
<path d="M93.4635 174.462C97.3535 174.462 100.507 171.203 100.507 167.184C100.507 163.164 97.3535 159.906 93.4635 159.906C89.5734 159.906 86.4199 163.164 86.4199 167.184C86.4199 171.203 89.5734 174.462 93.4635 174.462Z" fill="#E7E7E7"/>
<path d="M101.621 138.089L94.8669 167.184H92.0554L85.3008 138.089H101.621Z" fill="#E7E7E7"/>
<path d="M85.3008 196.278L92.0554 167.183H94.8669L101.621 196.278H85.3008Z" fill="#E7E7E7"/>
<path d="M113.424 189.367L92.7383 168.43L94.1831 165.938L121.81 174.9L113.424 189.367Z" fill="#E7E7E7"/>
<path d="M73.4992 145L94.1848 165.937L92.7399 168.43L65.1133 159.468L73.4992 145Z" fill="#E7E7E7"/>
<path d="M65.1113 174.9L92.738 165.938L94.1828 168.43L73.4972 189.367L65.1113 174.9Z" fill="#E7E7E7"/>
<path d="M121.81 159.467L94.1831 168.43L92.7383 165.937L113.424 145L121.81 159.467Z" fill="#E7E7E7"/>
<path d="M93.4589 170.921C95.4566 170.921 97.076 169.248 97.076 167.184C97.076 165.12 95.4566 163.446 93.4589 163.446C91.4612 163.446 89.8418 165.12 89.8418 167.184C89.8418 169.248 91.4612 170.921 93.4589 170.921Z" fill="#333333"/>
<path d="M25.9014 26.7284C28.4056 25.0048 51.8885 33.0695 125.786 79.1175" stroke="#AEAFB0" stroke-width="7"/>
<circle cx="24.4221" cy="62.9698" r="7.89871" fill="#C9C9C9"/>
<circle cx="39.0242" cy="52.6775" r="6.70194" fill="#C9C9C9"/>
<circle cx="34.7986" cy="71.9109" r="4.30839" fill="#C9C9C9"/>
<circle cx="52.5135" cy="84.3575" r="4.30839" fill="white"/>
<circle cx="47.7244" cy="80.0491" r="4.30839" fill="white"/>
<circle cx="54.4256" cy="78.6131" r="4.30839" fill="white"/>
<circle cx="45.3299" cy="66.6453" r="4.30839" fill="white"/>
<circle cx="45.3299" cy="60.4219" r="4.30839" fill="white"/>
<circle cx="49.6385" cy="71.9109" r="4.30839" fill="white"/>
<circle cx="49.16" cy="77.6556" r="4.30839" fill="white"/>
<circle cx="51.076" cy="76.2193" r="4.30839" fill="white"/>
<circle cx="42.4607" cy="71.9109" r="4.30839" fill="white"/>
<circle cx="45.3299" cy="75.262" r="4.30839" fill="white"/>
<ellipse cx="38.1513" cy="64.491" rx="7.18065" ry="7.42" fill="white"/>
<circle cx="28.2503" cy="51.4807" r="7.89871" fill="#C9C9C9"/>
<circle cx="32.4108" cy="56.4689" r="7.14125" fill="white"/>
<path d="M46.4607 57.131C45.7849 60.2712 42.6914 62.2691 39.5511 61.5933C36.4109 60.9175 34.4131 57.824 35.0889 54.6837C35.7647 51.5435 38.8582 49.5456 41.9984 50.2215C45.1387 50.8973 47.1365 53.9908 46.4607 57.131Z" fill="white"/>
<circle cx="35.7533" cy="61.5932" r="5.81609" transform="rotate(12.1452 35.7533 61.5932)" fill="white"/>
<circle cx="35.7533" cy="70.5194" r="5.81609" transform="rotate(12.1452 35.7533 70.5194)" fill="white"/>
<circle cx="28.8424" cy="65.3954" r="7.14125" fill="white"/>
</svg>
