<svg width="176" height="160" viewBox="0 0 176 160" fill="none" xmlns="http://www.w3.org/2000/svg">
<ellipse cx="82.5" cy="84" rx="41.5" ry="41" fill="#D6D6D6"/>
<path d="M106.494 88.4805C106.494 88.4805 139.282 102.049 108.455 106.29C108.455 106.29 87.9974 110.813 71.1826 101.201C71.1826 101.201 63.6159 99.7879 64.4567 103.463C65.2974 107.138 71.4628 107.42 71.4628 107.42C71.4628 107.42 69.7813 104.876 60.5332 104.594C60.5332 104.594 53.2468 106.855 72.5838 113.922C72.5838 113.922 79.2172 116.153 101.222 123.861C104.347 124.955 107.651 125.433 110.955 125.266C118.146 124.902 130.69 124.218 132.276 123.816C134.518 123.251 131.716 123.816 131.716 123.816C131.716 123.816 134.238 123.251 137.041 127.491L154.976 111.943C154.976 111.943 146.289 97.2437 135.359 92.4381C124.429 87.6324 135.359 91.8727 135.359 91.8727C135.359 91.8727 113.78 84.2402 111.818 82.5441C111.818 82.5441 97.806 80.2826 106.494 88.4805Z" fill="#F7BC90"/>
<path d="M174.874 160L130.895 137.391C129.575 136.257 129.533 134.213 130.808 133.026L156.649 108.933C157.72 107.935 159.359 107.895 160.475 108.842L175.003 121.15L174.874 160Z" fill="#14365e"/>
<path d="M93.4762 52.4523C93.4762 52.4523 85.195 52.0142 80.4308 41.5548C75.6666 31.0954 68.6604 29.3993 68.6604 29.3993L79.3098 27.9859L95.2838 50.0354L93.4762 52.4523Z" fill="#F0AD7B"/>
<path d="M27.6435 9.9845L64.2157 11.9944C64.2157 11.9944 74.5456 14.417 76.5073 17.5265L88.8382 29.3993C88.8382 29.3993 92.7616 33.3569 92.7616 35.3357L96.4048 51.1661L96.9653 57.1025C96.9653 57.1025 95.2838 60.7774 93.0419 56.8198C90.7999 52.8622 87.9974 44.947 87.9974 44.947C87.9974 44.947 87.1567 39.8587 80.9912 35.9011L70.9024 29.682C70.9024 29.682 46.5209 25.1591 64.1764 43.2509C64.1764 43.2509 75.3863 50.0354 81.5517 51.1661C81.5517 51.1661 90.5196 62.4735 76.2271 57.3852C76.2271 57.3852 54.0876 50.8834 46.8012 50.0354C39.5147 49.1873 23.5603 33.7612 23.5603 33.7612L27.6435 9.9845Z" fill="#F7BC90"/>
<path d="M0.280247 0L29.0055 4.02827C30.7206 4.29117 31.822 6.00424 31.3596 7.69187L21.9797 41.9025C21.5902 43.3187 20.2198 44.2233 18.7765 44.0113L0 41.2721L0.280247 0Z" fill="#FF6600"/>
<path d="M87.0365 62.3633L76.4055 61.5646C73.8616 61.3734 71.6416 63.2934 71.447 65.8528L69.6727 89.1838C69.4781 91.7432 71.3825 93.973 73.9264 94.1642L84.5574 94.9629C87.1013 95.154 89.3214 93.2341 89.516 90.6747L91.2903 67.3437C91.4849 64.7843 89.5804 62.5545 87.0365 62.3633Z" fill="#0CBC8B"/>
<path d="M90.2143 58.9386L79.4082 61.7171C78.1663 62.0389 77.1015 62.8419 76.4477 63.9497C75.7938 65.0576 75.6044 66.3798 75.9211 67.6258L77.0388 72.0508C77.1944 72.6701 77.4703 73.2522 77.8509 73.7637C78.2314 74.2752 78.709 74.706 79.2563 75.0314C79.8035 75.3569 80.4097 75.5706 81.0399 75.6601C81.6701 75.7497 82.312 75.7135 82.9287 75.5535L85.6362 74.8563L91.0164 73.4819L93.72 72.7836C94.9637 72.4614 96.0307 71.6582 96.6872 70.5497C97.3438 69.4412 97.5365 68.1177 97.2233 66.8688L96.0957 62.4264C95.7734 61.1832 94.9746 60.1192 93.873 59.466C92.7714 58.8127 91.4564 58.6231 90.2143 58.9386ZM91.0439 62.6213C91.1342 62.9709 91.1065 63.3409 90.9652 63.6736C90.8239 64.0062 90.5769 64.2828 90.2629 64.4601C90.1377 64.5325 90.0045 64.5898 89.866 64.6308L82.4232 66.5499C82.0387 66.6497 81.6315 66.6062 81.2772 66.4275C80.9228 66.2488 80.6454 65.9471 80.4963 65.5783C80.3472 65.2094 80.3366 64.7986 80.4665 64.422C80.5964 64.0454 80.8579 63.7286 81.2026 63.5305C81.3278 63.4581 81.461 63.4008 81.5995 63.3598L89.0633 61.4484C89.2704 61.3928 89.4863 61.3791 89.6985 61.4082C89.9108 61.4372 90.1151 61.5084 90.2995 61.6176C90.4838 61.7268 90.6446 61.8718 90.7724 62.0441C90.9003 62.2164 90.9926 62.4127 91.0439 62.6213V62.6213Z" fill="#1F2A37"/>
<path d="M93.7887 82.0639L92.2787 76.1096L91.7051 76.2603L89.2427 66.563L83.8716 67.948L90.8566 95.4498C90.9452 95.8052 91.1029 96.1393 91.3207 96.433C91.5385 96.7268 91.8121 96.9743 92.1258 97.1613C92.4395 97.3484 92.787 97.4713 93.1484 97.5231C93.5098 97.5749 93.8781 97.5544 94.2319 97.4629V97.4629C94.5861 97.3728 94.9192 97.2134 95.2122 96.9938C95.5052 96.7743 95.7522 96.499 95.9391 96.1837C96.1259 95.8684 96.249 95.5193 96.3012 95.1564C96.3535 94.7935 96.3338 94.4239 96.2433 94.069L95.3427 90.531L95.9164 90.3802L94.6489 85.3938L94.0753 85.5445L93.2306 82.2189L93.7887 82.0639Z" fill="#1F2A37"/>
<path d="M88.887 52.3361C87.494 46.9655 83.2913 43.4193 79.4999 44.4152C75.7086 45.4111 73.7643 50.5722 75.1573 55.9427C76.5502 61.3132 80.753 64.8595 84.5443 63.8636C88.3357 62.8676 90.28 57.7066 88.887 52.3361Z" stroke="#1F2A37" stroke-width="2" stroke-miterlimit="10"/>
<path d="M77.4876 50.2732L73.5696 48.5246L72.2637 56.3935L76.6169 57.7049L77.4876 50.2732Z" fill="#F7BC90"/>
</svg>
