<svg width="504" height="742" viewBox="0 0 504 742" fill="none" xmlns="http://www.w3.org/2000/svg">
<path d="M48 431C61.6667 397.667 116.2 339.2 225 372C259 387 339.8 397.8 391 321" stroke="black" stroke-width="3" stroke-dasharray="6 10"/>
<path d="M39 146C52.6667 179.333 107.2 237.8 216 205C250 190 330.8 179.2 382 256" stroke="black" stroke-width="3" stroke-dasharray="6 10"/>
<path d="M39 507C52.6667 540.333 107.2 598.8 216 566C250 551 330.8 540.2 382 617" stroke="black" stroke-width="3" stroke-dasharray="6 10"/>
<ellipse cx="41.5" cy="123" rx="41.5" ry="41" fill="#D6D6D6"/>
<ellipse cx="42" cy="462.5" rx="42" ry="41.5" fill="#D6D6D6"/>
<path d="M135.909 68.888V57.44H155.853V110H143.037V68.888H135.909Z" fill="black" fill-opacity="0.55"/>
<path d="M282.242 317.136C283.874 315.84 284.618 315.24 284.474 315.336C289.178 311.448 292.874 308.256 295.562 305.76C298.298 303.264 300.602 300.648 302.474 297.912C304.346 295.176 305.282 292.512 305.282 289.92C305.282 287.952 304.826 286.416 303.914 285.312C303.002 284.208 301.634 283.656 299.81 283.656C297.986 283.656 296.546 284.352 295.49 285.744C294.482 287.088 293.978 289.008 293.978 291.504H282.098C282.194 287.424 283.058 284.016 284.69 281.28C286.37 278.544 288.554 276.528 291.242 275.232C293.978 273.936 297.002 273.288 300.314 273.288C306.026 273.288 310.322 274.752 313.202 277.68C316.13 280.608 317.594 284.424 317.594 289.128C317.594 294.264 315.842 299.04 312.338 303.456C308.834 307.824 304.37 312.096 298.946 316.272H318.386V326.28H282.242V317.136Z" fill="black" fill-opacity="0.55"/>
<path d="M149.375 467.272C149.567 462.136 151.247 458.176 154.415 455.392C157.583 452.608 161.879 451.216 167.303 451.216C170.903 451.216 173.975 451.84 176.519 453.088C179.111 454.336 181.055 456.04 182.351 458.2C183.695 460.36 184.367 462.784 184.367 465.472C184.367 468.64 183.575 471.232 181.991 473.248C180.407 475.216 178.559 476.56 176.447 477.28V477.568C179.183 478.48 181.343 479.992 182.927 482.104C184.511 484.216 185.303 486.928 185.303 490.24C185.303 493.216 184.607 495.856 183.215 498.16C181.871 500.416 179.879 502.192 177.239 503.488C174.647 504.784 171.551 505.432 167.951 505.432C162.191 505.432 157.583 504.016 154.127 501.184C150.719 498.352 148.919 494.08 148.727 488.368H160.679C160.727 490.48 161.327 492.16 162.479 493.408C163.631 494.608 165.311 495.208 167.519 495.208C169.391 495.208 170.831 494.68 171.839 493.624C172.895 492.52 173.423 491.08 173.423 489.304C173.423 487 172.679 485.344 171.191 484.336C169.751 483.28 167.423 482.752 164.207 482.752H161.903V472.744H164.207C166.655 472.744 168.623 472.336 170.111 471.52C171.647 470.656 172.415 469.144 172.415 466.984C172.415 465.256 171.935 463.912 170.975 462.952C170.015 461.992 168.695 461.512 167.015 461.512C165.191 461.512 163.823 462.064 162.911 463.168C162.047 464.272 161.543 465.64 161.399 467.272H149.375Z" fill="black" fill-opacity="0.55"/>
<path d="M292.665 707.64V697.704L315.417 665.16H329.169V696.984H335.073V707.64H329.169V717H316.857V707.64H292.665ZM317.721 678.696L305.625 696.984H317.721V678.696Z" fill="black" fill-opacity="0.55"/>
<ellipse cx="418.369" cy="650.982" rx="41.5984" ry="41.1976" fill="#D6D6D6"/>
<path d="M434.494 670.48C434.494 670.48 467.282 684.049 436.455 688.29C436.455 688.29 415.997 692.813 399.183 683.201C399.183 683.201 391.616 681.788 392.457 685.463C393.297 689.138 399.463 689.42 399.463 689.42C399.463 689.42 397.781 686.876 388.533 686.594C388.533 686.594 381.247 688.855 400.584 695.922C400.584 695.922 407.217 698.153 429.222 705.861C432.347 706.955 435.651 707.433 438.955 707.266C446.146 706.902 458.69 706.218 460.276 705.816C462.518 705.251 459.716 705.816 459.716 705.816C459.716 705.816 462.238 705.251 465.041 709.491L482.976 693.943C482.976 693.943 474.289 679.244 463.359 674.438C452.429 669.632 463.359 673.873 463.359 673.873C463.359 673.873 441.78 666.24 439.818 664.544C439.818 664.544 425.806 662.283 434.494 670.48Z" fill="#F7BC90"/>
<path d="M502.874 742L458.895 719.391C457.575 718.257 457.533 716.213 458.808 715.026L484.649 690.933C485.72 689.935 487.359 689.895 488.475 690.842L503.003 703.15L502.874 742Z" fill="#14365e"/>
<path d="M421.476 634.452C421.476 634.452 413.195 634.014 408.431 623.555C403.667 613.095 396.66 611.399 396.66 611.399L407.31 609.986L423.284 632.035L421.476 634.452Z" fill="#F0AD7B"/>
<path d="M355.643 591.984L392.216 593.994C392.216 593.994 402.546 596.417 404.507 599.527L416.838 611.399C416.838 611.399 420.762 615.357 420.762 617.336L424.405 633.166L424.965 639.103C424.965 639.103 423.284 642.777 421.042 638.82C418.8 634.862 415.997 626.947 415.997 626.947C415.997 626.947 415.157 621.859 408.991 617.901L398.902 611.682C398.902 611.682 374.521 607.159 392.176 625.251C392.176 625.251 403.386 632.035 409.552 633.166C409.552 633.166 418.52 644.474 404.227 639.385C404.227 639.385 382.088 632.883 374.801 632.035C367.515 631.187 351.56 615.761 351.56 615.761L355.643 591.984Z" fill="#F7BC90"/>
<path d="M328.28 582L357.006 586.028C358.721 586.291 359.822 588.004 359.36 589.692L349.98 623.902C349.59 625.319 348.22 626.223 346.777 626.011L328 623.272L328.28 582Z" fill="#FF6600"/>
<path d="M415.037 644.363L404.405 643.565C401.862 643.373 399.642 645.293 399.447 647.853L397.673 671.184C397.478 673.743 399.382 675.973 401.926 676.164L412.557 676.963C415.101 677.154 417.321 675.234 417.516 672.675L419.29 649.344C419.485 646.784 417.58 644.554 415.037 644.363Z" fill="#0CBC8B"/>
<path d="M418.214 640.939L407.408 643.717C406.166 644.039 405.101 644.842 404.448 645.95C403.794 647.058 403.604 648.38 403.921 649.626L405.039 654.051C405.194 654.67 405.47 655.252 405.851 655.764C406.231 656.275 406.709 656.706 407.256 657.031C407.804 657.357 408.41 657.571 409.04 657.66C409.67 657.75 410.312 657.713 410.929 657.554L413.636 656.856L419.016 655.482L421.72 654.784C422.964 654.461 424.031 653.658 424.687 652.55C425.344 651.441 425.537 650.118 425.223 648.869L424.096 644.426C423.773 643.183 422.975 642.119 421.873 641.466C420.771 640.813 419.456 640.623 418.214 640.939ZM419.044 644.621C419.134 644.971 419.106 645.341 418.965 645.674C418.824 646.006 418.577 646.283 418.263 646.46C418.138 646.532 418.004 646.59 417.866 646.631L410.423 648.55C410.039 648.65 409.632 648.606 409.277 648.428C408.923 648.249 408.645 647.947 408.496 647.578C408.347 647.209 408.337 646.799 408.467 646.422C408.596 646.045 408.858 645.729 409.203 645.53C409.328 645.458 409.461 645.401 409.599 645.36L417.063 643.448C417.27 643.393 417.486 643.379 417.699 643.408C417.911 643.437 418.115 643.508 418.299 643.618C418.484 643.727 418.645 643.872 418.772 644.044C418.9 644.216 418.993 644.413 419.044 644.621V644.621Z" fill="#1F2A37"/>
<path d="M421.789 664.064L420.279 658.11L419.705 658.26L417.243 648.563L411.872 649.948L418.857 677.45C418.945 677.805 419.103 678.139 419.321 678.433C419.539 678.727 419.812 678.974 420.126 679.161C420.439 679.348 420.787 679.471 421.148 679.523C421.51 679.575 421.878 679.554 422.232 679.463V679.463C422.586 679.373 422.919 679.213 423.212 678.994C423.505 678.774 423.752 678.499 423.939 678.184C424.126 677.868 424.249 677.519 424.301 677.156C424.353 676.793 424.334 676.424 424.243 676.069L423.343 672.531L423.916 672.38L422.649 667.394L422.075 667.545L421.231 664.219L421.789 664.064Z" fill="#1F2A37"/>
<path d="M416.887 634.336C415.494 628.966 411.291 625.419 407.5 626.415C403.709 627.411 401.764 632.572 403.157 637.943C404.55 643.313 408.753 646.86 412.544 645.864C416.336 644.868 418.28 639.707 416.887 634.336Z" stroke="#1F2A37" stroke-width="2" stroke-miterlimit="10"/>
<path d="M405.488 632.273L401.57 630.525L400.264 638.393L404.617 639.705L405.488 632.273Z" fill="#F7BC90"/>
<path d="M64.3141 492.531L75.8702 499.554L115.833 434.706L104.277 427.683L64.3141 492.531Z" fill="#1F2A37"/>
<path d="M50.3082 496.577C51.4017 494.669 52.8646 492.995 54.6103 491.649C56.356 490.302 58.3527 489.313 60.485 488.732C62.6173 488.153 64.842 487.995 67.0349 488.27C69.2278 488.545 71.3457 489.247 73.2645 490.336C76.3461 492.136 78.7583 494.875 80.1462 498.147C81.534 501.419 81.8197 505.047 80.9598 508.491C80.1029 511.938 78.1466 515.015 75.3852 517.268C72.6239 519.52 69.2047 520.829 65.6326 520.995C65.4306 521.004 65.2286 520.958 65.0497 520.864C64.8708 520.769 64.7237 520.626 64.6198 520.454C64.5159 520.282 64.4611 520.084 64.4611 519.884C64.4611 519.683 64.5159 519.485 64.6227 519.313L71.816 507.631L58.9009 499.789L51.6932 511.491C51.5864 511.663 51.4335 511.803 51.2546 511.898C51.0728 511.992 50.8708 512.033 50.666 512.021C50.4611 512.007 50.2678 511.941 50.1004 511.823C49.9331 511.709 49.8003 511.548 49.7167 511.365C48.6433 509.027 48.1383 506.468 48.2393 503.901C48.3461 501.333 49.053 498.823 50.3082 496.577Z" fill="#1F2A37"/>
<path d="M101.242 413.858C102.655 411.56 104.618 409.64 106.955 408.27C109.292 406.901 111.929 406.121 114.641 406.001C114.843 405.992 115.045 406.035 115.224 406.13C115.403 406.225 115.553 406.368 115.657 406.54C115.761 406.712 115.816 406.909 115.816 407.11C115.816 407.311 115.761 407.508 115.654 407.68L108.438 419.382L121.353 427.227L128.549 415.548C128.656 415.376 128.806 415.236 128.988 415.144C129.169 415.053 129.371 415.01 129.573 415.021C129.775 415.033 129.972 415.101 130.139 415.216C130.306 415.331 130.439 415.488 130.523 415.674C131.59 418.013 132.092 420.566 131.989 423.13C131.885 425.694 131.175 428.199 129.92 430.442C128.82 432.351 127.355 434.027 125.606 435.371C123.855 436.717 121.855 437.706 119.72 438.282C117.585 438.858 115.354 439.013 113.158 438.732C110.963 438.451 108.845 437.746 106.923 436.652C105.033 435.534 103.385 434.056 102.076 432.302C100.766 430.548 99.8191 428.554 99.2911 426.434C98.7631 424.313 98.6649 422.11 98.9997 419.952C99.3315 417.792 100.096 415.72 101.242 413.858Z" fill="#1F2A37"/>
<path d="M50.9285 449.454C50.9285 449.454 62.9895 442.878 72.2315 442.419H95.1301L91.0905 449.01C91.0905 449.01 85.8016 452.735 90.9953 451.302C93.7105 450.554 101.094 449.583 103.691 449.583C105.647 449.583 106.931 449.359 106.865 451.302L102.124 476.961L93.8951 481.732C93.8951 481.732 87.9714 484.528 80.25 484.164C72.5287 483.8 57.8535 479.909 57.8535 479.909L50.9285 449.454Z" fill="#F7BC90"/>
<path d="M105.585 457.558C109.803 457.362 113.136 455.356 113.028 453.078C112.921 450.8 109.414 449.113 105.196 449.309C100.977 449.505 97.6449 451.511 97.7524 453.789C97.8599 456.067 101.367 457.754 105.585 457.558Z" fill="#F7BC90"/>
<path d="M103.85 464.434C108.068 464.238 111.388 461.969 111.265 459.368C111.142 456.766 107.623 454.816 103.405 455.012C99.1868 455.208 95.8667 457.476 95.9894 460.078C96.1122 462.68 99.6313 464.63 103.85 464.434Z" fill="#F7BC90"/>
<path d="M101.833 471.305C106.051 471.109 109.371 468.84 109.249 466.238C109.126 463.637 105.607 461.686 101.388 461.883C97.17 462.079 93.8499 464.347 93.9727 466.949C94.0955 469.551 97.6146 471.501 101.833 471.305Z" fill="#F7BC90"/>
<path d="M98.079 477.89C102.297 477.693 105.617 475.425 105.495 472.823C105.372 470.221 101.853 468.271 97.6345 468.467C93.4162 468.664 90.0961 470.932 90.2189 473.534C90.3416 476.136 93.8607 478.086 98.079 477.89Z" fill="#F7BC90"/>
<path d="M109.624 456.717C109.624 456.717 103.833 459.757 93.7339 461.763" stroke="#E68B5C" stroke-miterlimit="10" stroke-linecap="round"/>
<path d="M107.604 463.594C107.604 463.594 101.813 466.634 91.714 468.64" stroke="#E68B5C" stroke-miterlimit="10" stroke-linecap="round"/>
<path d="M104.43 471.044C104.43 471.044 98.639 474.084 88.5401 476.09" stroke="#E68B5C" stroke-miterlimit="10" stroke-linecap="round"/>
<path d="M27 487.912L56.6851 484.703C58.4567 484.488 59.6426 482.786 59.2185 481.064L50.6026 446.119C50.2449 444.672 48.8599 443.715 47.371 443.884L27.9637 446.09L27 487.912Z" fill="#FF6600"/>
<ellipse cx="399.8" cy="298.076" rx="41.76" ry="41.0949" fill="#D6D6D6"/>
<path d="M437.234 318.504C437.234 318.504 468.711 331.309 439.117 335.311C439.117 335.311 419.478 339.58 403.335 330.509C403.335 330.509 396.071 329.175 396.879 332.643C397.686 336.111 403.604 336.378 403.604 336.378C403.604 336.378 401.99 333.977 393.112 333.71C393.112 333.71 386.117 335.845 404.681 342.514C404.681 342.514 411.049 344.619 432.174 351.894C435.173 352.927 438.345 353.378 441.517 353.22C448.421 352.876 460.463 352.23 461.985 351.852C464.138 351.318 461.447 351.852 461.447 351.852C461.447 351.852 463.869 351.318 466.559 355.32L483.777 340.647C483.777 340.647 475.437 326.774 464.945 322.239C454.452 317.703 464.945 321.705 464.945 321.705C464.945 321.705 444.229 314.502 442.346 312.901C442.346 312.901 428.894 310.767 437.234 318.504Z" fill="#F7BC90"/>
<path d="M502.879 386L460.659 364.663C459.392 363.593 459.351 361.664 460.576 360.543L485.383 337.805C486.411 336.864 487.985 336.826 489.056 337.72L503.003 349.336L502.879 386Z" fill="#FF6600"/>
<path d="M424.737 284.502C424.737 284.502 416.787 284.088 412.214 274.217C407.64 264.346 400.914 262.746 400.914 262.746L411.138 261.412L426.473 282.221L424.737 284.502Z" fill="#F0AD7B"/>
<path d="M361.538 244.423L396.647 246.32C396.647 246.32 406.564 248.606 408.447 251.541L420.285 262.746C420.285 262.746 424.051 266.481 424.051 268.348L427.549 283.288L428.087 288.89C428.087 288.89 426.472 292.359 424.32 288.624C422.168 284.889 419.477 277.419 419.477 277.419C419.477 277.419 418.67 272.617 412.752 268.882L403.066 263.012C403.066 263.012 379.66 258.744 396.609 275.818C396.609 275.818 407.371 282.221 413.29 283.288C413.29 283.288 421.899 293.959 408.178 289.157C408.178 289.157 386.924 283.021 379.929 282.221C372.934 281.421 357.618 266.862 357.618 266.862L361.538 244.423Z" fill="#F7BC90"/>
<path d="M335.269 235L362.845 238.802C364.492 239.05 365.549 240.667 365.105 242.259L356.101 274.545C355.727 275.882 354.411 276.736 353.025 276.536L335 273.951L335.269 235Z" fill="#14365e"/>
<path d="M420.948 295.26L410.241 294.448C407.679 294.253 405.446 296.165 405.254 298.718L403.501 321.99C403.309 324.543 405.23 326.77 407.792 326.964L418.499 327.776C421.061 327.971 423.294 326.059 423.486 323.506L425.239 300.234C425.431 297.681 423.51 295.454 420.948 295.26Z" fill="#0CBC8B"/>
<path d="M424.137 291.82L413.284 294.578C412.037 294.897 410.968 295.698 410.313 296.803C409.658 297.909 409.47 299.23 409.79 300.475L410.92 304.897C411.078 305.516 411.356 306.098 411.739 306.609C412.122 307.121 412.603 307.552 413.153 307.878C413.704 308.204 414.313 308.419 414.946 308.509C415.58 308.6 416.225 308.564 416.844 308.406L419.563 307.714L424.967 306.349L427.682 305.656C428.931 305.336 430.002 304.536 430.66 303.43C431.318 302.323 431.509 301.001 431.193 299.753L430.052 295.314C429.727 294.071 428.922 293.007 427.814 292.353C426.706 291.698 425.385 291.507 424.137 291.82ZM424.977 295.5C425.068 295.85 425.041 296.219 424.899 296.551C424.758 296.883 424.51 297.159 424.195 297.336C424.069 297.408 423.936 297.465 423.797 297.506L416.321 299.411C415.935 299.51 415.526 299.466 415.17 299.287C414.813 299.107 414.534 298.806 414.384 298.437C414.233 298.068 414.222 297.658 414.352 297.282C414.482 296.906 414.744 296.59 415.09 296.392C415.216 296.32 415.35 296.263 415.489 296.223L422.985 294.325C423.193 294.27 423.41 294.257 423.623 294.286C423.836 294.316 424.042 294.387 424.227 294.496C424.413 294.606 424.574 294.751 424.703 294.923C424.832 295.096 424.925 295.292 424.977 295.5V295.5Z" fill="#1F2A37"/>
<path d="M427.74 314.911L426.215 308.965L425.639 309.115L423.152 299.432L417.763 300.806L424.819 328.267C424.908 328.622 425.067 328.955 425.286 329.249C425.505 329.542 425.78 329.79 426.096 329.977C426.411 330.164 426.76 330.288 427.123 330.34C427.485 330.392 427.855 330.372 428.21 330.282V330.282C428.566 330.192 428.9 330.034 429.193 329.815C429.487 329.596 429.735 329.322 429.922 329.008C430.109 328.693 430.232 328.345 430.284 327.983C430.335 327.621 430.315 327.252 430.224 326.897L429.314 323.365L429.889 323.215L428.609 318.236L428.033 318.385L427.18 315.065L427.74 314.911Z" fill="#1F2A37"/>
<path d="M422.807 285.237C421.401 279.871 417.177 276.323 413.373 277.312C409.568 278.301 407.624 283.454 409.03 288.82C410.436 294.186 414.66 297.735 418.464 296.745C422.269 295.756 424.213 290.604 422.807 285.237Z" stroke="#1F2A37" stroke-width="2" stroke-miterlimit="10"/>
<path d="M411.562 283.006L408.062 281.697L406.75 288.679L411.562 289.988V283.006Z" fill="#F7BC90"/>
<path d="M94.6784 17.8403C94.6784 17.8403 101.318 15.2167 101.716 22.6939C101.716 22.6939 101.318 24.6616 99.1931 26.4981L96.0062 29.7776L96.139 25.3175C96.139 25.3175 96.0062 23.6909 94.6784 23.5203V17.8403Z" fill="#F7BC90"/>
<path d="M46.2801 38.6964V35.249C46.2801 35.249 45.1501 34.8935 44.8846 34.1065V28.0539C44.8846 28.0539 45.02 26.6109 46.2801 26.8169V24.0057C46.2801 24.0057 45.2829 23.7814 44.8846 23.1058V16.5849C44.8846 16.5849 45.1528 15.4424 46.2801 15.4607V6.80293C46.2801 6.80293 47.0091 0.918251 53.1171 0H87.4696C87.4696 0 93.7489 0.169221 94.8112 7.36437V23.5203V36.2604L92.356 38.4524L88.9687 41.7148C88.9687 41.7148 87.2996 44.2518 89.063 47.181C89.063 47.181 90.5475 49.5475 94.539 48.91L92.2272 50.9826L90.1638 52.9962C90.1638 52.9962 88.0392 56.6692 90.6949 58.8992C90.5157 58.2761 90.2182 56.6062 94.8112 59.2928V66.2833C94.8112 66.2833 91.4996 74.2747 91.7798 71.007C92.2883 65.0646 94.8112 66.2452 94.8112 66.2452V87.3086C94.8112 87.3086 93.4834 93.5304 88.172 93.6616H51.7893C51.7893 93.6616 47.5588 92.4954 46.3545 87.9632L46.2801 38.6964Z" fill="#14365e"/>
<path d="M96.2175 35.7226V25.0052C96.2175 25.0052 96.1391 23.822 94.8113 23.5203V36.2604L96.2175 35.7226Z" fill="#14365e"/>
<path d="M86.341 91.3004H54.6827C51.4706 91.3004 48.8681 88.7293 48.8681 85.5561V8.10555C48.8681 4.93234 51.4706 2.36124 54.6827 2.36124H86.3423C89.553 2.36124 92.1555 4.93234 92.1555 8.10555V85.5574C92.1555 88.7293 89.553 91.3004 86.341 91.3004Z" fill="white"/>
<path d="M18.4421 137.986L34.5275 110.321L40.5028 100.483C40.5028 100.483 42.8929 96.3783 40.5028 88.8552C38.1127 81.3308 33.8636 66.3765 33.8636 66.3765C33.8636 66.3765 32.5358 61.654 35.1914 57.8498L43.8224 38.8289C43.8224 38.8289 44.6191 37.1236 45.8141 38.4354C45.8141 38.4354 53.6484 42.1084 48.8682 52.2092L46.2125 59.424L46.3546 87.9632C46.3546 87.9632 47.0092 91.9563 51.7894 93.6616L85.2509 93.7928L65.5989 127.506L58.9597 138L18.4421 137.986Z" fill="#F7BC90"/>
<path d="M97.3342 62.7034C99.5848 63.4616 101.08 65.3939 101.085 67.4468C101.089 69.3961 99.7495 70.6988 99.4587 70.9677C99.4587 70.9677 94.6785 74.903 91.89 69C91.7851 68.6891 91.1863 66.8093 92.2472 65.0161C93.2285 63.3554 95.2388 62.4371 97.3342 62.7034Z" fill="#F7BC90"/>
<path d="M88.9835 41.8185C90.5304 40.2535 92.0774 38.6886 93.623 37.1223C93.8128 36.9308 94.0213 36.755 94.251 36.6133C95.9082 35.5927 97.9119 35.4707 99.4575 36.3365C100.403 36.8652 101.412 37.8936 101.715 39.3536C101.767 39.6016 101.793 39.839 101.801 40.0659C101.837 41.0432 101.44 41.9877 100.744 42.683L95.0517 48.3787C94.3958 49.0359 93.5114 49.4334 92.5779 49.4544C92.57 49.4544 92.562 49.4544 92.554 49.4544C91.1359 49.478 90.0723 48.8169 89.5385 48.3997C89.3128 48.2239 89.1123 48.0219 88.9357 47.7989C88.6754 47.4736 88.4072 47.0538 88.2067 46.5357C87.7486 45.3577 87.8588 44.2322 88.0606 43.4333C88.2133 42.8233 88.5387 42.2684 88.9835 41.8185Z" fill="#F7BC90"/>
<path d="M90.1785 53.2311C91.7254 51.6661 93.2723 50.1011 94.8179 48.5349C95.0078 48.3434 95.2163 48.1676 95.446 48.0259C97.1031 47.0053 99.1068 46.8833 100.652 47.7491C101.598 48.2778 102.607 49.3062 102.91 50.7662C102.962 51.0142 102.988 51.2516 102.996 51.4785C103.032 52.4558 102.635 53.4003 101.939 54.0955L96.2467 59.7913C95.5907 60.4485 94.7064 60.846 93.7729 60.867C93.765 60.867 93.757 60.867 93.749 60.867C92.3309 60.8906 91.2673 60.2294 90.7335 59.8123C90.5078 59.6365 90.3073 59.4345 90.1307 59.2115C89.8704 58.8862 89.6022 58.4664 89.4017 57.9482C88.9436 56.7703 89.0538 55.6448 89.2556 54.8459C89.4083 54.2359 89.7336 53.681 90.1785 53.2311Z" fill="#F7BC90"/>
<path d="M17 138L32.8013 110.336L66.7939 129.357L64.0904 138H17Z" fill="#14365e"/>
<path d="M57.2944 36.32C57.823 36.4327 58.2477 36.697 58.5684 37.113C58.889 37.5203 59.0494 37.9883 59.0494 38.517C59.0494 39.2797 58.7807 39.8863 58.2434 40.337C57.7147 40.779 56.9737 41 56.0204 41H51.7694V31.874H55.8774C56.8047 31.874 57.5284 32.0863 58.0484 32.511C58.577 32.9357 58.8414 33.512 58.8414 34.24C58.8414 34.7773 58.6984 35.2237 58.4124 35.579C58.135 35.9343 57.7624 36.1813 57.2944 36.32ZM53.9924 35.566H55.4484C55.8124 35.566 56.0897 35.488 56.2804 35.332C56.4797 35.1673 56.5794 34.929 56.5794 34.617C56.5794 34.305 56.4797 34.0667 56.2804 33.902C56.0897 33.7373 55.8124 33.655 55.4484 33.655H53.9924V35.566ZM55.6304 39.206C56.003 39.206 56.289 39.1237 56.4884 38.959C56.6964 38.7857 56.8004 38.5387 56.8004 38.218C56.8004 37.8973 56.692 37.646 56.4754 37.464C56.2674 37.282 55.977 37.191 55.6044 37.191H53.9924V39.206H55.6304ZM64.6547 41.091C63.7967 41.091 63.008 40.8917 62.2887 40.493C61.578 40.0943 61.0104 39.5397 60.5857 38.829C60.1697 38.1097 59.9617 37.3037 59.9617 36.411C59.9617 35.5183 60.1697 34.7167 60.5857 34.006C61.0104 33.2953 61.578 32.7407 62.2887 32.342C63.008 31.9433 63.7967 31.744 64.6547 31.744C65.5127 31.744 66.297 31.9433 67.0077 32.342C67.727 32.7407 68.2904 33.2953 68.6977 34.006C69.1137 34.7167 69.3217 35.5183 69.3217 36.411C69.3217 37.3037 69.1137 38.1097 68.6977 38.829C68.2817 39.5397 67.7184 40.0943 67.0077 40.493C66.297 40.8917 65.5127 41.091 64.6547 41.091ZM64.6547 39.063C65.3827 39.063 65.9634 38.8203 66.3967 38.335C66.8387 37.8497 67.0597 37.2083 67.0597 36.411C67.0597 35.605 66.8387 34.9637 66.3967 34.487C65.9634 34.0017 65.3827 33.759 64.6547 33.759C63.918 33.759 63.3287 33.9973 62.8867 34.474C62.4534 34.9507 62.2367 35.5963 62.2367 36.411C62.2367 37.217 62.4534 37.8627 62.8867 38.348C63.3287 38.8247 63.918 39.063 64.6547 39.063ZM74.8744 41.091C74.0164 41.091 73.2278 40.8917 72.5084 40.493C71.7978 40.0943 71.2301 39.5397 70.8054 38.829C70.3894 38.1097 70.1814 37.3037 70.1814 36.411C70.1814 35.5183 70.3894 34.7167 70.8054 34.006C71.2301 33.2953 71.7978 32.7407 72.5084 32.342C73.2278 31.9433 74.0164 31.744 74.8744 31.744C75.7324 31.744 76.5168 31.9433 77.2274 32.342C77.9468 32.7407 78.5101 33.2953 78.9174 34.006C79.3334 34.7167 79.5414 35.5183 79.5414 36.411C79.5414 37.3037 79.3334 38.1097 78.9174 38.829C78.5014 39.5397 77.9381 40.0943 77.2274 40.493C76.5168 40.8917 75.7324 41.091 74.8744 41.091ZM74.8744 39.063C75.6024 39.063 76.1831 38.8203 76.6164 38.335C77.0584 37.8497 77.2794 37.2083 77.2794 36.411C77.2794 35.605 77.0584 34.9637 76.6164 34.487C76.1831 34.0017 75.6024 33.759 74.8744 33.759C74.1378 33.759 73.5484 33.9973 73.1064 34.474C72.6731 34.9507 72.4564 35.5963 72.4564 36.411C72.4564 37.217 72.6731 37.8627 73.1064 38.348C73.5484 38.8247 74.1378 39.063 74.8744 39.063ZM86.0692 41L83.0012 36.97V41H80.7782V31.874H83.0012V35.878L86.0432 31.874H88.6562L85.1202 36.346L88.7862 41H86.0692ZM62.136 61H59.913L56.195 55.371V61H53.972V51.874H56.195L59.913 57.529V51.874H62.136V61ZM68.0634 61.091C67.2054 61.091 66.4167 60.8917 65.6974 60.493C64.9867 60.0943 64.4191 59.5397 63.9944 58.829C63.5784 58.1097 63.3704 57.3037 63.3704 56.411C63.3704 55.5183 63.5784 54.7167 63.9944 54.006C64.4191 53.2953 64.9867 52.7407 65.6974 52.342C66.4167 51.9433 67.2054 51.744 68.0634 51.744C68.9214 51.744 69.7057 51.9433 70.4164 52.342C71.1357 52.7407 71.6991 53.2953 72.1064 54.006C72.5224 54.7167 72.7304 55.5183 72.7304 56.411C72.7304 57.3037 72.5224 58.1097 72.1064 58.829C71.6904 59.5397 71.1271 60.0943 70.4164 60.493C69.7057 60.8917 68.9214 61.091 68.0634 61.091ZM68.0634 59.063C68.7914 59.063 69.3721 58.8203 69.8054 58.335C70.2474 57.8497 70.4684 57.2083 70.4684 56.411C70.4684 55.605 70.2474 54.9637 69.8054 54.487C69.3721 54.0017 68.7914 53.759 68.0634 53.759C67.3267 53.759 66.7374 53.9973 66.2954 54.474C65.8621 54.9507 65.6454 55.5963 65.6454 56.411C65.6454 57.217 65.8621 57.8627 66.2954 58.348C66.7374 58.8247 67.3267 59.063 68.0634 59.063ZM86.5251 51.874L84.1461 61H81.4551L79.9991 54.994L78.4911 61H75.8001L73.4861 51.874H75.8651L77.1781 58.517L78.8031 51.874H81.2471L82.8071 58.517L84.1331 51.874H86.5251Z" fill="black"/>
</svg>
