<svg width="543" height="805" viewBox="0 0 543 805" fill="none" xmlns="http://www.w3.org/2000/svg">
<path d="M83.3714 155C79.3536 190.901 106.273 264.461 246.092 271.495C385.912 278.529 440.955 344.762 451 377" stroke="black" stroke-dasharray="6 10"/>
<path d="M54.3714 566C50.3536 530.099 77.2728 456.539 217.092 449.505C356.912 442.471 411.955 376.238 422 344" stroke="black" stroke-dasharray="6 10"/>
<path d="M46.3714 509C42.3536 544.901 69.2728 618.461 209.092 625.495C348.912 632.529 403.955 698.762 414 731" stroke="black" stroke-dasharray="6 10"/>
<ellipse cx="43.5" cy="139" rx="43.5" ry="43" fill="#D6D6D6"/>
<g clip-path="url(#clip0)">
<path d="M96.3881 18.616C96.3881 18.616 103.259 15.8783 103.671 23.6806C103.671 23.6806 103.259 25.7339 101.06 27.6502L97.7623 31.0723L97.8997 26.4183C97.8997 26.4183 97.7623 24.7209 96.3881 24.543V18.616Z" fill="#F7BC90"/>
<path d="M46.3015 40.3789V36.7816C46.3015 36.7816 45.1321 36.4106 44.8573 35.5894V29.2736C44.8573 29.2736 44.9974 27.7679 46.3015 27.9828V25.0494C46.3015 25.0494 45.2695 24.8154 44.8573 24.1104V17.306C44.8573 17.306 45.1348 16.1138 46.3015 16.1329V7.09871C46.3015 7.09871 47.0559 0.958175 53.377 0H88.9278C88.9278 0 95.4262 0.176578 96.5256 7.68456V24.543V37.837L93.9847 40.1243L90.4793 43.5285C90.4793 43.5285 88.752 46.1758 90.5768 49.2324C90.5768 49.2324 92.1131 51.7017 96.2439 51.0365L93.8514 53.1992L91.716 55.3004C91.716 55.3004 89.5174 59.1331 92.2657 61.4601C92.0802 60.8099 91.7724 59.0674 96.5256 61.8707V69.1652C96.5256 69.1652 93.0984 77.504 93.3884 74.0943C93.9147 67.8935 96.5256 69.1255 96.5256 69.1255V91.1046C96.5256 91.1046 95.1514 97.597 89.6548 97.7338H52.0029C52.0029 97.7338 47.6248 96.517 46.3785 91.7877L46.3015 40.3789Z" fill="#14365e"/>
<path d="M97.9809 37.2757V26.0924C97.9809 26.0924 97.8998 24.8577 96.5257 24.5429V37.8369L97.9809 37.2757Z" fill="#14365e"/>
<path d="M87.7598 95.27H54.9972C51.6731 95.27 48.9798 92.5871 48.9798 89.2759V8.45797C48.9798 5.14679 51.6731 2.4639 54.9972 2.4639H87.7612C91.0839 2.4639 93.7773 5.14679 93.7773 8.45797V89.2773C93.7773 92.5871 91.0839 95.27 87.7598 95.27Z" fill="white"/>
<path d="M17.4924 143.985L34.139 115.118L40.3227 104.852C40.3227 104.852 42.7961 100.569 40.3227 92.7185C37.8492 84.8669 33.4519 69.2624 33.4519 69.2624C33.4519 69.2624 32.0777 64.3346 34.826 60.365L43.7581 40.5171C43.7581 40.5171 44.5826 38.7377 45.8193 40.1065C45.8193 40.1065 53.9268 43.9392 48.9799 54.4791L46.2315 62.0076L46.3786 91.7877C46.3786 91.7877 47.056 95.9544 52.003 97.7339L86.6317 97.8707L66.2942 133.049L59.4234 144L17.4924 143.985Z" fill="#F7BC90"/>
<path d="M99.1365 65.4297C101.466 66.2208 103.013 68.2371 103.019 70.3793C103.023 72.4134 101.636 73.7726 101.335 74.0532C101.335 74.0532 96.3882 78.1597 93.5025 72C93.3939 71.6756 92.7742 69.7141 93.8722 67.8429C94.8877 66.11 96.9681 65.1518 99.1365 65.4297Z" fill="#F7BC90"/>
<path d="M90.4945 43.6367C92.0954 42.0037 93.6963 40.3707 95.2958 38.7363C95.4923 38.5365 95.7081 38.353 95.9458 38.2052C97.6608 37.1403 99.7344 37.013 101.334 37.9164C102.312 38.468 103.357 39.5412 103.67 41.0647C103.724 41.3234 103.751 41.5711 103.759 41.8079C103.796 42.8277 103.386 43.8133 102.665 44.5387L96.7744 50.4822C96.0956 51.1679 95.1804 51.5827 94.2144 51.6046C94.2061 51.6046 94.1979 51.6046 94.1896 51.6046C92.722 51.6292 91.6213 50.9394 91.0689 50.5041C90.8353 50.3206 90.6278 50.1099 90.4451 49.8772C90.1757 49.5377 89.8982 49.0997 89.6907 48.559C89.2166 47.3298 89.3306 46.1553 89.5395 45.3217C89.6975 44.6852 90.0342 44.1062 90.4945 43.6367Z" fill="#F7BC90"/>
<path d="M91.7312 55.5455C93.3321 53.9125 94.933 52.2795 96.5325 50.6451C96.729 50.4452 96.9448 50.2618 97.1825 50.114C98.8974 49.049 100.971 48.9217 102.571 49.8252C103.549 50.3768 104.593 51.45 104.907 52.9734C104.96 53.2322 104.988 53.4799 104.996 53.7167C105.033 54.7365 104.622 55.722 103.902 56.4475L98.0111 62.3909C97.3323 63.0767 96.4171 63.4914 95.4511 63.5133C95.4428 63.5133 95.4346 63.5133 95.4263 63.5133C93.9587 63.538 92.858 62.8481 92.3056 62.4128C92.072 62.2294 91.8645 62.0186 91.6817 61.7859C91.4124 61.4464 91.1348 61.0084 90.9273 60.4677C90.4533 59.2385 90.5673 58.0641 90.7762 57.2305C90.9342 56.594 91.2709 56.015 91.7312 55.5455Z" fill="#F7BC90"/>
<path d="M16 144L32.3525 115.133L67.5309 134.981L64.7331 144H16Z" fill="#14365e"/>
<path d="M63.3369 39.4846C63.8656 39.5972 64.2903 39.8616 64.6109 40.2776C64.9316 40.6849 65.0919 41.1529 65.0919 41.6816C65.0919 42.4442 64.8233 43.0509 64.2859 43.5016C63.7573 43.9436 63.0163 44.1646 62.0629 44.1646H57.8119V35.0386H61.9199C62.8473 35.0386 63.5709 35.2509 64.0909 35.6756C64.6196 36.1002 64.8839 36.6766 64.8839 37.4046C64.8839 37.9419 64.7409 38.3882 64.4549 38.7436C64.1776 39.0989 63.8049 39.3459 63.3369 39.4846ZM60.0349 38.7306H61.4909C61.8549 38.7306 62.1323 38.6526 62.3229 38.4966C62.5223 38.3319 62.6219 38.0936 62.6219 37.7816C62.6219 37.4696 62.5223 37.2312 62.3229 37.0666C62.1323 36.9019 61.8549 36.8196 61.4909 36.8196H60.0349V38.7306ZM61.6729 42.3706C62.0456 42.3706 62.3316 42.2882 62.5309 42.1236C62.7389 41.9502 62.8429 41.7032 62.8429 41.3826C62.8429 41.0619 62.7346 40.8106 62.5179 40.6286C62.3099 40.4466 62.0196 40.3556 61.6469 40.3556H60.0349V42.3706H61.6729ZM70.6973 44.2556C69.8393 44.2556 69.0506 44.0562 68.3313 43.6576C67.6206 43.2589 67.0529 42.7042 66.6283 41.9936C66.2123 41.2742 66.0043 40.4682 66.0043 39.5756C66.0043 38.6829 66.2123 37.8812 66.6283 37.1706C67.0529 36.4599 67.6206 35.9052 68.3313 35.5066C69.0506 35.1079 69.8393 34.9086 70.6973 34.9086C71.5553 34.9086 72.3396 35.1079 73.0503 35.5066C73.7696 35.9052 74.3329 36.4599 74.7403 37.1706C75.1563 37.8812 75.3643 38.6829 75.3643 39.5756C75.3643 40.4682 75.1563 41.2742 74.7403 41.9936C74.3243 42.7042 73.7609 43.2589 73.0503 43.6576C72.3396 44.0562 71.5553 44.2556 70.6973 44.2556ZM70.6973 42.2276C71.4253 42.2276 72.0059 41.9849 72.4393 41.4996C72.8813 41.0142 73.1023 40.3729 73.1023 39.5756C73.1023 38.7696 72.8813 38.1282 72.4393 37.6516C72.0059 37.1662 71.4253 36.9236 70.6973 36.9236C69.9606 36.9236 69.3713 37.1619 68.9293 37.6386C68.4959 38.1152 68.2793 38.7609 68.2793 39.5756C68.2793 40.3816 68.4959 41.0272 68.9293 41.5126C69.3713 41.9892 69.9606 42.2276 70.6973 42.2276ZM80.917 44.2556C80.059 44.2556 79.2703 44.0562 78.551 43.6576C77.8403 43.2589 77.2726 42.7042 76.848 41.9936C76.432 41.2742 76.224 40.4682 76.224 39.5756C76.224 38.6829 76.432 37.8812 76.848 37.1706C77.2726 36.4599 77.8403 35.9052 78.551 35.5066C79.2703 35.1079 80.059 34.9086 80.917 34.9086C81.775 34.9086 82.5593 35.1079 83.27 35.5066C83.9893 35.9052 84.5526 36.4599 84.96 37.1706C85.376 37.8812 85.584 38.6829 85.584 39.5756C85.584 40.4682 85.376 41.2742 84.96 41.9936C84.544 42.7042 83.9806 43.2589 83.27 43.6576C82.5593 44.0562 81.775 44.2556 80.917 44.2556ZM80.917 42.2276C81.645 42.2276 82.2256 41.9849 82.659 41.4996C83.101 41.0142 83.322 40.3729 83.322 39.5756C83.322 38.7696 83.101 38.1282 82.659 37.6516C82.2256 37.1662 81.645 36.9236 80.917 36.9236C80.1803 36.9236 79.591 37.1619 79.149 37.6386C78.7156 38.1152 78.499 38.7609 78.499 39.5756C78.499 40.3816 78.7156 41.0272 79.149 41.5126C79.591 41.9892 80.1803 42.2276 80.917 42.2276ZM73.0751 64.1646L70.0071 60.1346V64.1646H67.7841V55.0386H70.0071V59.0426L73.0491 55.0386H75.6621L72.1261 59.5106L75.7921 64.1646H73.0751ZM63.6463 84.1646H61.4233L57.7053 78.5356V84.1646H55.4823V75.0386H57.7053L61.4233 80.6936V75.0386H63.6463V84.1646ZM69.5737 84.2556C68.7157 84.2556 67.9271 84.0562 67.2077 83.6576C66.4971 83.2589 65.9294 82.7042 65.5047 81.9936C65.0887 81.2742 64.8807 80.4682 64.8807 79.5756C64.8807 78.6829 65.0887 77.8812 65.5047 77.1706C65.9294 76.4599 66.4971 75.9052 67.2077 75.5066C67.9271 75.1079 68.7157 74.9086 69.5737 74.9086C70.4317 74.9086 71.2161 75.1079 71.9267 75.5066C72.6461 75.9052 73.2094 76.4599 73.6167 77.1706C74.0327 77.8812 74.2407 78.6829 74.2407 79.5756C74.2407 80.4682 74.0327 81.2742 73.6167 81.9936C73.2007 82.7042 72.6374 83.2589 71.9267 83.6576C71.2161 84.0562 70.4317 84.2556 69.5737 84.2556ZM69.5737 82.2276C70.3017 82.2276 70.8824 81.9849 71.3157 81.4996C71.7577 81.0142 71.9787 80.3729 71.9787 79.5756C71.9787 78.7696 71.7577 78.1282 71.3157 77.6516C70.8824 77.1662 70.3017 76.9236 69.5737 76.9236C68.8371 76.9236 68.2477 77.1619 67.8057 77.6386C67.3724 78.1152 67.1557 78.7609 67.1557 79.5756C67.1557 80.3816 67.3724 81.0272 67.8057 81.5126C68.2477 81.9892 68.8371 82.2276 69.5737 82.2276ZM88.0354 75.0386L85.6564 84.1646H82.9654L81.5094 78.1586L80.0014 84.1646H77.3104L74.9964 75.0386H77.3754L78.6884 81.6816L80.3134 75.0386H82.7574L84.3174 81.6816L85.6434 75.0386H88.0354Z" fill="black"/>
</g>
<ellipse cx="46" cy="496.5" rx="44" ry="43.5" fill="#D6D6D6"/>
<g clip-path="url(#clip1)">
<path d="M71.091 523.292L83.1973 530.621L125.063 462.953L112.957 455.625L71.091 523.292Z" fill="#1F2A37"/>
<path d="M56.4181 527.514C57.5637 525.523 59.0963 523.777 60.9251 522.371C62.7539 520.966 64.8456 519.935 67.0795 519.328C69.3134 518.724 71.6439 518.559 73.9413 518.846C76.2386 519.133 78.4574 519.866 80.4675 521.002C83.6959 522.88 86.2229 525.738 87.6769 529.152C89.1309 532.567 89.4301 536.352 88.5293 539.946C87.6316 543.543 85.5821 546.754 82.6893 549.104C79.7965 551.454 76.2144 552.821 72.4722 552.994C72.2606 553.003 72.049 552.955 71.8616 552.857C71.6742 552.758 71.52 552.608 71.4112 552.429C71.3024 552.25 71.2449 552.043 71.2449 551.834C71.2449 551.625 71.3024 551.418 71.4142 551.239L78.9501 539.049L65.42 530.866L57.869 543.077C57.7572 543.256 57.597 543.402 57.4095 543.501C57.2191 543.6 57.0075 543.642 56.7929 543.63C56.5783 543.615 56.3757 543.546 56.2004 543.423C56.0251 543.304 55.886 543.136 55.7984 542.945C54.6739 540.505 54.1449 537.835 54.2507 535.156C54.3625 532.477 55.1031 529.858 56.4181 527.514Z" fill="#1F2A37"/>
<path d="M109.777 441.198C111.258 438.8 113.314 436.797 115.762 435.368C118.211 433.939 120.973 433.126 123.815 433C124.026 432.991 124.238 433.036 124.425 433.135C124.613 433.233 124.77 433.383 124.879 433.562C124.988 433.741 125.045 433.948 125.045 434.157C125.045 434.366 124.988 434.573 124.876 434.752L117.316 446.963L130.846 455.149L138.385 442.962C138.497 442.783 138.654 442.636 138.844 442.541C139.035 442.445 139.246 442.4 139.458 442.412C139.669 442.424 139.875 442.496 140.05 442.616C140.226 442.735 140.365 442.9 140.452 443.094C141.571 445.534 142.097 448.198 141.988 450.874C141.879 453.55 141.136 456.163 139.821 458.504C138.669 460.495 137.133 462.244 135.302 463.647C133.467 465.052 131.372 466.083 129.135 466.684C126.898 467.285 124.561 467.447 122.261 467.154C119.961 466.861 117.742 466.125 115.729 464.983C113.749 463.817 112.023 462.274 110.651 460.444C109.278 458.615 108.287 456.534 107.733 454.321C107.18 452.109 107.078 449.809 107.428 447.558C107.776 445.303 108.577 443.142 109.777 441.198Z" fill="#1F2A37"/>
<path d="M57.068 478.342C57.068 478.342 69.7033 471.48 79.3854 471.002H103.374L99.1424 477.879C99.1424 477.879 93.6016 481.765 99.0427 480.27C101.887 479.49 109.623 478.476 112.343 478.476C114.392 478.476 115.738 478.243 115.668 480.27L110.702 507.045L102.081 512.023C102.081 512.023 95.8748 514.941 87.7857 514.562C79.6967 514.182 64.3227 510.122 64.3227 510.122L57.068 478.342Z" fill="#F7BC90"/>
<path d="M114.327 486.798C118.746 486.594 122.237 484.501 122.125 482.124C122.012 479.747 118.339 477.986 113.919 478.191C109.5 478.396 106.009 480.489 106.122 482.865C106.234 485.242 109.908 487.003 114.327 486.798Z" fill="#F7BC90"/>
<path d="M112.509 493.974C116.928 493.769 120.406 491.402 120.278 488.687C120.149 485.972 116.463 483.937 112.043 484.142C107.624 484.346 104.146 486.713 104.275 489.428C104.403 492.143 108.09 494.178 112.509 493.974Z" fill="#F7BC90"/>
<path d="M110.396 501.143C114.816 500.938 118.294 498.571 118.165 495.856C118.037 493.141 114.35 491.106 109.931 491.311C105.511 491.516 102.033 493.883 102.162 496.598C102.29 499.313 105.977 501.348 110.396 501.143Z" fill="#F7BC90"/>
<path d="M106.464 508.014C110.883 507.809 114.361 505.442 114.232 502.727C114.104 500.012 110.417 497.977 105.998 498.182C101.579 498.387 98.1007 500.754 98.2293 503.469C98.3579 506.184 102.045 508.219 106.464 508.014Z" fill="#F7BC90"/>
<path d="M118.558 485.921C118.558 485.921 112.492 489.094 101.912 491.187" stroke="#E68B5C" stroke-miterlimit="10" stroke-linecap="round"/>
<path d="M116.442 493.097C116.442 493.097 110.375 496.269 99.7957 498.362" stroke="#E68B5C" stroke-miterlimit="10" stroke-linecap="round"/>
<path d="M113.117 500.871C113.117 500.871 107.05 504.043 96.4706 506.136" stroke="#E68B5C" stroke-miterlimit="10" stroke-linecap="round"/>
<path d="M32 518.473L63.0987 515.124C64.9547 514.9 66.197 513.124 65.7527 511.327L56.7266 474.862C56.3517 473.352 54.9008 472.353 53.341 472.53L33.0096 474.832L32 518.473Z" fill="#FF6600"/>
</g>
<g clip-path="url(#clip2)">
<ellipse cx="435.5" cy="352" rx="43.5" ry="43" fill="#D6D6D6"/>
<path d="M474.494 373.375C474.494 373.375 507.283 386.774 476.456 390.961C476.456 390.961 455.998 395.428 439.183 385.936C439.183 385.936 431.616 384.541 432.457 388.17C433.298 391.799 439.463 392.078 439.463 392.078C439.463 392.078 437.782 389.565 428.533 389.286C428.533 389.286 421.247 391.519 440.584 398.498C440.584 398.498 447.217 400.701 469.222 408.313C472.347 409.394 475.651 409.865 478.955 409.701C486.147 409.34 498.69 408.665 500.277 408.269C502.519 407.71 499.716 408.269 499.716 408.269C499.716 408.269 502.238 407.71 505.041 411.898L522.977 396.544C522.977 396.544 514.289 382.028 503.359 377.283C492.43 372.537 503.359 376.724 503.359 376.724C503.359 376.724 481.78 369.187 479.819 367.512C479.819 367.512 465.806 365.279 474.494 373.375Z" fill="#F7BC90"/>
<path d="M542.874 444L498.895 421.673C497.575 420.554 497.533 418.536 498.808 417.363L524.649 393.571C525.72 392.586 527.359 392.547 528.475 393.482L543.003 405.636L542.874 444Z" fill="#FF6600"/>
<path d="M461.476 337.797C461.476 337.797 453.195 337.364 448.431 327.035C443.667 316.707 436.661 315.032 436.661 315.032L447.31 313.636L463.284 335.41L461.476 337.797Z" fill="#F0AD7B"/>
<path d="M395.643 295.86L432.216 297.844C432.216 297.844 442.546 300.237 444.507 303.307L456.838 315.032C456.838 315.032 460.762 318.94 460.762 320.894L464.405 336.527L464.965 342.389C464.965 342.389 463.284 346.018 461.042 342.11C458.8 338.201 455.997 330.385 455.997 330.385C455.997 330.385 455.157 325.36 448.991 321.452L438.902 315.311C438.902 315.311 414.521 310.845 432.176 328.71C432.176 328.71 443.386 335.41 449.552 336.527C449.552 336.527 458.52 347.693 444.227 342.668C444.227 342.668 422.088 336.247 414.801 335.41C407.515 334.572 391.56 319.339 391.56 319.339L395.643 295.86Z" fill="#F7BC90"/>
<path d="M368.28 286L397.006 289.978C398.721 290.238 399.822 291.929 399.36 293.596L389.98 327.379C389.59 328.777 388.22 329.671 386.777 329.461L368 326.756L368.28 286Z" fill="#14365e"/>
<path d="M457.536 349.038L446.399 348.199C443.734 347.998 441.41 350.002 441.207 352.675L439.36 377.039C439.157 379.712 441.153 382.042 443.818 382.242L454.955 383.082C457.62 383.283 459.945 381.279 460.148 378.606L461.995 354.242C462.197 351.569 460.201 349.239 457.536 349.038Z" fill="#0CBC8B"/>
<path d="M460.861 345.454L449.551 348.351C448.251 348.686 447.137 349.525 446.453 350.682C445.77 351.839 445.572 353.22 445.904 354.522L447.077 359.146C447.24 359.793 447.529 360.401 447.928 360.936C448.326 361.471 448.826 361.921 449.4 362.261C449.973 362.602 450.607 362.825 451.267 362.919C451.927 363.013 452.599 362.976 453.244 362.809L456.078 362.082L461.709 360.649L464.539 359.921C465.841 359.585 466.957 358.746 467.644 357.589C468.33 356.431 468.531 355.048 468.203 353.743L467.02 349.101C466.682 347.802 465.845 346.69 464.692 346.007C463.538 345.324 462.161 345.125 460.861 345.454ZM461.732 349.302C461.827 349.667 461.798 350.054 461.65 350.401C461.502 350.749 461.244 351.038 460.915 351.223C460.784 351.298 460.645 351.358 460.5 351.401L452.71 353.402C452.308 353.506 451.881 353.46 451.51 353.273C451.139 353.086 450.849 352.771 450.692 352.385C450.536 352 450.525 351.571 450.661 351.177C450.796 350.784 451.07 350.453 451.431 350.246C451.562 350.171 451.701 350.111 451.846 350.068L459.658 348.075C459.875 348.017 460.101 348.003 460.323 348.034C460.545 348.064 460.759 348.139 460.952 348.253C461.145 348.367 461.313 348.519 461.447 348.699C461.581 348.879 461.678 349.084 461.732 349.302V349.302Z" fill="#1F2A37"/>
<path d="M464.607 369.612L463.024 363.392L462.423 363.549L459.841 353.418L454.221 354.862L461.546 383.592C461.639 383.963 461.804 384.312 462.032 384.619C462.26 384.926 462.547 385.185 462.875 385.38C463.204 385.576 463.567 385.704 463.946 385.759C464.324 385.813 464.709 385.792 465.079 385.696V385.696C465.45 385.603 465.798 385.436 466.105 385.207C466.411 384.978 466.67 384.691 466.865 384.361C467.06 384.032 467.189 383.667 467.244 383.288C467.298 382.909 467.277 382.523 467.182 382.153L466.238 378.457L466.838 378.299L465.509 373.09L464.909 373.247L464.023 369.773L464.607 369.612Z" fill="#1F2A37"/>
<path d="M459.473 338.56C458.013 332.948 453.613 329.241 449.646 330.28C445.679 331.318 443.647 336.71 445.107 342.321C446.568 347.933 450.967 351.64 454.934 350.601C458.901 349.563 460.933 344.172 459.473 338.56Z" stroke="#1F2A37" stroke-width="2" stroke-miterlimit="10"/>
<path d="M447.753 336.231L444.107 334.861L442.74 342.168L447.753 343.538V336.231Z" fill="#F7BC90"/>
</g>
<g clip-path="url(#clip3)">
<ellipse cx="372.5" cy="710" rx="43.5" ry="43" fill="#D6D6D6"/>
<path d="M389.362 730.352C389.362 730.352 423.65 744.514 391.413 748.94C391.413 748.94 370.02 753.661 352.437 743.629C352.437 743.629 344.524 742.154 345.403 745.989C346.282 749.825 352.73 750.12 352.73 750.12C352.73 750.12 350.971 747.465 341.3 747.17C341.3 747.17 333.681 749.53 353.902 756.906C353.902 756.906 360.839 759.234 383.849 767.28C387.117 768.422 390.572 768.921 394.027 768.747C401.547 768.366 414.665 767.652 416.323 767.233C418.668 766.643 415.737 767.233 415.737 767.233C415.737 767.233 418.375 766.643 421.305 771.069L440.061 754.841C440.061 754.841 430.976 739.498 419.547 734.482C408.118 729.466 419.547 733.892 419.547 733.892C419.547 733.892 396.981 725.926 394.93 724.155C394.93 724.155 380.277 721.795 389.362 730.352Z" fill="#F7BC90"/>
<path d="M460.868 805L414.878 781.402C413.498 780.218 413.454 778.085 414.788 776.846L441.81 751.699C442.93 750.657 444.644 750.616 445.811 751.604L461.003 764.451L460.868 805Z" fill="#14365e"/>
<path d="M375.749 692.747C375.749 692.747 367.09 692.29 362.108 681.373C357.126 670.456 349.799 668.686 349.799 668.686L360.935 667.21L377.64 690.224L375.749 692.747Z" fill="#F0AD7B"/>
<path d="M306.907 648.421L345.151 650.519C345.151 650.519 355.953 653.048 358.005 656.293L370.899 668.686C370.899 668.686 375.002 672.816 375.002 674.882L378.812 691.405L379.398 697.601C379.398 697.601 377.64 701.436 375.295 697.306C372.951 693.175 370.02 684.913 370.02 684.913C370.02 684.913 369.141 679.603 362.694 675.472L352.144 668.981C352.144 668.981 326.648 664.26 345.11 683.143C345.11 683.143 356.833 690.224 363.28 691.405C363.28 691.405 372.658 703.207 357.712 697.896C357.712 697.896 334.56 691.11 326.941 690.224C319.321 689.339 302.637 673.238 302.637 673.238L306.907 648.421Z" fill="#F7BC90"/>
<path d="M278.293 638L308.331 642.205C310.125 642.479 311.277 644.267 310.793 646.028L300.985 681.736C300.577 683.214 299.144 684.158 297.635 683.937L278 681.078L278.293 638Z" fill="#FF6600"/>
<path d="M369.012 703.098L357.889 702.26C355.227 702.059 352.905 704.062 352.702 706.733L350.856 731.079C350.653 733.749 352.647 736.077 355.309 736.278L366.432 737.116C369.094 737.316 371.416 735.314 371.619 732.643L373.465 708.297C373.668 705.626 371.674 703.299 369.012 703.098Z" fill="#0CBC8B"/>
<path d="M372.334 699.517L361.036 702.413C359.738 702.748 358.625 703.586 357.942 704.742C357.258 705.898 357.061 707.278 357.393 708.579L358.564 713.199C358.726 713.846 359.015 714.454 359.413 714.988C359.812 715.522 360.311 715.972 360.884 716.312C361.456 716.652 362.09 716.875 362.749 716.969C363.408 717.063 364.079 717.026 364.724 716.859L367.555 716.132L373.18 714.7L376.006 713.972C377.307 713.637 378.422 712.799 379.108 711.642C379.794 710.485 379.995 709.103 379.667 707.799L378.486 703.161C378.148 701.863 377.312 700.752 376.16 700.07C375.008 699.387 373.633 699.189 372.334 699.517ZM373.203 703.362C373.298 703.727 373.269 704.114 373.122 704.461C372.974 704.808 372.716 705.097 372.388 705.282C372.257 705.357 372.117 705.417 371.973 705.459L364.191 707.459C363.789 707.563 363.363 707.518 362.993 707.331C362.622 707.144 362.332 706.829 362.176 706.444C362.02 706.059 362.008 705.63 362.144 705.237C362.28 704.844 362.553 704.513 362.913 704.307C363.044 704.231 363.183 704.171 363.328 704.129L371.132 702.137C371.348 702.079 371.574 702.065 371.796 702.095C372.018 702.126 372.232 702.2 372.424 702.314C372.617 702.428 372.786 702.58 372.919 702.76C373.053 702.94 373.15 703.144 373.203 703.362V703.362Z" fill="#1F2A37"/>
<path d="M376.075 723.656L374.494 717.441L373.894 717.598L371.315 707.476L365.701 708.918L373.016 737.625C373.109 737.996 373.274 738.345 373.502 738.652C373.73 738.958 374.016 739.217 374.344 739.412C374.672 739.607 375.035 739.736 375.413 739.79C375.791 739.844 376.176 739.823 376.546 739.728V739.728C376.916 739.634 377.264 739.468 377.57 739.239C377.876 739.01 378.134 738.723 378.33 738.394C378.525 738.065 378.653 737.7 378.708 737.322C378.762 736.943 378.741 736.557 378.647 736.187L377.704 732.494L378.303 732.337L376.976 727.132L376.376 727.289L375.492 723.817L376.075 723.656Z" fill="#1F2A37"/>
<path d="M370.947 692.628C369.489 687.021 365.094 683.318 361.131 684.356C357.168 685.394 355.138 690.781 356.596 696.388C358.055 701.995 362.45 705.698 366.412 704.66C370.375 703.622 372.406 698.235 370.947 692.628Z" stroke="#1F2A37" stroke-width="2" stroke-miterlimit="10"/>
<path d="M359.03 690.473L354.933 688.648L353.567 696.861L358.119 698.229L359.03 690.473Z" fill="#F7BC90"/>
</g>
<path d="M142.409 80.888V69.44H162.353V122H149.537V80.888H142.409Z" fill="black" fill-opacity="0.55"/>
<path d="M270.242 369.136C271.874 367.84 272.618 367.24 272.474 367.336C277.178 363.448 280.874 360.256 283.562 357.76C286.298 355.264 288.602 352.648 290.474 349.912C292.346 347.176 293.282 344.512 293.282 341.92C293.282 339.952 292.826 338.416 291.914 337.312C291.002 336.208 289.634 335.656 287.81 335.656C285.986 335.656 284.546 336.352 283.49 337.744C282.482 339.088 281.978 341.008 281.978 343.504H270.098C270.194 339.424 271.058 336.016 272.69 333.28C274.37 330.544 276.554 328.528 279.242 327.232C281.978 325.936 285.002 325.288 288.314 325.288C294.026 325.288 298.322 326.752 301.202 329.68C304.13 332.608 305.594 336.424 305.594 341.128C305.594 346.264 303.842 351.04 300.338 355.456C296.834 359.824 292.37 364.096 286.946 368.272H306.386V378.28H270.242V369.136Z" fill="black" fill-opacity="0.55"/>
<path d="M157.875 523.272C158.067 518.136 159.747 514.176 162.915 511.392C166.083 508.608 170.379 507.216 175.803 507.216C179.403 507.216 182.475 507.84 185.019 509.088C187.611 510.336 189.555 512.04 190.851 514.2C192.195 516.36 192.867 518.784 192.867 521.472C192.867 524.64 192.075 527.232 190.491 529.248C188.907 531.216 187.059 532.56 184.947 533.28V533.568C187.683 534.48 189.843 535.992 191.427 538.104C193.011 540.216 193.803 542.928 193.803 546.24C193.803 549.216 193.107 551.856 191.715 554.16C190.371 556.416 188.379 558.192 185.739 559.488C183.147 560.784 180.051 561.432 176.451 561.432C170.691 561.432 166.083 560.016 162.627 557.184C159.219 554.352 157.419 550.08 157.227 544.368H169.179C169.227 546.48 169.827 548.16 170.979 549.408C172.131 550.608 173.811 551.208 176.019 551.208C177.891 551.208 179.331 550.68 180.339 549.624C181.395 548.52 181.923 547.08 181.923 545.304C181.923 543 181.179 541.344 179.691 540.336C178.251 539.28 175.923 538.752 172.707 538.752H170.403V528.744H172.707C175.155 528.744 177.123 528.336 178.611 527.52C180.147 526.656 180.915 525.144 180.915 522.984C180.915 521.256 180.435 519.912 179.475 518.952C178.515 517.992 177.195 517.512 175.515 517.512C173.691 517.512 172.323 518.064 171.411 519.168C170.547 520.272 170.043 521.64 169.899 523.272H157.875Z" fill="black" fill-opacity="0.55"/>
<path d="M192.665 753.64V743.704L215.417 711.16H229.169V742.984H235.073V753.64H229.169V763H216.857V753.64H192.665ZM217.721 724.696L205.625 742.984H217.721V724.696Z" fill="black" fill-opacity="0.55"/>
<defs>
<clipPath id="clip0">
<rect width="89" height="144" fill="white" transform="translate(16)"/>
</clipPath>
<clipPath id="clip1">
<rect width="110" height="120" fill="white" transform="translate(32 433)"/>
</clipPath>
<clipPath id="clip2">
<rect width="175" height="158" fill="white" transform="translate(368 286)"/>
</clipPath>
<clipPath id="clip3">
<rect width="183" height="167" fill="white" transform="translate(278 638)"/>
</clipPath>
</defs>
</svg>
