<svg width="175" height="158" viewBox="0 0 175 158" fill="none" xmlns="http://www.w3.org/2000/svg">
<ellipse cx="86.9778" cy="79.1654" rx="43.2285" ry="42.7076" fill="#D6D6D6"/>
<path d="M106.492 86.9814C106.492 86.9814 139.28 100.32 108.454 104.489C108.454 104.489 87.9961 108.935 71.1816 99.4868C71.1816 99.4868 63.6151 98.0973 64.4558 101.71C65.2965 105.323 71.4619 105.6 71.4619 105.6C71.4619 105.6 69.7804 103.099 60.5324 102.822C60.5324 102.822 53.2461 105.045 72.5828 111.992C72.5828 111.992 79.2162 114.185 101.221 121.763C104.345 122.838 107.65 123.308 110.954 123.144C118.145 122.786 130.688 122.113 132.274 121.718C134.516 121.163 131.714 121.718 131.714 121.718C131.714 121.718 134.236 121.163 137.039 125.331L154.974 110.047C154.974 110.047 146.287 95.5962 135.357 90.872C124.428 86.1477 135.357 90.3162 135.357 90.3162C135.357 90.3162 113.778 82.813 111.817 81.1456C111.817 81.1456 97.8046 78.9224 106.492 86.9814Z" fill="#F7BC90"/>
<path d="M174.871 157.289L130.893 135.063C129.573 133.949 129.531 131.939 130.806 130.772L156.647 107.087C157.717 106.106 159.357 106.067 160.472 106.998L175 119.098L174.871 157.289Z" fill="#FF6600"/>
<path d="M27.643 9.81532L64.2146 11.7912C64.2146 11.7912 74.5443 14.1727 76.506 17.2296L88.8367 28.9012C88.8367 28.9012 92.7601 32.7918 92.7601 34.737L96.4032 50.2992L96.9637 56.135C96.9637 56.135 95.2822 59.7477 93.0403 55.8571C90.7984 51.9666 87.9959 44.1855 87.9959 44.1855C87.9959 44.1855 87.1552 39.1834 80.9899 35.2928L70.9012 29.1791C70.9012 29.1791 46.5201 24.7328 64.1754 42.5181C64.1754 42.5181 75.385 49.1876 81.5504 50.2992C81.5504 50.2992 90.5181 61.415 76.2258 56.4129C76.2258 56.4129 54.0866 50.0213 46.8004 49.1876C39.5141 48.3539 23.5599 33.1891 23.5599 33.1891L27.643 9.81532Z" fill="#F7BC90"/>
<path d="M0.280242 0L29.0051 3.96002C30.7201 4.21846 31.8215 5.90251 31.3591 7.56155L21.9794 41.1925C21.5899 42.5848 20.2195 43.474 18.7762 43.2656L0 40.5728L0.280242 0Z" fill="#14365e"/>
<path d="M89.5279 62.7698L78.3751 61.9237C75.7064 61.7213 73.3806 63.7129 73.1803 66.3721L71.3544 90.613C71.1541 93.2722 73.1552 95.5921 75.8239 95.7945L86.9767 96.6406C89.6455 96.843 91.9713 94.8514 92.1716 92.1922L93.9975 67.9513C94.1978 65.2921 92.1967 62.9722 89.5279 62.7698Z" fill="#0CBC8B"/>
<path d="M92.8498 59.1866L81.5447 62.0595C80.2455 62.3922 79.1324 63.2259 78.45 64.3776C77.7676 65.5293 77.5716 66.9047 77.9051 68.2018L79.0824 72.8083C79.2463 73.4529 79.5361 74.0591 79.9353 74.5919C80.3344 75.1248 80.835 75.5739 81.4083 75.9135C81.9816 76.2531 82.6164 76.4764 83.2761 76.5707C83.9359 76.665 84.6076 76.6284 85.2528 76.463L88.0853 75.7421L93.714 74.3211L96.5424 73.5991C97.8436 73.266 98.9589 72.432 99.6442 71.2797C100.329 70.1273 100.529 68.7504 100.199 67.4504L99.0113 62.8258C98.6719 61.5318 97.834 60.4232 96.68 59.7416C95.5259 59.06 94.1493 58.8605 92.8498 59.1866ZM93.7244 63.0201C93.8194 63.3841 93.7911 63.769 93.6437 64.1149C93.4964 64.4608 93.2384 64.7482 92.91 64.9322C92.7792 65.0073 92.6398 65.0666 92.495 65.1091L84.7085 67.0934C84.3063 67.1966 83.88 67.1506 83.5088 66.9641C83.1377 66.7776 82.8468 66.4631 82.6901 66.079C82.5334 65.695 82.5217 65.2675 82.657 64.8758C82.7923 64.4842 83.0655 64.155 83.4259 63.9494C83.5567 63.8743 83.6961 63.8149 83.841 63.7725L91.6494 61.7963C91.8661 61.7388 92.092 61.7249 92.3142 61.7555C92.5364 61.7861 92.7503 61.8605 92.9435 61.9744C93.1367 62.0883 93.3052 62.2395 93.4393 62.419C93.5733 62.5986 93.6703 62.8029 93.7244 63.0201V63.0201Z" fill="#1F2A37"/>
<path d="M96.6028 83.2393L95.0139 77.0461L94.4144 77.2019L91.8233 67.1157L86.2097 68.5465L93.5597 97.1513C93.653 97.5209 93.8185 97.8686 94.0467 98.1743C94.2749 98.4801 94.5614 98.7379 94.8897 98.9329C95.218 99.1279 95.5815 99.2563 95.9595 99.3108C96.3375 99.3652 96.7225 99.3446 97.0923 99.2501V99.2501C97.4625 99.157 97.8106 98.9917 98.1165 98.764C98.4224 98.5363 98.6802 98.2505 98.8751 97.9229C99.07 97.5954 99.1981 97.2327 99.2521 96.8555C99.306 96.4783 99.2848 96.094 99.1897 95.7249L98.242 92.045L98.8415 91.8892L97.5078 86.7027L96.9083 86.8585L96.0196 83.3995L96.6028 83.2393Z" fill="#1F2A37"/>
<path d="M91.4639 52.3298C89.9993 46.7399 85.5996 43.0438 81.6369 44.0743C77.6742 45.1048 75.6491 50.4717 77.1137 56.0615C78.5783 61.6514 82.9779 65.3475 86.9406 64.317C90.9033 63.2865 92.9284 57.9196 91.4639 52.3298Z" stroke="#1F2A37" stroke-width="2" stroke-miterlimit="10"/>
</svg>
