<svg width="159" height="145" viewBox="0 0 159 145" fill="none" xmlns="http://www.w3.org/2000/svg">
<g clip-path="url(#clip0)">
<path d="M96.8961 107.788C96.8961 107.788 126.562 119.984 98.671 123.796C98.671 123.796 80.1615 127.861 64.9483 119.222C64.9483 119.222 58.1023 117.951 58.863 121.255C59.6237 124.558 65.2018 124.812 65.2018 124.812C65.2018 124.812 63.6805 122.525 55.3132 122.271C55.3132 122.271 48.7208 124.304 66.2161 130.656C66.2161 130.656 72.2177 132.661 92.1268 139.59C94.9539 140.574 97.9433 141.003 100.933 140.853C107.439 140.525 118.788 139.91 120.223 139.55C122.252 139.041 119.716 139.55 119.716 139.55C119.716 139.55 121.998 139.041 124.534 142.853L140.761 128.878C140.761 128.878 132.901 115.665 123.012 111.345C113.124 107.025 123.012 110.837 123.012 110.837C123.012 110.837 103.489 103.976 101.714 102.452C101.714 102.452 89.0359 100.419 96.8961 107.788Z" fill="#F7BC90"/>
<path d="M158.763 172.074L118.973 151.751C117.779 150.732 117.741 148.895 118.894 147.828L142.275 126.172C143.243 125.275 144.727 125.239 145.736 126.09L158.88 137.154L158.763 172.074Z" fill="#FF6600"/>
<path d="M84.5733 47.7459C84.5733 47.7459 77.0808 47.352 72.7704 37.9505C68.46 28.549 62.1211 27.0244 62.1211 27.0244L71.7562 25.7539L86.2088 45.5734L84.5733 47.7459Z" fill="#F0AD7B"/>
<path d="M25.0107 9.573L58.0995 11.3796C58.0995 11.3796 67.4455 13.5572 69.2204 16.3523L80.3768 27.0243C80.3768 27.0243 83.9265 30.5816 83.9265 32.3603L87.2228 46.5897L87.7299 51.9257C87.7299 51.9257 86.2085 55.2289 84.1801 51.6716C82.1517 48.1142 79.6161 40.9996 79.6161 40.9996C79.6161 40.9996 78.8555 36.4258 73.2773 32.8685L64.1493 27.2784C64.1493 27.2784 42.0901 23.2129 58.064 39.475C58.064 39.475 68.2062 45.5733 73.7844 46.5897C73.7844 46.5897 81.8981 56.7535 68.9668 52.1798C68.9668 52.1798 48.9361 46.3356 42.3437 45.5733C35.7512 44.811 21.3164 30.945 21.3164 30.945L25.0107 9.573Z" fill="#F7BC90"/>
<path d="M78.7382 56.6732L69.0998 55.9422C66.7935 55.7673 64.7834 57.489 64.6103 59.7876L63.0316 80.7416C62.8584 83.0402 64.5877 85.0455 66.894 85.2204L76.5324 85.9514C78.8388 86.1264 80.8489 84.4047 81.022 82.1061L82.6007 61.1521C82.7739 58.8535 81.0446 56.8482 78.7382 56.6732Z" fill="#0CBC8B"/>
<path d="M81.6084 53.5728L71.8386 56.0572C70.7158 56.3449 69.7539 57.0658 69.164 58.0614C68.5742 59.0571 68.4047 60.2461 68.6928 61.3674L69.7098 65.3494C69.8514 65.9067 70.1018 66.4307 70.4467 66.8913C70.7915 67.3519 71.2241 67.7401 71.7195 68.0336C72.2149 68.3271 72.7635 68.5202 73.3336 68.6016C73.9037 68.6831 74.4842 68.6514 75.0418 68.5083L77.4896 67.8849L82.3538 66.656L84.7981 66.0316C85.9226 65.7435 86.8865 65.0225 87.4788 64.0262C88.0711 63.03 88.2436 61.8397 87.9586 60.7159L86.9326 56.7182C86.6394 55.5995 85.9154 54.6413 84.9182 54.0522C83.921 53.463 82.7313 53.2907 81.6084 53.5728ZM82.3638 56.8866C82.4459 57.2012 82.4213 57.534 82.294 57.833C82.1667 58.1321 81.9437 58.3805 81.6599 58.5396C81.5468 58.6045 81.4264 58.6558 81.3012 58.6925L74.5722 60.4086C74.2246 60.4978 73.8562 60.4582 73.5355 60.2969C73.2148 60.1357 72.9634 59.8639 72.828 59.5319C72.6927 59.1999 72.6826 58.8304 72.7995 58.4918C72.9165 58.1532 73.1526 57.8686 73.4641 57.6908C73.5771 57.6259 73.6976 57.5746 73.8228 57.5379L80.5708 55.8288C80.758 55.7791 80.9533 55.7671 81.1453 55.7935C81.3373 55.8199 81.5221 55.8842 81.6891 55.9827C81.856 56.0812 82.0016 56.2118 82.1174 56.367C82.2333 56.5222 82.317 56.6988 82.3638 56.8866V56.8866Z" fill="#cfcfcf"/>
<path d="M84.8523 74.3673L83.4793 69.014L82.9612 69.1486L80.7221 60.4303L75.8703 61.6672L82.2219 86.3928C82.3024 86.7123 82.4454 87.0128 82.6427 87.2771C82.84 87.5414 83.0876 87.7642 83.3713 87.9328C83.655 88.1013 83.9692 88.2123 84.2959 88.2594C84.6226 88.3064 84.9553 88.2886 85.2749 88.2068V88.2068C85.5949 88.1263 85.8957 87.9835 86.1601 87.7867C86.4246 87.5898 86.6474 87.3427 86.8158 87.0596C86.9842 86.7765 87.095 86.463 87.1416 86.1369C87.1883 85.8109 87.17 85.4787 87.0877 85.1596L86.2688 81.9788L86.787 81.8441L85.6345 77.361L85.1163 77.4957L84.3483 74.5057L84.8523 74.3673Z" fill="#cfcfcf"/>
<path d="M80.4118 47.6493C79.1462 42.8176 75.3437 39.6229 71.9188 40.5138C68.4939 41.4046 66.7435 46.0437 68.0091 50.8754C69.2748 55.7071 73.0772 58.9018 76.5021 58.011C79.927 57.1201 81.6774 52.481 80.4118 47.6493Z" stroke="#1F2A37" stroke-width="2" stroke-miterlimit="10"/>
<path d="M70.1072 45.7871L66.5624 44.2153L65.3809 51.2884L69.3195 52.4672L70.1072 45.7871Z" fill="#F7BC90"/>
<path d="M0.253554 0.598389L26.2429 4.21925C27.7946 4.45556 28.7911 5.99538 28.3727 7.51233L19.8863 38.263C19.5338 39.536 18.2939 40.3491 16.9881 40.1586L0 37.6964L0.253554 0.598389Z" fill="#143658"/>
</g>
<defs>
<clipPath id="clip0">
<rect width="158.332" height="143.818" fill="white" transform="translate(0 0.598389)"/>
</clipPath>
</defs>
</svg>
