<svg width="134" height="115" viewBox="0 0 134 115" fill="none" xmlns="http://www.w3.org/2000/svg">
<ellipse cx="41.5" cy="56" rx="41.5" ry="41" fill="#D6D6D6"/>
<path d="M65.3141 86.5312L76.8702 93.5541L116.833 28.706L105.277 21.683L65.3141 86.5312Z" fill="#1F2A37"/>
<path d="M51.3082 90.577C52.4017 88.6687 53.8646 86.9953 55.6103 85.6486C57.356 84.3019 59.3527 83.3134 61.485 82.7317C63.6173 82.1529 65.842 81.9953 68.0349 82.2704C70.2278 82.5455 72.3457 83.2475 74.2645 84.3363C77.3461 86.1357 79.7583 88.875 81.1462 92.1472C82.534 95.4194 82.8197 99.0469 81.9598 102.491C81.1029 105.938 79.1466 109.015 76.3852 111.268C73.6239 113.52 70.2047 114.829 66.6326 114.995C66.4306 115.004 66.2286 114.958 66.0497 114.864C65.8708 114.769 65.7237 114.626 65.6198 114.454C65.5159 114.282 65.4611 114.084 65.4611 113.884C65.4611 113.683 65.5159 113.485 65.6227 113.313L72.816 101.631L59.9009 93.7891L52.6932 105.491C52.5864 105.663 52.4335 105.803 52.2546 105.898C52.0728 105.992 51.8708 106.033 51.666 106.021C51.4611 106.007 51.2678 105.941 51.1004 105.823C50.9331 105.709 50.8003 105.548 50.7167 105.365C49.6433 103.027 49.1383 100.468 49.2393 97.9008C49.3461 95.3335 50.053 92.8234 51.3082 90.577Z" fill="#1F2A37"/>
<path d="M102.242 7.85781C103.655 5.55981 105.618 3.64004 107.955 2.27042C110.292 0.900788 112.929 0.121418 115.641 0.0010745C115.843 -0.00752149 116.045 0.0354584 116.224 0.130014C116.403 0.22457 116.553 0.367837 116.657 0.539756C116.761 0.711676 116.816 0.909384 116.816 1.10996C116.816 1.31053 116.761 1.50824 116.654 1.68016L109.438 13.3822L122.353 21.2274L129.549 9.54835C129.656 9.37643 129.806 9.23603 129.988 9.14434C130.169 9.05265 130.371 9.00967 130.573 9.02113C130.775 9.03259 130.972 9.10136 131.139 9.21597C131.306 9.33059 131.439 9.48818 131.523 9.67443C132.59 12.0125 133.092 14.5655 132.989 17.13C132.885 19.6945 132.175 22.1988 130.92 24.4423C129.82 26.3506 128.355 28.0269 126.606 29.3707C124.855 30.7174 122.855 31.7059 120.72 32.2819C118.585 32.8578 116.354 33.0125 114.158 32.7317C111.963 32.4509 109.845 31.7461 107.923 30.6515C106.033 29.534 104.385 28.0555 103.076 26.3019C101.766 24.5484 100.819 22.5541 100.291 20.4337C99.7631 18.3134 99.6649 16.11 99.9997 13.9524C100.331 11.7919 101.096 9.72027 102.242 7.85781Z" fill="#1F2A37"/>
<path d="M51.9285 43.4538C51.9285 43.4538 63.9895 36.8778 73.2315 36.4194H96.1301L92.0905 43.0096C92.0905 43.0096 86.8016 46.7346 91.9953 45.3019C94.7105 44.554 102.094 43.5827 104.691 43.5827C106.647 43.5827 107.931 43.3592 107.865 45.3019L103.124 70.9609L94.8951 75.7317C94.8951 75.7317 88.9714 78.5282 81.25 78.1644C73.5287 77.8005 58.8535 73.9093 58.8535 73.9093L51.9285 43.4538Z" fill="#F7BC90"/>
<path d="M106.585 51.5578C110.803 51.3615 114.136 49.3559 114.028 47.078C113.921 44.8002 110.414 43.1127 106.196 43.309C101.977 43.5052 98.6449 45.5109 98.7524 47.7887C98.8599 50.0666 102.367 51.754 106.585 51.5578Z" fill="#F7BC90"/>
<path d="M104.85 58.4341C109.068 58.2378 112.388 55.9694 112.265 53.3676C112.142 50.7657 108.623 48.8155 104.405 49.0118C100.187 49.208 96.8667 51.4764 96.9894 54.0783C97.1122 56.6802 100.631 58.6303 104.85 58.4341Z" fill="#F7BC90"/>
<path d="M102.833 65.305C107.051 65.1087 110.371 62.8404 110.249 60.2385C110.126 57.6366 106.607 55.6864 102.388 55.8827C98.17 56.0789 94.8499 58.3473 94.9727 60.9492C95.0955 63.5511 98.6146 65.5012 102.833 65.305Z" fill="#F7BC90"/>
<path d="M99.079 71.8896C103.297 71.6933 106.617 69.425 106.495 66.8231C106.372 64.2212 102.853 62.271 98.6345 62.4673C94.4162 62.6635 91.0961 64.9319 91.2189 67.5338C91.3416 70.1357 94.8607 72.0858 99.079 71.8896Z" fill="#F7BC90"/>
<path d="M110.624 50.7174C110.624 50.7174 104.833 53.7575 94.7339 55.7632" stroke="#E68B5C" stroke-miterlimit="10" stroke-linecap="round"/>
<path d="M108.604 57.5942C108.604 57.5942 102.813 60.6343 92.714 62.64" stroke="#E68B5C" stroke-miterlimit="10" stroke-linecap="round"/>
<path d="M105.43 65.0441C105.43 65.0441 99.639 68.0842 89.5401 70.0899" stroke="#E68B5C" stroke-miterlimit="10" stroke-linecap="round"/>
<path d="M28 81.9122L57.6851 78.7031C59.4567 78.4882 60.6426 76.7862 60.2185 75.0641L51.6026 40.1186C51.2449 38.6716 49.8599 37.7145 48.371 37.8836L28.9637 40.0899L28 81.9122Z" fill="#FF6600"/>
</svg>
