<svg width="1922" height="652" viewBox="0 0 1922 652" fill="none" xmlns="http://www.w3.org/2000/svg">
<path d="M1275 48.8599H1086.38L976.777 183.211L994.569 202.893L1098.34 77.895L1214.2 78.2577L876 489.86L911.781 489.607L1275 48.8599Z" fill="white"/>
<path d="M1275 48.8599H1086.38L976.777 183.211L994.569 202.893L1098.34 77.895L1214.2 78.2577L876 489.86L911.781 489.607L1275 48.8599Z" stroke="black" stroke-miterlimit="10"/>
<path d="M1275 48.8599H1086.38L976.777 183.211L994.569 202.893L1098.34 77.895L1214.2 78.2577L876 489.86L911.781 489.607L1275 48.8599Z" stroke="white" stroke-miterlimit="10"/>
<path d="M756 47.8599H944.123L1053.43 182.203L1035.69 201.886L932.191 76.8847L816.638 77.2474L1154 488.86L1118.31 488.618L756 47.8599Z" fill="white"/>
<path d="M756 47.8599H944.123L1053.43 182.203L1035.69 201.886L932.191 76.8847L816.638 77.2474L1154 488.86L1118.31 488.618L756 47.8599Z" stroke="black" stroke-miterlimit="10"/>
<path d="M756 47.8599H944.123L1053.43 182.203L1035.69 201.886L932.191 76.8847L816.638 77.2474L1154 488.86L1118.31 488.618L756 47.8599Z" stroke="white" stroke-miterlimit="10"/>
<path d="M1278 544.86H1089.88L980.555 410.517L998.31 390.833L1101.81 515.802L1217.36 515.439L880 103.86L915.675 104.102C1036.47 251.017 1157.24 397.937 1278 544.86Z" fill="white"/>
<path d="M1278 544.86H1089.88L980.555 410.517L998.31 390.833L1101.81 515.802L1217.36 515.439L880 103.86L915.675 104.102C1036.47 251.017 1157.24 397.937 1278 544.86Z" stroke="black" stroke-miterlimit="10"/>
<path d="M1278 544.86H1089.88L980.555 410.517L998.31 390.833L1101.81 515.802L1217.36 515.439L880 103.86L915.675 104.102C1036.47 251.017 1157.24 397.937 1278 544.86Z" stroke="white" stroke-miterlimit="10"/>
<path d="M1276 542.86H1087.89C1051.45 498.087 1015.01 453.307 978.566 408.52L996.321 388.881C1030.81 430.518 1065.31 472.166 1099.81 513.825L1215.36 513.462L878 101.86L913.686 102.113L1276 542.86Z" fill="white"/>
<path d="M1276 542.86H1087.89C1051.45 498.087 1015.01 453.307 978.566 408.52L996.321 388.881C1030.81 430.518 1065.31 472.166 1099.81 513.825L1215.36 513.462L878 101.86L913.686 102.113L1276 542.86Z" stroke="black" stroke-miterlimit="10"/>
<path d="M1276 542.86H1087.89C1051.45 498.087 1015.01 453.307 978.566 408.52L996.321 388.881C1030.81 430.518 1065.31 472.166 1099.81 513.825L1215.36 513.462L878 101.86L913.686 102.113L1276 542.86Z" stroke="white" stroke-miterlimit="10"/>
<path d="M755 543.86H943.123C979.571 499.086 1016.01 454.305 1052.45 409.517L1034.7 389.833L931.202 514.835L815.638 514.439L1153 102.86L1117.32 103.102C996.553 250.032 875.779 396.951 755 543.86Z" fill="white"/>
<path d="M755 543.86H943.123C979.571 499.086 1016.01 454.305 1052.45 409.517L1034.7 389.833L931.202 514.835L815.638 514.439L1153 102.86L1117.32 103.102C996.553 250.032 875.779 396.951 755 543.86Z" stroke="black" stroke-miterlimit="10"/>
<path d="M755 543.86H943.123C979.571 499.086 1016.01 454.305 1052.45 409.517L1034.7 389.833L931.202 514.835L815.638 514.439L1153 102.86L1117.32 103.102C996.553 250.032 875.779 396.951 755 543.86Z" stroke="white" stroke-miterlimit="10"/>
<path d="M757 541.86H945.117L1054.44 407.527L1036.68 387.845L933.197 512.804L817.648 512.442L1155 100.86L1119.31 101.102C998.547 248.028 877.775 394.948 757 541.86Z" fill="white"/>
<path d="M757 541.86H945.117L1054.44 407.527L1036.68 387.845L933.197 512.804L817.648 512.442L1155 100.86L1119.31 101.102C998.547 248.028 877.775 394.948 757 541.86Z" stroke="black" stroke-miterlimit="10"/>
<path d="M757 541.86H945.117L1054.44 407.527L1036.68 387.845L933.197 512.804L817.648 512.442L1155 100.86L1119.31 101.102C998.547 248.028 877.775 394.948 757 541.86Z" stroke="white" stroke-miterlimit="10"/>
<path d="M1253.98 148.483H1297.03V431H1253.98V148.483ZM1509.18 434.844C1481.25 434.844 1456.27 428.437 1434.23 415.625C1412.19 402.812 1394.9 385.259 1382.34 362.965C1370.04 340.415 1363.89 315.175 1363.89 287.243C1363.89 260.081 1370.17 235.609 1382.72 213.827C1395.28 192.046 1412.7 175.005 1435 162.705C1457.29 150.405 1482.4 144.255 1510.34 144.255C1525.46 144.255 1539.04 145.665 1551.08 148.483C1563.38 151.046 1573.37 154.121 1581.06 157.708C1588.75 161.04 1594 163.987 1596.82 166.549L1579.91 202.68C1564.02 189.868 1540.57 183.462 1509.57 183.462C1489.07 183.462 1471.26 187.946 1456.14 196.915C1441.02 205.884 1429.49 218.056 1421.55 233.431C1413.6 248.806 1409.63 265.974 1409.63 284.937C1409.63 306.462 1413.86 325.681 1422.31 342.593C1431.03 359.506 1442.94 372.703 1458.06 382.184C1473.44 391.409 1490.73 396.022 1509.95 396.022C1522 396.022 1533.53 394.612 1544.55 391.794C1555.56 388.719 1564.92 383.978 1572.61 377.572V322.99H1514.56V283.4H1615.27V394.1C1606.05 405.631 1592.08 415.369 1573.37 423.312C1554.92 431 1533.53 434.844 1509.18 434.844ZM1720.64 248.037L1721.8 278.787V431H1678.75V148.099H1684.13L1850.18 333.368L1848.64 301.081V148.483H1891.69V431H1885.93L1720.64 248.037Z" fill="white"/>
<path d="M161.822 426.844C133.891 426.844 108.907 420.437 86.869 407.625C64.8315 394.812 47.5345 377.259 34.9782 354.965C22.6782 332.415 16.5282 307.175 16.5282 279.243C16.5282 252.081 22.8063 227.609 35.3626 205.827C47.9189 184.046 65.344 167.005 87.6378 154.705C109.932 142.405 135.044 136.255 162.976 136.255C178.094 136.255 191.676 137.665 203.719 140.483C216.019 143.046 226.013 146.121 233.701 149.708C241.388 153.04 246.641 155.987 249.46 158.549L232.548 194.68C216.66 181.868 193.213 175.462 162.207 175.462C141.707 175.462 123.897 179.946 108.778 188.915C93.6597 197.884 82.1284 210.056 74.1846 225.431C66.2408 240.806 62.269 257.974 62.269 276.937C62.269 298.462 66.4971 317.681 74.9534 334.593C83.6659 351.506 95.5816 364.703 110.7 374.184C126.075 383.409 143.372 388.022 162.591 388.022C174.635 388.022 186.166 386.612 197.185 383.794C208.204 380.719 217.557 375.978 225.245 369.572V314.99H167.204V275.4H267.91V386.1C258.685 397.631 244.72 407.369 226.013 415.312C207.563 423 186.166 426.844 161.822 426.844ZM472.453 423L415.565 316.143C403.777 316.656 393.271 316.912 384.046 316.912H373.283V423H331.386V140.483H395.577C428.121 140.483 454.899 147.274 475.912 160.855C496.924 174.18 507.431 195.962 507.431 226.199C507.431 245.162 502.946 261.562 493.978 275.4C485.265 288.981 472.196 299.487 454.771 306.918L522.037 423H472.453ZM400.574 281.934C425.687 281.934 442.856 276.553 452.081 265.79C461.562 254.771 466.302 241.703 466.302 226.584C466.302 193.015 443.881 176.23 399.037 176.23H373.283V281.934H400.574ZM684.763 140.099L820.833 423H771.248L747.032 367.65H617.497L593.282 423H545.235L680.535 140.099H684.763ZM665.545 260.409L634.794 328.828H730.12L699.754 260.793L683.226 221.971H682.457L665.545 260.409Z" fill="white"/>
<path d="M1346.87 577.4C1349.79 577.4 1352.46 578.154 1354.91 579.662C1357.35 581.118 1359.3 583.12 1360.76 585.668C1362.21 588.164 1362.94 590.998 1362.94 594.17C1362.94 597.29 1362.21 600.15 1360.76 602.75C1359.3 605.298 1357.35 607.326 1354.91 608.834C1352.46 610.342 1349.79 611.096 1346.87 611.096H1333.07V632H1324.64V577.4H1346.87ZM1346.72 602.984C1348.12 602.984 1349.4 602.594 1350.54 601.814C1351.68 600.982 1352.59 599.916 1353.27 598.616C1354 597.264 1354.36 595.782 1354.36 594.17C1354.36 591.726 1353.61 589.672 1352.1 588.008C1350.59 586.344 1348.8 585.512 1346.72 585.512H1333.07V602.984H1346.72ZM1414.56 594.794C1414.56 598.07 1413.57 601.112 1411.6 603.92C1409.67 606.728 1407.15 608.808 1404.03 610.16L1416.75 632.078L1406.53 632L1394.98 611.486H1382.5V632H1374.08V577.4H1397.32C1400.18 577.4 1402.91 578.102 1405.51 579.506C1408.17 580.91 1410.32 582.912 1411.99 585.512C1413.7 588.112 1414.56 591.206 1414.56 594.794ZM1395.92 585.512H1382.5V603.374H1398.1C1400.6 603.374 1402.52 602.49 1403.88 600.722C1405.28 598.954 1405.98 596.952 1405.98 594.716C1405.98 591.856 1404.99 589.62 1403.02 588.008C1401.04 586.344 1398.68 585.512 1395.92 585.512ZM1477.16 604.7C1477.16 608.652 1476.51 612.344 1475.21 615.776C1473.91 619.156 1472.04 622.12 1469.59 624.668C1467.2 627.216 1464.37 629.218 1461.09 630.674C1457.87 632.078 1454.31 632.78 1450.41 632.78C1446.51 632.78 1442.92 632.078 1439.64 630.674C1436.37 629.218 1433.53 627.216 1431.14 624.668C1428.75 622.12 1426.9 619.156 1425.6 615.776C1424.3 612.344 1423.65 608.652 1423.65 604.7C1423.65 600.748 1424.3 597.082 1425.6 593.702C1426.9 590.27 1428.75 587.28 1431.14 584.732C1433.53 582.184 1436.37 580.208 1439.64 578.804C1442.92 577.348 1446.51 576.62 1450.41 576.62C1454.31 576.62 1457.87 577.348 1461.09 578.804C1464.37 580.208 1467.2 582.184 1469.59 584.732C1472.04 587.28 1473.91 590.27 1475.21 593.702C1476.51 597.082 1477.16 600.748 1477.16 604.7ZM1468.58 604.7C1468.58 600.904 1467.8 597.524 1466.24 594.56C1464.68 591.544 1462.52 589.178 1459.77 587.462C1457.06 585.694 1453.94 584.81 1450.41 584.81C1446.82 584.81 1443.65 585.694 1440.89 587.462C1438.19 589.178 1436.05 591.544 1434.49 594.56C1432.99 597.524 1432.23 600.904 1432.23 604.7C1432.23 608.496 1432.99 611.902 1434.49 614.918C1436.05 617.882 1438.19 620.248 1440.89 622.016C1443.65 623.732 1446.82 624.59 1450.41 624.59C1453.94 624.59 1457.06 623.732 1459.77 622.016C1462.52 620.248 1464.68 617.856 1466.24 614.84C1467.8 611.824 1468.58 608.444 1468.58 604.7ZM1509.94 577.4C1514.15 577.4 1517.84 578.128 1521.01 579.584C1524.24 580.988 1526.92 582.964 1529.05 585.512C1531.18 588.008 1532.79 590.92 1533.88 594.248C1534.98 597.524 1535.52 601.008 1535.52 604.7C1535.52 609.692 1534.56 614.268 1532.64 618.428C1530.71 622.536 1527.85 625.838 1524.06 628.334C1520.26 630.778 1515.55 632 1509.94 632H1488.57V577.4H1509.94ZM1509.55 623.888C1513.66 623.888 1516.98 623.03 1519.53 621.314C1522.08 619.546 1523.95 617.206 1525.15 614.294C1526.34 611.382 1526.94 608.184 1526.94 604.7C1526.94 601.268 1526.34 598.096 1525.15 595.184C1523.95 592.272 1522.08 589.932 1519.53 588.164C1516.98 586.396 1513.66 585.512 1509.55 585.512H1496.99V623.888H1509.55ZM1590.13 577.322V611.018C1590.13 615.126 1589.16 618.818 1587.24 622.094C1585.37 625.318 1582.77 627.866 1579.44 629.738C1576.16 631.558 1572.39 632.468 1568.13 632.468C1563.92 632.468 1560.15 631.558 1556.82 629.738C1553.49 627.866 1550.87 625.318 1548.94 622.094C1547.07 618.818 1546.13 615.126 1546.13 611.018V577.322H1554.56V610.316C1554.56 613.02 1555.18 615.438 1556.43 617.57C1557.73 619.702 1559.42 621.366 1561.5 622.562C1563.58 623.758 1565.79 624.356 1568.13 624.356C1570.63 624.356 1572.94 623.758 1575.07 622.562C1577.2 621.366 1578.89 619.702 1580.14 617.57C1581.44 615.438 1582.09 613.02 1582.09 610.316V577.322H1590.13ZM1646.15 625.292C1645.06 626.54 1643.52 627.736 1641.55 628.88C1639.62 630.024 1637.39 630.96 1634.84 631.688C1632.34 632.416 1629.66 632.78 1626.8 632.78C1621.92 632.78 1617.5 631.636 1613.54 629.348C1609.64 627.008 1606.52 623.732 1604.18 619.52C1601.9 615.308 1600.75 610.368 1600.75 604.7C1600.75 600.696 1601.45 597.004 1602.86 593.624C1604.26 590.244 1606.21 587.306 1608.71 584.81C1611.2 582.314 1614.06 580.39 1617.29 579.038C1620.51 577.634 1623.92 576.932 1627.51 576.932C1630.47 576.932 1633.23 577.4 1635.77 578.336C1638.37 579.22 1640.64 580.39 1642.56 581.846C1644.54 583.25 1646.07 584.758 1647.16 586.37L1641.55 592.22C1639.62 590.244 1637.49 588.606 1635.15 587.306C1632.81 586.006 1630.26 585.356 1627.51 585.356C1624.39 585.356 1621.42 586.136 1618.61 587.696C1615.86 589.256 1613.62 591.492 1611.91 594.404C1610.19 597.264 1609.33 600.696 1609.33 604.7C1609.33 609.068 1610.19 612.708 1611.91 615.62C1613.67 618.532 1615.99 620.716 1618.85 622.172C1621.76 623.576 1624.88 624.278 1628.21 624.278C1631.28 624.278 1633.98 623.68 1636.32 622.484C1638.66 621.236 1640.53 619.884 1641.94 618.428L1646.15 625.292ZM1667.97 632V585.512H1652.68V577.4H1692.15V585.512H1676.39V632H1667.97ZM1726.56 632H1700.5V624.2H1709.32V585.2H1700.5V577.4H1726.56V585.2H1717.74V624.2H1726.56V632ZM1788.25 604.7C1788.25 608.652 1787.6 612.344 1786.3 615.776C1785 619.156 1783.12 622.12 1780.68 624.668C1778.29 627.216 1775.45 629.218 1772.18 630.674C1768.95 632.078 1765.39 632.78 1761.49 632.78C1757.59 632.78 1754 632.078 1750.73 630.674C1747.45 629.218 1744.62 627.216 1742.23 624.668C1739.83 622.12 1737.99 619.156 1736.69 615.776C1735.39 612.344 1734.74 608.652 1734.74 604.7C1734.74 600.748 1735.39 597.082 1736.69 593.702C1737.99 590.27 1739.83 587.28 1742.23 584.732C1744.62 582.184 1747.45 580.208 1750.73 578.804C1754 577.348 1757.59 576.62 1761.49 576.62C1765.39 576.62 1768.95 577.348 1772.18 578.804C1775.45 580.208 1778.29 582.184 1780.68 584.732C1783.12 587.28 1785 590.27 1786.3 593.702C1787.6 597.082 1788.25 600.748 1788.25 604.7ZM1779.67 604.7C1779.67 600.904 1778.89 597.524 1777.33 594.56C1775.77 591.544 1773.61 589.178 1770.85 587.462C1768.15 585.694 1765.03 584.81 1761.49 584.81C1757.9 584.81 1754.73 585.694 1751.98 587.462C1749.27 589.178 1747.14 591.544 1745.58 594.56C1744.07 597.524 1743.32 600.904 1743.32 604.7C1743.32 608.496 1744.07 611.902 1745.58 614.918C1747.14 617.882 1749.27 620.248 1751.98 622.016C1754.73 623.732 1757.9 624.59 1761.49 624.59C1765.03 624.59 1768.15 623.732 1770.85 622.016C1773.61 620.248 1775.77 617.856 1777.33 614.84C1778.89 611.824 1779.67 608.444 1779.67 604.7ZM1837.79 577.4H1846.22V632H1838.5L1806.75 590.348C1807.06 593.52 1807.35 596.692 1807.61 599.864C1807.92 602.984 1808.08 606.13 1808.08 609.302V632H1799.65V577.4H1807.22L1838.96 619.91C1838.5 616.114 1838.18 612.032 1838.03 607.664C1837.87 603.244 1837.79 599.136 1837.79 595.34V577.4ZM1863.53 615.542C1865.66 618.61 1867.87 621.002 1870.16 622.718C1872.5 624.382 1875.52 625.214 1879.21 625.214C1880.98 625.214 1882.67 624.928 1884.28 624.356C1885.89 623.784 1887.22 622.952 1888.26 621.86C1889.3 620.768 1889.82 619.468 1889.82 617.96C1889.82 615.36 1888.7 613.332 1886.46 611.876C1884.28 610.42 1881.19 609.302 1877.18 608.522C1872.09 607.482 1868.03 605.688 1865.01 603.14C1862 600.54 1860.49 596.796 1860.49 591.908C1860.49 588.788 1861.35 586.084 1863.06 583.796C1864.83 581.508 1867.15 579.74 1870.01 578.492C1872.87 577.244 1875.96 576.62 1879.29 576.62C1883.6 576.62 1887.32 577.452 1890.44 579.116C1893.56 580.78 1896.01 583.146 1897.77 586.214L1891.85 592.064C1890.44 589.724 1888.67 587.826 1886.54 586.37C1884.41 584.914 1881.91 584.186 1879.05 584.186C1876.19 584.186 1873.78 584.862 1871.8 586.214C1869.88 587.514 1868.91 589.334 1868.91 591.674C1868.91 594.326 1869.93 596.276 1871.96 597.524C1874.04 598.72 1876.77 599.682 1880.15 600.41C1883.21 601.034 1886.13 601.996 1888.88 603.296C1891.64 604.596 1893.87 606.286 1895.59 608.366C1897.36 610.394 1898.24 612.864 1898.24 615.776C1898.24 620.976 1896.47 625.11 1892.94 628.178C1889.4 631.246 1884.54 632.78 1878.35 632.78C1874.14 632.78 1870.29 631.948 1866.81 630.284C1863.38 628.62 1860.36 625.916 1857.76 622.172L1863.53 615.542Z" fill="white"/>
<path d="M1354.91 579.662L1354.65 580.088L1354.65 580.092L1354.91 579.662ZM1360.76 585.668L1360.32 585.916L1360.33 585.92L1360.76 585.668ZM1360.76 602.75L1361.19 602.998L1361.19 602.994L1360.76 602.75ZM1354.91 608.834L1354.65 608.408L1354.65 608.408L1354.91 608.834ZM1333.07 611.096V610.596H1332.57V611.096H1333.07ZM1333.07 632V632.5H1333.57V632H1333.07ZM1324.64 632H1324.14V632.5H1324.64V632ZM1324.64 577.4V576.9H1324.14V577.4H1324.64ZM1350.54 601.814L1350.82 602.227L1350.83 602.223L1350.83 602.218L1350.54 601.814ZM1353.27 598.616L1352.83 598.379L1352.83 598.385L1353.27 598.616ZM1352.1 588.008L1351.73 588.344L1351.73 588.344L1352.1 588.008ZM1333.07 585.512V585.012H1332.57V585.512H1333.07ZM1333.07 602.984H1332.57V603.484H1333.07V602.984ZM1346.87 577.9C1349.69 577.9 1352.28 578.629 1354.65 580.088L1355.17 579.236C1352.65 577.679 1349.88 576.9 1346.87 576.9V577.9ZM1354.65 580.092C1357.02 581.502 1358.91 583.44 1360.32 585.916L1361.19 585.42C1359.69 582.8 1357.68 580.734 1355.16 579.232L1354.65 580.092ZM1360.33 585.92C1361.73 588.332 1362.44 591.078 1362.44 594.17H1363.44C1363.44 590.918 1362.69 587.996 1361.19 585.416L1360.33 585.92ZM1362.44 594.17C1362.44 597.209 1361.73 599.984 1360.32 602.506L1361.19 602.994C1362.69 600.316 1363.44 597.371 1363.44 594.17H1362.44ZM1360.32 602.502C1358.91 604.979 1357.02 606.945 1354.65 608.408L1355.17 609.26C1357.69 607.707 1359.7 605.617 1361.19 602.998L1360.32 602.502ZM1354.65 608.408C1352.28 609.867 1349.69 610.596 1346.87 610.596V611.596C1349.88 611.596 1352.65 610.817 1355.17 609.26L1354.65 608.408ZM1346.87 610.596H1333.07V611.596H1346.87V610.596ZM1332.57 611.096V632H1333.57V611.096H1332.57ZM1333.07 631.5H1324.64V632.5H1333.07V631.5ZM1325.14 632V577.4H1324.14V632H1325.14ZM1324.64 577.9H1346.87V576.9H1324.64V577.9ZM1346.72 603.484C1348.22 603.484 1349.59 603.065 1350.82 602.227L1350.26 601.401C1349.2 602.123 1348.02 602.484 1346.72 602.484V603.484ZM1350.83 602.218C1352.04 601.339 1353 600.213 1353.71 598.847L1352.83 598.385C1352.18 599.619 1351.33 600.625 1350.25 601.41L1350.83 602.218ZM1353.71 598.853C1354.48 597.425 1354.86 595.86 1354.86 594.17H1353.86C1353.86 595.704 1353.52 597.103 1352.83 598.379L1353.71 598.853ZM1354.86 594.17C1354.86 591.614 1354.07 589.437 1352.47 587.672L1351.73 588.344C1353.15 589.907 1353.86 591.838 1353.86 594.17H1354.86ZM1352.47 587.672C1350.88 585.913 1348.95 585.012 1346.72 585.012V586.012C1348.64 586.012 1350.31 586.775 1351.73 588.344L1352.47 587.672ZM1346.72 585.012H1333.07V586.012H1346.72V585.012ZM1332.57 585.512V602.984H1333.57V585.512H1332.57ZM1333.07 603.484H1346.72V602.484H1333.07V603.484ZM1411.6 603.92L1411.19 603.632L1411.19 603.637L1411.6 603.92ZM1404.03 610.16L1403.83 609.701L1403.32 609.925L1403.6 610.411L1404.03 610.16ZM1416.75 632.078L1416.74 632.578L1417.62 632.585L1417.18 631.827L1416.75 632.078ZM1406.53 632L1406.09 632.245L1406.23 632.498L1406.52 632.5L1406.53 632ZM1394.98 611.486L1395.42 611.241L1395.28 610.986H1394.98V611.486ZM1382.5 611.486V610.986H1382V611.486H1382.5ZM1382.5 632V632.5H1383V632H1382.5ZM1374.08 632H1373.58V632.5H1374.08V632ZM1374.08 577.4V576.9H1373.58V577.4H1374.08ZM1405.51 579.506L1405.28 579.946L1405.28 579.948L1405.51 579.506ZM1411.99 585.512L1411.57 585.782L1411.57 585.787L1411.99 585.512ZM1382.5 585.512V585.012H1382V585.512H1382.5ZM1382.5 603.374H1382V603.874H1382.5V603.374ZM1403.88 600.722L1403.48 600.411L1403.48 600.418L1403.88 600.722ZM1403.02 588.008L1402.7 588.391L1402.7 588.395L1403.02 588.008ZM1414.06 594.794C1414.06 597.962 1413.11 600.904 1411.19 603.632L1412.01 604.208C1414.04 601.32 1415.06 598.178 1415.06 594.794H1414.06ZM1411.19 603.637C1409.31 606.368 1406.87 608.387 1403.83 609.701L1404.23 610.619C1407.44 609.229 1410.03 607.088 1412.01 604.203L1411.19 603.637ZM1403.6 610.411L1416.31 632.329L1417.18 631.827L1404.46 609.909L1403.6 610.411ZM1416.75 631.578L1406.53 631.5L1406.52 632.5L1416.74 632.578L1416.75 631.578ZM1406.96 631.755L1395.42 611.241L1394.55 611.731L1406.09 632.245L1406.96 631.755ZM1394.98 610.986H1382.5V611.986H1394.98V610.986ZM1382 611.486V632H1383V611.486H1382ZM1382.5 631.5H1374.08V632.5H1382.5V631.5ZM1374.58 632V577.4H1373.58V632H1374.58ZM1374.08 577.9H1397.32V576.9H1374.08V577.9ZM1397.32 577.9C1400.1 577.9 1402.75 578.58 1405.28 579.946L1405.75 579.066C1403.08 577.624 1400.27 576.9 1397.32 576.9V577.9ZM1405.28 579.948C1407.85 581.31 1409.95 583.252 1411.57 585.782L1412.41 585.242C1410.7 582.572 1408.48 580.51 1405.75 579.064L1405.28 579.948ZM1411.57 585.787C1413.22 588.294 1414.06 591.289 1414.06 594.794H1415.06C1415.06 591.123 1414.18 587.93 1412.4 585.237L1411.57 585.787ZM1395.92 585.012H1382.5V586.012H1395.92V585.012ZM1382 585.512V603.374H1383V585.512H1382ZM1382.5 603.874H1398.1V602.874H1382.5V603.874ZM1398.1 603.874C1400.73 603.874 1402.81 602.934 1404.27 601.026L1403.48 600.418C1402.23 602.046 1400.47 602.874 1398.1 602.874V603.874ZM1404.27 601.033C1405.74 599.177 1406.48 597.066 1406.48 594.716H1405.48C1405.48 596.838 1404.82 598.731 1403.48 600.411L1404.27 601.033ZM1406.48 594.716C1406.48 591.726 1405.44 589.34 1403.33 587.621L1402.7 588.395C1404.55 589.9 1405.48 591.986 1405.48 594.716H1406.48ZM1403.34 587.626C1401.27 585.88 1398.78 585.012 1395.92 585.012V586.012C1398.57 586.012 1400.82 586.808 1402.7 588.39L1403.34 587.626ZM1475.21 615.776L1475.68 615.955L1475.68 615.953L1475.21 615.776ZM1469.59 624.668L1469.23 624.322L1469.23 624.326L1469.59 624.668ZM1461.09 630.674L1461.29 631.132L1461.3 631.131L1461.09 630.674ZM1439.64 630.674L1439.44 631.131L1439.45 631.134L1439.64 630.674ZM1425.6 615.776L1425.13 615.953L1425.14 615.955L1425.6 615.776ZM1425.6 593.702L1426.07 593.881L1426.07 593.879L1425.6 593.702ZM1431.14 584.732L1431.5 585.074L1431.5 585.074L1431.14 584.732ZM1439.64 578.804L1439.84 579.264L1439.85 579.261L1439.64 578.804ZM1461.09 578.804L1460.89 579.26L1460.9 579.264L1461.09 578.804ZM1469.59 584.732L1469.23 585.074L1469.23 585.078L1469.59 584.732ZM1475.21 593.702L1474.74 593.879L1474.74 593.881L1475.21 593.702ZM1466.24 594.56L1465.8 594.79L1465.8 594.793L1466.24 594.56ZM1459.77 587.462L1459.49 587.881L1459.5 587.886L1459.77 587.462ZM1440.89 587.462L1441.16 587.884L1441.16 587.883L1440.89 587.462ZM1434.49 594.56L1434.05 594.33L1434.05 594.333L1434.49 594.56ZM1434.49 614.918L1434.05 615.142L1434.05 615.151L1434.49 614.918ZM1440.89 622.016L1440.62 622.435L1440.63 622.44L1440.89 622.016ZM1459.77 622.016L1460.03 622.438L1460.04 622.437L1459.77 622.016ZM1466.24 614.84L1466.68 615.07L1466.68 615.07L1466.24 614.84ZM1476.66 604.7C1476.66 608.596 1476.02 612.228 1474.74 615.599L1475.68 615.953C1477 612.46 1477.66 608.708 1477.66 604.7H1476.66ZM1474.74 615.597C1473.47 618.916 1471.63 621.823 1469.23 624.322L1469.96 625.014C1472.45 622.417 1474.35 619.396 1475.68 615.955L1474.74 615.597ZM1469.23 624.326C1466.88 626.824 1464.11 628.787 1460.89 630.217L1461.3 631.131C1464.63 629.649 1467.52 627.608 1469.96 625.01L1469.23 624.326ZM1460.89 630.216C1457.74 631.589 1454.25 632.28 1450.41 632.28V633.28C1454.37 633.28 1458 632.567 1461.29 631.132L1460.89 630.216ZM1450.41 632.28C1446.57 632.28 1443.05 631.589 1439.84 630.214L1439.45 631.134C1442.79 632.567 1446.44 633.28 1450.41 633.28V632.28ZM1439.85 630.217C1436.63 628.787 1433.85 626.824 1431.5 624.326L1430.78 625.01C1433.21 627.608 1436.1 629.649 1439.44 631.131L1439.85 630.217ZM1431.5 624.326C1429.16 621.827 1427.35 618.918 1426.07 615.597L1425.14 615.955C1426.46 619.394 1428.34 622.413 1430.78 625.01L1431.5 624.326ZM1426.07 615.599C1424.79 612.228 1424.15 608.596 1424.15 604.7H1423.15C1423.15 608.708 1423.81 612.46 1425.13 615.953L1426.07 615.599ZM1424.15 604.7C1424.15 600.804 1424.79 597.199 1426.07 593.881L1425.14 593.523C1423.81 596.965 1423.15 600.692 1423.15 604.7H1424.15ZM1426.07 593.879C1427.35 590.505 1429.16 587.572 1431.5 585.074L1430.78 584.39C1428.34 586.988 1426.46 590.035 1425.13 593.525L1426.07 593.879ZM1431.5 585.074C1433.85 582.577 1436.63 580.641 1439.84 579.264L1439.45 578.344C1436.11 579.775 1433.22 581.791 1430.78 584.39L1431.5 585.074ZM1439.85 579.261C1443.05 577.836 1446.57 577.12 1450.41 577.12V576.12C1446.44 576.12 1442.78 576.86 1439.44 578.347L1439.85 579.261ZM1450.41 577.12C1454.24 577.12 1457.73 577.836 1460.89 579.26L1461.3 578.348C1458 576.86 1454.37 576.12 1450.41 576.12V577.12ZM1460.9 579.264C1464.11 580.641 1466.89 582.577 1469.23 585.074L1469.96 584.39C1467.52 581.791 1464.63 579.775 1461.29 578.344L1460.9 579.264ZM1469.23 585.078C1471.63 587.576 1473.47 590.508 1474.74 593.879L1475.68 593.525C1474.35 590.032 1472.45 586.984 1469.96 584.386L1469.23 585.078ZM1474.74 593.881C1476.02 597.199 1476.66 600.804 1476.66 604.7H1477.66C1477.66 600.692 1477 596.965 1475.68 593.523L1474.74 593.881ZM1469.08 604.7C1469.08 600.834 1468.29 597.372 1466.68 594.327L1465.8 594.793C1467.32 597.676 1468.08 600.974 1468.08 604.7H1469.08ZM1466.68 594.33C1465.08 591.238 1462.87 588.803 1460.03 587.038L1459.5 587.886C1462.18 589.553 1464.28 591.85 1465.8 594.79L1466.68 594.33ZM1460.04 587.044C1457.25 585.217 1454.03 584.31 1450.41 584.31V585.31C1453.85 585.31 1456.88 586.171 1459.49 587.88L1460.04 587.044ZM1450.41 584.31C1446.73 584.31 1443.46 585.217 1440.62 587.041L1441.16 587.883C1443.83 586.171 1446.9 585.31 1450.41 585.31V584.31ZM1440.62 587.04C1437.84 588.806 1435.65 591.241 1434.05 594.33L1434.94 594.79C1436.46 591.847 1438.53 589.55 1441.16 587.884L1440.62 587.04ZM1434.05 594.333C1432.5 597.377 1431.73 600.836 1431.73 604.7H1432.73C1432.73 600.972 1433.47 597.671 1434.94 594.787L1434.05 594.333ZM1431.73 604.7C1431.73 608.564 1432.5 612.048 1434.05 615.142L1434.94 614.694C1433.47 611.756 1432.73 608.428 1432.73 604.7H1431.73ZM1434.05 615.151C1435.65 618.187 1437.84 620.618 1440.62 622.434L1441.16 621.598C1438.53 619.878 1436.46 617.577 1434.94 614.685L1434.05 615.151ZM1440.63 622.44C1443.47 624.211 1446.73 625.09 1450.41 625.09V624.09C1446.9 624.09 1443.82 623.253 1441.15 621.592L1440.63 622.44ZM1450.41 625.09C1454.03 625.09 1457.24 624.21 1460.03 622.438L1459.5 621.594C1456.88 623.254 1453.86 624.09 1450.41 624.09V625.09ZM1460.04 622.437C1462.87 620.62 1465.09 618.161 1466.68 615.07L1465.8 614.61C1464.27 617.551 1462.18 619.876 1459.5 621.595L1460.04 622.437ZM1466.68 615.07C1468.28 611.976 1469.08 608.516 1469.08 604.7H1468.08C1468.08 608.372 1467.32 611.672 1465.8 614.61L1466.68 615.07ZM1521.01 579.584L1520.81 580.038L1520.81 580.042L1521.01 579.584ZM1529.05 585.512L1528.66 585.833L1528.67 585.837L1529.05 585.512ZM1533.88 594.248L1533.41 594.404L1533.41 594.406L1533.88 594.248ZM1532.64 618.428L1533.09 618.64L1533.09 618.638L1532.64 618.428ZM1524.06 628.334L1524.33 628.754L1524.33 628.752L1524.06 628.334ZM1488.57 632H1488.07V632.5H1488.57V632ZM1488.57 577.4V576.9H1488.07V577.4H1488.57ZM1519.53 621.314L1519.81 621.729L1519.82 621.725L1519.53 621.314ZM1525.15 595.184L1525.61 594.994L1525.61 594.994L1525.15 595.184ZM1519.53 588.164L1519.82 587.753L1519.82 587.753L1519.53 588.164ZM1496.99 585.512V585.012H1496.49V585.512H1496.99ZM1496.99 623.888H1496.49V624.388H1496.99V623.888ZM1509.94 577.9C1514.09 577.9 1517.71 578.618 1520.81 580.038L1521.22 579.13C1517.97 577.638 1514.21 576.9 1509.94 576.9V577.9ZM1520.81 580.042C1523.97 581.417 1526.59 583.348 1528.66 585.833L1529.43 585.191C1527.25 582.58 1524.5 580.559 1521.21 579.126L1520.81 580.042ZM1528.67 585.837C1530.75 588.28 1532.34 591.134 1533.41 594.404L1534.36 594.092C1533.25 590.706 1531.61 587.736 1529.43 585.187L1528.67 585.837ZM1533.41 594.406C1534.48 597.628 1535.02 601.058 1535.02 604.7H1536.02C1536.02 600.958 1535.47 597.42 1534.36 594.09L1533.41 594.406ZM1535.02 604.7C1535.02 609.626 1534.07 614.13 1532.18 618.218L1533.09 618.638C1535.05 614.406 1536.02 609.758 1536.02 604.7H1535.02ZM1532.18 618.216C1530.3 622.24 1527.5 625.471 1523.78 627.916L1524.33 628.752C1528.2 626.205 1531.13 622.832 1533.09 618.64L1532.18 618.216ZM1523.79 627.914C1520.09 630.294 1515.48 631.5 1509.94 631.5V632.5C1515.63 632.5 1520.43 631.262 1524.33 628.754L1523.79 627.914ZM1509.94 631.5H1488.57V632.5H1509.94V631.5ZM1489.07 632V577.4H1488.07V632H1489.07ZM1488.57 577.9H1509.94V576.9H1488.57V577.9ZM1509.55 624.388C1513.72 624.388 1517.16 623.516 1519.81 621.729L1519.25 620.899C1516.81 622.544 1513.59 623.388 1509.55 623.388V624.388ZM1519.82 621.725C1522.45 619.901 1524.38 617.484 1525.61 614.484L1524.69 614.104C1523.53 616.928 1521.71 619.191 1519.25 620.903L1519.82 621.725ZM1525.61 614.484C1526.83 611.506 1527.44 608.242 1527.44 604.7H1526.44C1526.44 608.126 1525.85 611.258 1524.69 614.104L1525.61 614.484ZM1527.44 604.7C1527.44 601.209 1526.83 597.972 1525.61 594.994L1524.69 595.374C1525.85 598.22 1526.44 601.327 1526.44 604.7H1527.44ZM1525.61 594.994C1524.38 591.994 1522.45 589.577 1519.82 587.753L1519.25 588.575C1521.71 590.287 1523.53 592.55 1524.69 595.374L1525.61 594.994ZM1519.82 587.753C1517.16 585.911 1513.73 585.012 1509.55 585.012V586.012C1513.59 586.012 1516.81 586.881 1519.25 588.575L1519.82 587.753ZM1509.55 585.012H1496.99V586.012H1509.55V585.012ZM1496.49 585.512V623.888H1497.49V585.512H1496.49ZM1496.99 624.388H1509.55V623.388H1496.99V624.388ZM1590.13 577.322H1590.63V576.822H1590.13V577.322ZM1587.24 622.094L1586.81 621.841L1586.81 621.843L1587.24 622.094ZM1579.44 629.738L1579.68 630.175L1579.68 630.174L1579.44 629.738ZM1556.82 629.738L1556.57 630.174L1556.58 630.177L1556.82 629.738ZM1548.94 622.094L1548.51 622.342L1548.51 622.35L1548.94 622.094ZM1546.13 577.322V576.822H1545.63V577.322H1546.13ZM1554.56 577.322H1555.06V576.822H1554.56V577.322ZM1556.43 617.57L1556 617.823L1556 617.83L1556.43 617.57ZM1561.5 622.562L1561.75 622.129L1561.75 622.129L1561.5 622.562ZM1575.07 622.562L1575.32 622.998L1575.32 622.998L1575.07 622.562ZM1580.14 617.57L1579.71 617.31L1579.71 617.317L1580.14 617.57ZM1582.09 577.322V576.822H1581.59V577.322H1582.09ZM1589.63 577.322V611.018H1590.63V577.322H1589.63ZM1589.63 611.018C1589.63 615.044 1588.68 618.648 1586.81 621.841L1587.67 622.347C1589.64 618.988 1590.63 615.208 1590.63 611.018H1589.63ZM1586.81 621.843C1584.98 624.988 1582.45 627.473 1579.19 629.302L1579.68 630.174C1583.09 628.259 1585.75 625.648 1587.67 622.345L1586.81 621.843ZM1579.2 629.301C1576 631.074 1572.32 631.968 1568.13 631.968V632.968C1572.47 632.968 1576.32 632.042 1579.68 630.175L1579.2 629.301ZM1568.13 631.968C1563.99 631.968 1560.31 631.075 1557.06 629.299L1556.58 630.177C1559.99 632.041 1563.84 632.968 1568.13 632.968V631.968ZM1557.06 629.302C1553.81 627.472 1551.25 624.986 1549.37 621.838L1548.51 622.35C1550.48 625.65 1553.17 628.26 1556.57 630.174L1557.06 629.302ZM1549.38 621.846C1547.55 618.652 1546.63 615.047 1546.63 611.018H1545.63C1545.63 615.205 1546.59 618.984 1548.51 622.342L1549.38 621.846ZM1546.63 611.018V577.322H1545.63V611.018H1546.63ZM1546.13 577.822H1554.56V576.822H1546.13V577.822ZM1554.06 577.322V610.316H1555.06V577.322H1554.06ZM1554.06 610.316C1554.06 613.1 1554.7 615.607 1556 617.823L1556.86 617.317C1555.66 615.269 1555.06 612.94 1555.06 610.316H1554.06ZM1556 617.83C1557.34 620.031 1559.09 621.756 1561.25 622.995L1561.75 622.129C1559.74 620.976 1558.11 619.373 1556.86 617.31L1556 617.83ZM1561.25 622.995C1563.4 624.234 1565.7 624.856 1568.13 624.856V623.856C1565.88 623.856 1563.75 623.282 1561.75 622.129L1561.25 622.995ZM1568.13 624.856C1570.71 624.856 1573.11 624.237 1575.32 622.998L1574.83 622.126C1572.77 623.279 1570.54 623.856 1568.13 623.856V624.856ZM1575.32 622.998C1577.53 621.758 1579.28 620.03 1580.57 617.823L1579.71 617.317C1578.51 619.374 1576.88 620.974 1574.83 622.126L1575.32 622.998ZM1580.57 617.83C1581.92 615.613 1582.59 613.104 1582.59 610.316H1581.59C1581.59 612.936 1580.96 615.263 1579.71 617.31L1580.57 617.83ZM1582.59 610.316V577.322H1581.59V610.316H1582.59ZM1582.09 577.822H1590.13V576.822H1582.09V577.822ZM1646.15 625.292L1646.52 625.621L1646.77 625.344L1646.57 625.03L1646.15 625.292ZM1641.55 628.88L1641.3 628.447L1641.29 628.45L1641.55 628.88ZM1634.84 631.688L1634.7 631.207L1634.7 631.208L1634.84 631.688ZM1613.54 629.348L1613.29 629.777L1613.29 629.781L1613.54 629.348ZM1604.18 619.52L1603.74 619.759L1603.75 619.763L1604.18 619.52ZM1602.86 593.624L1603.32 593.816L1603.32 593.816L1602.86 593.624ZM1608.71 584.81L1609.06 585.164L1609.06 585.164L1608.71 584.81ZM1617.29 579.038L1617.48 579.499L1617.49 579.496L1617.29 579.038ZM1635.77 578.336L1635.6 578.805L1635.61 578.809L1635.77 578.336ZM1642.56 581.846L1642.26 582.245L1642.26 582.249L1642.27 582.254L1642.56 581.846ZM1647.16 586.37L1647.52 586.716L1647.8 586.424L1647.58 586.09L1647.16 586.37ZM1641.55 592.22L1641.19 592.569L1641.55 592.939L1641.91 592.566L1641.55 592.22ZM1635.15 587.306L1634.91 587.743L1634.91 587.743L1635.15 587.306ZM1618.61 587.696L1618.37 587.259L1618.37 587.261L1618.61 587.696ZM1611.91 594.404L1612.33 594.661L1612.34 594.658L1611.91 594.404ZM1611.91 615.62L1611.48 615.874L1611.48 615.879L1611.91 615.62ZM1618.85 622.172L1618.62 622.618L1618.63 622.622L1618.85 622.172ZM1636.32 622.484L1636.55 622.929L1636.56 622.925L1636.32 622.484ZM1641.94 618.428L1642.36 618.166L1642.02 617.616L1641.58 618.081L1641.94 618.428ZM1645.77 624.963C1644.73 626.157 1643.24 627.321 1641.3 628.447L1641.8 629.313C1643.8 628.151 1645.39 626.923 1646.52 625.621L1645.77 624.963ZM1641.29 628.45C1639.41 629.569 1637.21 630.489 1634.7 631.207L1634.98 632.169C1637.56 631.431 1639.83 630.479 1641.8 629.31L1641.29 628.45ZM1634.7 631.208C1632.25 631.921 1629.62 632.28 1626.8 632.28V633.28C1629.71 633.28 1632.43 632.911 1634.98 632.168L1634.7 631.208ZM1626.8 632.28C1622 632.28 1617.66 631.156 1613.79 628.915L1613.29 629.781C1617.33 632.116 1621.83 633.28 1626.8 633.28V632.28ZM1613.8 628.919C1609.98 626.627 1606.92 623.417 1604.62 619.277L1603.75 619.763C1606.13 624.047 1609.31 627.389 1613.29 629.777L1613.8 628.919ZM1604.62 619.281C1602.38 615.155 1601.25 610.3 1601.25 604.7H1600.25C1600.25 610.436 1601.41 615.461 1603.74 619.759L1604.62 619.281ZM1601.25 604.7C1601.25 600.756 1601.94 597.13 1603.32 593.816L1602.4 593.432C1600.96 596.878 1600.25 600.636 1600.25 604.7H1601.25ZM1603.32 593.816C1604.7 590.494 1606.61 587.612 1609.06 585.164L1608.35 584.456C1605.81 587 1603.82 589.994 1602.4 593.432L1603.32 593.816ZM1609.06 585.164C1611.51 582.713 1614.32 580.826 1617.48 579.499L1617.09 578.577C1613.81 579.954 1610.9 581.915 1608.35 584.456L1609.06 585.164ZM1617.49 579.496C1620.65 578.12 1623.99 577.432 1627.51 577.432V576.432C1623.85 576.432 1620.38 577.148 1617.09 578.58L1617.49 579.496ZM1627.51 577.432C1630.42 577.432 1633.11 577.891 1635.6 578.805L1635.95 577.867C1633.34 576.909 1630.52 576.432 1627.51 576.432V577.432ZM1635.61 578.809C1638.17 579.679 1640.38 580.825 1642.26 582.245L1642.86 581.447C1640.89 579.955 1638.58 578.761 1635.93 577.863L1635.61 578.809ZM1642.27 582.254C1644.21 583.631 1645.7 585.098 1646.75 586.65L1647.58 586.09C1646.44 584.418 1644.86 582.869 1642.85 581.438L1642.27 582.254ZM1646.8 586.024L1641.19 591.874L1641.91 592.566L1647.52 586.716L1646.8 586.024ZM1641.9 591.871C1639.95 589.861 1637.78 588.193 1635.39 586.869L1634.91 587.743C1637.2 589.019 1639.3 590.627 1641.19 592.569L1641.9 591.871ZM1635.39 586.869C1632.98 585.526 1630.34 584.856 1627.51 584.856V585.856C1630.18 585.856 1632.64 586.486 1634.91 587.743L1635.39 586.869ZM1627.51 584.856C1624.3 584.856 1621.25 585.659 1618.37 587.259L1618.86 588.133C1621.59 586.613 1624.47 585.856 1627.51 585.856V584.856ZM1618.37 587.261C1615.53 588.867 1613.23 591.168 1611.48 594.15L1612.34 594.658C1614.01 591.816 1616.19 589.645 1618.86 588.131L1618.37 587.261ZM1611.48 594.147C1609.71 597.099 1608.83 600.624 1608.83 604.7H1609.83C1609.83 600.768 1610.67 597.429 1612.33 594.661L1611.48 594.147ZM1608.83 604.7C1608.83 609.132 1609.7 612.866 1611.48 615.874L1612.34 615.366C1610.68 612.55 1609.83 609.004 1609.83 604.7H1608.83ZM1611.48 615.879C1613.29 618.866 1615.67 621.117 1618.62 622.618L1619.07 621.726C1616.3 620.315 1614.06 618.198 1612.33 615.361L1611.48 615.879ZM1618.63 622.622C1621.61 624.06 1624.81 624.778 1628.21 624.778V623.778C1624.95 623.778 1621.91 623.092 1619.06 621.722L1618.63 622.622ZM1628.21 624.778C1631.34 624.778 1634.13 624.167 1636.55 622.929L1636.09 622.039C1633.83 623.193 1631.21 623.778 1628.21 623.778V624.778ZM1636.56 622.925C1638.93 621.66 1640.85 620.278 1642.3 618.775L1641.58 618.081C1640.22 619.49 1638.39 620.812 1636.08 622.043L1636.56 622.925ZM1641.51 618.69L1645.72 625.554L1646.57 625.03L1642.36 618.166L1641.51 618.69ZM1667.97 632H1667.47V632.5H1667.97V632ZM1667.97 585.512H1668.47V585.012H1667.97V585.512ZM1652.68 585.512H1652.18V586.012H1652.68V585.512ZM1652.68 577.4V576.9H1652.18V577.4H1652.68ZM1692.15 577.4H1692.65V576.9H1692.15V577.4ZM1692.15 585.512V586.012H1692.65V585.512H1692.15ZM1676.39 585.512V585.012H1675.89V585.512H1676.39ZM1676.39 632V632.5H1676.89V632H1676.39ZM1668.47 632V585.512H1667.47V632H1668.47ZM1667.97 585.012H1652.68V586.012H1667.97V585.012ZM1653.18 585.512V577.4H1652.18V585.512H1653.18ZM1652.68 577.9H1692.15V576.9H1652.68V577.9ZM1691.65 577.4V585.512H1692.65V577.4H1691.65ZM1692.15 585.012H1676.39V586.012H1692.15V585.012ZM1675.89 585.512V632H1676.89V585.512H1675.89ZM1676.39 631.5H1667.97V632.5H1676.39V631.5ZM1726.56 632V632.5H1727.06V632H1726.56ZM1700.5 632H1700V632.5H1700.5V632ZM1700.5 624.2V623.7H1700V624.2H1700.5ZM1709.32 624.2V624.7H1709.82V624.2H1709.32ZM1709.32 585.2H1709.82V584.7H1709.32V585.2ZM1700.5 585.2H1700V585.7H1700.5V585.2ZM1700.5 577.4V576.9H1700V577.4H1700.5ZM1726.56 577.4H1727.06V576.9H1726.56V577.4ZM1726.56 585.2V585.7H1727.06V585.2H1726.56ZM1717.74 585.2V584.7H1717.24V585.2H1717.74ZM1717.74 624.2H1717.24V624.7H1717.74V624.2ZM1726.56 624.2H1727.06V623.7H1726.56V624.2ZM1726.56 631.5H1700.5V632.5H1726.56V631.5ZM1701 632V624.2H1700V632H1701ZM1700.5 624.7H1709.32V623.7H1700.5V624.7ZM1709.82 624.2V585.2H1708.82V624.2H1709.82ZM1709.32 584.7H1700.5V585.7H1709.32V584.7ZM1701 585.2V577.4H1700V585.2H1701ZM1700.5 577.9H1726.56V576.9H1700.5V577.9ZM1726.06 577.4V585.2H1727.06V577.4H1726.06ZM1726.56 584.7H1717.74V585.7H1726.56V584.7ZM1717.24 585.2V624.2H1718.24V585.2H1717.24ZM1717.74 624.7H1726.56V623.7H1717.74V624.7ZM1726.06 624.2V632H1727.06V624.2H1726.06ZM1786.3 615.776L1786.76 615.955L1786.76 615.953L1786.3 615.776ZM1780.68 624.668L1780.32 624.322L1780.32 624.326L1780.68 624.668ZM1772.18 630.674L1772.38 631.132L1772.38 631.131L1772.18 630.674ZM1750.73 630.674L1750.53 631.131L1750.53 631.134L1750.73 630.674ZM1736.69 615.776L1736.22 615.953L1736.22 615.955L1736.69 615.776ZM1736.69 593.702L1737.15 593.881L1737.16 593.879L1736.69 593.702ZM1742.23 584.732L1742.59 585.074L1742.59 585.074L1742.23 584.732ZM1750.73 578.804L1750.93 579.264L1750.93 579.261L1750.73 578.804ZM1772.18 578.804L1771.97 579.26L1771.98 579.264L1772.18 578.804ZM1780.68 584.732L1780.32 585.074L1780.32 585.078L1780.68 584.732ZM1786.3 593.702L1785.83 593.879L1785.83 593.881L1786.3 593.702ZM1777.33 594.56L1776.88 594.79L1776.88 594.793L1777.33 594.56ZM1770.85 587.462L1770.58 587.881L1770.59 587.886L1770.85 587.462ZM1751.98 587.462L1752.24 587.884L1752.25 587.883L1751.98 587.462ZM1745.58 594.56L1745.14 594.33L1745.13 594.333L1745.58 594.56ZM1745.58 614.918L1745.13 615.142L1745.14 615.151L1745.58 614.918ZM1751.98 622.016L1751.7 622.435L1751.71 622.44L1751.98 622.016ZM1770.85 622.016L1771.12 622.438L1771.12 622.437L1770.85 622.016ZM1777.33 614.84L1777.77 615.07L1777.77 615.07L1777.33 614.84ZM1787.75 604.7C1787.75 608.596 1787.11 612.228 1785.83 615.599L1786.76 615.953C1788.09 612.46 1788.75 608.708 1788.75 604.7H1787.75ZM1785.83 615.597C1784.55 618.916 1782.72 621.823 1780.32 624.322L1781.04 625.014C1783.53 622.417 1785.44 619.396 1786.76 615.955L1785.83 615.597ZM1780.32 624.326C1777.97 626.824 1775.19 628.787 1771.98 630.217L1772.38 631.131C1775.72 629.649 1778.61 627.608 1781.04 625.01L1780.32 624.326ZM1771.98 630.216C1768.82 631.589 1765.33 632.28 1761.49 632.28V633.28C1765.45 633.28 1769.08 632.567 1772.38 631.132L1771.98 630.216ZM1761.49 632.28C1757.65 632.28 1754.13 631.589 1750.93 630.214L1750.53 631.134C1753.88 632.567 1757.53 633.28 1761.49 633.28V632.28ZM1750.93 630.217C1747.71 628.787 1744.94 626.824 1742.59 624.326L1741.86 625.01C1744.3 627.608 1747.19 629.649 1750.53 631.131L1750.93 630.217ZM1742.59 624.326C1740.24 621.827 1738.43 618.918 1737.15 615.597L1736.22 615.955C1737.54 619.394 1739.42 622.413 1741.86 625.01L1742.59 624.326ZM1737.16 615.599C1735.88 612.228 1735.24 608.596 1735.24 604.7H1734.24C1734.24 608.708 1734.9 612.46 1736.22 615.953L1737.16 615.599ZM1735.24 604.7C1735.24 600.804 1735.88 597.199 1737.15 593.881L1736.22 593.523C1734.9 596.965 1734.24 600.692 1734.24 604.7H1735.24ZM1737.16 593.879C1738.43 590.505 1740.25 587.572 1742.59 585.074L1741.86 584.39C1739.42 586.988 1737.54 590.035 1736.22 593.525L1737.16 593.879ZM1742.59 585.074C1744.93 582.577 1747.71 580.641 1750.93 579.264L1750.53 578.344C1747.19 579.775 1744.3 581.791 1741.86 584.39L1742.59 585.074ZM1750.93 579.261C1754.14 577.836 1757.66 577.12 1761.49 577.12V576.12C1757.53 576.12 1753.87 576.86 1750.53 578.347L1750.93 579.261ZM1761.49 577.12C1765.33 577.12 1768.82 577.836 1771.97 579.26L1772.38 578.348C1769.09 576.86 1765.46 576.12 1761.49 576.12V577.12ZM1771.98 579.264C1775.2 580.641 1777.97 582.577 1780.32 585.074L1781.04 584.39C1778.6 581.791 1775.71 579.775 1772.38 578.344L1771.98 579.264ZM1780.32 585.078C1782.71 587.576 1784.55 590.508 1785.83 593.879L1786.76 593.525C1785.44 590.032 1783.53 586.984 1781.04 584.386L1780.32 585.078ZM1785.83 593.881C1787.11 597.199 1787.75 600.804 1787.75 604.7H1788.75C1788.75 600.692 1788.09 596.965 1786.76 593.523L1785.83 593.881ZM1780.17 604.7C1780.17 600.834 1779.37 597.372 1777.77 594.327L1776.88 594.793C1778.4 597.676 1779.17 600.974 1779.17 604.7H1780.17ZM1777.77 594.33C1776.17 591.238 1773.95 588.803 1771.12 587.038L1770.59 587.886C1773.26 589.553 1775.36 591.85 1776.88 594.79L1777.77 594.33ZM1771.13 587.044C1768.33 585.217 1765.12 584.31 1761.49 584.31V585.31C1764.94 585.31 1767.96 586.171 1770.58 587.88L1771.13 587.044ZM1761.49 584.31C1757.82 584.31 1754.55 585.217 1751.71 587.041L1752.25 587.883C1754.91 586.171 1757.99 585.31 1761.49 585.31V584.31ZM1751.71 587.04C1748.92 588.806 1746.73 591.241 1745.14 594.33L1746.02 594.79C1747.55 591.847 1749.62 589.55 1752.24 587.884L1751.71 587.04ZM1745.13 594.333C1743.59 597.377 1742.82 600.836 1742.82 604.7H1743.82C1743.82 600.972 1744.56 597.671 1746.03 594.787L1745.13 594.333ZM1742.82 604.7C1742.82 608.564 1743.59 612.048 1745.13 615.142L1746.03 614.694C1744.56 611.756 1743.82 608.428 1743.82 604.7H1742.82ZM1745.14 615.151C1746.74 618.187 1748.92 620.618 1751.7 622.434L1752.25 621.598C1749.62 619.878 1747.54 617.577 1746.02 614.685L1745.14 615.151ZM1751.71 622.44C1754.56 624.211 1757.82 625.09 1761.49 625.09V624.09C1757.99 624.09 1754.91 623.253 1752.24 621.592L1751.71 622.44ZM1761.49 625.09C1765.11 625.09 1768.33 624.21 1771.12 622.438L1770.58 621.594C1767.97 623.254 1764.94 624.09 1761.49 624.09V625.09ZM1771.12 622.437C1773.95 620.62 1776.17 618.161 1777.77 615.07L1776.88 614.61C1775.36 617.551 1773.26 619.876 1770.58 621.595L1771.12 622.437ZM1777.77 615.07C1779.37 611.976 1780.17 608.516 1780.17 604.7H1779.17C1779.17 608.372 1778.4 611.672 1776.88 614.61L1777.77 615.07ZM1837.79 577.4V576.9H1837.29V577.4H1837.79ZM1846.22 577.4H1846.72V576.9H1846.22V577.4ZM1846.22 632V632.5H1846.72V632H1846.22ZM1838.5 632L1838.1 632.303L1838.25 632.5H1838.5V632ZM1806.75 590.348L1807.15 590.045L1806.08 588.644L1806.25 590.397L1806.75 590.348ZM1807.61 599.864L1807.11 599.905L1807.11 599.914L1807.61 599.864ZM1808.08 632V632.5H1808.58V632H1808.08ZM1799.65 632H1799.15V632.5H1799.65V632ZM1799.65 577.4V576.9H1799.15V577.4H1799.65ZM1807.22 577.4L1807.62 577.101L1807.47 576.9H1807.22V577.4ZM1838.96 619.91L1838.56 620.209L1839.69 621.719L1839.46 619.849L1838.96 619.91ZM1838.03 607.664L1837.53 607.682L1837.53 607.682L1838.03 607.664ZM1837.79 577.9H1846.22V576.9H1837.79V577.9ZM1845.72 577.4V632H1846.72V577.4H1845.72ZM1846.22 631.5H1838.5V632.5H1846.22V631.5ZM1838.89 631.697L1807.15 590.045L1806.35 590.651L1838.1 632.303L1838.89 631.697ZM1806.25 590.397C1806.56 593.566 1806.85 596.736 1807.11 599.905L1808.11 599.823C1807.85 596.648 1807.56 593.474 1807.25 590.299L1806.25 590.397ZM1807.11 599.914C1807.42 603.017 1807.58 606.146 1807.58 609.302H1808.58C1808.58 606.114 1808.42 602.951 1808.11 599.814L1807.11 599.914ZM1807.58 609.302V632H1808.58V609.302H1807.58ZM1808.08 631.5H1799.65V632.5H1808.08V631.5ZM1800.15 632V577.4H1799.15V632H1800.15ZM1799.65 577.9H1807.22V576.9H1799.65V577.9ZM1806.82 577.699L1838.56 620.209L1839.36 619.611L1807.62 577.101L1806.82 577.699ZM1839.46 619.849C1838.99 616.069 1838.68 612.002 1838.53 607.646L1837.53 607.682C1837.68 612.062 1838 616.159 1838.47 619.971L1839.46 619.849ZM1838.53 607.646C1838.37 603.231 1838.29 599.129 1838.29 595.34H1837.29C1837.29 599.143 1837.37 603.257 1837.53 607.682L1838.53 607.646ZM1838.29 595.34V577.4H1837.29V595.34H1838.29ZM1863.53 615.542L1863.94 615.257L1863.58 614.73L1863.15 615.214L1863.53 615.542ZM1870.16 622.718L1869.86 623.118L1869.87 623.125L1870.16 622.718ZM1884.28 624.356L1884.11 623.885L1884.11 623.885L1884.28 624.356ZM1888.26 621.86L1887.9 621.515L1887.9 621.515L1888.26 621.86ZM1886.46 611.876L1886.19 612.292L1886.19 612.295L1886.46 611.876ZM1877.18 608.522L1877.08 609.012L1877.09 609.013L1877.18 608.522ZM1865.01 603.14L1864.69 603.519L1864.69 603.522L1865.01 603.14ZM1863.06 583.796L1862.67 583.49L1862.66 583.496L1863.06 583.796ZM1890.44 579.116L1890.21 579.557L1890.21 579.557L1890.44 579.116ZM1897.77 586.214L1898.12 586.57L1898.4 586.299L1898.21 585.964L1897.77 586.214ZM1891.85 592.064L1891.42 592.321L1891.74 592.867L1892.2 592.42L1891.85 592.064ZM1886.54 586.37L1886.82 585.957L1886.82 585.957L1886.54 586.37ZM1871.8 586.214L1872.08 586.628L1872.08 586.627L1871.8 586.214ZM1871.96 597.524L1871.69 597.95L1871.7 597.954L1871.71 597.957L1871.96 597.524ZM1880.15 600.41L1880.04 600.899L1880.05 600.9L1880.15 600.41ZM1888.88 603.296L1889.09 602.844L1889.09 602.844L1888.88 603.296ZM1895.59 608.366L1895.2 608.684L1895.21 608.695L1895.59 608.366ZM1892.94 628.178L1893.27 628.556L1893.27 628.556L1892.94 628.178ZM1866.81 630.284L1866.59 630.734L1866.59 630.735L1866.81 630.284ZM1857.76 622.172L1857.38 621.844L1857.13 622.137L1857.35 622.457L1857.76 622.172ZM1863.12 615.827C1865.27 618.927 1867.52 621.362 1869.86 623.118L1870.46 622.318C1868.23 620.642 1866.05 618.293 1863.94 615.257L1863.12 615.827ZM1869.87 623.125C1872.32 624.865 1875.44 625.714 1879.21 625.714V624.714C1875.59 624.714 1872.69 623.899 1870.45 622.311L1869.87 623.125ZM1879.21 625.714C1881.03 625.714 1882.78 625.419 1884.45 624.827L1884.11 623.885C1882.56 624.437 1880.92 624.714 1879.21 624.714V625.714ZM1884.45 624.827C1886.12 624.233 1887.52 623.361 1888.62 622.205L1887.9 621.515C1886.92 622.543 1885.66 623.335 1884.11 623.885L1884.45 624.827ZM1888.62 622.205C1889.75 621.02 1890.32 619.596 1890.32 617.96H1889.32C1889.32 619.34 1888.85 620.516 1887.9 621.515L1888.62 622.205ZM1890.32 617.96C1890.32 615.186 1889.11 613.002 1886.74 611.457L1886.19 612.295C1888.29 613.662 1889.32 615.534 1889.32 617.96H1890.32ZM1886.74 611.46C1884.48 609.953 1881.31 608.818 1877.28 608.031L1877.09 609.013C1881.06 609.786 1884.08 610.887 1886.19 612.292L1886.74 611.46ZM1877.28 608.032C1872.24 607.004 1868.27 605.238 1865.34 602.758L1864.69 603.522C1867.79 606.138 1871.93 607.96 1877.08 609.012L1877.28 608.032ZM1865.34 602.761C1862.46 600.278 1860.99 596.687 1860.99 591.908H1859.99C1859.99 596.905 1861.54 600.802 1864.69 603.519L1865.34 602.761ZM1860.99 591.908C1860.99 588.886 1861.82 586.289 1863.46 584.096L1862.66 583.496C1860.88 585.879 1859.99 588.69 1859.99 591.908H1860.99ZM1863.46 584.102C1865.17 581.885 1867.42 580.167 1870.21 578.95L1869.81 578.034C1866.87 579.313 1864.49 581.131 1862.67 583.49L1863.46 584.102ZM1870.21 578.95C1873 577.732 1876.02 577.12 1879.29 577.12V576.12C1875.9 576.12 1872.73 576.756 1869.81 578.034L1870.21 578.95ZM1879.29 577.12C1883.54 577.12 1887.17 577.939 1890.21 579.557L1890.68 578.675C1887.47 576.965 1883.67 576.12 1879.29 576.12V577.12ZM1890.21 579.557C1893.24 581.177 1895.62 583.477 1897.34 586.464L1898.21 585.964C1896.39 582.815 1893.88 580.383 1890.68 578.675L1890.21 579.557ZM1897.42 585.858L1891.49 591.708L1892.2 592.42L1898.12 586.57L1897.42 585.858ZM1892.27 591.807C1890.84 589.408 1889.02 587.456 1886.82 585.957L1886.26 586.783C1888.33 588.196 1890.05 590.04 1891.42 592.321L1892.27 591.807ZM1886.82 585.957C1884.6 584.438 1882 583.686 1879.05 583.686V584.686C1881.82 584.686 1884.22 585.39 1886.26 586.783L1886.82 585.957ZM1879.05 583.686C1876.11 583.686 1873.59 584.382 1871.52 585.801L1872.08 586.627C1873.96 585.342 1876.27 584.686 1879.05 584.686V583.686ZM1871.52 585.8C1869.46 587.194 1868.41 589.169 1868.41 591.674H1869.41C1869.41 589.499 1870.29 587.834 1872.08 586.628L1871.52 585.8ZM1868.41 591.674C1868.41 594.476 1869.5 596.599 1871.69 597.95L1872.22 597.098C1870.36 595.953 1869.41 594.176 1869.41 591.674H1868.41ZM1871.71 597.957C1873.85 599.188 1876.63 600.164 1880.04 600.899L1880.25 599.921C1876.9 599.2 1874.22 598.252 1872.2 597.091L1871.71 597.957ZM1880.05 600.9C1883.08 601.516 1885.95 602.466 1888.67 603.748L1889.09 602.844C1886.3 601.526 1883.35 600.552 1880.25 599.92L1880.05 600.9ZM1888.67 603.748C1891.37 605.021 1893.54 606.668 1895.2 608.684L1895.98 608.048C1894.21 605.904 1891.91 604.171 1889.09 602.844L1888.67 603.748ZM1895.21 608.695C1896.89 610.624 1897.74 612.974 1897.74 615.776H1898.74C1898.74 612.754 1897.82 610.164 1895.97 608.037L1895.21 608.695ZM1897.74 615.776C1897.74 620.849 1896.02 624.839 1892.61 627.8L1893.27 628.556C1896.92 625.381 1898.74 621.103 1898.74 615.776H1897.74ZM1892.61 627.8C1889.19 630.767 1884.46 632.28 1878.35 632.28V633.28C1884.62 633.28 1889.61 631.725 1893.27 628.556L1892.61 627.8ZM1878.35 632.28C1874.21 632.28 1870.43 631.462 1867.02 629.833L1866.59 630.735C1870.15 632.434 1874.07 633.28 1878.35 633.28V632.28ZM1867.03 629.834C1863.68 628.214 1860.73 625.574 1858.17 621.887L1857.35 622.457C1859.99 626.258 1863.07 629.026 1866.59 630.734L1867.03 629.834ZM1858.14 622.5L1863.91 615.87L1863.15 615.214L1857.38 621.844L1858.14 622.5Z" fill="white"/>
<path d="M984 391.584L993.3 384L1002.15 394.85L992.848 402.434L984 391.584Z" fill="white"/>
<path d="M1032 392.291L1039.59 383L1043.92 386.535L1036.33 395.826L1032 392.291Z" fill="white"/>
</svg>
