<svg width="1824" height="559" viewBox="0 0 1824 559" fill="none" xmlns="http://www.w3.org/2000/svg">
<path d="M1193.96 1.88H1022.74L923.251 124.13L939.401 142.04L1033.6 28.3L1138.77 28.63L831.771 403.16L864.251 402.93L1193.96 1.88Z" fill="white" stroke="white" stroke-miterlimit="10"/>
<path d="M722.361 0.860016H893.581L993.071 123.1L976.921 141.01L882.721 27.27L777.551 27.6L1084.6 402.13L1052.12 401.91L722.361 0.860016Z" fill="white" stroke="white" stroke-miterlimit="10"/>
<path d="M1197.04 452.81H1025.82L926.321 330.57L942.481 312.66L1036.68 426.37L1141.85 426.04L834.801 51.54L867.271 51.76C977.211 185.44 1087.13 319.123 1197.04 452.81Z" fill="white" stroke="white" stroke-miterlimit="10"/>
<path d="M1195.54 451.48H1024.33C991.164 410.74 957.997 369.993 924.831 329.24L940.991 311.37C972.384 349.257 1003.78 387.153 1035.18 425.06L1140.35 424.73L833.301 50.2L865.781 50.43L1195.54 451.48Z" fill="white" stroke="white" stroke-miterlimit="10"/>
<path d="M721.611 452.14H892.831C926.005 411.4 959.171 370.653 992.331 329.9L976.181 311.99L881.981 425.73L776.801 425.37L1083.85 50.87L1051.38 51.09C941.461 184.783 831.538 318.467 721.611 452.14Z" fill="white" stroke="white" stroke-miterlimit="10"/>
<path d="M723.102 450.81H894.322L993.822 328.57L977.662 310.66L883.472 424.37L778.302 424.04L1085.35 49.51L1052.87 49.73C942.952 183.43 833.028 317.123 723.102 450.81Z" fill="white" stroke="white" stroke-miterlimit="10"/>
<path d="M1222.38 357H1186.35V83.7325H1222.38V357ZM1505.58 321.152C1496.32 334.415 1483.37 344.363 1466.73 350.994C1450.21 357.5 1430.95 360.754 1408.92 360.754C1386.65 360.754 1366.88 355.561 1349.62 345.176C1332.35 334.666 1318.96 319.776 1309.45 300.507C1300.07 281.238 1295.25 258.904 1295 233.504V209.668C1295 168.503 1304.57 136.597 1323.72 113.95C1342.98 91.3024 1370.01 79.9788 1404.79 79.9788C1433.32 79.9788 1456.28 87.2985 1473.67 101.938C1491.07 116.452 1501.7 137.097 1505.58 163.873H1469.55C1462.79 127.713 1441.27 109.633 1404.98 109.633C1380.83 109.633 1362.5 118.141 1349.99 135.158C1337.6 152.049 1331.35 176.573 1331.22 208.73V231.064C1331.22 261.719 1338.23 286.118 1352.24 304.261C1366.26 322.279 1385.21 331.287 1409.11 331.287C1422.62 331.287 1434.45 329.786 1444.58 326.783C1454.72 323.78 1463.1 318.713 1469.73 311.581V250.208H1406.48V220.929H1505.58V321.152ZM1791.22 357H1755L1617.43 146.419V357H1581.2V83.7325H1617.43L1755.37 295.252V83.7325H1791.22V357Z" fill="white"/>
<path d="M1222.38 357V357.48H1222.86V357H1222.38ZM1186.35 357H1185.87V357.48H1186.35V357ZM1186.35 83.7325V83.2529H1185.87V83.7325H1186.35ZM1222.38 83.7325H1222.86V83.2529H1222.38V83.7325ZM1222.38 356.52H1186.35V357.48H1222.38V356.52ZM1186.83 357V83.7325H1185.87V357H1186.83ZM1186.35 84.2121H1222.38V83.2529H1186.35V84.2121ZM1221.9 83.7325V357H1222.86V83.7325H1221.9ZM1505.58 321.152L1505.97 321.427L1506.06 321.303V321.152H1505.58ZM1466.73 350.994L1466.91 351.44L1466.91 351.44L1466.73 350.994ZM1349.62 345.176L1349.37 345.586L1349.37 345.587L1349.62 345.176ZM1309.45 300.507L1309.02 300.717L1309.02 300.719L1309.45 300.507ZM1295 233.504H1294.52L1294.52 233.509L1295 233.504ZM1323.72 113.95L1323.35 113.639L1323.35 113.64L1323.72 113.95ZM1473.67 101.938L1473.37 102.305L1473.37 102.306L1473.67 101.938ZM1505.58 163.873V164.353H1506.14L1506.06 163.805L1505.58 163.873ZM1469.55 163.873L1469.07 163.962L1469.15 164.353H1469.55V163.873ZM1349.99 135.158L1349.6 134.874L1349.6 134.874L1349.99 135.158ZM1331.22 208.73L1330.74 208.728V208.73H1331.22ZM1352.24 304.261L1351.86 304.554L1351.86 304.555L1352.24 304.261ZM1469.73 311.581L1470.08 311.907L1470.21 311.769V311.581H1469.73ZM1469.73 250.208H1470.21V249.728H1469.73V250.208ZM1406.48 250.208H1406V250.688H1406.48V250.208ZM1406.48 220.929V220.45H1406V220.929H1406.48ZM1505.58 220.929H1506.06V220.45H1505.58V220.929ZM1505.19 320.878C1495.99 334.056 1483.12 343.948 1466.55 350.549L1466.91 351.44C1483.63 344.777 1496.66 334.775 1505.97 321.427L1505.19 320.878ZM1466.55 350.548C1450.11 357.028 1430.9 360.274 1408.92 360.274V361.233C1430.99 361.233 1450.32 357.973 1466.91 351.44L1466.55 350.548ZM1408.92 360.274C1386.73 360.274 1367.05 355.101 1349.86 344.765L1349.37 345.587C1366.72 356.022 1386.57 361.233 1408.92 361.233V360.274ZM1349.87 344.766C1332.68 334.306 1319.35 319.488 1309.88 300.295L1309.02 300.719C1318.57 320.065 1332.02 335.025 1349.37 345.586L1349.87 344.766ZM1309.88 300.297C1300.54 281.103 1295.73 258.841 1295.48 233.499L1294.52 233.509C1294.77 258.967 1299.6 281.374 1309.02 300.717L1309.88 300.297ZM1295.48 233.504V209.668H1294.52V233.504H1295.48ZM1295.48 209.668C1295.48 168.573 1305.04 136.791 1324.08 114.259L1323.35 113.64C1304.11 136.402 1294.52 168.433 1294.52 209.668H1295.48ZM1324.08 114.26C1343.24 91.7389 1370.13 80.4584 1404.79 80.4584V79.4992C1369.9 79.4992 1342.73 90.8659 1323.35 113.639L1324.08 114.26ZM1404.79 80.4584C1433.24 80.4584 1456.08 87.7552 1473.37 102.305L1473.98 101.571C1456.49 86.8418 1433.41 79.4992 1404.79 79.4992V80.4584ZM1473.37 102.306C1490.65 116.73 1501.24 137.259 1505.11 163.942L1506.06 163.805C1502.16 136.935 1491.48 116.174 1473.98 101.57L1473.37 102.306ZM1505.58 163.394H1469.55V164.353H1505.58V163.394ZM1470.02 163.785C1466.62 145.63 1459.51 131.957 1448.65 122.826C1437.78 113.694 1423.2 109.153 1404.98 109.153V110.112C1423.05 110.112 1437.38 114.612 1448.03 123.56C1458.68 132.509 1465.71 145.956 1469.07 163.962L1470.02 163.785ZM1404.98 109.153C1380.71 109.153 1362.22 117.715 1349.6 134.874L1350.38 135.442C1362.79 118.567 1380.96 110.112 1404.98 110.112V109.153ZM1349.6 134.874C1337.13 151.881 1330.87 176.521 1330.74 208.728L1331.7 208.732C1331.83 176.626 1338.08 152.218 1350.38 135.441L1349.6 134.874ZM1330.74 208.73V231.064H1331.7V208.73H1330.74ZM1330.74 231.064C1330.74 261.79 1337.77 286.303 1351.86 304.554L1352.62 303.968C1338.69 285.933 1331.7 261.649 1331.7 231.064H1330.74ZM1351.86 304.555C1365.97 322.696 1385.07 331.767 1409.11 331.767V330.808C1385.35 330.808 1366.54 321.861 1352.62 303.966L1351.86 304.555ZM1409.11 331.767C1422.66 331.767 1434.53 330.262 1444.72 327.243L1444.45 326.323C1434.37 329.31 1422.59 330.808 1409.11 330.808V331.767ZM1444.72 327.243C1454.93 324.218 1463.39 319.107 1470.08 311.907L1469.38 311.254C1462.81 318.318 1454.51 323.342 1444.45 326.323L1444.72 327.243ZM1470.21 311.581V250.208H1469.25V311.581H1470.21ZM1469.73 249.728H1406.48V250.688H1469.73V249.728ZM1406.96 250.208V220.929H1406V250.208H1406.96ZM1406.48 221.409H1505.58V220.45H1406.48V221.409ZM1505.1 220.929V321.152H1506.06V220.929H1505.1ZM1791.22 357V357.48H1791.7V357H1791.22ZM1755 357L1754.6 357.262L1754.74 357.48H1755V357ZM1617.43 146.419L1617.83 146.157L1616.95 144.808V146.419H1617.43ZM1617.43 357V357.48H1617.91V357H1617.43ZM1581.2 357H1580.72V357.48H1581.2V357ZM1581.2 83.7325V83.2529H1580.72V83.7325H1581.2ZM1617.43 83.7325L1617.83 83.4705L1617.69 83.2529H1617.43V83.7325ZM1755.37 295.252L1754.97 295.514L1755.85 296.865V295.252H1755.37ZM1755.37 83.7325V83.2529H1754.89V83.7325H1755.37ZM1791.22 83.7325H1791.7V83.2529H1791.22V83.7325ZM1791.22 356.52H1755V357.48H1791.22V356.52ZM1755.4 356.738L1617.83 146.157L1617.02 146.681L1754.6 357.262L1755.4 356.738ZM1616.95 146.419V357H1617.91V146.419H1616.95ZM1617.43 356.52H1581.2V357.48H1617.43V356.52ZM1581.68 357V83.7325H1580.72V357H1581.68ZM1581.2 84.2121H1617.43V83.2529H1581.2V84.2121ZM1617.02 83.9945L1754.97 295.514L1755.77 294.99L1617.83 83.4705L1617.02 83.9945ZM1755.85 295.252V83.7325H1754.89V295.252H1755.85ZM1755.37 84.2121H1791.22V83.2529H1755.37V84.2121ZM1790.74 83.7325V357H1791.7V83.7325H1790.74Z" fill="white"/>
<path d="M1257.65 515.863V539H1249.86V479.9H1271.66C1278.12 479.9 1283.18 481.55 1286.84 484.852C1290.52 488.153 1292.36 492.524 1292.36 497.963C1292.36 503.7 1290.56 508.124 1286.96 511.236C1283.39 514.321 1278.26 515.863 1271.58 515.863H1257.65ZM1257.65 509.49H1271.66C1275.82 509.49 1279.02 508.516 1281.24 506.568C1283.46 504.593 1284.56 501.751 1284.56 498.044C1284.56 494.526 1283.46 491.712 1281.24 489.601C1279.02 487.49 1275.97 486.394 1272.1 486.313H1257.65V509.49ZM1323.98 515.092H1310.1V539H1302.26V479.9H1321.83C1328.48 479.9 1333.6 481.415 1337.17 484.446C1340.77 487.477 1342.57 491.888 1342.57 497.679C1342.57 501.359 1341.57 504.565 1339.57 507.299C1337.59 510.032 1334.83 512.075 1331.29 513.428L1345.17 538.513V539H1336.81L1323.98 515.092ZM1310.1 508.719H1322.07C1325.94 508.719 1329.01 507.718 1331.29 505.716C1333.59 503.713 1334.74 501.034 1334.74 497.679C1334.74 494.025 1333.64 491.225 1331.45 489.276C1329.28 487.328 1326.14 486.34 1322.03 486.313H1310.1V508.719ZM1398.99 511.358C1398.99 517.149 1398.02 522.209 1396.07 526.539C1394.12 530.841 1391.36 534.129 1387.79 536.402C1384.22 538.675 1380.05 539.812 1375.29 539.812C1370.63 539.812 1366.5 538.675 1362.91 536.402C1359.31 534.102 1356.51 530.841 1354.5 526.62C1352.53 522.371 1351.51 517.46 1351.46 511.885V507.623C1351.46 501.941 1352.45 496.921 1354.42 492.564C1356.4 488.207 1359.18 484.879 1362.78 482.579C1366.41 480.252 1370.55 479.088 1375.2 479.088C1379.94 479.088 1384.11 480.238 1387.71 482.538C1391.33 484.811 1394.12 488.126 1396.07 492.483C1398.02 496.813 1398.99 501.859 1398.99 507.623V511.358ZM1391.24 507.542C1391.24 500.533 1389.83 495.162 1387.02 491.428C1384.2 487.666 1380.26 485.785 1375.2 485.785C1370.28 485.785 1366.4 487.666 1363.55 491.428C1360.74 495.162 1359.29 500.358 1359.21 507.014V511.358C1359.21 518.15 1360.63 523.494 1363.47 527.391C1366.34 531.261 1370.28 533.196 1375.29 533.196C1380.32 533.196 1384.22 531.369 1386.98 527.716C1389.74 524.036 1391.16 518.772 1391.24 511.926V507.542ZM1410.68 539V479.9H1427.36C1432.51 479.9 1437.05 481.036 1441 483.309C1444.95 485.582 1448 488.816 1450.13 493.011C1452.3 497.205 1453.4 502.022 1453.42 507.461V511.236C1453.42 516.81 1452.34 521.695 1450.18 525.889C1448.04 530.084 1444.97 533.304 1440.96 535.55C1436.98 537.796 1432.34 538.946 1427.04 539H1410.68ZM1418.47 486.313V532.627H1426.67C1432.68 532.627 1437.35 530.76 1440.68 527.026C1444.03 523.291 1445.71 517.974 1445.71 511.074V507.623C1445.71 500.912 1444.13 495.703 1440.96 491.996C1437.82 488.261 1433.36 486.367 1427.57 486.313H1418.47ZM1506.84 479.9V520.085C1506.81 525.659 1505.05 530.219 1501.56 533.764C1498.1 537.309 1493.39 539.298 1487.44 539.731L1485.37 539.812C1478.9 539.812 1473.75 538.066 1469.9 534.576C1466.06 531.085 1464.11 526.282 1464.06 520.166V479.9H1471.77V519.922C1471.77 524.198 1472.95 527.526 1475.3 529.908C1477.66 532.262 1481.01 533.439 1485.37 533.439C1489.78 533.439 1493.15 532.262 1495.47 529.908C1497.83 527.553 1499.01 524.238 1499.01 519.963V479.9H1506.84ZM1562.61 520.247C1561.88 526.498 1559.57 531.328 1555.67 534.738C1551.8 538.121 1546.65 539.812 1540.21 539.812C1533.22 539.812 1527.62 537.309 1523.4 532.303C1519.21 527.296 1517.11 520.599 1517.11 512.21V506.527C1517.11 501.034 1518.08 496.204 1520.03 492.036C1522.01 487.869 1524.79 484.676 1528.39 482.457C1531.99 480.211 1536.16 479.088 1540.9 479.088C1547.17 479.088 1552.21 480.847 1556 484.365C1559.78 487.856 1561.99 492.699 1562.61 498.896H1554.78C1554.1 494.188 1552.63 490.778 1550.35 488.667C1548.11 486.557 1544.96 485.501 1540.9 485.501C1535.92 485.501 1532.01 487.341 1529.17 491.022C1526.35 494.702 1524.94 499.938 1524.94 506.73V512.454C1524.94 518.867 1526.28 523.968 1528.96 527.756C1531.64 531.545 1535.39 533.439 1540.21 533.439C1544.54 533.439 1547.85 532.465 1550.15 530.517C1552.48 528.541 1554.02 525.118 1554.78 520.247H1562.61ZM1612.9 486.313H1593.91V539H1586.15V486.313H1567.2V479.9H1612.9V486.313ZM1630.03 539H1622.24V479.9H1630.03V539ZM1689.78 511.358C1689.78 517.149 1688.81 522.209 1686.86 526.539C1684.91 530.841 1682.15 534.129 1678.58 536.402C1675.01 538.675 1670.84 539.812 1666.08 539.812C1661.42 539.812 1657.3 538.675 1653.7 536.402C1650.1 534.102 1647.3 530.841 1645.3 526.62C1643.32 522.371 1642.31 517.46 1642.25 511.885V507.623C1642.25 501.941 1643.24 496.921 1645.21 492.564C1647.19 488.207 1649.98 484.879 1653.58 482.579C1657.2 480.252 1661.34 479.088 1666 479.088C1670.73 479.088 1674.9 480.238 1678.5 482.538C1682.13 484.811 1684.91 488.126 1686.86 492.483C1688.81 496.813 1689.78 501.859 1689.78 507.623V511.358ZM1682.03 507.542C1682.03 500.533 1680.62 495.162 1677.81 491.428C1674.99 487.666 1671.06 485.785 1666 485.785C1661.07 485.785 1657.19 487.666 1654.35 491.428C1651.53 495.162 1650.09 500.358 1650 507.014V511.358C1650 518.15 1651.42 523.494 1654.27 527.391C1657.13 531.261 1661.07 533.196 1666.08 533.196C1671.11 533.196 1675.01 531.369 1677.77 527.716C1680.53 524.036 1681.95 518.772 1682.03 511.926V507.542ZM1746.89 539H1739.06L1709.31 493.457V539H1701.47V479.9H1709.31L1739.14 525.646V479.9H1746.89V539ZM1778.15 512.657C1771.47 510.735 1766.59 508.381 1763.54 505.594C1760.51 502.779 1758.99 499.316 1758.99 495.203C1758.99 490.548 1760.84 486.705 1764.55 483.675C1768.29 480.617 1773.13 479.088 1779.08 479.088C1783.14 479.088 1786.75 479.873 1789.92 481.442C1793.11 483.012 1795.58 485.177 1797.31 487.937C1799.07 490.697 1799.95 493.714 1799.95 496.989H1792.11C1792.11 493.417 1790.98 490.616 1788.7 488.586C1786.43 486.53 1783.22 485.501 1779.08 485.501C1775.24 485.501 1772.24 486.354 1770.07 488.059C1767.93 489.736 1766.87 492.077 1766.87 495.081C1766.87 497.489 1767.88 499.532 1769.91 501.21C1771.97 502.861 1775.44 504.376 1780.34 505.756C1785.27 507.136 1789.11 508.665 1791.87 510.343C1794.66 511.994 1796.71 513.928 1798.04 516.147C1799.39 518.366 1800.07 520.978 1800.07 523.981C1800.07 528.771 1798.2 532.614 1794.47 535.509C1790.73 538.378 1785.74 539.812 1779.49 539.812C1775.43 539.812 1771.64 539.041 1768.12 537.498C1764.61 535.929 1761.89 533.791 1759.96 531.085C1758.07 528.379 1757.12 525.307 1757.12 521.871H1764.96C1764.96 525.443 1766.27 528.27 1768.89 530.354C1771.55 532.411 1775.08 533.439 1779.49 533.439C1783.6 533.439 1786.75 532.6 1788.95 530.922C1791.14 529.245 1792.23 526.958 1792.23 524.063C1792.23 521.167 1791.22 518.935 1789.19 517.365C1787.16 515.769 1783.48 514.199 1778.15 512.657Z" fill="white"/>
<path d="M1257.65 515.863V515.363H1257.15V515.863H1257.65ZM1257.65 539V539.5H1258.15V539H1257.65ZM1249.86 539H1249.36V539.5H1249.86V539ZM1249.86 479.9V479.4H1249.36V479.9H1249.86ZM1286.84 484.852L1286.5 485.223L1286.5 485.224L1286.84 484.852ZM1286.96 511.236L1287.29 511.614L1287.29 511.614L1286.96 511.236ZM1257.65 509.49H1257.15V509.99H1257.65V509.49ZM1281.24 506.568L1281.57 506.944L1281.57 506.941L1281.24 506.568ZM1272.1 486.313L1272.11 485.813H1272.1V486.313ZM1257.65 486.313V485.813H1257.15V486.313H1257.65ZM1257.15 515.863V539H1258.15V515.863H1257.15ZM1257.65 538.5H1249.86V539.5H1257.65V538.5ZM1250.36 539V479.9H1249.36V539H1250.36ZM1249.86 480.4H1271.66V479.4H1249.86V480.4ZM1271.66 480.4C1278.04 480.4 1282.97 482.028 1286.5 485.223L1287.17 484.481C1283.4 481.073 1278.21 479.4 1271.66 479.4V480.4ZM1286.5 485.224C1290.07 488.42 1291.86 492.65 1291.86 497.963H1292.86C1292.86 492.397 1290.97 487.886 1287.17 484.48L1286.5 485.224ZM1291.86 497.963C1291.86 503.587 1290.1 507.86 1286.63 510.858L1287.29 511.614C1291.02 508.388 1292.86 503.812 1292.86 497.963H1291.86ZM1286.63 510.857C1283.18 513.837 1278.19 515.363 1271.58 515.363V516.363C1278.33 516.363 1283.59 514.805 1287.29 511.614L1286.63 510.857ZM1271.58 515.363H1257.65V516.363H1271.58V515.363ZM1257.65 509.99H1271.66V508.99H1257.65V509.99ZM1271.66 509.99C1275.9 509.99 1279.22 509 1281.57 506.944L1280.91 506.192C1278.81 508.033 1275.75 508.99 1271.66 508.99V509.99ZM1281.57 506.941C1283.92 504.848 1285.06 501.856 1285.06 498.044H1284.06C1284.06 501.647 1282.99 504.337 1280.9 506.194L1281.57 506.941ZM1285.06 498.044C1285.06 494.411 1283.91 491.458 1281.58 489.239L1280.89 489.963C1283 491.965 1284.06 494.641 1284.06 498.044H1285.06ZM1281.58 489.239C1279.25 487.021 1276.07 485.896 1272.11 485.813L1272.09 486.813C1275.87 486.892 1278.79 487.959 1280.89 489.963L1281.58 489.239ZM1272.1 485.813H1257.65V486.813H1272.1V485.813ZM1257.15 486.313V509.49H1258.15V486.313H1257.15ZM1323.98 515.092L1324.42 514.856L1324.28 514.592H1323.98V515.092ZM1310.1 515.092V514.592H1309.6V515.092H1310.1ZM1310.1 539V539.5H1310.6V539H1310.1ZM1302.26 539H1301.76V539.5H1302.26V539ZM1302.26 479.9V479.4H1301.76V479.9H1302.26ZM1337.17 484.446L1336.85 484.827L1336.85 484.828L1337.17 484.446ZM1339.57 507.299L1339.16 507.003L1339.16 507.006L1339.57 507.299ZM1331.29 513.428L1331.11 512.961L1330.57 513.166L1330.85 513.67L1331.29 513.428ZM1345.17 538.513H1345.67V538.384L1345.6 538.271L1345.17 538.513ZM1345.17 539V539.5H1345.67V539H1345.17ZM1336.81 539L1336.36 539.236L1336.51 539.5H1336.81V539ZM1310.1 508.719H1309.6V509.219H1310.1V508.719ZM1331.29 505.716L1330.96 505.338L1330.95 505.34L1331.29 505.716ZM1331.45 489.276L1331.11 489.648L1331.12 489.65L1331.45 489.276ZM1322.03 486.313L1322.03 485.813H1322.03V486.313ZM1310.1 486.313V485.813H1309.6V486.313H1310.1ZM1323.98 514.592H1310.1V515.592H1323.98V514.592ZM1309.6 515.092V539H1310.6V515.092H1309.6ZM1310.1 538.5H1302.26V539.5H1310.1V538.5ZM1302.76 539V479.9H1301.76V539H1302.76ZM1302.26 480.4H1321.83V479.4H1302.26V480.4ZM1321.83 480.4C1328.41 480.4 1333.4 481.9 1336.85 484.827L1337.49 484.065C1333.8 480.931 1328.55 479.4 1321.83 479.4V480.4ZM1336.85 484.828C1340.31 487.743 1342.07 491.998 1342.07 497.679H1343.07C1343.07 491.777 1341.23 487.211 1337.49 484.063L1336.85 484.828ZM1342.07 497.679C1342.07 501.262 1341.1 504.363 1339.16 507.003L1339.97 507.594C1342.04 504.768 1343.07 501.455 1343.07 497.679H1342.07ZM1339.16 507.006C1337.25 509.65 1334.57 511.638 1331.11 512.961L1331.46 513.895C1335.09 512.512 1337.93 510.413 1339.97 507.591L1339.16 507.006ZM1330.85 513.67L1344.73 538.755L1345.6 538.271L1331.72 513.186L1330.85 513.67ZM1344.67 538.513V539H1345.67V538.513H1344.67ZM1345.17 538.5H1336.81V539.5H1345.17V538.5ZM1337.25 538.764L1324.42 514.856L1323.54 515.328L1336.36 539.236L1337.25 538.764ZM1310.1 509.219H1322.07V508.219H1310.1V509.219ZM1322.07 509.219C1326.03 509.219 1329.23 508.194 1331.62 506.091L1330.95 505.34C1328.8 507.242 1325.85 508.219 1322.07 508.219V509.219ZM1331.61 506.093C1334.03 503.985 1335.24 501.162 1335.24 497.679H1334.24C1334.24 500.906 1333.14 503.441 1330.96 505.338L1331.61 506.093ZM1335.24 497.679C1335.24 493.92 1334.1 490.968 1331.78 488.903L1331.12 489.65C1333.18 491.481 1334.24 494.13 1334.24 497.679H1335.24ZM1331.78 488.905C1329.49 486.846 1326.22 485.841 1322.03 485.813L1322.03 486.813C1326.07 486.84 1329.07 487.81 1331.11 489.648L1331.78 488.905ZM1322.03 485.813H1310.1V486.813H1322.03V485.813ZM1309.6 486.313V508.719H1310.6V486.313H1309.6ZM1396.07 526.539L1396.52 526.745L1396.52 526.744L1396.07 526.539ZM1362.91 536.402L1362.64 536.824L1362.64 536.825L1362.91 536.402ZM1354.5 526.62L1354.05 526.831L1354.05 526.834L1354.5 526.62ZM1351.46 511.885H1350.96L1350.96 511.89L1351.46 511.885ZM1362.78 482.579L1363.05 483L1363.05 483L1362.78 482.579ZM1387.71 482.538L1387.44 482.959L1387.44 482.962L1387.71 482.538ZM1396.07 492.483L1395.61 492.687L1395.61 492.688L1396.07 492.483ZM1387.02 491.428L1386.62 491.727L1386.62 491.728L1387.02 491.428ZM1363.55 491.428L1363.16 491.126L1363.16 491.127L1363.55 491.428ZM1359.21 507.014L1358.71 507.008V507.014H1359.21ZM1363.47 527.391L1363.07 527.686L1363.07 527.689L1363.47 527.391ZM1386.98 527.716L1387.37 528.017L1387.38 528.016L1386.98 527.716ZM1391.24 511.926L1391.74 511.932V511.926H1391.24ZM1398.49 511.358C1398.49 517.093 1397.53 522.081 1395.61 526.333L1396.52 526.744C1398.51 522.337 1399.49 517.204 1399.49 511.358H1398.49ZM1395.61 526.332C1393.7 530.557 1391 533.765 1387.52 535.98L1388.06 536.824C1391.72 534.493 1394.54 531.125 1396.52 526.745L1395.61 526.332ZM1387.52 535.98C1384.04 538.196 1379.97 539.312 1375.29 539.312V540.312C1380.13 540.312 1384.39 539.154 1388.06 536.824L1387.52 535.98ZM1375.29 539.312C1370.72 539.312 1366.68 538.197 1363.17 535.979L1362.64 536.825C1366.32 539.153 1370.55 540.312 1375.29 540.312V539.312ZM1363.17 535.981C1359.66 533.736 1356.92 530.55 1354.95 526.406L1354.05 526.834C1356.09 531.132 1358.95 534.468 1362.64 536.823L1363.17 535.981ZM1354.96 526.409C1353.02 522.236 1352.01 517.397 1351.96 511.88L1350.96 511.89C1351.01 517.523 1352.04 522.506 1354.05 526.831L1354.96 526.409ZM1351.96 511.885V507.623H1350.96V511.885H1351.96ZM1351.96 507.623C1351.96 501.999 1352.94 497.051 1354.88 492.771L1353.97 492.358C1351.96 496.79 1350.96 501.883 1350.96 507.623H1351.96ZM1354.88 492.771C1356.82 488.491 1359.54 485.242 1363.05 483L1362.51 482.157C1358.82 484.516 1355.98 487.924 1353.97 492.358L1354.88 492.771ZM1363.05 483C1366.59 480.728 1370.64 479.588 1375.2 479.588V478.588C1370.46 478.588 1366.23 479.775 1362.51 482.158L1363.05 483ZM1375.2 479.588C1379.86 479.588 1383.93 480.716 1387.44 482.959L1387.98 482.117C1384.29 479.76 1380.02 478.588 1375.2 478.588V479.588ZM1387.44 482.962C1390.97 485.176 1393.7 488.41 1395.61 492.687L1396.52 492.279C1394.54 487.842 1391.69 484.446 1387.97 482.115L1387.44 482.962ZM1395.61 492.688C1397.53 496.941 1398.49 501.915 1398.49 507.623H1399.49C1399.49 501.803 1398.51 496.684 1396.52 492.278L1395.61 492.688ZM1398.49 507.623V511.358H1399.49V507.623H1398.49ZM1391.74 507.542C1391.74 500.476 1390.32 494.981 1387.42 491.127L1386.62 491.728C1389.34 495.342 1390.74 500.59 1390.74 507.542H1391.74ZM1387.42 491.128C1384.5 487.23 1380.41 485.285 1375.2 485.285V486.285C1380.12 486.285 1383.9 488.103 1386.62 491.727L1387.42 491.128ZM1375.2 485.285C1370.13 485.285 1366.1 487.233 1363.16 491.126L1363.95 491.729C1366.7 488.099 1370.43 486.285 1375.2 486.285V485.285ZM1363.16 491.127C1360.25 494.975 1358.79 500.289 1358.71 507.008L1359.71 507.021C1359.79 500.426 1361.23 495.349 1363.95 491.728L1363.16 491.127ZM1358.71 507.014V511.358H1359.71V507.014H1358.71ZM1358.71 511.358C1358.71 518.214 1360.14 523.675 1363.07 527.686L1363.88 527.096C1361.12 523.314 1359.71 518.086 1359.71 511.358H1358.71ZM1363.07 527.689C1366.04 531.691 1370.13 533.696 1375.29 533.696V532.696C1370.43 532.696 1366.65 530.83 1363.88 527.093L1363.07 527.689ZM1375.29 533.696C1380.46 533.696 1384.51 531.809 1387.37 528.017L1386.58 527.414C1383.92 530.929 1380.18 532.696 1375.29 532.696V533.696ZM1387.38 528.016C1390.22 524.218 1391.66 518.835 1391.74 511.932L1390.74 511.92C1390.66 518.709 1389.25 523.853 1386.58 527.416L1387.38 528.016ZM1391.74 511.926V507.542H1390.74V511.926H1391.74ZM1410.68 539H1410.18V539.5H1410.68V539ZM1410.68 479.9V479.4H1410.18V479.9H1410.68ZM1450.13 493.011L1449.69 493.238L1449.69 493.24L1450.13 493.011ZM1453.42 507.461H1453.92L1453.92 507.458L1453.42 507.461ZM1450.18 525.889L1449.73 525.66L1449.73 525.662L1450.18 525.889ZM1440.96 535.55L1440.72 535.114L1440.72 535.114L1440.96 535.55ZM1427.04 539V539.5L1427.04 539.5L1427.04 539ZM1418.47 486.313V485.813H1417.97V486.313H1418.47ZM1418.47 532.627H1417.97V533.127H1418.47V532.627ZM1440.68 527.026L1440.31 526.692L1440.3 526.693L1440.68 527.026ZM1440.96 491.996L1440.58 492.318L1440.58 492.321L1440.96 491.996ZM1427.57 486.313L1427.57 485.813H1427.57V486.313ZM1411.18 539V479.9H1410.18V539H1411.18ZM1410.68 480.4H1427.36V479.4H1410.68V480.4ZM1427.36 480.4C1432.43 480.4 1436.89 481.519 1440.75 483.743L1441.25 482.876C1437.22 480.554 1432.58 479.4 1427.36 479.4V480.4ZM1440.75 483.743C1444.62 485.966 1447.59 489.127 1449.69 493.238L1450.58 492.784C1448.4 488.506 1445.29 485.199 1441.25 482.876L1440.75 483.743ZM1449.69 493.24C1451.81 497.354 1452.9 502.091 1452.92 507.463L1453.92 507.458C1453.9 501.952 1452.79 497.056 1450.58 492.781L1449.69 493.24ZM1452.92 507.461V511.236H1453.92V507.461H1452.92ZM1452.92 511.236C1452.92 516.745 1451.85 521.548 1449.73 525.66L1450.62 526.118C1452.83 521.841 1453.92 516.876 1453.92 511.236H1452.92ZM1449.73 525.662C1447.64 529.771 1444.63 532.917 1440.72 535.114L1441.21 535.986C1445.3 533.69 1448.44 530.396 1450.62 526.116L1449.73 525.662ZM1440.72 535.114C1436.82 537.313 1432.27 538.447 1427.03 538.5L1427.04 539.5C1432.42 539.445 1437.14 538.279 1441.21 535.985L1440.72 535.114ZM1427.04 538.5H1410.68V539.5H1427.04V538.5ZM1417.97 486.313V532.627H1418.97V486.313H1417.97ZM1418.47 533.127H1426.67V532.127H1418.47V533.127ZM1426.67 533.127C1432.79 533.127 1437.61 531.22 1441.05 527.358L1440.3 526.693C1437.09 530.3 1432.57 532.127 1426.67 532.127V533.127ZM1441.05 527.36C1444.51 523.504 1446.21 518.051 1446.21 511.074H1445.21C1445.21 517.897 1443.55 523.078 1440.31 526.692L1441.05 527.36ZM1446.21 511.074V507.623H1445.21V511.074H1446.21ZM1446.21 507.623C1446.21 500.838 1444.61 495.498 1441.34 491.671L1440.58 492.321C1443.65 495.908 1445.21 500.987 1445.21 507.623H1446.21ZM1441.34 491.674C1438.09 487.807 1433.48 485.868 1427.57 485.813L1427.56 486.813C1433.24 486.866 1437.55 488.716 1440.58 492.318L1441.34 491.674ZM1427.57 485.813H1418.47V486.813H1427.57V485.813ZM1506.84 479.9H1507.34V479.4H1506.84V479.9ZM1506.84 520.085L1507.34 520.087V520.085H1506.84ZM1501.56 533.764L1501.21 533.413L1501.21 533.414L1501.56 533.764ZM1487.44 539.731L1487.46 540.23L1487.47 540.23L1487.47 540.229L1487.44 539.731ZM1485.37 539.812V540.312H1485.38L1485.39 540.311L1485.37 539.812ZM1464.06 520.166H1463.56L1463.56 520.17L1464.06 520.166ZM1464.06 479.9V479.4H1463.56V479.9H1464.06ZM1471.77 479.9H1472.27V479.4H1471.77V479.9ZM1475.3 529.908L1474.95 530.259L1474.95 530.261L1475.3 529.908ZM1495.47 529.908L1495.12 529.554L1495.12 529.556L1495.47 529.908ZM1499.01 479.9V479.4H1498.51V479.9H1499.01ZM1506.34 479.9V520.085H1507.34V479.9H1506.34ZM1506.34 520.082C1506.31 525.543 1504.6 529.972 1501.21 533.413L1501.92 534.115C1505.51 530.465 1507.31 525.775 1507.34 520.087L1506.34 520.082ZM1501.21 533.414C1497.84 536.855 1493.26 538.806 1487.4 539.232L1487.47 540.229C1493.52 539.789 1498.36 537.763 1501.92 534.113L1501.21 533.414ZM1487.42 539.231L1485.35 539.312L1485.39 540.311L1487.46 540.23L1487.42 539.231ZM1485.37 539.312C1478.99 539.312 1473.97 537.594 1470.24 534.206L1469.57 534.946C1473.52 538.539 1478.81 540.312 1485.37 540.312V539.312ZM1470.24 534.206C1466.52 530.825 1464.61 526.165 1464.56 520.161L1463.56 520.17C1463.61 526.398 1465.6 531.344 1469.57 534.946L1470.24 534.206ZM1464.56 520.166V479.9H1463.56V520.166H1464.56ZM1464.06 480.4H1471.77V479.4H1464.06V480.4ZM1471.27 479.9V519.922H1472.27V479.9H1471.27ZM1471.27 519.922C1471.27 524.291 1472.48 527.76 1474.95 530.259L1475.66 529.556C1473.42 527.292 1472.27 524.104 1472.27 519.922H1471.27ZM1474.95 530.261C1477.42 532.736 1480.92 533.939 1485.37 533.939V532.939C1481.1 532.939 1477.89 531.788 1475.65 529.554L1474.95 530.261ZM1485.37 533.939C1489.87 533.939 1493.38 532.737 1495.83 530.259L1495.12 529.556C1492.91 531.787 1489.69 532.939 1485.37 532.939V533.939ZM1495.83 530.261C1498.3 527.789 1499.51 524.332 1499.51 519.963H1498.51C1498.51 524.145 1497.36 527.318 1495.12 529.554L1495.83 530.261ZM1499.51 519.963V479.9H1498.51V519.963H1499.51ZM1499.01 480.4H1506.84V479.4H1499.01V480.4ZM1562.61 520.247L1563.11 520.305L1563.17 519.747H1562.61V520.247ZM1555.67 534.738L1556 535.114L1556 535.114L1555.67 534.738ZM1523.4 532.303L1523.02 532.624L1523.02 532.625L1523.4 532.303ZM1520.03 492.036L1519.58 491.822L1519.58 491.825L1520.03 492.036ZM1528.39 482.457L1528.66 482.883L1528.66 482.881L1528.39 482.457ZM1556 484.365L1555.66 484.731L1555.66 484.732L1556 484.365ZM1562.61 498.896V499.396H1563.16L1563.11 498.846L1562.61 498.896ZM1554.78 498.896L1554.28 498.967L1554.34 499.396H1554.78V498.896ZM1550.35 488.667L1550.01 489.032L1550.01 489.034L1550.35 488.667ZM1529.17 491.022L1528.77 490.716L1528.77 490.718L1529.17 491.022ZM1550.15 530.517L1550.47 530.898L1550.47 530.898L1550.15 530.517ZM1554.78 520.247V519.747H1554.35L1554.28 520.17L1554.78 520.247ZM1562.12 520.189C1561.4 526.345 1559.13 531.05 1555.34 534.362L1556 535.114C1560.01 531.606 1562.37 526.651 1563.11 520.305L1562.12 520.189ZM1555.34 534.362C1551.58 537.646 1546.56 539.312 1540.21 539.312V540.312C1546.74 540.312 1552.02 538.595 1556 535.114L1555.34 534.362ZM1540.21 539.312C1533.36 539.312 1527.9 536.866 1523.78 531.98L1523.02 532.625C1527.34 537.752 1533.09 540.312 1540.21 540.312V539.312ZM1523.78 531.981C1519.68 527.088 1517.61 520.515 1517.61 512.21H1516.61C1516.61 520.682 1518.73 527.504 1523.02 532.624L1523.78 531.981ZM1517.61 512.21V506.527H1516.61V512.21H1517.61ZM1517.61 506.527C1517.61 501.093 1518.57 496.338 1520.49 492.248L1519.58 491.825C1517.59 496.07 1516.61 500.975 1516.61 506.527H1517.61ZM1520.48 492.251C1522.42 488.162 1525.15 485.046 1528.66 482.883L1528.13 482.031C1524.44 484.306 1521.59 487.576 1519.58 491.822L1520.48 492.251ZM1528.66 482.881C1532.17 480.69 1536.24 479.588 1540.9 479.588V478.588C1536.08 478.588 1531.82 479.732 1528.13 482.033L1528.66 482.881ZM1540.9 479.588C1547.08 479.588 1551.98 481.317 1555.66 484.731L1556.34 483.998C1552.44 480.377 1547.27 478.588 1540.9 478.588V479.588ZM1555.66 484.732C1559.34 488.124 1561.5 492.844 1562.11 498.946L1563.11 498.846C1562.48 492.554 1560.23 487.587 1556.33 483.997L1555.66 484.732ZM1562.61 498.396H1554.78V499.396H1562.61V498.396ZM1555.27 498.825C1554.59 494.061 1553.09 490.522 1550.69 488.301L1550.01 489.034C1552.17 491.035 1553.61 494.315 1554.28 498.967L1555.27 498.825ZM1550.7 488.303C1548.33 486.08 1545.04 485.001 1540.9 485.001V486.001C1544.87 486.001 1547.88 487.033 1550.01 489.032L1550.7 488.303ZM1540.9 485.001C1535.77 485.001 1531.71 486.904 1528.77 490.716L1529.56 491.327C1532.3 487.779 1536.06 486.001 1540.9 486.001V485.001ZM1528.77 490.718C1525.86 494.518 1524.44 499.877 1524.44 506.73H1525.44C1525.44 499.999 1526.84 494.886 1529.56 491.325L1528.77 490.718ZM1524.44 506.73V512.454H1525.44V506.73H1524.44ZM1524.44 512.454C1524.44 518.932 1525.8 524.145 1528.55 528.045L1529.37 527.468C1526.77 523.79 1525.44 518.802 1525.44 512.454H1524.44ZM1528.55 528.045C1531.33 531.972 1535.23 533.939 1540.21 533.939V532.939C1535.54 532.939 1531.95 531.118 1529.37 527.468L1528.55 528.045ZM1540.21 533.939C1544.6 533.939 1548.05 532.95 1550.47 530.898L1549.83 530.135C1547.65 531.979 1544.47 532.939 1540.21 532.939V533.939ZM1550.47 530.898C1552.93 528.809 1554.51 525.245 1555.27 520.324L1554.28 520.17C1553.53 524.991 1552.02 528.273 1549.83 530.135L1550.47 530.898ZM1554.78 520.747H1562.61V519.747H1554.78V520.747ZM1612.9 486.313V486.813H1613.4V486.313H1612.9ZM1593.91 486.313V485.813H1593.41V486.313H1593.91ZM1593.91 539V539.5H1594.41V539H1593.91ZM1586.15 539H1585.65V539.5H1586.15V539ZM1586.15 486.313H1586.65V485.813H1586.15V486.313ZM1567.2 486.313H1566.7V486.813H1567.2V486.313ZM1567.2 479.9V479.4H1566.7V479.9H1567.2ZM1612.9 479.9H1613.4V479.4H1612.9V479.9ZM1612.9 485.813H1593.91V486.813H1612.9V485.813ZM1593.41 486.313V539H1594.41V486.313H1593.41ZM1593.91 538.5H1586.15V539.5H1593.91V538.5ZM1586.65 539V486.313H1585.65V539H1586.65ZM1586.15 485.813H1567.2V486.813H1586.15V485.813ZM1567.7 486.313V479.9H1566.7V486.313H1567.7ZM1567.2 480.4H1612.9V479.4H1567.2V480.4ZM1612.4 479.9V486.313H1613.4V479.9H1612.4ZM1630.03 539V539.5H1630.53V539H1630.03ZM1622.24 539H1621.74V539.5H1622.24V539ZM1622.24 479.9V479.4H1621.74V479.9H1622.24ZM1630.03 479.9H1630.53V479.4H1630.03V479.9ZM1630.03 538.5H1622.24V539.5H1630.03V538.5ZM1622.74 539V479.9H1621.74V539H1622.74ZM1622.24 480.4H1630.03V479.4H1622.24V480.4ZM1629.53 479.9V539H1630.53V479.9H1629.53ZM1686.86 526.539L1687.32 526.745L1687.32 526.744L1686.86 526.539ZM1653.7 536.402L1653.43 536.824L1653.43 536.825L1653.7 536.402ZM1645.3 526.62L1644.84 526.831L1644.84 526.834L1645.3 526.62ZM1642.25 511.885H1641.75L1641.75 511.89L1642.25 511.885ZM1653.58 482.579L1653.85 483L1653.85 483L1653.58 482.579ZM1678.5 482.538L1678.23 482.959L1678.23 482.962L1678.5 482.538ZM1686.86 492.483L1686.4 492.687L1686.4 492.688L1686.86 492.483ZM1677.81 491.428L1677.41 491.727L1677.41 491.728L1677.81 491.428ZM1654.35 491.428L1653.95 491.126L1653.95 491.127L1654.35 491.428ZM1650 507.014L1649.5 507.008V507.014H1650ZM1654.27 527.391L1653.86 527.686L1653.86 527.689L1654.27 527.391ZM1677.77 527.716L1678.17 528.017L1678.17 528.016L1677.77 527.716ZM1682.03 511.926L1682.53 511.932V511.926H1682.03ZM1689.28 511.358C1689.28 517.093 1688.32 522.081 1686.4 526.333L1687.32 526.744C1689.3 522.337 1690.28 517.204 1690.28 511.358H1689.28ZM1686.41 526.332C1684.49 530.557 1681.79 533.765 1678.31 535.98L1678.85 536.824C1682.51 534.493 1685.33 531.125 1687.32 526.745L1686.41 526.332ZM1678.31 535.98C1674.83 538.196 1670.76 539.312 1666.08 539.312V540.312C1670.92 540.312 1675.19 539.154 1678.85 536.824L1678.31 535.98ZM1666.08 539.312C1661.51 539.312 1657.48 538.197 1653.96 535.979L1653.43 536.825C1657.12 539.153 1661.34 540.312 1666.08 540.312V539.312ZM1653.97 535.981C1650.45 533.736 1647.71 530.55 1645.75 526.406L1644.84 526.834C1646.88 531.132 1649.74 534.468 1653.43 536.823L1653.97 535.981ZM1645.75 526.409C1643.81 522.236 1642.8 517.397 1642.75 511.88L1641.75 511.89C1641.81 517.523 1642.83 522.506 1644.84 526.831L1645.75 526.409ZM1642.75 511.885V507.623H1641.75V511.885H1642.75ZM1642.75 507.623C1642.75 501.999 1643.73 497.051 1645.67 492.771L1644.76 492.358C1642.75 496.79 1641.75 501.883 1641.75 507.623H1642.75ZM1645.67 492.771C1647.61 488.491 1650.34 485.242 1653.85 483L1653.31 482.157C1649.62 484.516 1646.77 487.924 1644.76 492.358L1645.67 492.771ZM1653.85 483C1657.39 480.728 1661.43 479.588 1666 479.588V478.588C1661.25 478.588 1657.02 479.775 1653.31 482.158L1653.85 483ZM1666 479.588C1670.65 479.588 1674.72 480.716 1678.23 482.959L1678.77 482.117C1675.08 479.76 1670.82 478.588 1666 478.588V479.588ZM1678.23 482.962C1681.77 485.176 1684.49 488.41 1686.4 492.687L1687.32 492.279C1685.33 487.842 1682.48 484.446 1678.76 482.115L1678.23 482.962ZM1686.4 492.688C1688.32 496.941 1689.28 501.915 1689.28 507.623H1690.28C1690.28 501.803 1689.3 496.684 1687.32 492.278L1686.4 492.688ZM1689.28 507.623V511.358H1690.28V507.623H1689.28ZM1682.53 507.542C1682.53 500.476 1681.11 494.981 1678.21 491.127L1677.41 491.728C1680.13 495.342 1681.53 500.59 1681.53 507.542H1682.53ZM1678.21 491.128C1675.29 487.23 1671.2 485.285 1666 485.285V486.285C1670.91 486.285 1674.7 488.103 1677.41 491.727L1678.21 491.128ZM1666 485.285C1660.92 485.285 1656.89 487.233 1653.95 491.126L1654.75 491.729C1657.49 488.099 1661.22 486.285 1666 486.285V485.285ZM1653.95 491.127C1651.05 494.975 1649.59 500.289 1649.5 507.008L1650.5 507.021C1650.58 500.426 1652.02 495.349 1654.75 491.728L1653.95 491.127ZM1649.5 507.014V511.358H1650.5V507.014H1649.5ZM1649.5 511.358C1649.5 518.214 1650.94 523.675 1653.86 527.686L1654.67 527.096C1651.91 523.314 1650.5 518.086 1650.5 511.358H1649.5ZM1653.86 527.689C1656.83 531.691 1660.92 533.696 1666.08 533.696V532.696C1661.22 532.696 1657.44 530.83 1654.67 527.093L1653.86 527.689ZM1666.08 533.696C1671.25 533.696 1675.3 531.809 1678.17 528.017L1677.37 527.414C1674.71 530.929 1670.97 532.696 1666.08 532.696V533.696ZM1678.17 528.016C1681.02 524.218 1682.45 518.835 1682.53 511.932L1681.53 511.92C1681.45 518.709 1680.04 523.853 1677.37 527.416L1678.17 528.016ZM1682.53 511.926V507.542H1681.53V511.926H1682.53ZM1746.89 539V539.5H1747.39V539H1746.89ZM1739.06 539L1738.64 539.273L1738.79 539.5H1739.06V539ZM1709.31 493.457L1709.73 493.184L1708.81 491.778V493.457H1709.31ZM1709.31 539V539.5H1709.81V539H1709.31ZM1701.47 539H1700.97V539.5H1701.47V539ZM1701.47 479.9V479.4H1700.97V479.9H1701.47ZM1709.31 479.9L1709.73 479.627L1709.58 479.4H1709.31V479.9ZM1739.14 525.646L1738.72 525.919L1739.64 527.328V525.646H1739.14ZM1739.14 479.9V479.4H1738.64V479.9H1739.14ZM1746.89 479.9H1747.39V479.4H1746.89V479.9ZM1746.89 538.5H1739.06V539.5H1746.89V538.5ZM1739.48 538.727L1709.73 493.184L1708.89 493.731L1738.64 539.273L1739.48 538.727ZM1708.81 493.457V539H1709.81V493.457H1708.81ZM1709.31 538.5H1701.47V539.5H1709.31V538.5ZM1701.97 539V479.9H1700.97V539H1701.97ZM1701.47 480.4H1709.31V479.4H1701.47V480.4ZM1708.89 480.173L1738.72 525.919L1739.56 525.372L1709.73 479.627L1708.89 480.173ZM1739.64 525.646V479.9H1738.64V525.646H1739.64ZM1739.14 480.4H1746.89V479.4H1739.14V480.4ZM1746.39 479.9V539H1747.39V479.9H1746.39ZM1778.15 512.657L1778.29 512.176L1778.29 512.176L1778.15 512.657ZM1763.54 505.594L1763.2 505.96L1763.2 505.963L1763.54 505.594ZM1764.55 483.675L1764.87 484.062L1764.87 484.062L1764.55 483.675ZM1789.92 481.442L1789.7 481.89L1789.7 481.891L1789.92 481.442ZM1797.31 487.937L1796.88 488.203L1796.89 488.205L1797.31 487.937ZM1799.95 496.989V497.489H1800.45V496.989H1799.95ZM1792.11 496.989H1791.61V497.489H1792.11V496.989ZM1788.7 488.586L1788.37 488.957L1788.37 488.959L1788.7 488.586ZM1770.07 488.059L1770.38 488.452L1770.38 488.451L1770.07 488.059ZM1769.91 501.21L1769.59 501.595L1769.6 501.6L1769.91 501.21ZM1780.34 505.756L1780.21 506.237L1780.21 506.238L1780.34 505.756ZM1791.87 510.343L1791.61 510.77L1791.61 510.773L1791.87 510.343ZM1798.04 516.147L1797.61 516.404L1797.61 516.408L1798.04 516.147ZM1794.47 535.509L1794.77 535.906L1794.77 535.904L1794.47 535.509ZM1768.12 537.498L1767.92 537.955L1767.92 537.956L1768.12 537.498ZM1759.96 531.085L1759.56 531.372L1759.56 531.374L1759.96 531.085ZM1757.12 521.871V521.371H1756.62V521.871H1757.12ZM1764.96 521.871H1765.46V521.371H1764.96V521.871ZM1768.89 530.354L1768.58 530.746L1768.59 530.749L1768.89 530.354ZM1789.19 517.365L1788.88 517.758L1788.88 517.761L1789.19 517.365ZM1778.29 512.176C1771.63 510.263 1766.85 507.936 1763.87 505.224L1763.2 505.963C1766.34 508.826 1771.3 511.207 1778.01 513.137L1778.29 512.176ZM1763.88 505.227C1760.95 502.507 1759.49 499.176 1759.49 495.203H1758.49C1758.49 499.456 1760.06 503.052 1763.2 505.96L1763.88 505.227ZM1759.49 495.203C1759.49 490.703 1761.27 487.001 1764.87 484.062L1764.23 483.288C1760.42 486.41 1758.49 490.393 1758.49 495.203H1759.49ZM1764.87 484.062C1768.49 481.093 1773.22 479.588 1779.08 479.588V478.588C1773.04 478.588 1768.08 480.141 1764.23 483.288L1764.87 484.062ZM1779.08 479.588C1783.08 479.588 1786.61 480.36 1789.7 481.89L1790.14 480.994C1786.9 479.386 1783.21 478.588 1779.08 478.588V479.588ZM1789.7 481.891C1792.82 483.423 1795.21 485.528 1796.88 488.202L1797.73 487.671C1795.95 484.825 1793.41 482.6 1790.14 480.993L1789.7 481.891ZM1796.89 488.205C1798.59 490.885 1799.45 493.809 1799.45 496.989H1800.45C1800.45 493.619 1799.54 490.509 1797.73 487.668L1796.89 488.205ZM1799.95 496.489H1792.11V497.489H1799.95V496.489ZM1792.61 496.989C1792.61 493.301 1791.43 490.354 1789.04 488.213L1788.37 488.959C1790.52 490.877 1791.61 493.532 1791.61 496.989H1792.61ZM1789.04 488.215C1786.65 486.05 1783.3 485.001 1779.08 485.001V486.001C1783.14 486.001 1786.21 487.009 1788.37 488.957L1789.04 488.215ZM1779.08 485.001C1775.17 485.001 1772.04 485.869 1769.76 487.666L1770.38 488.451C1772.43 486.839 1775.31 486.001 1779.08 486.001V485.001ZM1769.76 487.665C1767.49 489.449 1766.37 491.942 1766.37 495.081H1767.37C1767.37 492.212 1768.38 490.024 1770.38 488.452L1769.76 487.665ZM1766.37 495.081C1766.37 497.653 1767.46 499.833 1769.59 501.595L1770.23 500.825C1768.3 499.232 1767.37 497.325 1767.37 495.081H1766.37ZM1769.6 501.6C1771.73 503.316 1775.29 504.853 1780.21 506.237L1780.48 505.275C1775.59 503.899 1772.2 502.406 1770.22 500.82L1769.6 501.6ZM1780.21 506.238C1785.11 507.612 1788.9 509.126 1791.61 510.77L1792.13 509.916C1789.31 508.205 1785.42 506.661 1780.48 505.275L1780.21 506.238ZM1791.61 510.773C1794.35 512.392 1796.34 514.272 1797.61 516.404L1798.47 515.891C1797.09 513.584 1794.96 511.595 1792.12 509.913L1791.61 510.773ZM1797.61 516.408C1798.91 518.537 1799.57 521.055 1799.57 523.981H1800.57C1800.57 520.9 1799.87 518.196 1798.47 515.887L1797.61 516.408ZM1799.57 523.981C1799.57 528.619 1797.77 532.315 1794.16 535.114L1794.77 535.904C1798.63 532.913 1800.57 528.923 1800.57 523.981H1799.57ZM1794.16 535.113C1790.54 537.895 1785.67 539.312 1779.49 539.312V540.312C1785.81 540.312 1790.92 538.86 1794.77 535.906L1794.16 535.113ZM1779.49 539.312C1775.49 539.312 1771.78 538.553 1768.32 537.04L1767.92 537.956C1771.51 539.528 1775.36 540.312 1779.49 540.312V539.312ZM1768.33 537.042C1764.88 535.503 1762.23 533.417 1760.37 530.795L1759.56 531.374C1761.54 534.164 1764.33 536.355 1767.92 537.955L1768.33 537.042ZM1760.37 530.798C1758.54 528.18 1757.62 525.209 1757.62 521.871H1756.62C1756.62 525.406 1757.6 528.578 1759.56 531.372L1760.37 530.798ZM1757.12 522.371H1764.96V521.371H1757.12V522.371ZM1764.46 521.871C1764.46 525.584 1765.83 528.56 1768.58 530.746L1769.21 529.963C1766.71 527.981 1765.46 525.302 1765.46 521.871H1764.46ZM1768.59 530.749C1771.35 532.893 1775 533.939 1779.49 533.939V532.939C1775.15 532.939 1771.74 531.929 1769.2 529.959L1768.59 530.749ZM1779.49 533.939C1783.66 533.939 1786.94 533.09 1789.25 531.319L1788.64 530.525C1786.57 532.111 1783.54 532.939 1779.49 532.939V533.939ZM1789.25 531.319C1791.57 529.542 1792.73 527.105 1792.73 524.063H1791.73C1791.73 526.811 1790.7 528.948 1788.64 530.525L1789.25 531.319ZM1792.73 524.063C1792.73 521.035 1791.66 518.647 1789.5 516.97L1788.88 517.761C1790.77 519.222 1791.73 521.299 1791.73 524.063H1792.73ZM1789.5 516.972C1787.39 515.311 1783.63 513.721 1778.29 512.176L1778.01 513.137C1783.33 514.677 1786.93 516.226 1788.88 517.758L1789.5 516.972Z" fill="white"/>
<path d="M233.479 321.152C224.219 334.415 211.269 344.363 194.628 350.994C178.112 357.5 158.843 360.754 136.821 360.754C114.55 360.754 94.7803 355.561 77.5134 345.176C60.2465 334.666 46.8584 319.776 37.3491 300.507C27.9649 281.238 23.1477 258.904 22.8974 233.504V209.668C22.8974 168.503 32.4693 136.597 51.613 113.95C70.8819 91.3024 97.9083 79.9788 132.692 79.9788C161.22 79.9788 184.18 87.2985 201.572 101.938C218.964 116.452 229.6 137.097 233.479 163.873H197.443C190.687 127.713 169.166 109.633 132.88 109.633C108.731 109.633 90.401 118.141 77.8887 135.158C65.5016 152.049 59.2455 176.573 59.1204 208.73V231.064C59.1204 261.719 66.1272 286.118 80.141 304.261C94.1547 322.279 113.111 331.287 137.009 331.287C150.522 331.287 162.346 329.786 172.481 326.783C182.616 323.78 190.999 318.713 197.631 311.581V250.208H134.382V220.929H233.479V321.152ZM409.323 246.454H345.135V357H308.912V83.7325H399.376C430.156 83.7325 453.804 90.7393 470.32 104.753C486.962 118.767 495.282 139.162 495.282 165.938C495.282 182.955 490.653 197.782 481.394 210.419C472.26 223.056 459.497 232.503 443.106 238.759L507.294 354.748V357H468.631L409.323 246.454ZM345.135 216.988H400.502C418.395 216.988 432.596 212.358 443.106 203.099C453.742 193.84 459.059 181.453 459.059 165.938C459.059 149.046 453.992 136.096 443.857 127.087C433.847 118.079 419.333 113.512 400.314 113.387H345.135V216.988ZM712.23 285.68H597.743L572.03 357H534.869L639.221 83.7325H670.752L775.291 357H738.318L712.23 285.68ZM608.628 256.026H701.532L654.986 128.214L608.628 256.026Z" fill="white"/>
<path d="M233.479 321.152L233.872 321.427L233.958 321.303V321.152H233.479ZM194.628 350.994L194.804 351.44L194.806 351.44L194.628 350.994ZM77.5134 345.176L77.264 345.586L77.2662 345.587L77.5134 345.176ZM37.3491 300.507L36.9179 300.717L36.919 300.719L37.3491 300.507ZM22.8974 233.504H22.4178L22.4179 233.509L22.8974 233.504ZM51.613 113.95L51.2478 113.639L51.2468 113.64L51.613 113.95ZM201.572 101.938L201.263 102.305L201.265 102.306L201.572 101.938ZM233.479 163.873V164.353H234.033L233.953 163.805L233.479 163.873ZM197.443 163.873L196.972 163.962L197.045 164.353H197.443V163.873ZM77.8887 135.158L77.5024 134.874L77.502 134.874L77.8887 135.158ZM59.1204 208.73L58.6408 208.728V208.73H59.1204ZM80.141 304.261L79.7614 304.554L79.7624 304.555L80.141 304.261ZM197.631 311.581L197.982 311.907L198.111 311.769V311.581H197.631ZM197.631 250.208H198.111V249.728H197.631V250.208ZM134.382 250.208H133.902V250.688H134.382V250.208ZM134.382 220.929V220.45H133.902V220.929H134.382ZM233.479 220.929H233.958V220.45H233.479V220.929ZM233.085 320.878C223.886 334.056 211.014 343.948 194.45 350.549L194.806 351.44C211.524 344.777 224.553 334.775 233.872 321.427L233.085 320.878ZM194.452 350.548C178.004 357.028 158.797 360.274 136.821 360.274V361.233C158.889 361.233 178.22 357.973 194.804 351.44L194.452 350.548ZM136.821 360.274C114.627 360.274 94.9451 355.101 77.7606 344.765L77.2662 345.587C94.6154 356.022 114.472 361.233 136.821 361.233V360.274ZM77.7627 344.766C60.5786 334.306 47.2508 319.488 37.7791 300.295L36.919 300.719C46.4659 320.065 59.9144 335.025 77.264 345.586L77.7627 344.766ZM37.7802 300.297C28.4325 281.103 23.6266 258.841 23.377 233.499L22.4179 233.509C22.6687 258.967 27.4973 281.374 36.9179 300.717L37.7802 300.297ZM23.377 233.504V209.668H22.4178V233.504H23.377ZM23.377 209.668C23.377 168.573 32.9327 136.791 51.9793 114.259L51.2468 113.64C32.0059 136.402 22.4178 168.433 22.4178 209.668H23.377ZM51.9783 114.26C71.1402 91.7389 98.0225 80.4584 132.692 80.4584V79.4992C97.7942 79.4992 70.6236 90.8659 51.2478 113.639L51.9783 114.26ZM132.692 80.4584C161.137 80.4584 183.978 87.7552 201.263 102.305L201.881 101.571C184.382 86.8418 161.304 79.4992 132.692 79.4992V80.4584ZM201.265 102.306C218.549 116.73 229.139 137.259 233.004 163.942L233.953 163.805C230.061 136.935 219.379 116.174 201.88 101.57L201.265 102.306ZM233.479 163.394H197.443V164.353H233.479V163.394ZM197.915 163.785C194.522 145.63 187.412 131.957 176.544 122.826C165.674 113.694 151.102 109.153 132.88 109.153V110.112C150.943 110.112 165.275 114.612 175.927 123.56C186.579 132.509 193.608 145.956 196.972 163.962L197.915 163.785ZM132.88 109.153C108.604 109.153 90.1189 117.715 77.5024 134.874L78.2751 135.442C90.6831 118.567 108.859 110.112 132.88 110.112V109.153ZM77.502 134.874C65.0306 151.881 58.7661 176.521 58.6408 208.728L59.6 208.732C59.7249 176.626 65.9727 152.218 78.2755 135.441L77.502 134.874ZM58.6408 208.73V231.064H59.6V208.73H58.6408ZM58.6408 231.064C58.6408 261.79 65.664 286.303 79.7614 304.554L80.5205 303.968C66.5905 285.933 59.6 261.649 59.6 231.064H58.6408ZM79.7624 304.555C93.8718 322.696 112.971 331.767 137.009 331.767V330.808C113.251 330.808 94.4375 321.861 80.5195 303.966L79.7624 304.555ZM137.009 331.767C150.556 331.767 162.428 330.262 172.618 327.243L172.345 326.323C162.265 329.31 150.488 330.808 137.009 330.808V331.767ZM172.618 327.243C182.828 324.218 191.287 319.107 197.982 311.907L197.28 311.254C190.712 318.318 182.405 323.342 172.345 326.323L172.618 327.243ZM198.111 311.581V250.208H197.151V311.581H198.111ZM197.631 249.728H134.382V250.688H197.631V249.728ZM134.861 250.208V220.929H133.902V250.208H134.861ZM134.382 221.409H233.479V220.45H134.382V221.409ZM232.999 220.929V321.152H233.958V220.929H232.999ZM409.323 246.454L409.746 246.228L409.61 245.975H409.323V246.454ZM345.135 246.454V245.975H344.656V246.454H345.135ZM345.135 357V357.48H345.615V357H345.135ZM308.912 357H308.433V357.48H308.912V357ZM308.912 83.7325V83.2529H308.433V83.7325H308.912ZM470.32 104.753L470.01 105.119L470.012 105.12L470.32 104.753ZM481.394 210.419L481.007 210.136L481.005 210.138L481.394 210.419ZM443.106 238.759L442.935 238.311L442.419 238.508L442.687 238.991L443.106 238.759ZM507.294 354.748H507.774V354.624L507.714 354.516L507.294 354.748ZM507.294 357V357.48H507.774V357H507.294ZM468.631 357L468.209 357.227L468.344 357.48H468.631V357ZM345.135 216.988H344.656V217.468H345.135V216.988ZM443.106 203.099L442.791 202.738L442.789 202.739L443.106 203.099ZM443.857 127.087L443.536 127.444L443.538 127.446L443.857 127.087ZM400.314 113.387L400.318 112.907H400.314V113.387ZM345.135 113.387V112.907H344.656V113.387H345.135ZM409.323 245.975H345.135V246.934H409.323V245.975ZM344.656 246.454V357H345.615V246.454H344.656ZM345.135 356.52H308.912V357.48H345.135V356.52ZM309.392 357V83.7325H308.433V357H309.392ZM308.912 84.2121H399.376V83.2529H308.912V84.2121ZM399.376 84.2121C430.09 84.2121 453.611 91.2042 470.01 105.119L470.631 104.387C453.998 90.2745 430.223 83.2529 399.376 83.2529V84.2121ZM470.012 105.12C486.52 119.022 494.803 139.268 494.803 165.938H495.762C495.762 139.056 487.403 118.512 470.629 104.386L470.012 105.12ZM494.803 165.938C494.803 182.862 490.2 197.588 481.007 210.136L481.781 210.702C491.105 197.976 495.762 183.047 495.762 165.938H494.803ZM481.005 210.138C471.933 222.69 459.25 232.084 442.935 238.311L443.277 239.207C459.744 232.922 472.587 223.422 481.782 210.7L481.005 210.138ZM442.687 238.991L506.875 354.98L507.714 354.516L443.526 238.527L442.687 238.991ZM506.815 354.748V357H507.774V354.748H506.815ZM507.294 356.52H468.631V357.48H507.294V356.52ZM469.054 356.773L409.746 246.228L408.901 246.681L468.209 357.227L469.054 356.773ZM345.135 217.468H400.502V216.508H345.135V217.468ZM400.502 217.468C418.478 217.468 432.803 212.815 443.423 203.459L442.789 202.739C432.389 211.902 418.311 216.508 400.502 216.508V217.468ZM443.421 203.461C454.172 194.101 459.539 181.576 459.539 165.938H458.58C458.58 181.33 453.311 193.579 442.791 202.738L443.421 203.461ZM459.539 165.938C459.539 148.946 454.437 135.85 444.176 126.729L443.538 127.446C453.547 136.342 458.58 149.147 458.58 165.938H459.539ZM444.178 126.731C434.051 117.616 419.405 113.033 400.318 112.907L400.311 113.866C419.261 113.991 433.644 118.541 443.536 127.444L444.178 126.731ZM400.314 112.907H345.135V113.866H400.314V112.907ZM344.656 113.387V216.988H345.615V113.387H344.656ZM712.23 285.68L712.68 285.515L712.565 285.201H712.23V285.68ZM597.743 285.68V285.201H597.406L597.292 285.518L597.743 285.68ZM572.03 357V357.48H572.367L572.481 357.163L572.03 357ZM534.869 357L534.421 356.829L534.172 357.48H534.869V357ZM639.221 83.7325V83.2529H638.891L638.773 83.5614L639.221 83.7325ZM670.752 83.7325L671.2 83.5611L671.082 83.2529H670.752V83.7325ZM775.291 357V357.48H775.988L775.739 356.829L775.291 357ZM738.318 357L737.867 357.165L737.983 357.48H738.318V357ZM608.628 256.026L608.177 255.863L607.944 256.506H608.628V256.026ZM701.532 256.026V256.506H702.217L701.982 255.862L701.532 256.026ZM654.986 128.214L655.437 128.049L654.985 126.81L654.535 128.05L654.986 128.214ZM712.23 285.201H597.743V286.16H712.23V285.201ZM597.292 285.518L571.579 356.837L572.481 357.163L598.194 285.843L597.292 285.518ZM572.03 356.52H534.869V357.48H572.03V356.52ZM535.317 357.171L639.669 83.9036L638.773 83.5614L534.421 356.829L535.317 357.171ZM639.221 84.2121H670.752V83.2529H639.221V84.2121ZM670.304 83.9038L774.844 357.171L775.739 356.829L671.2 83.5611L670.304 83.9038ZM775.291 356.52H738.318V357.48H775.291V356.52ZM738.768 356.835L712.68 285.515L711.779 285.845L737.867 357.165L738.768 356.835ZM608.628 256.506H701.532V255.547H608.628V256.506ZM701.982 255.862L655.437 128.049L654.536 128.378L701.081 256.19L701.982 255.862ZM654.535 128.05L608.177 255.863L609.079 256.19L655.437 128.377L654.535 128.05Z" fill="white"/>
</svg>
