<svg width="2477" height="548" viewBox="0 0 2477 548" fill="none" xmlns="http://www.w3.org/2000/svg">
<path d="M204.425 418.35V113.118C204.425 112.282 204.099 111.48 203.517 110.889C202.935 110.298 202.145 109.967 201.322 109.967H197.837C197.181 109.966 196.541 110.175 196.008 110.564C195.475 110.954 195.077 111.503 194.869 112.136L182.322 151.363C182.253 151.559 182.171 151.75 182.075 151.934C181.426 153.27 181.194 154.775 181.411 156.248C181.628 157.721 182.283 159.092 183.289 160.176C183.466 160.398 183.609 160.644 183.716 160.907L193.7 186.412C193.839 186.776 193.915 187.162 193.925 187.553L195.589 378.072V378.643C195.41 380.039 194.721 381.316 193.659 382.221C192.597 383.126 191.24 383.593 189.855 383.529C188.915 383.492 187.983 383.71 187.153 384.159C186.323 384.609 185.626 385.274 185.133 386.087C183.414 389.544 182.289 393.273 181.805 397.115C181.454 399.157 180.825 401.139 179.939 403.006C178.889 405.473 177.504 407.779 175.824 409.856C174.722 410.982 173.749 412.23 172.923 413.578L172.249 414.765L173.598 516.098C173.598 516.098 172.743 518.381 177.87 522.788C178.209 523.081 178.479 523.447 178.66 523.86C178.841 524.272 178.928 524.721 178.915 525.173C178.902 525.624 178.789 526.067 178.585 526.469C178.381 526.87 178.09 527.22 177.735 527.492C177.735 527.492 165.413 537.607 176.386 543.657C176.833 543.884 177.326 544.001 177.825 544H204.425V515.413C203.382 515.413 202.381 514.992 201.643 514.243C200.905 513.493 200.491 512.477 200.491 511.417V422.368C200.491 421.309 200.905 420.292 201.643 419.543C202.381 418.794 203.382 418.372 204.425 418.372V418.35ZM192.036 511.394C191.961 512.405 191.512 513.349 190.781 514.038C190.049 514.727 189.088 515.11 188.09 515.11C187.092 515.11 186.131 514.727 185.399 514.038C184.667 513.349 184.219 512.405 184.144 511.394V422.345C184.219 421.335 184.667 420.391 185.399 419.701C186.131 419.012 187.092 418.63 188.09 418.63C189.088 418.63 190.049 419.012 190.781 419.701C191.512 420.391 191.961 421.335 192.036 422.345V511.394Z" fill="white"/>
<path d="M204.426 418.366C205.49 418.366 206.511 418.787 207.264 419.536C208.017 420.286 208.44 421.302 208.44 422.362V511.415C208.44 512.475 208.017 513.492 207.264 514.241C206.511 514.99 205.49 515.411 204.426 515.411V515.411V544H231.654C232.156 544.003 232.652 543.886 233.099 543.657C244.316 537.606 231.746 527.491 231.746 527.491C231.383 527.219 231.087 526.869 230.878 526.468C230.67 526.066 230.555 525.623 230.542 525.172C230.528 524.72 230.617 524.271 230.802 523.858C230.987 523.446 231.262 523.079 231.608 522.787C236.815 518.403 236.058 516.119 236.058 516.119L237.411 414.781L236.746 413.593C235.903 412.246 234.911 410.998 233.787 409.871C232.073 407.795 230.66 405.489 229.589 403.021C228.681 401.148 228.041 399.157 227.685 397.107C227.189 393.273 226.041 389.551 224.29 386.101C223.787 385.288 223.076 384.623 222.23 384.174C221.383 383.724 220.432 383.507 219.473 383.544C218.059 383.602 216.674 383.134 215.588 382.23C214.502 381.327 213.794 380.053 213.601 378.657V378.086L215.299 187.557C215.308 187.166 215.386 186.78 215.528 186.416L225.713 160.91C225.822 160.647 225.969 160.4 226.149 160.179C227.174 159.095 227.843 157.724 228.064 156.251C228.286 154.777 228.049 153.272 227.387 151.936C227.289 151.752 227.205 151.561 227.135 151.365L214.312 112.136C214.108 111.503 213.706 110.952 213.166 110.562C212.626 110.172 211.975 109.964 211.307 109.967H207.752C206.912 109.967 206.107 110.299 205.513 110.889C204.92 111.48 204.586 112.282 204.586 113.118V418.343L204.426 418.366ZM217.065 422.362C217.065 421.302 217.488 420.286 218.241 419.536C218.993 418.787 220.014 418.366 221.079 418.366C222.144 418.366 223.165 418.787 223.918 419.536C224.67 420.286 225.093 421.302 225.093 422.362V511.415C225.093 512.475 224.67 513.492 223.918 514.241C223.165 514.99 222.144 515.411 221.079 515.411C220.014 515.411 218.993 514.99 218.241 514.241C217.488 513.492 217.065 512.475 217.065 511.415V422.362Z" fill="white"/>
<path d="M46.3971 262.311H2.60277C2.22249 262.318 1.8455 262.239 1.49924 262.08C1.15299 261.921 0.846187 261.686 0.601199 261.392C0.35621 261.099 0.179197 260.753 0.0830535 260.382C-0.0130899 260.01 -0.0259391 259.621 0.0454341 259.244C0.0919824 259.044 0.177363 258.856 0.296602 258.69C0.296602 258.69 11.4164 242.547 15.2753 242.547C19.1341 242.547 52.8361 242.893 58.2933 242.939C58.7697 242.94 59.2363 243.076 59.6404 243.331C65.4401 247.09 110.148 275.826 119.007 275.065H195.156C195.847 275.065 196.509 275.342 196.997 275.835C197.485 276.328 197.759 276.997 197.759 277.694V293.146L69.2304 293.653C68.7655 293.647 68.3103 293.518 67.9099 293.279C67.5094 293.04 67.1775 292.7 66.9471 292.292L51.3748 264.041C51.2123 263.735 50.9865 263.467 50.7126 263.257C50.0921 262.816 49.3906 262.506 48.6495 262.344C47.9083 262.181 47.1425 262.17 46.3971 262.311Z" fill="white"/>
<path d="M46.3058 323.059H2.62569C2.24351 323.049 1.86391 323.124 1.5148 323.279C1.1657 323.435 0.855979 323.666 0.608437 323.956C0.360894 324.246 0.181829 324.587 0.0844124 324.955C-0.0130041 325.323 -0.0262908 325.708 0.04553 326.082C0.0920783 326.279 0.17745 326.464 0.296689 326.628C0.296689 326.628 11.4394 342.537 15.2753 342.537C19.1113 342.537 52.8362 342.196 58.2933 342.151C58.7698 342.15 59.2364 342.016 59.6405 341.765C65.4401 338.06 110.148 309.741 119.007 310.468H195.156C195.843 310.468 196.501 310.198 196.989 309.717C197.476 309.236 197.753 308.583 197.759 307.9V292.672L69.3446 292.172C68.8783 292.171 68.4203 292.295 68.0186 292.531C67.6169 292.767 67.2863 293.106 67.0613 293.513L51.4662 321.355C51.3037 321.657 51.0779 321.92 50.804 322.127C50.1581 322.581 49.4257 322.897 48.652 323.058C47.8783 323.218 47.0798 323.218 46.3058 323.059Z" fill="white"/>
<path d="M350.683 322.773H394.373C394.755 322.763 395.135 322.839 395.484 322.996C395.834 323.154 396.143 323.388 396.391 323.682C396.639 323.977 396.818 324.323 396.915 324.697C397.013 325.07 397.026 325.461 396.954 325.84C396.907 326.04 396.822 326.228 396.703 326.394C396.703 326.394 385.557 342.537 381.721 342.537C377.884 342.537 344.151 342.191 338.693 342.145C338.211 342.154 337.74 342.009 337.345 341.73C331.544 337.994 286.826 309.258 277.965 309.996H201.844C201.153 309.996 200.491 309.719 200.003 309.226C199.515 308.733 199.24 308.064 199.24 307.367V291.846L327.799 291.431C328.265 291.43 328.723 291.556 329.125 291.796C329.527 292.035 329.857 292.379 330.083 292.792L345.681 321.043C345.844 321.35 346.07 321.617 346.344 321.827C346.969 322.266 347.675 322.575 348.42 322.738C349.165 322.9 349.934 322.912 350.683 322.773V322.773Z" fill="white"/>
<path d="M350.71 262.06H394.375C394.757 262.07 395.136 261.995 395.485 261.839C395.834 261.684 396.144 261.452 396.391 261.162C396.639 260.871 396.818 260.529 396.915 260.16C397.012 259.792 397.026 259.406 396.954 259.032C396.907 258.835 396.822 258.649 396.703 258.485C396.703 258.485 385.564 242.547 381.729 242.547C377.895 242.547 344.182 242.911 338.726 242.957C338.25 242.958 337.784 243.092 337.38 243.344C331.582 247.055 286.867 275.425 278.034 274.674H201.842C201.152 274.674 200.49 274.947 200.002 275.434C199.514 275.921 199.24 276.581 199.24 277.27V292.525L327.702 292.912C328.167 292.92 328.625 292.801 329.027 292.568C329.429 292.336 329.76 291.998 329.984 291.591L345.642 263.768C345.805 263.465 346.031 263.201 346.304 262.993C346.936 262.547 347.653 262.233 348.41 262.073C349.168 261.912 349.95 261.908 350.71 262.06Z" fill="white"/>
<path d="M209.611 109.967H197.76V415.864H209.611V109.967Z" fill="white"/>
<path d="M328.858 285.506H68.1416V301.06H328.858V285.506Z" fill="white"/>
<path d="M217.756 515.114H194.795V543.259H217.756V515.114Z" fill="white"/>
<path d="M590.576 283.88H518.576L507.632 317H448.304L522.32 113.96H587.408L661.136 317H601.52L590.576 283.88ZM576.464 240.68L554.576 175.016L532.976 240.68H576.464ZM734.83 113.96V231.752C734.83 242.696 737.326 251.144 742.318 257.096C747.502 263.048 755.278 266.024 765.646 266.024C776.014 266.024 783.79 263.048 788.974 257.096C794.35 250.952 797.038 242.504 797.038 231.752V113.96H853.486V231.752C853.486 250.376 849.55 266.312 841.678 279.56C833.806 292.616 823.054 302.504 809.422 309.224C795.982 315.752 781.006 319.016 764.494 319.016C747.982 319.016 733.198 315.752 720.142 309.224C707.278 302.504 697.102 292.616 689.614 279.56C682.318 266.504 678.67 250.568 678.67 231.752V113.96H734.83ZM1037.49 113.96V158.888H983.35V317H926.902V158.888H873.334V113.96H1037.49ZM1155.72 319.016C1136.71 319.016 1119.24 314.6 1103.31 305.768C1087.37 296.744 1074.7 284.36 1065.29 268.616C1056.07 252.68 1051.47 234.728 1051.47 214.76C1051.47 194.792 1056.07 176.936 1065.29 161.192C1074.7 145.256 1087.37 132.872 1103.31 124.04C1119.24 115.208 1136.71 110.792 1155.72 110.792C1174.92 110.792 1192.39 115.208 1208.14 124.04C1224.07 132.872 1236.65 145.256 1245.87 161.192C1255.08 176.936 1259.69 194.792 1259.69 214.76C1259.69 234.728 1255.08 252.68 1245.87 268.616C1236.65 284.36 1224.07 296.744 1208.14 305.768C1192.2 314.6 1174.73 319.016 1155.72 319.016ZM1155.72 266.6C1170.12 266.6 1181.45 261.896 1189.71 252.488C1198.15 243.08 1202.38 230.504 1202.38 214.76C1202.38 198.632 1198.15 185.96 1189.71 176.744C1181.45 167.336 1170.12 162.632 1155.72 162.632C1141.13 162.632 1129.71 167.336 1121.45 176.744C1113.19 185.96 1109.07 198.632 1109.07 214.76C1109.07 230.696 1113.19 243.368 1121.45 252.776C1129.71 261.992 1141.13 266.6 1155.72 266.6ZM1351.59 115.688C1373.87 115.688 1392.97 119.72 1408.91 127.784C1424.84 135.848 1437.03 147.464 1445.48 162.632C1453.93 177.8 1458.15 195.848 1458.15 216.776C1458.15 237.512 1453.93 255.464 1445.48 270.632C1437.03 285.608 1424.84 297.128 1408.91 305.192C1392.97 313.064 1373.87 317 1351.59 317H1291.98V115.688H1351.59ZM1351.59 300.296C1379.63 300.296 1400.94 293 1415.53 278.408C1430.31 263.624 1437.71 243.08 1437.71 216.776C1437.71 190.28 1430.31 169.64 1415.53 154.856C1400.94 139.88 1379.63 132.392 1351.59 132.392H1312.14V300.296H1351.59ZM1585.75 319.016C1567.13 319.016 1550.23 314.696 1535.07 306.056C1519.9 297.224 1507.9 285.032 1499.07 269.48C1490.43 253.736 1486.11 235.976 1486.11 216.2C1486.11 196.424 1490.43 178.76 1499.07 163.208C1507.9 147.464 1519.9 135.272 1535.07 126.632C1550.23 117.8 1567.13 113.384 1585.75 113.384C1604.57 113.384 1621.56 117.8 1636.73 126.632C1651.9 135.272 1663.8 147.464 1672.44 163.208C1681.08 178.76 1685.4 196.424 1685.4 216.2C1685.4 235.976 1681.08 253.736 1672.44 269.48C1663.8 285.032 1651.9 297.224 1636.73 306.056C1621.56 314.696 1604.57 319.016 1585.75 319.016ZM1585.75 301.448C1600.73 301.448 1614.17 297.992 1626.07 291.08C1637.98 284.168 1647.39 274.28 1654.3 261.416C1661.21 248.36 1664.67 233.288 1664.67 216.2C1664.67 199.112 1661.21 184.136 1654.3 171.272C1647.39 158.408 1637.98 148.52 1626.07 141.608C1614.17 134.696 1600.73 131.24 1585.75 131.24C1570.78 131.24 1557.34 134.696 1545.43 141.608C1533.53 148.52 1524.12 158.408 1517.21 171.272C1510.3 184.136 1506.84 199.112 1506.84 216.2C1506.84 233.288 1510.3 248.36 1517.21 261.416C1524.12 274.28 1533.53 284.168 1545.43 291.08C1557.34 297.992 1570.78 301.448 1585.75 301.448ZM1713.07 216.2C1713.07 196.424 1717.39 178.76 1726.03 163.208C1734.67 147.464 1746.48 135.272 1761.46 126.632C1776.43 117.8 1793.14 113.384 1811.57 113.384C1834.03 113.384 1853.23 118.76 1869.17 129.512C1885.3 140.072 1897.01 155.048 1904.31 174.44H1880.69C1874.93 160.808 1866.1 150.152 1854.19 142.472C1842.48 134.792 1828.27 130.952 1811.57 130.952C1796.79 130.952 1783.44 134.408 1771.54 141.32C1759.83 148.232 1750.61 158.216 1743.89 171.272C1737.17 184.136 1733.81 199.112 1733.81 216.2C1733.81 233.288 1737.17 248.264 1743.89 261.128C1750.61 273.992 1759.83 283.88 1771.54 290.792C1783.44 297.704 1796.79 301.16 1811.57 301.16C1828.27 301.16 1842.48 297.416 1854.19 289.928C1866.1 282.248 1874.93 271.688 1880.69 258.248H1904.31C1897.01 277.448 1885.3 292.328 1869.17 302.888C1853.04 313.448 1833.84 318.728 1811.57 318.728C1793.14 318.728 1776.43 314.408 1761.46 305.768C1746.48 296.936 1734.67 284.744 1726.03 269.192C1717.39 253.64 1713.07 235.976 1713.07 216.2ZM2062.27 115.688V132.392H2006.4V317H1986.24V132.392H1930.08V115.688H2062.27ZM2184.53 319.016C2165.91 319.016 2149.01 314.696 2133.85 306.056C2118.68 297.224 2106.68 285.032 2097.85 269.48C2089.21 253.736 2084.89 235.976 2084.89 216.2C2084.89 196.424 2089.21 178.76 2097.85 163.208C2106.68 147.464 2118.68 135.272 2133.85 126.632C2149.01 117.8 2165.91 113.384 2184.53 113.384C2203.35 113.384 2220.34 117.8 2235.51 126.632C2250.68 135.272 2262.58 147.464 2271.22 163.208C2279.86 178.76 2284.18 196.424 2284.18 216.2C2284.18 235.976 2279.86 253.736 2271.22 269.48C2262.58 285.032 2250.68 297.224 2235.51 306.056C2220.34 314.696 2203.35 319.016 2184.53 319.016ZM2184.53 301.448C2199.51 301.448 2212.95 297.992 2224.85 291.08C2236.76 284.168 2246.17 274.28 2253.08 261.416C2259.99 248.36 2263.45 233.288 2263.45 216.2C2263.45 199.112 2259.99 184.136 2253.08 171.272C2246.17 158.408 2236.76 148.52 2224.85 141.608C2212.95 134.696 2199.51 131.24 2184.53 131.24C2169.56 131.24 2156.12 134.696 2144.21 141.608C2132.31 148.52 2122.9 158.408 2115.99 171.272C2109.08 184.136 2105.62 199.112 2105.62 216.2C2105.62 233.288 2109.08 248.36 2115.99 261.416C2122.9 274.28 2132.31 284.168 2144.21 291.08C2156.12 297.992 2169.56 301.448 2184.53 301.448ZM2428.21 317L2378.38 232.904H2341.23V317H2321.07V115.688H2381.55C2404.02 115.688 2421.01 121.064 2432.53 131.816C2444.24 142.568 2450.1 156.68 2450.1 174.152C2450.1 188.744 2445.87 201.224 2437.42 211.592C2429.17 221.768 2416.88 228.392 2400.56 231.464L2452.4 317H2428.21ZM2341.23 216.488H2381.84C2397.58 216.488 2409.39 212.648 2417.26 204.968C2425.33 197.288 2429.36 187.016 2429.36 174.152C2429.36 160.904 2425.52 150.728 2417.84 143.624C2410.16 136.328 2398.06 132.68 2381.55 132.68H2341.23V216.488Z" fill="white"/>
<path d="M554.176 511.811C554.176 523.119 550.074 531.938 541.871 538.266C533.668 544.594 522.535 547.758 508.473 547.758C493.238 547.758 481.52 545.795 473.316 541.869V527.455C478.59 529.682 484.332 531.439 490.543 532.729C496.754 534.018 502.906 534.662 509 534.662C518.961 534.662 526.461 532.787 531.5 529.037C536.539 525.229 539.059 519.955 539.059 513.217C539.059 508.764 538.15 505.131 536.334 502.318C534.576 499.447 531.588 496.811 527.369 494.408C523.209 492.006 516.852 489.281 508.297 486.234C496.344 481.957 487.789 476.889 482.633 471.029C477.535 465.17 474.986 457.523 474.986 448.09C474.986 438.188 478.707 430.307 486.148 424.447C493.59 418.588 503.434 415.658 515.68 415.658C528.453 415.658 540.201 418.002 550.924 422.689L546.266 435.697C535.66 431.244 525.348 429.018 515.328 429.018C507.418 429.018 501.236 430.717 496.783 434.115C492.33 437.514 490.104 442.23 490.104 448.266C490.104 452.719 490.924 456.381 492.564 459.252C494.205 462.064 496.959 464.672 500.826 467.074C504.752 469.418 510.729 472.025 518.756 474.896C532.232 479.701 541.49 484.857 546.529 490.365C551.627 495.873 554.176 503.021 554.176 511.811ZM657.486 546H585.855V417.504H657.486V430.775H600.796V472.172H654.058V485.355H600.796V532.641H657.486V546ZM706.392 492.562V546H691.45V417.504H726.695C742.456 417.504 754.087 420.521 761.587 426.557C769.146 432.592 772.925 441.674 772.925 453.803C772.925 470.795 764.312 482.279 747.085 488.256L781.978 546H764.312L733.198 492.562H706.392ZM706.392 479.73H726.87C737.417 479.73 745.152 477.65 750.073 473.49C754.995 469.271 757.456 462.973 757.456 454.594C757.456 446.098 754.937 439.975 749.898 436.225C744.917 432.475 736.89 430.6 725.816 430.6H706.392V479.73ZM881.509 417.504H897.593L851.274 546H836.509L790.454 417.504H806.274L835.805 500.648C839.204 510.199 841.899 519.486 843.891 528.51C846.001 519.018 848.755 509.555 852.153 500.121L881.509 417.504ZM920.746 546V417.504H935.688V546H920.746ZM1031.44 429.018C1017.32 429.018 1006.16 433.734 997.953 443.168C989.809 452.543 985.736 465.404 985.736 481.752C985.736 498.568 989.662 511.576 997.514 520.775C1005.42 529.916 1016.67 534.486 1031.26 534.486C1040.23 534.486 1050.45 532.875 1061.94 529.652V542.748C1053.03 546.088 1042.04 547.758 1028.98 547.758C1010.05 547.758 995.434 542.016 985.121 530.531C974.867 519.047 969.74 502.729 969.74 481.576C969.74 468.334 972.201 456.732 977.123 446.771C982.104 436.811 989.252 429.135 998.568 423.744C1007.94 418.354 1018.96 415.658 1031.62 415.658C1045.09 415.658 1056.87 418.119 1066.95 423.041L1060.62 435.873C1050.89 431.303 1041.17 429.018 1031.44 429.018ZM1167.01 546H1095.37V417.504H1167.01V430.775H1110.32V472.172H1163.58V485.355H1110.32V532.641H1167.01V546ZM1309.99 546L1266.4 432.094H1265.7C1266.52 441.117 1266.93 451.84 1266.93 464.262V546H1253.13V417.504H1275.63L1316.32 523.5H1317.02L1358.07 417.504H1380.39V546H1365.45V463.207C1365.45 453.715 1365.86 443.402 1366.68 432.27H1365.98L1322.03 546H1309.99ZM1501.9 546L1485.9 505.131H1434.4L1418.58 546H1403.46L1454.26 416.977H1466.83L1517.37 546H1501.9ZM1481.24 491.684L1466.3 451.869C1464.37 446.83 1462.38 440.648 1460.32 433.324C1459.04 438.949 1457.19 445.131 1454.79 451.869L1439.67 491.684H1481.24ZM1643 480.521C1643 501.732 1637.23 517.963 1625.69 529.213C1614.2 540.404 1597.65 546 1576.03 546H1540.43V417.504H1579.81C1599.79 417.504 1615.31 423.041 1626.39 434.115C1637.46 445.189 1643 460.658 1643 480.521ZM1627.18 481.049C1627.18 464.291 1622.96 451.664 1614.52 443.168C1606.14 434.672 1593.66 430.424 1577.08 430.424H1555.37V533.08H1573.57C1591.38 533.08 1604.77 528.715 1613.73 519.984C1622.7 511.195 1627.18 498.217 1627.18 481.049ZM1748.77 546H1677.14V417.504H1748.77V430.775H1692.08V472.172H1745.34V485.355H1692.08V532.641H1748.77V546ZM1907.4 511.811C1907.4 523.119 1903.3 531.938 1895.1 538.266C1886.9 544.594 1875.76 547.758 1861.7 547.758C1846.47 547.758 1834.75 545.795 1826.54 541.869V527.455C1831.82 529.682 1837.56 531.439 1843.77 532.729C1849.98 534.018 1856.13 534.662 1862.23 534.662C1872.19 534.662 1879.69 532.787 1884.73 529.037C1889.77 525.229 1892.29 519.955 1892.29 513.217C1892.29 508.764 1891.38 505.131 1889.56 502.318C1887.8 499.447 1884.82 496.811 1880.6 494.408C1876.44 492.006 1870.08 489.281 1861.52 486.234C1849.57 481.957 1841.02 476.889 1835.86 471.029C1830.76 465.17 1828.21 457.523 1828.21 448.09C1828.21 438.188 1831.93 430.307 1839.38 424.447C1846.82 418.588 1856.66 415.658 1868.91 415.658C1881.68 415.658 1893.43 418.002 1904.15 422.689L1899.49 435.697C1888.89 431.244 1878.57 429.018 1868.56 429.018C1860.65 429.018 1854.46 430.717 1850.01 434.115C1845.56 437.514 1843.33 442.23 1843.33 448.266C1843.33 452.719 1844.15 456.381 1845.79 459.252C1847.43 462.064 1850.19 464.672 1854.05 467.074C1857.98 469.418 1863.96 472.025 1871.98 474.896C1885.46 479.701 1894.72 484.857 1899.76 490.365C1904.85 495.873 1907.4 503.021 1907.4 511.811ZM1995.95 546L1952.35 432.094H1951.65C1952.47 441.117 1952.88 451.84 1952.88 464.262V546H1939.08V417.504H1961.58L2002.28 523.5H2002.98L2044.02 417.504H2066.35V546H2051.41V463.207C2051.41 453.715 2051.82 443.402 2052.64 432.27H2051.93L2007.99 546H1995.95ZM2187.85 546L2171.86 505.131H2120.35L2104.53 546H2089.41L2140.21 416.977H2152.78L2203.32 546H2187.85ZM2167.2 491.684L2152.26 451.869C2150.32 446.83 2148.33 440.648 2146.28 433.324C2144.99 438.949 2143.14 445.131 2140.74 451.869L2125.62 491.684H2167.2ZM2241.33 492.562V546H2226.39V417.504H2261.63C2277.39 417.504 2289.02 420.521 2296.52 426.557C2304.08 432.592 2307.86 441.674 2307.86 453.803C2307.86 470.795 2299.25 482.279 2282.02 488.256L2316.91 546H2299.25L2268.13 492.562H2241.33ZM2241.33 479.73H2261.81C2272.35 479.73 2280.09 477.65 2285.01 473.49C2289.93 469.271 2292.39 462.973 2292.39 454.594C2292.39 446.098 2289.87 439.975 2284.83 436.225C2279.85 432.475 2271.83 430.6 2260.75 430.6H2241.33V479.73ZM2382.61 546H2367.67V430.775H2326.97V417.504H2423.3V430.775H2382.61V546Z" fill="white"/>
</svg>
