<svg width="3617" height="586" viewBox="0 0 3617 586" fill="none" xmlns="http://www.w3.org/2000/svg">
<path d="M243.972 436.042V71.7605C243.972 70.7632 243.582 69.8066 242.888 69.1014C242.193 68.3962 241.251 68 240.269 68H236.11C235.326 67.9992 234.562 68.2488 233.927 68.7134C233.291 69.1781 232.815 69.8342 232.567 70.5887L217.593 117.405C217.511 117.639 217.412 117.866 217.298 118.086C216.523 119.68 216.247 121.477 216.506 123.235C216.765 124.993 217.547 126.629 218.747 127.923C218.958 128.187 219.129 128.481 219.257 128.795L231.172 159.234C231.338 159.669 231.429 160.13 231.44 160.596L233.426 387.972V388.654C233.212 390.32 232.391 391.843 231.123 392.923C229.856 394.003 228.236 394.561 226.583 394.485C225.462 394.441 224.349 394.701 223.359 395.237C222.368 395.773 221.536 396.567 220.947 397.537C218.896 401.663 217.553 406.114 216.976 410.699C216.556 413.136 215.807 415.502 214.748 417.73C213.496 420.675 211.843 423.426 209.838 425.905C208.523 427.249 207.362 428.739 206.376 430.347L205.571 431.764L207.181 552.7C207.181 552.7 206.161 555.425 212.28 560.685C212.684 561.034 213.006 561.471 213.222 561.963C213.438 562.456 213.542 562.992 213.527 563.531C213.511 564.069 213.377 564.598 213.133 565.077C212.889 565.556 212.543 565.973 212.119 566.298C212.119 566.298 197.413 578.37 210.508 585.591C211.042 585.861 211.63 586.001 212.226 586H243.972V551.883C242.727 551.883 241.532 551.38 240.652 550.486C239.771 549.592 239.276 548.379 239.276 547.114V440.838C239.276 439.573 239.771 438.36 240.652 437.466C241.532 436.572 242.727 436.069 243.972 436.069V436.042ZM229.186 547.087C229.096 548.293 228.561 549.42 227.688 550.242C226.814 551.064 225.667 551.521 224.476 551.521C223.285 551.521 222.138 551.064 221.265 550.242C220.392 549.42 219.856 548.293 219.767 547.087V440.811C219.856 439.605 220.392 438.477 221.265 437.655C222.138 436.833 223.285 436.376 224.476 436.376C225.667 436.376 226.814 436.833 227.688 437.655C228.561 438.477 229.096 439.605 229.186 440.811V547.087Z" fill="white"/>
<path d="M243.973 436.061C245.243 436.061 246.462 436.564 247.36 437.458C248.259 438.352 248.763 439.565 248.763 440.83V547.112C248.763 548.377 248.259 549.59 247.36 550.484C246.462 551.378 245.243 551.881 243.973 551.881V551.881V586H276.468C277.068 586.004 277.659 585.864 278.193 585.591C291.58 578.369 276.578 566.297 276.578 566.297C276.145 565.972 275.791 565.555 275.543 565.076C275.294 564.597 275.157 564.068 275.141 563.529C275.125 562.99 275.231 562.455 275.451 561.962C275.672 561.469 276 561.032 276.413 560.683C282.628 555.451 281.724 552.726 281.724 552.726L283.339 431.783L282.546 430.365C281.54 428.757 280.355 427.267 279.014 425.923C276.968 423.445 275.282 420.693 274.004 417.748C272.921 415.512 272.156 413.136 271.732 410.69C271.14 406.114 269.77 401.672 267.68 397.555C267.08 396.584 266.231 395.79 265.221 395.254C264.211 394.718 263.075 394.458 261.931 394.502C260.244 394.572 258.591 394.013 257.295 392.935C255.999 391.857 255.153 390.336 254.923 388.67V387.989L256.949 160.601C256.96 160.135 257.053 159.674 257.223 159.239L269.378 128.799C269.508 128.484 269.683 128.191 269.898 127.926C271.122 126.632 271.92 124.996 272.184 123.238C272.448 121.48 272.166 119.683 271.376 118.089C271.259 117.869 271.159 117.641 271.075 117.407L255.772 70.5889C255.528 69.8342 255.048 69.1766 254.404 68.7111C253.759 68.2456 252.982 67.9966 252.185 68H247.942C246.94 68 245.979 68.3962 245.271 69.1015C244.562 69.8068 244.164 70.7634 244.164 71.7608V436.034L243.973 436.061ZM259.057 440.83C259.057 439.565 259.562 438.352 260.46 437.458C261.359 436.564 262.577 436.061 263.848 436.061C265.118 436.061 266.337 436.564 267.235 437.458C268.134 438.352 268.639 439.565 268.639 440.83V547.112C268.639 548.377 268.134 549.59 267.235 550.484C266.337 551.378 265.118 551.881 263.848 551.881C262.577 551.881 261.359 551.378 260.46 550.484C259.562 549.59 259.057 548.377 259.057 547.112V440.83Z" fill="white"/>
<path d="M55.3729 249.817H3.10629C2.65244 249.825 2.20252 249.731 1.78928 249.541C1.37604 249.351 1.00989 249.071 0.717504 248.72C0.425121 248.37 0.213864 247.957 0.0991208 247.514C-0.0156223 247.07 -0.0309571 246.606 0.0542236 246.156C0.109777 245.918 0.211675 245.693 0.353982 245.496C0.353982 245.496 13.625 226.229 18.2304 226.229C22.8357 226.229 63.0576 226.642 69.5705 226.697C70.1391 226.698 70.696 226.86 71.1783 227.165C78.0999 231.651 131.457 265.946 142.03 265.038H232.91C233.734 265.038 234.525 265.368 235.107 265.957C235.69 266.545 236.017 267.343 236.017 268.175V286.616L82.6235 287.222C82.0686 287.214 81.5254 287.06 81.0475 286.775C80.5695 286.491 80.1735 286.085 79.8984 285.598L61.3135 251.881C61.1197 251.516 60.8501 251.196 60.5233 250.945C59.7827 250.42 58.9455 250.049 58.061 249.855C57.1765 249.662 56.2625 249.648 55.3729 249.817Z" fill="white"/>
<path d="M55.264 322.317H3.13365C2.67753 322.305 2.22449 322.395 1.80785 322.58C1.39121 322.765 1.02157 323.041 0.726143 323.387C0.430712 323.733 0.217005 324.141 0.100743 324.58C-0.0155199 325.019 -0.0313769 325.478 0.0543381 325.925C0.109891 326.159 0.211779 326.381 0.354086 326.576C0.354086 326.576 13.6524 345.563 18.2305 345.563C22.8086 345.563 63.0577 345.156 69.5705 345.102C70.1392 345.1 70.696 344.941 71.1783 344.641C78.1 340.22 131.457 306.422 142.03 307.29H232.91C233.73 307.29 234.516 306.968 235.098 306.393C235.679 305.819 236.01 305.04 236.017 304.224V286.051L82.7598 285.454C82.2032 285.453 81.6566 285.601 81.1773 285.883C80.6979 286.164 80.3033 286.569 80.0348 287.054L61.4226 320.283C61.2287 320.643 60.9592 320.957 60.6323 321.205C59.8615 321.746 58.9874 322.124 58.064 322.315C57.1406 322.506 56.1877 322.507 55.264 322.317Z" fill="white"/>
<path d="M418.525 321.975H470.668C471.124 321.963 471.577 322.054 471.994 322.242C472.411 322.43 472.78 322.71 473.076 323.061C473.371 323.412 473.585 323.826 473.701 324.271C473.818 324.717 473.834 325.183 473.748 325.636C473.692 325.874 473.59 326.099 473.448 326.296C473.448 326.296 460.147 345.563 455.568 345.563C450.988 345.563 410.73 345.15 404.216 345.095C403.641 345.105 403.078 344.932 402.607 344.6C395.684 340.141 342.315 305.846 331.74 306.727H240.892C240.068 306.727 239.278 306.396 238.695 305.808C238.113 305.219 237.785 304.421 237.785 303.589V285.065L391.214 284.57C391.771 284.569 392.318 284.72 392.797 285.005C393.276 285.291 393.671 285.702 393.94 286.194L412.556 319.911C412.75 320.276 413.02 320.596 413.347 320.847C414.094 321.37 414.936 321.739 415.824 321.933C416.713 322.127 417.631 322.141 418.525 321.975V321.975Z" fill="white"/>
<path d="M418.557 249.517H470.67C471.126 249.529 471.578 249.439 471.995 249.254C472.411 249.068 472.781 248.792 473.076 248.445C473.372 248.098 473.585 247.69 473.702 247.25C473.818 246.81 473.834 246.35 473.748 245.903C473.692 245.668 473.59 245.446 473.448 245.251C473.448 245.251 460.155 226.229 455.578 226.229C451.002 226.229 410.766 226.664 404.256 226.718C403.687 226.72 403.131 226.88 402.649 227.18C395.729 231.609 342.364 265.468 331.822 264.571H240.891C240.067 264.571 239.277 264.898 238.695 265.479C238.112 266.06 237.785 266.847 237.785 267.669V285.876L391.098 286.338C391.653 286.347 392.2 286.205 392.68 285.927C393.16 285.65 393.555 285.246 393.822 284.761L412.51 251.555C412.704 251.194 412.973 250.879 413.3 250.631C414.054 250.098 414.909 249.724 415.813 249.532C416.717 249.341 417.651 249.335 418.557 249.517Z" fill="white"/>
<path d="M250.16 68H236.017V433.075H250.16V68Z" fill="white"/>
<path d="M392.478 277.498H81.3242V296.061H392.478V277.498Z" fill="white"/>
<path d="M259.884 551.526H232.481V585.116H259.884V551.526Z" fill="white"/>
<path d="M711.576 283.88H639.576L628.632 317H569.304L643.32 113.96H708.408L782.136 317H722.52L711.576 283.88ZM697.464 240.68L675.576 175.016L653.976 240.68H697.464ZM855.83 113.96V231.752C855.83 242.696 858.326 251.144 863.318 257.096C868.502 263.048 876.278 266.024 886.646 266.024C897.014 266.024 904.79 263.048 909.974 257.096C915.35 250.952 918.038 242.504 918.038 231.752V113.96H974.486V231.752C974.486 250.376 970.55 266.312 962.678 279.56C954.806 292.616 944.054 302.504 930.422 309.224C916.982 315.752 902.006 319.016 885.494 319.016C868.982 319.016 854.198 315.752 841.142 309.224C828.278 302.504 818.102 292.616 810.614 279.56C803.318 266.504 799.67 250.568 799.67 231.752V113.96H855.83ZM1158.49 113.96V158.888H1104.35V317H1047.9V158.888H994.334V113.96H1158.49ZM1276.72 319.016C1257.71 319.016 1240.24 314.6 1224.31 305.768C1208.37 296.744 1195.7 284.36 1186.29 268.616C1177.07 252.68 1172.47 234.728 1172.47 214.76C1172.47 194.792 1177.07 176.936 1186.29 161.192C1195.7 145.256 1208.37 132.872 1224.31 124.04C1240.24 115.208 1257.71 110.792 1276.72 110.792C1295.92 110.792 1313.39 115.208 1329.14 124.04C1345.07 132.872 1357.65 145.256 1366.87 161.192C1376.08 176.936 1380.69 194.792 1380.69 214.76C1380.69 234.728 1376.08 252.68 1366.87 268.616C1357.65 284.36 1345.07 296.744 1329.14 305.768C1313.2 314.6 1295.73 319.016 1276.72 319.016ZM1276.72 266.6C1291.12 266.6 1302.45 261.896 1310.71 252.488C1319.15 243.08 1323.38 230.504 1323.38 214.76C1323.38 198.632 1319.15 185.96 1310.71 176.744C1302.45 167.336 1291.12 162.632 1276.72 162.632C1262.13 162.632 1250.71 167.336 1242.45 176.744C1234.19 185.96 1230.07 198.632 1230.07 214.76C1230.07 230.696 1234.19 243.368 1242.45 252.776C1250.71 261.992 1262.13 266.6 1276.72 266.6ZM1472.59 115.688C1494.87 115.688 1513.97 119.72 1529.91 127.784C1545.84 135.848 1558.03 147.464 1566.48 162.632C1574.93 177.8 1579.15 195.848 1579.15 216.776C1579.15 237.512 1574.93 255.464 1566.48 270.632C1558.03 285.608 1545.84 297.128 1529.91 305.192C1513.97 313.064 1494.87 317 1472.59 317H1412.98V115.688H1472.59ZM1472.59 300.296C1500.63 300.296 1521.94 293 1536.53 278.408C1551.31 263.624 1558.71 243.08 1558.71 216.776C1558.71 190.28 1551.31 169.64 1536.53 154.856C1521.94 139.88 1500.63 132.392 1472.59 132.392H1433.14V300.296H1472.59ZM1706.75 319.016C1688.13 319.016 1671.23 314.696 1656.07 306.056C1640.9 297.224 1628.9 285.032 1620.07 269.48C1611.43 253.736 1607.11 235.976 1607.11 216.2C1607.11 196.424 1611.43 178.76 1620.07 163.208C1628.9 147.464 1640.9 135.272 1656.07 126.632C1671.23 117.8 1688.13 113.384 1706.75 113.384C1725.57 113.384 1742.56 117.8 1757.73 126.632C1772.9 135.272 1784.8 147.464 1793.44 163.208C1802.08 178.76 1806.4 196.424 1806.4 216.2C1806.4 235.976 1802.08 253.736 1793.44 269.48C1784.8 285.032 1772.9 297.224 1757.73 306.056C1742.56 314.696 1725.57 319.016 1706.75 319.016ZM1706.75 301.448C1721.73 301.448 1735.17 297.992 1747.07 291.08C1758.98 284.168 1768.39 274.28 1775.3 261.416C1782.21 248.36 1785.67 233.288 1785.67 216.2C1785.67 199.112 1782.21 184.136 1775.3 171.272C1768.39 158.408 1758.98 148.52 1747.07 141.608C1735.17 134.696 1721.73 131.24 1706.75 131.24C1691.78 131.24 1678.34 134.696 1666.43 141.608C1654.53 148.52 1645.12 158.408 1638.21 171.272C1631.3 184.136 1627.84 199.112 1627.84 216.2C1627.84 233.288 1631.3 248.36 1638.21 261.416C1645.12 274.28 1654.53 284.168 1666.43 291.08C1678.34 297.992 1691.78 301.448 1706.75 301.448ZM1834.07 216.2C1834.07 196.424 1838.39 178.76 1847.03 163.208C1855.67 147.464 1867.48 135.272 1882.46 126.632C1897.43 117.8 1914.14 113.384 1932.57 113.384C1955.03 113.384 1974.23 118.76 1990.17 129.512C2006.3 140.072 2018.01 155.048 2025.31 174.44H2001.69C1995.93 160.808 1987.1 150.152 1975.19 142.472C1963.48 134.792 1949.27 130.952 1932.57 130.952C1917.79 130.952 1904.44 134.408 1892.54 141.32C1880.83 148.232 1871.61 158.216 1864.89 171.272C1858.17 184.136 1854.81 199.112 1854.81 216.2C1854.81 233.288 1858.17 248.264 1864.89 261.128C1871.61 273.992 1880.83 283.88 1892.54 290.792C1904.44 297.704 1917.79 301.16 1932.57 301.16C1949.27 301.16 1963.48 297.416 1975.19 289.928C1987.1 282.248 1995.93 271.688 2001.69 258.248H2025.31C2018.01 277.448 2006.3 292.328 1990.17 302.888C1974.04 313.448 1954.84 318.728 1932.57 318.728C1914.14 318.728 1897.43 314.408 1882.46 305.768C1867.48 296.936 1855.67 284.744 1847.03 269.192C1838.39 253.64 1834.07 235.976 1834.07 216.2ZM2183.27 115.688V132.392H2127.4V317H2107.24V132.392H2051.08V115.688H2183.27ZM2305.53 319.016C2286.91 319.016 2270.01 314.696 2254.85 306.056C2239.68 297.224 2227.68 285.032 2218.85 269.48C2210.21 253.736 2205.89 235.976 2205.89 216.2C2205.89 196.424 2210.21 178.76 2218.85 163.208C2227.68 147.464 2239.68 135.272 2254.85 126.632C2270.01 117.8 2286.91 113.384 2305.53 113.384C2324.35 113.384 2341.34 117.8 2356.51 126.632C2371.68 135.272 2383.58 147.464 2392.22 163.208C2400.86 178.76 2405.18 196.424 2405.18 216.2C2405.18 235.976 2400.86 253.736 2392.22 269.48C2383.58 285.032 2371.68 297.224 2356.51 306.056C2341.34 314.696 2324.35 319.016 2305.53 319.016ZM2305.53 301.448C2320.51 301.448 2333.95 297.992 2345.85 291.08C2357.76 284.168 2367.17 274.28 2374.08 261.416C2380.99 248.36 2384.45 233.288 2384.45 216.2C2384.45 199.112 2380.99 184.136 2374.08 171.272C2367.17 158.408 2357.76 148.52 2345.85 141.608C2333.95 134.696 2320.51 131.24 2305.53 131.24C2290.56 131.24 2277.12 134.696 2265.21 141.608C2253.31 148.52 2243.9 158.408 2236.99 171.272C2230.08 184.136 2226.62 199.112 2226.62 216.2C2226.62 233.288 2230.08 248.36 2236.99 261.416C2243.9 274.28 2253.31 284.168 2265.21 291.08C2277.12 297.992 2290.56 301.448 2305.53 301.448ZM2549.21 317L2499.38 232.904H2462.23V317H2442.07V115.688H2502.55C2525.02 115.688 2542.01 121.064 2553.53 131.816C2565.24 142.568 2571.1 156.68 2571.1 174.152C2571.1 188.744 2566.87 201.224 2558.42 211.592C2550.17 221.768 2537.88 228.392 2521.56 231.464L2573.4 317H2549.21ZM2462.23 216.488H2502.84C2518.58 216.488 2530.39 212.648 2538.26 204.968C2546.33 197.288 2550.36 187.016 2550.36 174.152C2550.36 160.904 2546.52 150.728 2538.84 143.624C2531.16 136.328 2519.06 132.68 2502.55 132.68H2462.23V216.488Z" fill="white"/>
<path d="M675.176 511.811C675.176 523.119 671.074 531.938 662.871 538.266C654.668 544.594 643.535 547.758 629.473 547.758C614.238 547.758 602.52 545.795 594.316 541.869V527.455C599.59 529.682 605.332 531.439 611.543 532.729C617.754 534.018 623.906 534.662 630 534.662C639.961 534.662 647.461 532.787 652.5 529.037C657.539 525.229 660.059 519.955 660.059 513.217C660.059 508.764 659.15 505.131 657.334 502.318C655.576 499.447 652.588 496.811 648.369 494.408C644.209 492.006 637.852 489.281 629.297 486.234C617.344 481.957 608.789 476.889 603.633 471.029C598.535 465.17 595.986 457.523 595.986 448.09C595.986 438.188 599.707 430.307 607.148 424.447C614.59 418.588 624.434 415.658 636.68 415.658C649.453 415.658 661.201 418.002 671.924 422.689L667.266 435.697C656.66 431.244 646.348 429.018 636.328 429.018C628.418 429.018 622.236 430.717 617.783 434.115C613.33 437.514 611.104 442.23 611.104 448.266C611.104 452.719 611.924 456.381 613.564 459.252C615.205 462.064 617.959 464.672 621.826 467.074C625.752 469.418 631.729 472.025 639.756 474.896C653.232 479.701 662.49 484.857 667.529 490.365C672.627 495.873 675.176 503.021 675.176 511.811ZM778.486 546H706.855V417.504H778.486V430.775H721.796V472.172H775.058V485.355H721.796V532.641H778.486V546ZM827.392 492.562V546H812.45V417.504H847.695C863.456 417.504 875.087 420.521 882.587 426.557C890.146 432.592 893.925 441.674 893.925 453.803C893.925 470.795 885.312 482.279 868.085 488.256L902.978 546H885.312L854.198 492.562H827.392ZM827.392 479.73H847.87C858.417 479.73 866.152 477.65 871.073 473.49C875.995 469.271 878.456 462.973 878.456 454.594C878.456 446.098 875.937 439.975 870.898 436.225C865.917 432.475 857.89 430.6 846.816 430.6H827.392V479.73ZM1002.51 417.504H1018.59L972.274 546H957.509L911.454 417.504H927.274L956.805 500.648C960.204 510.199 962.899 519.486 964.891 528.51C967.001 519.018 969.755 509.555 973.153 500.121L1002.51 417.504ZM1041.75 546V417.504H1056.69V546H1041.75ZM1152.44 429.018C1138.32 429.018 1127.16 433.734 1118.95 443.168C1110.81 452.543 1106.74 465.404 1106.74 481.752C1106.74 498.568 1110.66 511.576 1118.51 520.775C1126.42 529.916 1137.67 534.486 1152.26 534.486C1161.23 534.486 1171.45 532.875 1182.94 529.652V542.748C1174.03 546.088 1163.04 547.758 1149.98 547.758C1131.05 547.758 1116.43 542.016 1106.12 530.531C1095.87 519.047 1090.74 502.729 1090.74 481.576C1090.74 468.334 1093.2 456.732 1098.12 446.771C1103.1 436.811 1110.25 429.135 1119.57 423.744C1128.94 418.354 1139.96 415.658 1152.62 415.658C1166.09 415.658 1177.87 418.119 1187.95 423.041L1181.62 435.873C1171.89 431.303 1162.17 429.018 1152.44 429.018ZM1288.01 546H1216.37V417.504H1288.01V430.775H1231.32V472.172H1284.58V485.355H1231.32V532.641H1288.01V546ZM1430.99 546L1387.4 432.094H1386.7C1387.52 441.117 1387.93 451.84 1387.93 464.262V546H1374.13V417.504H1396.63L1437.32 523.5H1438.02L1479.07 417.504H1501.39V546H1486.45V463.207C1486.45 453.715 1486.86 443.402 1487.68 432.27H1486.98L1443.03 546H1430.99ZM1622.9 546L1606.9 505.131H1555.4L1539.58 546H1524.46L1575.26 416.977H1587.83L1638.37 546H1622.9ZM1602.24 491.684L1587.3 451.869C1585.37 446.83 1583.38 440.648 1581.32 433.324C1580.04 438.949 1578.19 445.131 1575.79 451.869L1560.67 491.684H1602.24ZM1764 480.521C1764 501.732 1758.23 517.963 1746.69 529.213C1735.2 540.404 1718.65 546 1697.03 546H1661.43V417.504H1700.81C1720.79 417.504 1736.31 423.041 1747.39 434.115C1758.46 445.189 1764 460.658 1764 480.521ZM1748.18 481.049C1748.18 464.291 1743.96 451.664 1735.52 443.168C1727.14 434.672 1714.66 430.424 1698.08 430.424H1676.37V533.08H1694.57C1712.38 533.08 1725.77 528.715 1734.73 519.984C1743.7 511.195 1748.18 498.217 1748.18 481.049ZM1869.77 546H1798.14V417.504H1869.77V430.775H1813.08V472.172H1866.34V485.355H1813.08V532.641H1869.77V546ZM2028.4 511.811C2028.4 523.119 2024.3 531.938 2016.1 538.266C2007.9 544.594 1996.76 547.758 1982.7 547.758C1967.47 547.758 1955.75 545.795 1947.54 541.869V527.455C1952.82 529.682 1958.56 531.439 1964.77 532.729C1970.98 534.018 1977.13 534.662 1983.23 534.662C1993.19 534.662 2000.69 532.787 2005.73 529.037C2010.77 525.229 2013.29 519.955 2013.29 513.217C2013.29 508.764 2012.38 505.131 2010.56 502.318C2008.8 499.447 2005.82 496.811 2001.6 494.408C1997.44 492.006 1991.08 489.281 1982.52 486.234C1970.57 481.957 1962.02 476.889 1956.86 471.029C1951.76 465.17 1949.21 457.523 1949.21 448.09C1949.21 438.188 1952.93 430.307 1960.38 424.447C1967.82 418.588 1977.66 415.658 1989.91 415.658C2002.68 415.658 2014.43 418.002 2025.15 422.689L2020.49 435.697C2009.89 431.244 1999.57 429.018 1989.56 429.018C1981.65 429.018 1975.46 430.717 1971.01 434.115C1966.56 437.514 1964.33 442.23 1964.33 448.266C1964.33 452.719 1965.15 456.381 1966.79 459.252C1968.43 462.064 1971.19 464.672 1975.05 467.074C1978.98 469.418 1984.96 472.025 1992.98 474.896C2006.46 479.701 2015.72 484.857 2020.76 490.365C2025.85 495.873 2028.4 503.021 2028.4 511.811ZM2116.95 546L2073.35 432.094H2072.65C2073.47 441.117 2073.88 451.84 2073.88 464.262V546H2060.08V417.504H2082.58L2123.28 523.5H2123.98L2165.02 417.504H2187.35V546H2172.41V463.207C2172.41 453.715 2172.82 443.402 2173.64 432.27H2172.93L2128.99 546H2116.95ZM2308.85 546L2292.86 505.131H2241.35L2225.53 546H2210.41L2261.21 416.977H2273.78L2324.32 546H2308.85ZM2288.2 491.684L2273.26 451.869C2271.32 446.83 2269.33 440.648 2267.28 433.324C2265.99 438.949 2264.14 445.131 2261.74 451.869L2246.62 491.684H2288.2ZM2362.33 492.562V546H2347.39V417.504H2382.63C2398.39 417.504 2410.02 420.521 2417.52 426.557C2425.08 432.592 2428.86 441.674 2428.86 453.803C2428.86 470.795 2420.25 482.279 2403.02 488.256L2437.91 546H2420.25L2389.13 492.562H2362.33ZM2362.33 479.73H2382.81C2393.35 479.73 2401.09 477.65 2406.01 473.49C2410.93 469.271 2413.39 462.973 2413.39 454.594C2413.39 446.098 2410.87 439.975 2405.83 436.225C2400.85 432.475 2392.83 430.6 2381.75 430.6H2362.33V479.73ZM2503.61 546H2488.67V430.775H2447.97V417.504H2544.3V430.775H2503.61V546Z" fill="white"/>
</svg>
