<svg width="725" height="145" viewBox="0 0 725 145" fill="none" xmlns="http://www.w3.org/2000/svg">
<path d="M362.5 0L378.777 50.0963H431.452L388.837 81.0575L405.114 131.154L362.5 100.193L319.886 131.154L336.163 81.0575L293.548 50.0963H346.223L362.5 0Z" fill="#FF6600"/>
<path d="M507.5 0L523.777 50.0963H576.452L533.837 81.0575L550.114 131.154L507.5 100.193L464.886 131.154L481.163 81.0575L438.548 50.0963H491.223L507.5 0Z" fill="#FF6600"/>
<path d="M652.5 1.61802L668.302 50.2508L668.414 50.5963H668.777H719.913L678.543 80.653L678.249 80.8665L678.362 81.212L694.163 129.845L652.794 99.788L652.5 99.5745L652.206 99.788L610.837 129.845L626.638 81.212L626.751 80.8665L626.457 80.653L585.087 50.5963H636.223H636.586L636.698 50.2508L652.5 1.61802Z" stroke="#FF6600"/>
<path d="M217.5 0L233.777 50.0963H286.452L243.837 81.0575L260.114 131.154L217.5 100.193L174.886 131.154L191.163 81.0575L148.548 50.0963H201.223L217.5 0Z" fill="#FF6600"/>
<path d="M72.5 0L88.7773 50.0963H141.452L98.8372 81.0575L115.114 131.154L72.5 100.193L29.8856 131.154L46.1628 81.0575L3.5484 50.0963H56.2227L72.5 0Z" fill="#FF6600"/>
</svg>
