<svg width="1128" height="712" viewBox="0 0 1128 712" fill="none" xmlns="http://www.w3.org/2000/svg">
<g clip-path="url(#clip0)">
<path d="M239.149 424.111C238.677 423.584 221.681 424.319 206.89 440.373C192.099 456.412 194.375 474.81 194.708 475.282C195.041 475.754 215.798 476.489 229.048 457.827C242.299 439.165 239.621 424.652 239.149 424.111V424.111ZM285.131 586.906C284.465 585.574 252.872 569.785 255.813 539.426C258.755 509.054 279.054 500.729 279.373 499.827C279.692 498.925 271.089 488.866 261.974 483.774C255.281 480.183 247.873 478.127 240.287 477.752C238.788 477.71 233.585 476.434 222.888 479.361C215.839 481.29 199.952 487.534 195.582 487.783C191.197 488.033 178.155 480.541 164.127 478.557C155.15 476.822 145.632 480.374 138.819 483.108C132.02 485.827 119.089 493.569 110.042 514.146C100.996 534.709 105.727 567.287 109.113 577.416C112.498 587.531 117.785 604.111 126.776 616.21C134.768 629.863 145.368 639.34 149.794 642.559C154.22 645.778 166.708 647.915 175.366 643.489C182.331 639.215 194.902 636.759 199.869 636.94C204.822 637.12 214.59 639.076 224.594 644.418C232.517 647.152 240.009 646.014 247.516 642.961C255.022 639.895 265.886 628.268 278.568 604.694C283.383 593.733 285.575 587.808 285.131 586.906V586.906Z" fill="white"/>
<path d="M239.149 424.111C238.677 423.584 221.681 424.319 206.89 440.373C192.099 456.412 194.375 474.81 194.708 475.282C195.041 475.754 215.798 476.489 229.048 457.827C242.299 439.165 239.621 424.652 239.149 424.111V424.111ZM285.131 586.906C284.465 585.574 252.872 569.785 255.813 539.426C258.755 509.054 279.054 500.729 279.373 499.827C279.692 498.925 271.089 488.866 261.974 483.774C255.281 480.183 247.873 478.127 240.287 477.752C238.788 477.71 233.585 476.434 222.888 479.361C215.839 481.29 199.952 487.534 195.582 487.783C191.197 488.033 178.155 480.541 164.127 478.557C155.15 476.822 145.632 480.374 138.819 483.108C132.02 485.827 119.089 493.569 110.042 514.146C100.996 534.709 105.727 567.287 109.113 577.416C112.498 587.531 117.785 604.111 126.776 616.21C134.768 629.863 145.368 639.34 149.794 642.559C154.22 645.778 166.708 647.915 175.366 643.489C182.331 639.215 194.902 636.759 199.869 636.94C204.822 637.12 214.59 639.076 224.594 644.418C232.517 647.152 240.009 646.014 247.516 642.961C255.022 639.895 265.886 628.268 278.568 604.694C283.383 593.733 285.575 587.808 285.131 586.906V586.906Z" fill="white"/>
</g>
<path d="M110 74.9991V257.001C110.001 257.396 110.119 257.782 110.338 258.11C110.557 258.438 110.868 258.694 111.232 258.846C111.596 258.998 111.996 259.039 112.383 258.963C112.77 258.888 113.126 258.7 113.407 258.423L208 166.005L113.407 73.5773C113.126 73.3001 112.77 73.1121 112.383 73.0368C111.996 72.9615 111.596 73.0023 111.232 73.1542C110.868 73.306 110.557 73.5621 110.338 73.8903C110.119 74.2185 110.001 74.6042 110 74.9991V74.9991Z" fill="white"/>
<path d="M248 128.054L129.029 62.2991L128.955 62.2572C126.905 61.1408 124.958 63.9225 126.636 65.5412L219.896 155L248 128.054Z" fill="white"/>
<path d="M126.642 266.459C124.954 268.078 126.901 270.859 128.96 269.743L129.034 269.701L248 203.953L219.895 177L126.642 266.459Z" fill="white"/>
<path d="M296.245 154.369L263.133 136L232 166.007L263.133 196L296.245 177.645C305.252 172.631 305.252 159.383 296.245 154.369Z" fill="white"/>
<rect x="6" y="6" width="1116" height="320" rx="66" stroke="white" stroke-width="12"/>
<rect x="6" y="386" width="1116" height="320" rx="66" stroke="white" stroke-width="12"/>
<path d="M378.164 108.5C378.164 103.693 379.237 99.4 381.384 95.62C383.577 91.7933 386.541 88.83 390.274 86.73C394.054 84.5833 398.277 83.51 402.944 83.51C408.404 83.51 413.187 84.91 417.294 87.71C421.401 90.51 424.271 94.3833 425.904 99.33H414.634C413.514 96.9967 411.927 95.2467 409.874 94.08C407.867 92.9133 405.534 92.33 402.874 92.33C400.027 92.33 397.484 93.0067 395.244 94.36C393.051 95.6667 391.324 97.5333 390.064 99.96C388.851 102.387 388.244 105.233 388.244 108.5C388.244 111.72 388.851 114.567 390.064 117.04C391.324 119.467 393.051 121.357 395.244 122.71C397.484 124.017 400.027 124.67 402.874 124.67C405.534 124.67 407.867 124.087 409.874 122.92C411.927 121.707 413.514 119.933 414.634 117.6H425.904C424.271 122.593 421.401 126.49 417.294 129.29C413.234 132.043 408.451 133.42 402.944 133.42C398.277 133.42 394.054 132.37 390.274 130.27C386.541 128.123 383.577 125.16 381.384 121.38C379.237 117.6 378.164 113.307 378.164 108.5ZM451.494 133.63C447.761 133.63 444.401 132.813 441.414 131.18C438.428 129.5 436.071 127.143 434.344 124.11C432.664 121.077 431.824 117.577 431.824 113.61C431.824 109.643 432.688 106.143 434.414 103.11C436.188 100.077 438.591 97.7433 441.624 96.11C444.658 94.43 448.041 93.59 451.774 93.59C455.508 93.59 458.891 94.43 461.924 96.11C464.958 97.7433 467.338 100.077 469.064 103.11C470.838 106.143 471.724 109.643 471.724 113.61C471.724 117.577 470.814 121.077 468.994 124.11C467.221 127.143 464.794 129.5 461.714 131.18C458.681 132.813 455.274 133.63 451.494 133.63ZM451.494 125.09C453.268 125.09 454.924 124.67 456.464 123.83C458.051 122.943 459.311 121.637 460.244 119.91C461.178 118.183 461.644 116.083 461.644 113.61C461.644 109.923 460.664 107.1 458.704 105.14C456.791 103.133 454.434 102.13 451.634 102.13C448.834 102.13 446.478 103.133 444.564 105.14C442.698 107.1 441.764 109.923 441.764 113.61C441.764 117.297 442.674 120.143 444.494 122.15C446.361 124.11 448.694 125.09 451.494 125.09ZM527.073 93.66C531.833 93.66 535.66 95.13 538.553 98.07C541.493 100.963 542.963 105.023 542.963 110.25V133H533.163V111.58C533.163 108.547 532.393 106.237 530.853 104.65C529.313 103.017 527.213 102.2 524.553 102.2C521.893 102.2 519.77 103.017 518.183 104.65C516.643 106.237 515.873 108.547 515.873 111.58V133H506.073V111.58C506.073 108.547 505.303 106.237 503.763 104.65C502.223 103.017 500.123 102.2 497.463 102.2C494.756 102.2 492.61 103.017 491.023 104.65C489.483 106.237 488.713 108.547 488.713 111.58V133H478.913V94.22H488.713V98.91C489.973 97.2767 491.583 95.9933 493.543 95.06C495.55 94.1267 497.743 93.66 500.123 93.66C503.156 93.66 505.863 94.3133 508.243 95.62C510.623 96.88 512.466 98.7 513.773 101.08C515.033 98.84 516.853 97.0433 519.233 95.69C521.66 94.3367 524.273 93.66 527.073 93.66ZM557.233 89.6C555.506 89.6 554.059 89.0633 552.893 87.99C551.773 86.87 551.213 85.4933 551.213 83.86C551.213 82.2267 551.773 80.8733 552.893 79.8C554.059 78.68 555.506 78.12 557.233 78.12C558.959 78.12 560.383 78.68 561.503 79.8C562.669 80.8733 563.253 82.2267 563.253 83.86C563.253 85.4933 562.669 86.87 561.503 87.99C560.383 89.0633 558.959 89.6 557.233 89.6ZM562.063 94.22V133H552.263V94.22H562.063ZM593.235 93.66C597.855 93.66 601.588 95.13 604.435 98.07C607.282 100.963 608.705 105.023 608.705 110.25V133H598.905V111.58C598.905 108.5 598.135 106.143 596.595 104.51C595.055 102.83 592.955 101.99 590.295 101.99C587.588 101.99 585.442 102.83 583.855 104.51C582.315 106.143 581.545 108.5 581.545 111.58V133H571.745V94.22H581.545V99.05C582.852 97.37 584.508 96.0633 586.515 95.13C588.568 94.15 590.808 93.66 593.235 93.66ZM633.214 93.59C636.108 93.59 638.651 94.1733 640.844 95.34C643.038 96.46 644.764 97.93 646.024 99.75V94.22H655.894V133.28C655.894 136.873 655.171 140.07 653.724 142.87C652.278 145.717 650.108 147.957 647.214 149.59C644.321 151.27 640.821 152.11 636.714 152.11C631.208 152.11 626.681 150.827 623.134 148.26C619.634 145.693 617.651 142.193 617.184 137.76H626.914C627.428 139.533 628.524 140.933 630.204 141.96C631.931 143.033 634.008 143.57 636.434 143.57C639.281 143.57 641.591 142.707 643.364 140.98C645.138 139.3 646.024 136.733 646.024 133.28V127.26C644.764 129.08 643.014 130.597 640.774 131.81C638.581 133.023 636.061 133.63 633.214 133.63C629.948 133.63 626.961 132.79 624.254 131.11C621.548 129.43 619.401 127.073 617.814 124.04C616.274 120.96 615.504 117.437 615.504 113.47C615.504 109.55 616.274 106.073 617.814 103.04C619.401 100.007 621.524 97.6733 624.184 96.04C626.891 94.4067 629.901 93.59 633.214 93.59ZM646.024 113.61C646.024 111.23 645.558 109.2 644.624 107.52C643.691 105.793 642.431 104.487 640.844 103.6C639.258 102.667 637.554 102.2 635.734 102.2C633.914 102.2 632.234 102.643 630.694 103.53C629.154 104.417 627.894 105.723 626.914 107.45C625.981 109.13 625.514 111.137 625.514 113.47C625.514 115.803 625.981 117.857 626.914 119.63C627.894 121.357 629.154 122.687 630.694 123.62C632.281 124.553 633.961 125.02 635.734 125.02C637.554 125.02 639.258 124.577 640.844 123.69C642.431 122.757 643.691 121.45 644.624 119.77C645.558 118.043 646.024 115.99 646.024 113.61ZM699.015 133.49C695.609 133.49 692.529 132.907 689.775 131.74C687.069 130.573 684.922 128.893 683.335 126.7C681.749 124.507 680.932 121.917 680.885 118.93H691.385C691.525 120.937 692.225 122.523 693.485 123.69C694.792 124.857 696.565 125.44 698.805 125.44C701.092 125.44 702.889 124.903 704.195 123.83C705.502 122.71 706.155 121.263 706.155 119.49C706.155 118.043 705.712 116.853 704.825 115.92C703.939 114.987 702.819 114.263 701.465 113.75C700.159 113.19 698.339 112.583 696.005 111.93C692.832 110.997 690.242 110.087 688.235 109.2C686.275 108.267 684.572 106.89 683.125 105.07C681.725 103.203 681.025 100.73 681.025 97.65C681.025 94.7567 681.749 92.2367 683.195 90.09C684.642 87.9433 686.672 86.31 689.285 85.19C691.899 84.0233 694.885 83.44 698.245 83.44C703.285 83.44 707.369 84.6767 710.495 87.15C713.669 89.5767 715.419 92.9833 715.745 97.37H704.965C704.872 95.69 704.149 94.3133 702.795 93.24C701.489 92.12 699.739 91.56 697.545 91.56C695.632 91.56 694.092 92.05 692.925 93.03C691.805 94.01 691.245 95.4333 691.245 97.3C691.245 98.6067 691.665 99.7033 692.505 100.59C693.392 101.43 694.465 102.13 695.725 102.69C697.032 103.203 698.852 103.81 701.185 104.51C704.359 105.443 706.949 106.377 708.955 107.31C710.962 108.243 712.689 109.643 714.135 111.51C715.582 113.377 716.305 115.827 716.305 118.86C716.305 121.473 715.629 123.9 714.275 126.14C712.922 128.38 710.939 130.177 708.325 131.53C705.712 132.837 702.609 133.49 699.015 133.49ZM742.022 133.63C738.288 133.63 734.928 132.813 731.942 131.18C728.955 129.5 726.598 127.143 724.872 124.11C723.192 121.077 722.352 117.577 722.352 113.61C722.352 109.643 723.215 106.143 724.942 103.11C726.715 100.077 729.118 97.7433 732.152 96.11C735.185 94.43 738.568 93.59 742.302 93.59C746.035 93.59 749.418 94.43 752.452 96.11C755.485 97.7433 757.865 100.077 759.592 103.11C761.365 106.143 762.252 109.643 762.252 113.61C762.252 117.577 761.342 121.077 759.522 124.11C757.748 127.143 755.322 129.5 752.242 131.18C749.208 132.813 745.802 133.63 742.022 133.63ZM742.022 125.09C743.795 125.09 745.452 124.67 746.992 123.83C748.578 122.943 749.838 121.637 750.772 119.91C751.705 118.183 752.172 116.083 752.172 113.61C752.172 109.923 751.192 107.1 749.232 105.14C747.318 103.133 744.962 102.13 742.162 102.13C739.362 102.13 737.005 103.133 735.092 105.14C733.225 107.1 732.292 109.923 732.292 113.61C732.292 117.297 733.202 120.143 735.022 122.15C736.888 124.11 739.222 125.09 742.022 125.09ZM786.66 133.63C782.927 133.63 779.567 132.813 776.58 131.18C773.594 129.5 771.237 127.143 769.51 124.11C767.83 121.077 766.99 117.577 766.99 113.61C766.99 109.643 767.854 106.143 769.58 103.11C771.354 100.077 773.757 97.7433 776.79 96.11C779.824 94.43 783.207 93.59 786.94 93.59C790.674 93.59 794.057 94.43 797.09 96.11C800.124 97.7433 802.504 100.077 804.23 103.11C806.004 106.143 806.89 109.643 806.89 113.61C806.89 117.577 805.98 121.077 804.16 124.11C802.387 127.143 799.96 129.5 796.88 131.18C793.847 132.813 790.44 133.63 786.66 133.63ZM786.66 125.09C788.434 125.09 790.09 124.67 791.63 123.83C793.217 122.943 794.477 121.637 795.41 119.91C796.344 118.183 796.81 116.083 796.81 113.61C796.81 109.923 795.83 107.1 793.87 105.14C791.957 103.133 789.6 102.13 786.8 102.13C784 102.13 781.644 103.133 779.73 105.14C777.864 107.1 776.93 109.923 776.93 113.61C776.93 117.297 777.84 120.143 779.66 122.15C781.527 124.11 783.86 125.09 786.66 125.09ZM835.569 93.66C840.189 93.66 843.922 95.13 846.769 98.07C849.616 100.963 851.039 105.023 851.039 110.25V133H841.239V111.58C841.239 108.5 840.469 106.143 838.929 104.51C837.389 102.83 835.289 101.99 832.629 101.99C829.922 101.99 827.776 102.83 826.189 104.51C824.649 106.143 823.879 108.5 823.879 111.58V133H814.079V94.22H823.879V99.05C825.186 97.37 826.842 96.0633 828.849 95.13C830.902 94.15 833.142 93.66 835.569 93.66ZM888.448 102.27V121.03C888.448 122.337 888.751 123.293 889.358 123.9C890.011 124.46 891.085 124.74 892.578 124.74H897.128V133H890.968C882.708 133 878.578 128.987 878.578 120.96V102.27H873.958V94.22H878.578V84.63H888.448V94.22H897.128V102.27H888.448ZM921.397 133.63C917.663 133.63 914.303 132.813 911.317 131.18C908.33 129.5 905.973 127.143 904.247 124.11C902.567 121.077 901.727 117.577 901.727 113.61C901.727 109.643 902.59 106.143 904.317 103.11C906.09 100.077 908.493 97.7433 911.527 96.11C914.56 94.43 917.943 93.59 921.677 93.59C925.41 93.59 928.793 94.43 931.827 96.11C934.86 97.7433 937.24 100.077 938.967 103.11C940.74 106.143 941.627 109.643 941.627 113.61C941.627 117.577 940.717 121.077 938.897 124.11C937.123 127.143 934.697 129.5 931.617 131.18C928.583 132.813 925.177 133.63 921.397 133.63ZM921.397 125.09C923.17 125.09 924.827 124.67 926.367 123.83C927.953 122.943 929.213 121.637 930.147 119.91C931.08 118.183 931.547 116.083 931.547 113.61C931.547 109.923 930.567 107.1 928.607 105.14C926.693 103.133 924.337 102.13 921.537 102.13C918.737 102.13 916.38 103.133 914.467 105.14C912.6 107.1 911.667 109.923 911.667 113.61C911.667 117.297 912.577 120.143 914.397 122.15C916.263 124.11 918.597 125.09 921.397 125.09ZM976.905 102.27V121.03C976.905 122.337 977.208 123.293 977.815 123.9C978.468 124.46 979.542 124.74 981.035 124.74H985.585V133H979.425C971.165 133 967.035 128.987 967.035 120.96V102.27H962.415V94.22H967.035V84.63H976.905V94.22H985.585V102.27H976.905ZM1014.47 93.66C1017.41 93.66 1020.03 94.3133 1022.31 95.62C1024.6 96.88 1026.37 98.77 1027.63 101.29C1028.94 103.763 1029.59 106.75 1029.59 110.25V133H1019.79V111.58C1019.79 108.5 1019.02 106.143 1017.48 104.51C1015.94 102.83 1013.84 101.99 1011.18 101.99C1008.48 101.99 1006.33 102.83 1004.74 104.51C1003.2 106.143 1002.43 108.5 1002.43 111.58V133H992.634V81.2H1002.43V99.05C1003.69 97.37 1005.37 96.0633 1007.47 95.13C1009.57 94.15 1011.91 93.66 1014.47 93.66ZM1074.96 112.77C1074.96 114.17 1074.87 115.43 1074.68 116.55H1046.33C1046.57 119.35 1047.55 121.543 1049.27 123.13C1051 124.717 1053.12 125.51 1055.64 125.51C1059.28 125.51 1061.87 123.947 1063.41 120.82H1073.98C1072.86 124.553 1070.72 127.633 1067.54 130.06C1064.37 132.44 1060.47 133.63 1055.85 133.63C1052.12 133.63 1048.76 132.813 1045.77 131.18C1042.83 129.5 1040.52 127.143 1038.84 124.11C1037.21 121.077 1036.39 117.577 1036.39 113.61C1036.39 109.597 1037.21 106.073 1038.84 103.04C1040.48 100.007 1042.76 97.6733 1045.7 96.04C1048.64 94.4067 1052.03 93.59 1055.85 93.59C1059.54 93.59 1062.83 94.3833 1065.72 95.97C1068.66 97.5567 1070.93 99.82 1072.51 102.76C1074.15 105.653 1074.96 108.99 1074.96 112.77ZM1064.81 109.97C1064.77 107.45 1063.86 105.443 1062.08 103.95C1060.31 102.41 1058.14 101.64 1055.57 101.64C1053.15 101.64 1051.09 102.387 1049.41 103.88C1047.78 105.327 1046.78 107.357 1046.4 109.97H1064.81ZM490.608 206.152C489.072 203.336 486.96 201.192 484.272 199.72C481.584 198.248 478.448 197.512 474.864 197.512C470.896 197.512 467.376 198.408 464.304 200.2C461.232 201.992 458.832 204.552 457.104 207.88C455.376 211.208 454.512 215.048 454.512 219.4C454.512 223.88 455.376 227.784 457.104 231.112C458.896 234.44 461.36 237 464.496 238.792C467.632 240.584 471.28 241.48 475.44 241.48C480.56 241.48 484.752 240.136 488.016 237.448C491.28 234.696 493.424 230.888 494.448 226.024H471.408V215.752H507.696V227.464C506.8 232.136 504.88 236.456 501.936 240.424C498.992 244.392 495.184 247.592 490.512 250.024C485.904 252.392 480.72 253.576 474.96 253.576C468.496 253.576 462.64 252.136 457.392 249.256C452.208 246.312 448.112 242.248 445.104 237.064C442.16 231.88 440.688 225.992 440.688 219.4C440.688 212.808 442.16 206.92 445.104 201.736C448.112 196.488 452.208 192.424 457.392 189.544C462.64 186.6 468.464 185.128 474.864 185.128C482.416 185.128 488.976 186.984 494.544 190.696C500.112 194.344 503.952 199.496 506.064 206.152H490.608ZM541.256 253.864C536.136 253.864 531.528 252.744 527.432 250.504C523.336 248.2 520.104 244.968 517.736 240.808C515.432 236.648 514.28 231.848 514.28 226.408C514.28 220.968 515.464 216.168 517.832 212.008C520.264 207.848 523.56 204.648 527.72 202.408C531.88 200.104 536.52 198.952 541.64 198.952C546.76 198.952 551.4 200.104 555.56 202.408C559.72 204.648 562.984 207.848 565.352 212.008C567.784 216.168 569 220.968 569 226.408C569 231.848 567.752 236.648 565.256 240.808C562.824 244.968 559.496 248.2 555.272 250.504C551.112 252.744 546.44 253.864 541.256 253.864ZM541.256 242.152C543.688 242.152 545.96 241.576 548.072 240.424C550.248 239.208 551.976 237.416 553.256 235.048C554.536 232.68 555.176 229.8 555.176 226.408C555.176 221.352 553.832 217.48 551.144 214.792C548.52 212.04 545.288 210.664 541.448 210.664C537.608 210.664 534.376 212.04 531.752 214.792C529.192 217.48 527.912 221.352 527.912 226.408C527.912 231.464 529.16 235.368 531.656 238.12C534.216 240.808 537.416 242.152 541.256 242.152ZM602.474 253.864C597.354 253.864 592.746 252.744 588.65 250.504C584.554 248.2 581.322 244.968 578.954 240.808C576.65 236.648 575.498 231.848 575.498 226.408C575.498 220.968 576.682 216.168 579.05 212.008C581.482 207.848 584.778 204.648 588.938 202.408C593.098 200.104 597.738 198.952 602.858 198.952C607.978 198.952 612.618 200.104 616.778 202.408C620.938 204.648 624.202 207.848 626.57 212.008C629.002 216.168 630.218 220.968 630.218 226.408C630.218 231.848 628.97 236.648 626.474 240.808C624.042 244.968 620.714 248.2 616.49 250.504C612.33 252.744 607.658 253.864 602.474 253.864ZM602.474 242.152C604.906 242.152 607.178 241.576 609.29 240.424C611.466 239.208 613.194 237.416 614.474 235.048C615.754 232.68 616.394 229.8 616.394 226.408C616.394 221.352 615.05 217.48 612.362 214.792C609.738 212.04 606.506 210.664 602.666 210.664C598.826 210.664 595.594 212.04 592.97 214.792C590.41 217.48 589.13 221.352 589.13 226.408C589.13 231.464 590.378 235.368 592.874 238.12C595.434 240.808 598.634 242.152 602.474 242.152ZM660.909 198.952C664.877 198.952 668.365 199.752 671.373 201.352C674.381 202.888 676.749 204.904 678.477 207.4V199.816H692.013V253.384C692.013 258.312 691.021 262.696 689.037 266.536C687.053 270.44 684.077 273.512 680.109 275.752C676.141 278.056 671.341 279.208 665.709 279.208C658.157 279.208 651.949 277.448 647.085 273.928C642.285 270.408 639.565 265.608 638.925 259.528H652.269C652.973 261.96 654.477 263.88 656.781 265.288C659.149 266.76 661.997 267.496 665.325 267.496C669.229 267.496 672.397 266.312 674.829 263.944C677.261 261.64 678.477 258.12 678.477 253.384V245.128C676.749 247.624 674.349 249.704 671.277 251.368C668.269 253.032 664.813 253.864 660.909 253.864C656.429 253.864 652.333 252.712 648.621 250.408C644.909 248.104 641.965 244.872 639.789 240.712C637.677 236.488 636.621 231.656 636.621 226.216C636.621 220.84 637.677 216.072 639.789 211.912C641.965 207.752 644.877 204.552 648.525 202.312C652.237 200.072 656.365 198.952 660.909 198.952ZM678.477 226.408C678.477 223.144 677.837 220.36 676.557 218.056C675.277 215.688 673.549 213.896 671.373 212.68C669.197 211.4 666.861 210.76 664.365 210.76C661.869 210.76 659.565 211.368 657.453 212.584C655.341 213.8 653.613 215.592 652.269 217.96C650.989 220.264 650.349 223.016 650.349 226.216C650.349 229.416 650.989 232.232 652.269 234.664C653.613 237.032 655.341 238.856 657.453 240.136C659.629 241.416 661.933 242.056 664.365 242.056C666.861 242.056 669.197 241.448 671.373 240.232C673.549 238.952 675.277 237.16 676.557 234.856C677.837 232.488 678.477 229.672 678.477 226.408ZM718.58 181.96V253H705.14V181.96H718.58ZM781.298 225.256C781.298 227.176 781.17 228.904 780.914 230.44H742.034C742.354 234.28 743.698 237.288 746.066 239.464C748.434 241.64 751.346 242.728 754.802 242.728C759.794 242.728 763.346 240.584 765.458 236.296H779.954C778.418 241.416 775.474 245.64 771.122 248.968C766.77 252.232 761.426 253.864 755.09 253.864C749.97 253.864 745.362 252.744 741.266 250.504C737.234 248.2 734.066 244.968 731.762 240.808C729.522 236.648 728.402 231.848 728.402 226.408C728.402 220.904 729.522 216.072 731.762 211.912C734.002 207.752 737.138 204.552 741.17 202.312C745.202 200.072 749.842 198.952 755.09 198.952C760.146 198.952 764.658 200.04 768.626 202.216C772.658 204.392 775.762 207.496 777.938 211.528C780.178 215.496 781.298 220.072 781.298 225.256ZM767.378 221.416C767.314 217.96 766.066 215.208 763.634 213.16C761.202 211.048 758.226 209.992 754.706 209.992C751.378 209.992 748.562 211.016 746.258 213.064C744.018 215.048 742.642 217.832 742.13 221.416H767.378ZM862.847 206.728C862.847 210.312 861.983 213.672 860.255 216.808C858.591 219.944 855.935 222.472 852.287 224.392C848.703 226.312 844.159 227.272 838.655 227.272H827.423V253H813.983V185.992H838.655C843.839 185.992 848.255 186.888 851.903 188.68C855.551 190.472 858.271 192.936 860.063 196.072C861.919 199.208 862.847 202.76 862.847 206.728ZM838.079 216.424C841.791 216.424 844.543 215.592 846.335 213.928C848.127 212.2 849.023 209.8 849.023 206.728C849.023 200.2 845.375 196.936 838.079 196.936H827.423V216.424H838.079ZM885.83 181.96V253H872.39V181.96H885.83ZM895.652 226.216C895.652 220.84 896.708 216.072 898.82 211.912C900.996 207.752 903.908 204.552 907.556 202.312C911.268 200.072 915.396 198.952 919.94 198.952C923.908 198.952 927.364 199.752 930.308 201.352C933.316 202.952 935.716 204.968 937.508 207.4V199.816H951.044V253H937.508V245.224C935.78 247.72 933.38 249.8 930.308 251.464C927.3 253.064 923.812 253.864 919.844 253.864C915.364 253.864 911.268 252.712 907.556 250.408C903.908 248.104 900.996 244.872 898.82 240.712C896.708 236.488 895.652 231.656 895.652 226.216ZM937.508 226.408C937.508 223.144 936.868 220.36 935.588 218.056C934.308 215.688 932.58 213.896 930.404 212.68C928.228 211.4 925.892 210.76 923.396 210.76C920.9 210.76 918.596 211.368 916.484 212.584C914.372 213.8 912.644 215.592 911.3 217.96C910.02 220.264 909.38 223.016 909.38 226.216C909.38 229.416 910.02 232.232 911.3 234.664C912.644 237.032 914.372 238.856 916.484 240.136C918.66 241.416 920.964 242.056 923.396 242.056C925.892 242.056 928.228 241.448 930.404 240.232C932.58 238.952 934.308 237.16 935.588 234.856C936.868 232.488 937.508 229.672 937.508 226.408ZM1015.05 199.816L982.123 278.152H967.819L979.339 251.656L958.027 199.816H973.099L986.827 236.968L1000.75 199.816H1015.05Z" fill="#9b9b9b"/>
<path d="M371.664 492.5C371.664 487.693 372.737 483.4 374.884 479.62C377.077 475.793 380.041 472.83 383.774 470.73C387.554 468.583 391.777 467.51 396.444 467.51C401.904 467.51 406.687 468.91 410.794 471.71C414.901 474.51 417.771 478.383 419.404 483.33H408.134C407.014 480.997 405.427 479.247 403.374 478.08C401.367 476.913 399.034 476.33 396.374 476.33C393.527 476.33 390.984 477.007 388.744 478.36C386.551 479.667 384.824 481.533 383.564 483.96C382.351 486.387 381.744 489.233 381.744 492.5C381.744 495.72 382.351 498.567 383.564 501.04C384.824 503.467 386.551 505.357 388.744 506.71C390.984 508.017 393.527 508.67 396.374 508.67C399.034 508.67 401.367 508.087 403.374 506.92C405.427 505.707 407.014 503.933 408.134 501.6H419.404C417.771 506.593 414.901 510.49 410.794 513.29C406.734 516.043 401.951 517.42 396.444 517.42C391.777 517.42 387.554 516.37 383.774 514.27C380.041 512.123 377.077 509.16 374.884 505.38C372.737 501.6 371.664 497.307 371.664 492.5ZM444.994 517.63C441.261 517.63 437.901 516.813 434.914 515.18C431.928 513.5 429.571 511.143 427.844 508.11C426.164 505.077 425.324 501.577 425.324 497.61C425.324 493.643 426.188 490.143 427.914 487.11C429.688 484.077 432.091 481.743 435.124 480.11C438.158 478.43 441.541 477.59 445.274 477.59C449.008 477.59 452.391 478.43 455.424 480.11C458.458 481.743 460.838 484.077 462.564 487.11C464.338 490.143 465.224 493.643 465.224 497.61C465.224 501.577 464.314 505.077 462.494 508.11C460.721 511.143 458.294 513.5 455.214 515.18C452.181 516.813 448.774 517.63 444.994 517.63ZM444.994 509.09C446.768 509.09 448.424 508.67 449.964 507.83C451.551 506.943 452.811 505.637 453.744 503.91C454.678 502.183 455.144 500.083 455.144 497.61C455.144 493.923 454.164 491.1 452.204 489.14C450.291 487.133 447.934 486.13 445.134 486.13C442.334 486.13 439.978 487.133 438.064 489.14C436.198 491.1 435.264 493.923 435.264 497.61C435.264 501.297 436.174 504.143 437.994 506.15C439.861 508.11 442.194 509.09 444.994 509.09ZM520.573 477.66C525.333 477.66 529.16 479.13 532.053 482.07C534.993 484.963 536.463 489.023 536.463 494.25V517H526.663V495.58C526.663 492.547 525.893 490.237 524.353 488.65C522.813 487.017 520.713 486.2 518.053 486.2C515.393 486.2 513.27 487.017 511.683 488.65C510.143 490.237 509.373 492.547 509.373 495.58V517H499.573V495.58C499.573 492.547 498.803 490.237 497.263 488.65C495.723 487.017 493.623 486.2 490.963 486.2C488.256 486.2 486.11 487.017 484.523 488.65C482.983 490.237 482.213 492.547 482.213 495.58V517H472.413V478.22H482.213V482.91C483.473 481.277 485.083 479.993 487.043 479.06C489.05 478.127 491.243 477.66 493.623 477.66C496.656 477.66 499.363 478.313 501.743 479.62C504.123 480.88 505.966 482.7 507.273 485.08C508.533 482.84 510.353 481.043 512.733 479.69C515.16 478.337 517.773 477.66 520.573 477.66ZM550.733 473.6C549.006 473.6 547.559 473.063 546.393 471.99C545.273 470.87 544.713 469.493 544.713 467.86C544.713 466.227 545.273 464.873 546.393 463.8C547.559 462.68 549.006 462.12 550.733 462.12C552.459 462.12 553.883 462.68 555.003 463.8C556.169 464.873 556.753 466.227 556.753 467.86C556.753 469.493 556.169 470.87 555.003 471.99C553.883 473.063 552.459 473.6 550.733 473.6ZM555.563 478.22V517H545.763V478.22H555.563ZM586.735 477.66C591.355 477.66 595.088 479.13 597.935 482.07C600.782 484.963 602.205 489.023 602.205 494.25V517H592.405V495.58C592.405 492.5 591.635 490.143 590.095 488.51C588.555 486.83 586.455 485.99 583.795 485.99C581.088 485.99 578.942 486.83 577.355 488.51C575.815 490.143 575.045 492.5 575.045 495.58V517H565.245V478.22H575.045V483.05C576.352 481.37 578.008 480.063 580.015 479.13C582.068 478.15 584.308 477.66 586.735 477.66ZM626.714 477.59C629.608 477.59 632.151 478.173 634.344 479.34C636.538 480.46 638.264 481.93 639.524 483.75V478.22H649.394V517.28C649.394 520.873 648.671 524.07 647.224 526.87C645.778 529.717 643.608 531.957 640.714 533.59C637.821 535.27 634.321 536.11 630.214 536.11C624.708 536.11 620.181 534.827 616.634 532.26C613.134 529.693 611.151 526.193 610.684 521.76H620.414C620.928 523.533 622.024 524.933 623.704 525.96C625.431 527.033 627.508 527.57 629.934 527.57C632.781 527.57 635.091 526.707 636.864 524.98C638.638 523.3 639.524 520.733 639.524 517.28V511.26C638.264 513.08 636.514 514.597 634.274 515.81C632.081 517.023 629.561 517.63 626.714 517.63C623.448 517.63 620.461 516.79 617.754 515.11C615.048 513.43 612.901 511.073 611.314 508.04C609.774 504.96 609.004 501.437 609.004 497.47C609.004 493.55 609.774 490.073 611.314 487.04C612.901 484.007 615.024 481.673 617.684 480.04C620.391 478.407 623.401 477.59 626.714 477.59ZM639.524 497.61C639.524 495.23 639.058 493.2 638.124 491.52C637.191 489.793 635.931 488.487 634.344 487.6C632.758 486.667 631.054 486.2 629.234 486.2C627.414 486.2 625.734 486.643 624.194 487.53C622.654 488.417 621.394 489.723 620.414 491.45C619.481 493.13 619.014 495.137 619.014 497.47C619.014 499.803 619.481 501.857 620.414 503.63C621.394 505.357 622.654 506.687 624.194 507.62C625.781 508.553 627.461 509.02 629.234 509.02C631.054 509.02 632.758 508.577 634.344 507.69C635.931 506.757 637.191 505.45 638.124 503.77C639.058 502.043 639.524 499.99 639.524 497.61ZM692.515 517.49C689.109 517.49 686.029 516.907 683.275 515.74C680.569 514.573 678.422 512.893 676.835 510.7C675.249 508.507 674.432 505.917 674.385 502.93H684.885C685.025 504.937 685.725 506.523 686.985 507.69C688.292 508.857 690.065 509.44 692.305 509.44C694.592 509.44 696.389 508.903 697.695 507.83C699.002 506.71 699.655 505.263 699.655 503.49C699.655 502.043 699.212 500.853 698.325 499.92C697.439 498.987 696.319 498.263 694.965 497.75C693.659 497.19 691.839 496.583 689.505 495.93C686.332 494.997 683.742 494.087 681.735 493.2C679.775 492.267 678.072 490.89 676.625 489.07C675.225 487.203 674.525 484.73 674.525 481.65C674.525 478.757 675.249 476.237 676.695 474.09C678.142 471.943 680.172 470.31 682.785 469.19C685.399 468.023 688.385 467.44 691.745 467.44C696.785 467.44 700.869 468.677 703.995 471.15C707.169 473.577 708.919 476.983 709.245 481.37H698.465C698.372 479.69 697.649 478.313 696.295 477.24C694.989 476.12 693.239 475.56 691.045 475.56C689.132 475.56 687.592 476.05 686.425 477.03C685.305 478.01 684.745 479.433 684.745 481.3C684.745 482.607 685.165 483.703 686.005 484.59C686.892 485.43 687.965 486.13 689.225 486.69C690.532 487.203 692.352 487.81 694.685 488.51C697.859 489.443 700.449 490.377 702.455 491.31C704.462 492.243 706.189 493.643 707.635 495.51C709.082 497.377 709.805 499.827 709.805 502.86C709.805 505.473 709.129 507.9 707.775 510.14C706.422 512.38 704.439 514.177 701.825 515.53C699.212 516.837 696.109 517.49 692.515 517.49ZM735.522 517.63C731.788 517.63 728.428 516.813 725.442 515.18C722.455 513.5 720.098 511.143 718.372 508.11C716.692 505.077 715.852 501.577 715.852 497.61C715.852 493.643 716.715 490.143 718.442 487.11C720.215 484.077 722.618 481.743 725.652 480.11C728.685 478.43 732.068 477.59 735.802 477.59C739.535 477.59 742.918 478.43 745.952 480.11C748.985 481.743 751.365 484.077 753.092 487.11C754.865 490.143 755.752 493.643 755.752 497.61C755.752 501.577 754.842 505.077 753.022 508.11C751.248 511.143 748.822 513.5 745.742 515.18C742.708 516.813 739.302 517.63 735.522 517.63ZM735.522 509.09C737.295 509.09 738.952 508.67 740.492 507.83C742.078 506.943 743.338 505.637 744.272 503.91C745.205 502.183 745.672 500.083 745.672 497.61C745.672 493.923 744.692 491.1 742.732 489.14C740.818 487.133 738.462 486.13 735.662 486.13C732.862 486.13 730.505 487.133 728.592 489.14C726.725 491.1 725.792 493.923 725.792 497.61C725.792 501.297 726.702 504.143 728.522 506.15C730.388 508.11 732.722 509.09 735.522 509.09ZM780.16 517.63C776.427 517.63 773.067 516.813 770.08 515.18C767.094 513.5 764.737 511.143 763.01 508.11C761.33 505.077 760.49 501.577 760.49 497.61C760.49 493.643 761.354 490.143 763.08 487.11C764.854 484.077 767.257 481.743 770.29 480.11C773.324 478.43 776.707 477.59 780.44 477.59C784.174 477.59 787.557 478.43 790.59 480.11C793.624 481.743 796.004 484.077 797.73 487.11C799.504 490.143 800.39 493.643 800.39 497.61C800.39 501.577 799.48 505.077 797.66 508.11C795.887 511.143 793.46 513.5 790.38 515.18C787.347 516.813 783.94 517.63 780.16 517.63ZM780.16 509.09C781.934 509.09 783.59 508.67 785.13 507.83C786.717 506.943 787.977 505.637 788.91 503.91C789.844 502.183 790.31 500.083 790.31 497.61C790.31 493.923 789.33 491.1 787.37 489.14C785.457 487.133 783.1 486.13 780.3 486.13C777.5 486.13 775.144 487.133 773.23 489.14C771.364 491.1 770.43 493.923 770.43 497.61C770.43 501.297 771.34 504.143 773.16 506.15C775.027 508.11 777.36 509.09 780.16 509.09ZM829.069 477.66C833.689 477.66 837.422 479.13 840.269 482.07C843.116 484.963 844.539 489.023 844.539 494.25V517H834.739V495.58C834.739 492.5 833.969 490.143 832.429 488.51C830.889 486.83 828.789 485.99 826.129 485.99C823.422 485.99 821.276 486.83 819.689 488.51C818.149 490.143 817.379 492.5 817.379 495.58V517H807.579V478.22H817.379V483.05C818.686 481.37 820.342 480.063 822.349 479.13C824.402 478.15 826.642 477.66 829.069 477.66ZM881.948 486.27V505.03C881.948 506.337 882.251 507.293 882.858 507.9C883.511 508.46 884.585 508.74 886.078 508.74H890.628V517H884.468C876.208 517 872.078 512.987 872.078 504.96V486.27H867.458V478.22H872.078V468.63H881.948V478.22H890.628V486.27H881.948ZM914.897 517.63C911.163 517.63 907.803 516.813 904.817 515.18C901.83 513.5 899.473 511.143 897.747 508.11C896.067 505.077 895.227 501.577 895.227 497.61C895.227 493.643 896.09 490.143 897.817 487.11C899.59 484.077 901.993 481.743 905.027 480.11C908.06 478.43 911.443 477.59 915.177 477.59C918.91 477.59 922.293 478.43 925.327 480.11C928.36 481.743 930.74 484.077 932.467 487.11C934.24 490.143 935.127 493.643 935.127 497.61C935.127 501.577 934.217 505.077 932.397 508.11C930.623 511.143 928.197 513.5 925.117 515.18C922.083 516.813 918.677 517.63 914.897 517.63ZM914.897 509.09C916.67 509.09 918.327 508.67 919.867 507.83C921.453 506.943 922.713 505.637 923.647 503.91C924.58 502.183 925.047 500.083 925.047 497.61C925.047 493.923 924.067 491.1 922.107 489.14C920.193 487.133 917.837 486.13 915.037 486.13C912.237 486.13 909.88 487.133 907.967 489.14C906.1 491.1 905.167 493.923 905.167 497.61C905.167 501.297 906.077 504.143 907.897 506.15C909.763 508.11 912.097 509.09 914.897 509.09ZM970.405 486.27V505.03C970.405 506.337 970.708 507.293 971.315 507.9C971.968 508.46 973.042 508.74 974.535 508.74H979.085V517H972.925C964.665 517 960.535 512.987 960.535 504.96V486.27H955.915V478.22H960.535V468.63H970.405V478.22H979.085V486.27H970.405ZM1007.97 477.66C1010.91 477.66 1013.53 478.313 1015.81 479.62C1018.1 480.88 1019.87 482.77 1021.13 485.29C1022.44 487.763 1023.09 490.75 1023.09 494.25V517H1013.29V495.58C1013.29 492.5 1012.52 490.143 1010.98 488.51C1009.44 486.83 1007.34 485.99 1004.68 485.99C1001.98 485.99 999.83 486.83 998.244 488.51C996.704 490.143 995.934 492.5 995.934 495.58V517H986.134V465.2H995.934V483.05C997.194 481.37 998.874 480.063 1000.97 479.13C1003.07 478.15 1005.41 477.66 1007.97 477.66ZM1068.46 496.77C1068.46 498.17 1068.37 499.43 1068.18 500.55H1039.83C1040.07 503.35 1041.05 505.543 1042.77 507.13C1044.5 508.717 1046.62 509.51 1049.14 509.51C1052.78 509.51 1055.37 507.947 1056.91 504.82H1067.48C1066.36 508.553 1064.22 511.633 1061.04 514.06C1057.87 516.44 1053.97 517.63 1049.35 517.63C1045.62 517.63 1042.26 516.813 1039.27 515.18C1036.33 513.5 1034.02 511.143 1032.34 508.11C1030.71 505.077 1029.89 501.577 1029.89 497.61C1029.89 493.597 1030.71 490.073 1032.34 487.04C1033.98 484.007 1036.26 481.673 1039.2 480.04C1042.14 478.407 1045.53 477.59 1049.35 477.59C1053.04 477.59 1056.33 478.383 1059.22 479.97C1062.16 481.557 1064.43 483.82 1066.01 486.76C1067.65 489.653 1068.46 492.99 1068.46 496.77ZM1058.31 493.97C1058.27 491.45 1057.36 489.443 1055.58 487.95C1053.81 486.41 1051.64 485.64 1049.07 485.64C1046.65 485.64 1044.59 486.387 1042.91 487.88C1041.28 489.327 1040.28 491.357 1039.9 493.97H1058.31ZM529.353 624.232H502.665L498.249 637H484.137L508.233 569.896H523.881L547.977 637H533.769L529.353 624.232ZM525.705 613.48L516.009 585.448L506.313 613.48H525.705ZM570.423 591.496C572.151 589.064 574.519 587.048 577.527 585.448C580.599 583.784 584.087 582.952 587.991 582.952C592.535 582.952 596.631 584.072 600.279 586.312C603.991 588.552 606.903 591.752 609.015 595.912C611.191 600.008 612.279 604.776 612.279 610.216C612.279 615.656 611.191 620.488 609.015 624.712C606.903 628.872 603.991 632.104 600.279 634.408C596.631 636.712 592.535 637.864 587.991 637.864C584.087 637.864 580.631 637.064 577.623 635.464C574.679 633.864 572.279 631.848 570.423 629.416V662.344H556.983V583.816H570.423V591.496ZM598.551 610.216C598.551 607.016 597.879 604.264 596.535 601.96C595.255 599.592 593.527 597.8 591.351 596.584C589.239 595.368 586.935 594.76 584.439 594.76C582.007 594.76 579.703 595.4 577.527 596.68C575.415 597.896 573.687 599.688 572.343 602.056C571.063 604.424 570.423 607.208 570.423 610.408C570.423 613.608 571.063 616.392 572.343 618.76C573.687 621.128 575.415 622.952 577.527 624.232C579.703 625.448 582.007 626.056 584.439 626.056C586.935 626.056 589.239 625.416 591.351 624.136C593.527 622.856 595.255 621.032 596.535 618.664C597.879 616.296 598.551 613.48 598.551 610.216ZM635.486 591.496C637.214 589.064 639.582 587.048 642.59 585.448C645.662 583.784 649.15 582.952 653.054 582.952C657.598 582.952 661.694 584.072 665.342 586.312C669.054 588.552 671.966 591.752 674.078 595.912C676.254 600.008 677.342 604.776 677.342 610.216C677.342 615.656 676.254 620.488 674.078 624.712C671.966 628.872 669.054 632.104 665.342 634.408C661.694 636.712 657.598 637.864 653.054 637.864C649.15 637.864 645.694 637.064 642.686 635.464C639.742 633.864 637.342 631.848 635.486 629.416V662.344H622.046V583.816H635.486V591.496ZM663.614 610.216C663.614 607.016 662.942 604.264 661.598 601.96C660.318 599.592 658.59 597.8 656.414 596.584C654.302 595.368 651.998 594.76 649.502 594.76C647.07 594.76 644.766 595.4 642.59 596.68C640.478 597.896 638.75 599.688 637.406 602.056C636.126 604.424 635.486 607.208 635.486 610.408C635.486 613.608 636.126 616.392 637.406 618.76C638.75 621.128 640.478 622.952 642.59 624.232C644.766 625.448 647.07 626.056 649.502 626.056C651.998 626.056 654.302 625.416 656.414 624.136C658.59 622.856 660.318 621.032 661.598 618.664C662.942 616.296 663.614 613.48 663.614 610.216ZM733.119 637.672C728.447 637.672 724.223 636.872 720.447 635.272C716.735 633.672 713.791 631.368 711.615 628.36C709.439 625.352 708.319 621.8 708.255 617.704H722.655C722.847 620.456 723.807 622.632 725.535 624.232C727.327 625.832 729.759 626.632 732.831 626.632C735.967 626.632 738.431 625.896 740.223 624.424C742.015 622.888 742.911 620.904 742.911 618.472C742.911 616.488 742.303 614.856 741.087 613.576C739.871 612.296 738.335 611.304 736.479 610.6C734.687 609.832 732.191 609 728.991 608.104C724.639 606.824 721.087 605.576 718.335 604.36C715.647 603.08 713.311 601.192 711.327 598.696C709.407 596.136 708.447 592.744 708.447 588.52C708.447 584.552 709.439 581.096 711.423 578.152C713.407 575.208 716.191 572.968 719.775 571.432C723.359 569.832 727.455 569.032 732.063 569.032C738.975 569.032 744.575 570.728 748.863 574.12C753.215 577.448 755.615 582.12 756.063 588.136H741.279C741.151 585.832 740.159 583.944 738.303 582.472C736.511 580.936 734.111 580.168 731.103 580.168C728.479 580.168 726.367 580.84 724.767 582.184C723.231 583.528 722.463 585.48 722.463 588.04C722.463 589.832 723.039 591.336 724.191 592.552C725.407 593.704 726.879 594.664 728.607 595.432C730.399 596.136 732.895 596.968 736.095 597.928C740.447 599.208 743.999 600.488 746.751 601.768C749.503 603.048 751.871 604.968 753.855 607.528C755.839 610.088 756.831 613.448 756.831 617.608C756.831 621.192 755.903 624.52 754.047 627.592C752.191 630.664 749.471 633.128 745.887 634.984C742.303 636.776 738.047 637.672 733.119 637.672ZM784.131 594.856V620.584C784.131 622.376 784.547 623.688 785.379 624.52C786.275 625.288 787.747 625.672 789.795 625.672H796.035V637H787.587C776.259 637 770.595 631.496 770.595 620.488V594.856H764.259V583.816H770.595V570.664H784.131V583.816H796.035V594.856H784.131ZM829.318 637.864C824.198 637.864 819.59 636.744 815.494 634.504C811.398 632.2 808.166 628.968 805.798 624.808C803.494 620.648 802.342 615.848 802.342 610.408C802.342 604.968 803.526 600.168 805.894 596.008C808.326 591.848 811.622 588.648 815.782 586.408C819.942 584.104 824.582 582.952 829.702 582.952C834.822 582.952 839.462 584.104 843.622 586.408C847.782 588.648 851.046 591.848 853.414 596.008C855.846 600.168 857.062 604.968 857.062 610.408C857.062 615.848 855.814 620.648 853.318 624.808C850.886 628.968 847.558 632.2 843.334 634.504C839.174 636.744 834.502 637.864 829.318 637.864ZM829.318 626.152C831.75 626.152 834.022 625.576 836.134 624.424C838.31 623.208 840.038 621.416 841.318 619.048C842.598 616.68 843.238 613.8 843.238 610.408C843.238 605.352 841.894 601.48 839.206 598.792C836.582 596.04 833.35 594.664 829.51 594.664C825.67 594.664 822.438 596.04 819.814 598.792C817.254 601.48 815.974 605.352 815.974 610.408C815.974 615.464 817.222 619.368 819.718 622.12C822.278 624.808 825.478 626.152 829.318 626.152ZM880.361 592.072C882.089 589.256 884.329 587.048 887.081 585.448C889.897 583.848 893.097 583.048 896.681 583.048V597.16H893.129C888.905 597.16 885.705 598.152 883.529 600.136C881.417 602.12 880.361 605.576 880.361 610.504V637H866.921V583.816H880.361V592.072ZM955.173 609.256C955.173 611.176 955.045 612.904 954.789 614.44H915.909C916.229 618.28 917.573 621.288 919.941 623.464C922.309 625.64 925.221 626.728 928.677 626.728C933.669 626.728 937.221 624.584 939.333 620.296H953.829C952.293 625.416 949.349 629.64 944.997 632.968C940.645 636.232 935.301 637.864 928.965 637.864C923.845 637.864 919.237 636.744 915.141 634.504C911.109 632.2 907.941 628.968 905.637 624.808C903.397 620.648 902.277 615.848 902.277 610.408C902.277 604.904 903.397 600.072 905.637 595.912C907.877 591.752 911.013 588.552 915.045 586.312C919.077 584.072 923.717 582.952 928.965 582.952C934.021 582.952 938.533 584.04 942.501 586.216C946.533 588.392 949.637 591.496 951.813 595.528C954.053 599.496 955.173 604.072 955.173 609.256ZM941.253 605.416C941.189 601.96 939.941 599.208 937.509 597.16C935.077 595.048 932.101 593.992 928.581 593.992C925.253 593.992 922.437 595.016 920.133 597.064C917.893 599.048 916.517 601.832 916.005 605.416H941.253Z" fill="#9b9b9b"/>
<defs>
<clipPath id="clip0">
<rect width="222" height="222" fill="white" transform="translate(84 424)"/>
</clipPath>
</defs>
</svg>
