<svg width="183" height="183" viewBox="0 0 183 183" fill="none" xmlns="http://www.w3.org/2000/svg">
<path fill-rule="evenodd" clip-rule="evenodd" d="M147.23 172.614C153.962 172.614 160.419 169.939 165.179 165.179C169.94 160.418 172.614 153.962 172.614 147.229C172.614 140.497 169.94 134.04 165.179 129.28C160.419 124.519 153.962 121.845 147.23 121.845C140.497 121.845 134.041 124.519 129.28 129.28C124.52 134.04 121.845 140.497 121.845 147.229C121.845 153.962 124.52 160.418 129.28 165.179C134.041 169.939 140.497 172.614 147.23 172.614ZM147.23 182.768C156.655 182.768 165.694 179.023 172.359 172.359C179.024 165.694 182.768 156.655 182.768 147.229C182.768 137.804 179.024 128.765 172.359 122.1C165.694 115.435 156.655 111.691 147.23 111.691C137.804 111.691 128.765 115.435 122.1 122.1C115.436 128.765 111.691 137.804 111.691 147.229C111.691 156.655 115.436 165.694 122.1 172.359C128.765 179.023 137.804 182.768 147.23 182.768V182.768Z" fill="#EEEEEE"/>
<path fill-rule="evenodd" clip-rule="evenodd" d="M40.6161 86.3071H30.4624V96.4609H40.6161V86.3071ZM30.4624 76.1533C27.7694 76.1533 25.1868 77.2231 23.2826 79.1273C21.3784 81.0315 20.3086 83.6141 20.3086 86.3071V96.4609C20.3086 99.1538 21.3784 101.736 23.2826 103.641C25.1868 105.545 27.7694 106.615 30.4624 106.615H40.6161C43.3091 106.615 45.8917 105.545 47.7959 103.641C49.7001 101.736 50.7699 99.1538 50.7699 96.4609V86.3071C50.7699 83.6141 49.7001 81.0315 47.7959 79.1273C45.8917 77.2231 43.3091 76.1533 40.6161 76.1533H30.4624Z" fill="#EEEEEE"/>
<path fill-rule="evenodd" clip-rule="evenodd" d="M81.2314 86.3071H71.0776V96.4609H81.2314V86.3071ZM71.0776 76.1533C68.3847 76.1533 65.802 77.2231 63.8978 79.1273C61.9936 81.0315 60.9238 83.6141 60.9238 86.3071V96.4609C60.9238 99.1538 61.9936 101.736 63.8978 103.641C65.802 105.545 68.3847 106.615 71.0776 106.615H81.2314C83.9243 106.615 86.507 105.545 88.4112 103.641C90.3154 101.736 91.3851 99.1538 91.3851 96.4609V86.3071C91.3851 83.6141 90.3154 81.0315 88.4112 79.1273C86.507 77.2231 83.9243 76.1533 81.2314 76.1533H71.0776Z" fill="#EEEEEE"/>
<path fill-rule="evenodd" clip-rule="evenodd" d="M121.845 86.3071H111.691V96.4609H121.845V86.3071ZM111.691 76.1533C108.998 76.1533 106.415 77.2231 104.511 79.1273C102.607 81.0315 101.537 83.6141 101.537 86.3071V96.4609C101.537 99.1538 102.607 101.736 104.511 103.641C106.415 105.545 108.998 106.615 111.691 106.615H121.845C124.538 106.615 127.12 105.545 129.024 103.641C130.929 101.736 131.998 99.1538 131.998 96.4609V86.3071C131.998 83.6141 130.929 81.0315 129.024 79.1273C127.12 77.2231 124.538 76.1533 121.845 76.1533H111.691Z" fill="#EEEEEE"/>
<path fill-rule="evenodd" clip-rule="evenodd" d="M40.6161 126.922H30.4624V137.076H40.6161V126.922ZM30.4624 116.768C27.7694 116.768 25.1868 117.838 23.2826 119.742C21.3784 121.646 20.3086 124.229 20.3086 126.922V137.076C20.3086 139.769 21.3784 142.351 23.2826 144.256C25.1868 146.16 27.7694 147.23 30.4624 147.23H40.6161C43.3091 147.23 45.8917 146.16 47.7959 144.256C49.7001 142.351 50.7699 139.769 50.7699 137.076V126.922C50.7699 124.229 49.7001 121.646 47.7959 119.742C45.8917 117.838 43.3091 116.768 40.6161 116.768H30.4624Z" fill="#EEEEEE"/>
<path fill-rule="evenodd" clip-rule="evenodd" d="M81.2314 126.922H71.0776V137.076H81.2314V126.922ZM71.0776 116.768C68.3847 116.768 65.802 117.838 63.8978 119.742C61.9936 121.646 60.9238 124.229 60.9238 126.922V137.076C60.9238 139.769 61.9936 142.351 63.8978 144.256C65.802 146.16 68.3847 147.23 71.0776 147.23H81.2314C83.9243 147.23 86.507 146.16 88.4112 144.256C90.3154 142.351 91.3851 139.769 91.3851 137.076V126.922C91.3851 124.229 90.3154 121.646 88.4112 119.742C86.507 117.838 83.9243 116.768 81.2314 116.768H71.0776Z" fill="#EEEEEE"/>
<path fill-rule="evenodd" clip-rule="evenodd" d="M10.1538 30.4611C10.1538 29.1147 10.6887 27.8233 11.6408 26.8712C12.5929 25.9191 13.8842 25.3842 15.2307 25.3842H40.6151V15.2305H15.2307C11.1912 15.2305 7.31726 16.8351 4.46096 19.6914C1.60465 22.5477 0 26.4217 0 30.4611V152.306C0 156.346 1.60465 160.22 4.46096 163.076C7.31726 165.932 11.1912 167.537 15.2307 167.537H118.063C115.898 164.436 114.244 161.008 113.164 157.383H15.2307C13.8842 157.383 12.5929 156.848 11.6408 155.896C10.6887 154.944 10.1538 153.653 10.1538 152.306V30.4611ZM142.153 112.047C145.52 111.565 148.939 111.565 152.307 112.047V30.4611C152.307 26.4217 150.702 22.5477 147.846 19.6914C144.989 16.8351 141.115 15.2305 137.076 15.2305H121.845V25.3842H137.076C138.422 25.3842 139.714 25.9191 140.666 26.8712C141.618 27.8233 142.153 29.1147 142.153 30.4611V112.047ZM50.7689 25.3842H104.396V15.2305H50.7689V25.3842Z" fill="#EEEEEE"/>
<path fill-rule="evenodd" clip-rule="evenodd" d="M111.691 15.2305H50.7681V30.4611C50.7681 31.8076 50.2333 33.0989 49.2812 34.051C48.3291 35.0031 47.0377 35.538 45.6913 35.538C44.3448 35.538 43.0535 35.0031 42.1014 34.051C41.1493 33.0989 40.6144 31.8076 40.6144 30.4611V15.2305H15.2299C12.537 15.2305 9.95434 16.3002 8.05014 18.2044C6.14594 20.1086 5.07617 22.6913 5.07617 25.3842V50.7687C5.07617 53.4616 6.14594 56.0443 8.05014 57.9485C9.95434 59.8527 12.537 60.9224 15.2299 60.9224H137.075C139.768 60.9224 142.351 59.8527 144.255 57.9485C146.159 56.0443 147.229 53.4616 147.229 50.7687V25.3842C147.229 22.6913 146.159 20.1086 144.255 18.2044C142.351 16.3002 139.768 15.2305 137.075 15.2305H121.845V30.4611C121.845 31.8076 121.31 33.0989 120.358 34.051C119.405 35.0031 118.114 35.538 116.768 35.538C115.421 35.538 114.13 35.0031 113.178 34.051C112.226 33.0989 111.691 31.8076 111.691 30.4611V15.2305Z" fill="#EEEEEE"/>
<path fill-rule="evenodd" clip-rule="evenodd" d="M152.307 60.9226H10.1543V50.7688H152.307V60.9226Z" fill="#EEEEEE"/>
<path d="M30.4609 5.07689C30.4609 3.73041 30.9958 2.43909 31.9479 1.48699C32.9 0.534886 34.1913 0 35.5378 0C36.8843 0 38.1756 0.534886 39.1277 1.48699C40.0798 2.43909 40.6147 3.73041 40.6147 5.07689V25.3844C40.6147 26.7309 40.0798 28.0222 39.1277 28.9743C38.1756 29.9264 36.8843 30.4613 35.5378 30.4613C34.1913 30.4613 32.9 29.9264 31.9479 28.9743C30.9958 28.0222 30.4609 26.7309 30.4609 25.3844V5.07689Z" fill="#EEEEEE"/>
<path d="M101.537 5.07689C101.537 3.73041 102.072 2.43909 103.024 1.48699C103.976 0.534886 105.268 0 106.614 0C107.96 0 109.252 0.534886 110.204 1.48699C111.156 2.43909 111.691 3.73041 111.691 5.07689V25.3844C111.691 26.7309 111.156 28.0222 110.204 28.9743C109.252 29.9264 107.96 30.4613 106.614 30.4613C105.268 30.4613 103.976 29.9264 103.024 28.9743C102.072 28.0222 101.537 26.7309 101.537 25.3844V5.07689Z" fill="#EEEEEE"/>
<path d="M159.035 133.65C158.539 133.374 157.993 133.198 157.429 133.133C156.865 133.068 156.294 133.115 155.748 133.271C155.202 133.427 154.692 133.689 154.247 134.042C153.802 134.396 153.432 134.833 153.156 135.33L145.131 149.772L140.538 145.179C140.139 144.766 139.662 144.437 139.135 144.211C138.607 143.984 138.04 143.865 137.466 143.86C136.892 143.855 136.323 143.964 135.791 144.181C135.26 144.399 134.778 144.72 134.372 145.126C133.966 145.532 133.645 146.014 133.427 146.546C133.21 147.077 133.101 147.646 133.106 148.22C133.111 148.794 133.23 149.361 133.456 149.889C133.683 150.416 134.012 150.893 134.425 151.292L143.071 159.938C143.888 160.757 144.99 161.206 146.127 161.206L146.726 161.163C147.389 161.071 148.021 160.825 148.572 160.447C149.124 160.068 149.58 159.567 149.905 158.982L160.713 139.529C160.989 139.033 161.164 138.487 161.229 137.923C161.294 137.36 161.247 136.788 161.092 136.242C160.936 135.696 160.674 135.186 160.321 134.742C159.969 134.297 159.532 133.926 159.035 133.65V133.65Z" fill="#EEEEEE"/>
</svg>
