<svg width="149" height="120" viewBox="0 0 149 120" fill="none" xmlns="http://www.w3.org/2000/svg">
<path d="M134.1 119.2H14.9C10.9483 119.2 7.1584 117.63 4.36411 114.836C1.56982 112.042 0 108.252 0 104.3V14.2519C0.167123 10.4135 1.81042 6.78813 4.5868 4.13252C7.36319 1.47691 11.0581 -0.00362993 14.9 6.68355e-06H134.1C138.052 6.68355e-06 141.842 1.56982 144.636 4.36412C147.43 7.15841 149 10.9483 149 14.9V104.3C149 108.252 147.43 112.042 144.636 114.836C141.842 117.63 138.052 119.2 134.1 119.2ZM14.9 28.8166V104.3H134.1V28.8166L74.5 68.54L14.9 28.8166ZM20.86 14.9L74.5 50.66L128.14 14.9H20.86Z" fill="#eee"/>
</svg>
