<svg width="303" height="303" viewBox="0 0 303 303" fill="none" xmlns="http://www.w3.org/2000/svg">
<rect x="9" y="9" width="285" height="285" rx="61" stroke="white" stroke-width="18"/>
<path d="M218 79.0409C218 77.4575 217.373 75.9389 216.256 74.8193C215.139 73.6996 213.625 73.0706 212.045 73.0706H182.273C167.281 72.3218 152.602 77.553 141.445 87.6211C130.288 97.6892 123.558 111.776 122.727 126.803V159.042H92.9545C91.3753 159.042 89.8607 159.671 88.744 160.791C87.6274 161.911 87 163.429 87 165.013V196.058C87 197.641 87.6274 199.16 88.744 200.28C89.8607 201.399 91.3753 202.028 92.9545 202.028H122.727V282.03C122.727 283.613 123.355 285.132 124.471 286.251C125.588 287.371 127.103 288 128.682 288H164.409C165.988 288 167.503 287.371 168.62 286.251C169.736 285.132 170.364 283.613 170.364 282.03V202.028H201.565C202.89 202.047 204.182 201.623 205.239 200.823C206.296 200.023 207.057 198.892 207.401 197.61L215.975 166.565C216.212 165.683 216.244 164.758 216.069 163.861C215.893 162.965 215.514 162.121 214.962 161.394C214.41 160.668 213.699 160.078 212.883 159.67C212.068 159.262 211.17 159.047 210.259 159.042H170.364V126.803C170.66 123.847 172.044 121.109 174.246 119.122C176.448 117.134 179.31 116.042 182.273 116.056H212.045C213.625 116.056 215.139 115.427 216.256 114.308C217.373 113.188 218 111.67 218 110.086V79.0409Z" fill="#eee"/>
</svg>
