<svg xmlns="http://www.w3.org/2000/svg" viewBox="0 0 1734.15 520.61"><defs><style>.cls-1,.cls-2,.cls-5,.cls-6{fill:#fff;stroke:#fff;stroke-miterlimit:10;}.cls-2,.cls-5{font-size:400.74px;}.cls-2,.cls-5,.cls-6{font-family: 'Poppins', sans-serif;}.cls-2{letter-spacing:0.02em;}.cls-3{letter-spacing:0.03em;}.cls-4{letter-spacing:0.03em;}.cls-6{font-size:83.13px;}.cls-7{letter-spacing:0em;}.cls-8{letter-spacing:0.03em;}</style></defs><g id="Layer_3" data-name="Layer 3"><path class="cls-1" d="M1144.78,254.51H973.56L874.07,376.76l16.15,17.91,94.2-113.74,105.17.33-307,374.53,32.48-.23Z" transform="translate(-35.93 -252.99)"/><path class="cls-1" d="M673.18,253.49H844.4l99.49,122.24-16.15,17.91L833.54,279.9l-105.17.33,307.05,374.53-32.48-.22Z" transform="translate(-35.93 -252.99)"/><path class="cls-1" d="M1147.86,705.44H976.64L877.14,583.2l16.16-17.91L987.5,679l105.17-.33L785.62,304.17l32.47.22Q983,504.91,1147.86,705.44Z" transform="translate(-35.93 -252.99)"/><path class="cls-1" d="M1146.36,704.11H975.15Q925.4,643,875.65,581.87L891.81,564Q938.9,620.83,986,677.69l105.17-.33L784.12,302.83l32.48.23Z" transform="translate(-35.93 -252.99)"/><path class="cls-1" d="M672.43,704.77H843.65q49.76-61.11,99.5-122.24L927,564.62l-94.2,113.74L727.62,678,1034.67,303.5l-32.47.22Q837.32,504.26,672.43,704.77Z" transform="translate(-35.93 -252.99)"/><path class="cls-1" d="M673.92,703.44H845.14l99.5-122.24-16.16-17.91L834.29,677l-105.17-.33,307.05-374.53-32.48.22Q838.81,502.91,673.92,703.44Z" transform="translate(-35.93 -252.99)"/><text class="cls-2" transform="translate(0.5 376.38) scale(0.92 1)">G<tspan class="cls-3" x="268.9" y="0">R</tspan><tspan class="cls-4" x="496.51" y="0">A</tspan></text><text class="cls-5" transform="translate(1253.9 376.38) scale(0.92 1)">GN</text><path class="cls-1" d="M1118.37,601.43h61.1V387.92h-61.1V358.43h153.69v29.49H1211V601.43h61.1v29.49H1118.37Z" transform="translate(-35.93 -252.99)"/><text class="cls-6" transform="translate(1182.58 499.32)">P<tspan class="cls-7" x="44.22" y="0">R</tspan><tspan x="89.2" y="0">ODU</tspan><tspan class="cls-8" x="255.62" y="0">C</tspan><tspan x="306.16" y="0">TIONS</tspan></text></g></svg>