<svg width="106" height="133" viewBox="0 0 106 133" fill="none" xmlns="http://www.w3.org/2000/svg">
<path d="M53 0C38.9486 0.0163422 25.4775 5.52649 15.5417 15.3217C5.60586 25.117 0.0166332 38.3975 5.63866e-05 52.25C-0.016773 63.5703 3.73405 74.5835 10.6771 83.6C10.6771 83.6 12.1226 85.4763 12.3587 85.747L53 133L93.6606 85.7233C93.8726 85.4715 95.3229 83.6 95.3229 83.6L95.3277 83.5858C102.267 74.5732 106.016 63.5651 106 52.25C105.983 38.3975 100.394 25.117 90.4583 15.3217C80.5225 5.52649 67.0514 0.0163422 53 0V0ZM53 71.25C49.1882 71.25 45.462 70.1357 42.2927 68.0479C39.1233 65.9602 36.653 62.9928 35.1943 59.521C33.7356 56.0492 33.354 52.2289 34.0976 48.5433C34.8413 44.8576 36.6768 41.4722 39.3721 38.815C42.0675 36.1578 45.5015 34.3482 49.2401 33.6151C52.9786 32.882 56.8537 33.2582 60.3753 34.6963C63.897 36.1344 66.907 38.5696 69.0247 41.6942C71.1424 44.8187 72.2727 48.4922 72.2727 52.25C72.2663 57.2872 70.2338 62.1163 66.6208 65.6781C63.0079 69.2399 58.1095 71.2437 53 71.25V71.25Z" fill="#eee"/>
</svg>
