<svg width="183" height="183" viewBox="0 0 183 183" fill="none" xmlns="http://www.w3.org/2000/svg">
<path d="M174.768 91.3839C174.768 137.436 137.436 174.768 91.3839 174.768C45.3322 174.768 8 137.436 8 91.3839C8 45.3322 45.3322 8 91.3839 8C137.436 8 174.768 45.3322 174.768 91.3839Z" stroke="#EEEEEE" stroke-width="16" stroke-linecap="round" stroke-linejoin="round"/>
<path d="M90.4188 150.791L62.0688 101.291V94.6913H65.3688C73.3688 94.6913 79.4688 93.5413 83.6688 91.2413C87.9688 88.9413 90.4688 84.7913 91.1688 78.7913H62.0688V69.1913H91.0188C90.0188 63.5913 87.3688 59.5413 83.0688 57.0413C78.8688 54.5413 72.9688 53.2913 65.3688 53.2913H62.0688V43.6913H124.169V53.2913H95.8188C100.619 57.1913 103.469 62.4913 104.369 69.1913H124.169V78.7913H104.669C103.969 86.0913 101.169 91.7913 96.2688 95.8913C91.4688 99.8913 85.0688 102.441 77.0688 103.541L105.719 150.791H90.4188Z" fill="#EEEEEE"/>
</svg>
