<svg width="128" height="125" viewBox="0 0 128 125" fill="none" xmlns="http://www.w3.org/2000/svg">
<path d="M85.3388 88.8367L96.3608 78.0686C97.8454 76.6363 99.7236 75.6558 101.768 75.2462C103.811 74.8366 105.933 75.0155 107.875 75.7612L121.308 81.001C123.27 81.7792 124.953 83.1074 126.144 84.8184C127.335 86.5293 127.981 88.5464 128 90.6153V114.651C127.989 116.059 127.686 117.449 127.11 118.739C126.534 120.029 125.696 121.192 124.648 122.158C123.6 123.123 122.363 123.872 121.011 124.358C119.659 124.844 118.22 125.058 116.781 124.987C22.6509 119.266 3.65754 41.3899 0.0655294 11.5855C-0.101214 10.1219 0.051135 8.64035 0.512553 7.2384C0.973971 5.83644 1.734 4.54582 2.74264 3.45144C3.75128 2.35705 4.98568 1.48371 6.36462 0.888868C7.74355 0.294024 9.23579 -0.00884115 10.7431 0.000196464H34.5094C36.6302 0.00632938 38.7007 0.632182 40.4544 1.79726C42.2082 2.96233 43.5651 4.61335 44.3505 6.53795L49.7139 19.6615C50.5025 21.5511 50.7037 23.6257 50.2924 25.6263C49.881 27.6269 48.8755 29.4648 47.4013 30.9103L36.3792 41.6783C36.3792 41.6783 42.7268 83.6449 85.3388 88.8367Z" fill="#eee"/>
</svg>
