<svg width="206" height="183" viewBox="0 0 206 183" fill="none" xmlns="http://www.w3.org/2000/svg">
<path d="M203.942 68.099H144.167C143.14 68.099 142.3 68.9374 142.3 69.9622V81.1417C142.3 82.1665 143.14 83.0049 144.167 83.0049H203.942C204.969 83.0049 205.81 82.1665 205.81 81.1417V69.9622C205.81 68.9374 204.969 68.099 203.942 68.099ZM172.654 99.7741H144.167C143.14 99.7741 142.3 100.613 142.3 101.637V112.817C142.3 113.842 143.14 114.68 144.167 114.68H172.654C173.681 114.68 174.522 113.842 174.522 112.817V101.637C174.522 100.613 173.681 99.7741 172.654 99.7741ZM94.7371 47.2539H84.6268C83.1792 47.2539 82.0117 48.4184 82.0117 49.8625V107.623C82.0117 108.462 82.4087 109.23 83.0858 109.719L117.853 135.013C119.02 135.851 120.655 135.618 121.495 134.454L127.496 126.279V126.255C128.337 125.091 128.08 123.461 126.912 122.622L97.3288 101.288V49.8625C97.3522 48.4184 96.1614 47.2539 94.7371 47.2539V47.2539Z" fill="#EEEEEE"/>
<path d="M171.243 129.218H157.736C156.427 129.218 155.189 129.896 154.488 131.018C151.52 135.716 148.061 140.064 144.089 144.037C137.242 150.886 129.273 156.262 120.417 160.002C111.233 163.882 101.489 165.845 91.4402 165.845C81.3685 165.845 71.6239 163.882 62.4635 160.002C53.607 156.262 45.6384 150.886 38.7915 144.037C31.9446 137.189 26.5699 129.218 22.831 120.359C18.9518 111.197 16.9889 101.45 16.9889 91.3758C16.9889 81.3016 18.9518 71.5781 22.831 62.3921C26.5699 53.5334 31.9446 45.5629 38.7915 38.7144C45.6384 31.8658 53.607 26.4898 62.4635 22.75C71.6239 18.8699 81.3918 16.9065 91.4402 16.9065C101.512 16.9065 111.256 18.8699 120.417 22.75C129.273 26.4898 137.242 31.8658 144.089 38.7144C148.061 42.6879 151.52 47.0355 154.488 51.7336C155.189 52.8556 156.427 53.5334 157.736 53.5334H171.243C172.855 53.5334 173.883 51.8505 173.159 50.4247C157.923 20.1087 127.03 0.404486 92.5385 0.00712966C42.0397 -0.623966 0.0936327 40.7245 0.000159648 91.1888C-0.0933134 141.747 40.8713 182.768 91.4168 182.768C126.352 182.768 157.759 162.994 173.159 132.327C173.883 130.901 172.832 129.218 171.243 129.218V129.218Z" fill="#EEEEEE"/>
</svg>
