<svg width="302" height="303" viewBox="0 0 302 303" fill="none" xmlns="http://www.w3.org/2000/svg">
<path d="M257.568 44.0494C243.677 30.0296 227.134 18.9146 208.905 11.3521C190.675 3.78967 171.122 -0.0690132 151.386 0.000934194C68.6861 0.000934194 1.28775 67.3803 1.212 150.099C1.212 176.593 8.1431 202.366 21.2289 225.186L0 303L79.613 282.131C101.637 294.117 126.311 300.399 151.386 300.406H151.462C234.18 300.406 301.56 233.026 301.636 150.232C301.654 130.5 297.769 110.959 290.202 92.7353C282.636 74.5116 271.539 57.9652 257.549 44.0494H257.568ZM151.386 274.992C129.021 274.999 107.067 268.981 87.8319 257.569L83.2869 254.842L36.0569 267.227L48.6692 221.152L45.715 216.399C33.2126 196.521 26.6004 173.506 26.645 150.023C26.645 81.3562 82.643 25.3392 151.462 25.3392C167.857 25.3098 184.095 28.5259 199.241 34.8021C214.387 41.0783 228.141 50.2904 239.71 61.9074C251.319 73.4791 260.523 87.2348 266.789 102.381C273.056 117.527 276.262 133.765 276.222 150.156C276.146 219.069 220.148 274.992 151.386 274.992V274.992ZM219.845 181.554C216.114 179.679 197.688 170.608 194.222 169.321C190.776 168.09 188.257 167.446 185.795 171.195C183.277 174.926 176.08 183.429 173.921 185.872C171.763 188.391 169.528 188.675 165.778 186.819C162.048 184.925 149.947 180.986 135.63 168.165C124.457 158.223 116.977 145.914 114.742 142.183C112.583 138.434 114.534 136.426 116.408 134.551C118.056 132.885 120.139 130.158 122.014 127.999C123.908 125.84 124.533 124.249 125.764 121.75C126.994 119.212 126.407 117.053 125.479 115.178C124.533 113.304 117.052 94.8018 113.89 87.3404C110.86 79.9737 107.773 80.9964 105.463 80.9017C103.304 80.7691 100.785 80.7691 98.2664 80.7691C96.3644 80.8164 94.4927 81.2563 92.7687 82.0612C91.0448 82.8662 89.5058 84.0188 88.2485 85.4467C84.8019 89.1963 75.1627 98.2673 75.1627 116.769C75.1627 135.271 88.6083 153.053 90.502 155.572C92.3579 158.091 116.901 195.947 154.567 212.233C163.468 216.115 170.475 218.406 175.948 220.149C184.943 223.027 193.067 222.592 199.544 221.664C206.74 220.565 221.72 212.574 224.882 203.806C227.988 195.019 227.988 187.519 227.041 185.948C226.113 184.357 223.594 183.429 219.845 181.554V181.554Z" fill="#eee"/>
</svg>
